<svg width="888" height="281" viewBox="0 0 888 281" fill="none" xmlns="http://www.w3.org/2000/svg">
    <g clip-path="url(#clip0_311_34463)">
        <path d="M129.538 1.67393C129.709 1.26328 130.291 1.26328 130.462 1.67393L132.528 6.64141C132.6 6.81453 132.763 6.93281 132.949 6.94779L138.312 7.37773C138.756 7.41327 138.935 7.96652 138.598 8.25586L134.512 11.7559C134.369 11.8778 134.307 12.0692 134.351 12.2516L135.599 17.4848C135.702 17.9174 135.231 18.2593 134.852 18.0275L130.261 15.2232C130.101 15.1254 129.899 15.1254 129.739 15.2232L125.148 18.0275C124.769 18.2593 124.298 17.9174 124.401 17.4848L125.649 12.2516C125.693 12.0692 125.631 11.8778 125.488 11.7559L121.402 8.25586C121.065 7.96652 121.244 7.41327 121.688 7.37773L127.051 6.94779C127.237 6.93281 127.4 6.81453 127.472 6.64141L129.538 1.67393Z" fill="#F2F4F7"/>
        <g clip-path="url(#clip1_311_34463)">
            <path d="M129.538 1.67393C129.709 1.26328 130.291 1.26328 130.462 1.67393L132.528 6.64141C132.6 6.81453 132.763 6.93281 132.949 6.94779L138.312 7.37773C138.756 7.41327 138.935 7.96652 138.598 8.25586L134.512 11.7559C134.369 11.8778 134.307 12.0692 134.351 12.2516L135.599 17.4848C135.702 17.9174 135.231 18.2593 134.852 18.0275L130.261 15.2232C130.101 15.1254 129.899 15.1254 129.739 15.2232L125.148 18.0275C124.769 18.2593 124.298 17.9174 124.401 17.4848L125.649 12.2516C125.693 12.0692 125.631 11.8778 125.488 11.7559L121.402 8.25586C121.065 7.96652 121.244 7.41327 121.688 7.37773L127.051 6.94779C127.237 6.93281 127.4 6.81453 127.472 6.64141L129.538 1.67393Z" fill="#FEC84B"/>
        </g>
    </g>
    <g clip-path="url(#clip2_311_34463)">
        <path d="M153.538 1.67393C153.709 1.26328 154.291 1.26328 154.462 1.67393L156.528 6.64141C156.6 6.81453 156.763 6.93281 156.949 6.94779L162.312 7.37773C162.756 7.41327 162.935 7.96652 162.598 8.25586L158.512 11.7559C158.369 11.8778 158.307 12.0692 158.351 12.2516L159.599 17.4848C159.702 17.9174 159.231 18.2593 158.852 18.0275L154.261 15.2232C154.101 15.1254 153.899 15.1254 153.739 15.2232L149.148 18.0275C148.769 18.2593 148.298 17.9174 148.401 17.4848L149.649 12.2516C149.693 12.0692 149.631 11.8778 149.488 11.7559L145.402 8.25586C145.065 7.96652 145.244 7.41327 145.688 7.37773L151.051 6.94779C151.237 6.93281 151.4 6.81453 151.472 6.64141L153.538 1.67393Z" fill="#F2F4F7"/>
        <g clip-path="url(#clip3_311_34463)">
            <path d="M153.538 1.67393C153.709 1.26328 154.291 1.26328 154.462 1.67393L156.528 6.64141C156.6 6.81453 156.763 6.93281 156.949 6.94779L162.312 7.37773C162.756 7.41327 162.935 7.96652 162.598 8.25586L158.512 11.7559C158.369 11.8778 158.307 12.0692 158.351 12.2516L159.599 17.4848C159.702 17.9174 159.231 18.2593 158.852 18.0275L154.261 15.2232C154.101 15.1254 153.899 15.1254 153.739 15.2232L149.148 18.0275C148.769 18.2593 148.298 17.9174 148.401 17.4848L149.649 12.2516C149.693 12.0692 149.631 11.8778 149.488 11.7559L145.402 8.25586C145.065 7.96652 145.244 7.41327 145.688 7.37773L151.051 6.94779C151.237 6.93281 151.4 6.81453 151.472 6.64141L153.538 1.67393Z" fill="#FEC84B"/>
        </g>
    </g>
    <g clip-path="url(#clip4_311_34463)">
        <path d="M177.538 1.67393C177.709 1.26328 178.291 1.26328 178.462 1.67393L180.528 6.64141C180.6 6.81453 180.763 6.93281 180.949 6.94779L186.312 7.37773C186.756 7.41327 186.935 7.96652 186.598 8.25586L182.512 11.7559C182.369 11.8778 182.307 12.0692 182.351 12.2516L183.599 17.4848C183.702 17.9174 183.231 18.2593 182.852 18.0275L178.261 15.2232C178.101 15.1254 177.899 15.1254 177.739 15.2232L173.148 18.0275C172.769 18.2593 172.298 17.9174 172.401 17.4848L173.649 12.2516C173.693 12.0692 173.631 11.8778 173.488 11.7559L169.402 8.25586C169.065 7.96652 169.244 7.41327 169.688 7.37773L175.051 6.94779C175.237 6.93281 175.4 6.81453 175.472 6.64141L177.538 1.67393Z" fill="#F2F4F7"/>
        <g clip-path="url(#clip5_311_34463)">
            <path d="M177.538 1.67393C177.709 1.26328 178.291 1.26328 178.462 1.67393L180.528 6.64141C180.6 6.81453 180.763 6.93281 180.949 6.94779L186.312 7.37773C186.756 7.41327 186.935 7.96652 186.598 8.25586L182.512 11.7559C182.369 11.8778 182.307 12.0692 182.351 12.2516L183.599 17.4848C183.702 17.9174 183.231 18.2593 182.852 18.0275L178.261 15.2232C178.101 15.1254 177.899 15.1254 177.739 15.2232L173.148 18.0275C172.769 18.2593 172.298 17.9174 172.401 17.4848L173.649 12.2516C173.693 12.0692 173.631 11.8778 173.488 11.7559L169.402 8.25586C169.065 7.96652 169.244 7.41327 169.688 7.37773L175.051 6.94779C175.237 6.93281 175.4 6.81453 175.472 6.64141L177.538 1.67393Z" fill="#FEC84B"/>
        </g>
    </g>
    <g clip-path="url(#clip6_311_34463)">
        <path d="M201.538 1.67393C201.709 1.26328 202.291 1.26328 202.462 1.67393L204.528 6.64141C204.6 6.81453 204.763 6.93281 204.949 6.94779L210.312 7.37773C210.756 7.41327 210.935 7.96652 210.598 8.25586L206.512 11.7559C206.369 11.8778 206.307 12.0692 206.351 12.2516L207.599 17.4848C207.702 17.9174 207.231 18.2593 206.852 18.0275L202.261 15.2232C202.101 15.1254 201.899 15.1254 201.739 15.2232L197.148 18.0275C196.769 18.2593 196.298 17.9174 196.401 17.4848L197.649 12.2516C197.693 12.0692 197.631 11.8778 197.488 11.7559L193.402 8.25586C193.065 7.96652 193.244 7.41327 193.688 7.37773L199.051 6.94779C199.237 6.93281 199.4 6.81453 199.472 6.64141L201.538 1.67393Z" fill="#F2F4F7"/>
        <g clip-path="url(#clip7_311_34463)">
            <path d="M201.538 1.67393C201.709 1.26328 202.291 1.26328 202.462 1.67393L204.528 6.64141C204.6 6.81453 204.763 6.93281 204.949 6.94779L210.312 7.37773C210.756 7.41327 210.935 7.96652 210.598 8.25586L206.512 11.7559C206.369 11.8778 206.307 12.0692 206.351 12.2516L207.599 17.4848C207.702 17.9174 207.231 18.2593 206.852 18.0275L202.261 15.2232C202.101 15.1254 201.899 15.1254 201.739 15.2232L197.148 18.0275C196.769 18.2593 196.298 17.9174 196.401 17.4848L197.649 12.2516C197.693 12.0692 197.631 11.8778 197.488 11.7559L193.402 8.25586C193.065 7.96652 193.244 7.41327 193.688 7.37773L199.051 6.94779C199.237 6.93281 199.4 6.81453 199.472 6.64141L201.538 1.67393Z" fill="#FEC84B"/>
        </g>
    </g>
    <g clip-path="url(#clip8_311_34463)">
        <path d="M225.538 1.67393C225.709 1.26328 226.291 1.26328 226.462 1.67393L228.528 6.64141C228.6 6.81453 228.763 6.93281 228.949 6.94779L234.312 7.37773C234.756 7.41327 234.935 7.96652 234.598 8.25586L230.512 11.7559C230.369 11.8778 230.307 12.0692 230.351 12.2516L231.599 17.4848C231.702 17.9174 231.231 18.2593 230.852 18.0275L226.261 15.2232C226.101 15.1254 225.899 15.1254 225.739 15.2232L221.148 18.0275C220.769 18.2593 220.298 17.9174 220.401 17.4848L221.649 12.2516C221.693 12.0692 221.631 11.8778 221.488 11.7559L217.402 8.25586C217.065 7.96652 217.244 7.41327 217.688 7.37773L223.051 6.94779C223.237 6.93281 223.4 6.81453 223.472 6.64141L225.538 1.67393Z" fill="#F2F4F7"/>
        <g clip-path="url(#clip9_311_34463)">
            <path d="M225.538 1.67393C225.709 1.26328 226.291 1.26328 226.462 1.67393L228.528 6.64141C228.6 6.81453 228.763 6.93281 228.949 6.94779L234.312 7.37773C234.756 7.41327 234.935 7.96652 234.598 8.25586L230.512 11.7559C230.369 11.8778 230.307 12.0692 230.351 12.2516L231.599 17.4848C231.702 17.9174 231.231 18.2593 230.852 18.0275L226.261 15.2232C226.101 15.1254 225.899 15.1254 225.739 15.2232L221.148 18.0275C220.769 18.2593 220.298 17.9174 220.401 17.4848L221.649 12.2516C221.693 12.0692 221.631 11.8778 221.488 11.7559L217.402 8.25586C217.065 7.96652 217.244 7.41327 217.688 7.37773L223.051 6.94779C223.237 6.93281 223.4 6.81453 223.472 6.64141L225.538 1.67393Z" fill="#FEC84B"/>
        </g>
    </g>
    <path d="M137.784 73.952H127.308L125.508 79.064H121.224L130.188 54.008H134.94L143.904 79.064H139.584L137.784 73.952ZM136.632 70.604L132.564 58.976L128.46 70.604H136.632ZM154.282 79.388C152.722 79.388 151.318 79.112 150.07 78.56C148.846 77.984 147.874 77.216 147.154 76.256C146.434 75.272 146.05 74.18 146.002 72.98H150.25C150.322 73.82 150.718 74.528 151.438 75.104C152.182 75.656 153.106 75.932 154.21 75.932C155.362 75.932 156.25 75.716 156.874 75.284C157.522 74.828 157.846 74.252 157.846 73.556C157.846 72.812 157.486 72.26 156.766 71.9C156.07 71.54 154.954 71.144 153.418 70.712C151.93 70.304 150.718 69.908 149.782 69.524C148.846 69.14 148.03 68.552 147.334 67.76C146.662 66.968 146.326 65.924 146.326 64.628C146.326 63.572 146.638 62.612 147.262 61.748C147.886 60.86 148.774 60.164 149.926 59.66C151.102 59.156 152.446 58.904 153.958 58.904C156.214 58.904 158.026 59.48 159.394 60.632C160.786 61.76 161.53 63.308 161.626 65.276H157.522C157.45 64.388 157.09 63.68 156.442 63.152C155.794 62.624 154.918 62.36 153.814 62.36C152.734 62.36 151.906 62.564 151.33 62.972C150.754 63.38 150.466 63.92 150.466 64.592C150.466 65.12 150.658 65.564 151.042 65.924C151.426 66.284 151.894 66.572 152.446 66.788C152.998 66.98 153.814 67.232 154.894 67.544C156.334 67.928 157.51 68.324 158.422 68.732C159.358 69.116 160.162 69.692 160.834 70.46C161.506 71.228 161.854 72.248 161.878 73.52C161.878 74.648 161.566 75.656 160.942 76.544C160.318 77.432 159.43 78.128 158.278 78.632C157.15 79.136 155.818 79.388 154.282 79.388ZM172.856 69.056C172.856 67.064 173.264 65.3 174.08 63.764C174.92 62.228 176.048 61.04 177.464 60.2C178.904 59.336 180.488 58.904 182.216 58.904C183.776 58.904 185.132 59.216 186.284 59.84C187.46 60.44 188.396 61.196 189.092 62.108V59.228H193.232V79.064H189.092V76.112C188.396 77.048 187.448 77.828 186.248 78.452C185.048 79.076 183.68 79.388 182.144 79.388C180.44 79.388 178.88 78.956 177.464 78.092C176.048 77.204 174.92 75.98 174.08 74.42C173.264 72.836 172.856 71.048 172.856 69.056ZM189.092 69.128C189.092 67.76 188.804 66.572 188.228 65.564C187.676 64.556 186.944 63.788 186.032 63.26C185.12 62.732 184.136 62.468 183.08 62.468C182.024 62.468 181.04 62.732 180.128 63.26C179.216 63.764 178.472 64.52 177.896 65.528C177.344 66.512 177.068 67.688 177.068 69.056C177.068 70.424 177.344 71.624 177.896 72.656C178.472 73.688 179.216 74.48 180.128 75.032C181.064 75.56 182.048 75.824 183.08 75.824C184.136 75.824 185.12 75.56 186.032 75.032C186.944 74.504 187.676 73.736 188.228 72.728C188.804 71.696 189.092 70.496 189.092 69.128ZM214.85 62.576H211.178V79.064H207.038V62.576H204.698V59.228H207.038V57.824C207.038 55.544 207.638 53.888 208.838 52.856C210.062 51.8 211.97 51.272 214.562 51.272V54.692C213.314 54.692 212.438 54.932 211.934 55.412C211.43 55.868 211.178 56.672 211.178 57.824V59.228H214.85V62.576ZM219.855 56.6C219.111 56.6 218.487 56.348 217.983 55.844C217.479 55.34 217.227 54.716 217.227 53.972C217.227 53.228 217.479 52.604 217.983 52.1C218.487 51.596 219.111 51.344 219.855 51.344C220.575 51.344 221.187 51.596 221.691 52.1C222.195 52.604 222.447 53.228 222.447 53.972C222.447 54.716 222.195 55.34 221.691 55.844C221.187 56.348 220.575 56.6 219.855 56.6ZM221.871 59.228V79.064H217.767V59.228H221.871ZM230.643 62.108C231.243 61.1 232.035 60.32 233.019 59.768C234.027 59.192 235.215 58.904 236.583 58.904V63.152H235.539C233.931 63.152 232.707 63.56 231.867 64.376C231.051 65.192 230.643 66.608 230.643 68.624V79.064H226.539V59.228H230.643V62.108ZM246.835 79.388C245.275 79.388 243.871 79.112 242.623 78.56C241.399 77.984 240.427 77.216 239.707 76.256C238.987 75.272 238.603 74.18 238.555 72.98H242.803C242.875 73.82 243.271 74.528 243.991 75.104C244.735 75.656 245.659 75.932 246.763 75.932C247.915 75.932 248.803 75.716 249.427 75.284C250.075 74.828 250.399 74.252 250.399 73.556C250.399 72.812 250.039 72.26 249.319 71.9C248.623 71.54 247.507 71.144 245.971 70.712C244.483 70.304 243.271 69.908 242.335 69.524C241.399 69.14 240.583 68.552 239.887 67.76C239.215 66.968 238.879 65.924 238.879 64.628C238.879 63.572 239.191 62.612 239.815 61.748C240.439 60.86 241.327 60.164 242.479 59.66C243.655 59.156 244.999 58.904 246.511 58.904C248.767 58.904 250.579 59.48 251.947 60.632C253.339 61.76 254.083 63.308 254.179 65.276H250.075C250.003 64.388 249.643 63.68 248.995 63.152C248.347 62.624 247.471 62.36 246.367 62.36C245.287 62.36 244.459 62.564 243.883 62.972C243.307 63.38 243.019 63.92 243.019 64.592C243.019 65.12 243.211 65.564 243.595 65.924C243.979 66.284 244.447 66.572 244.999 66.788C245.551 66.98 246.367 67.232 247.447 67.544C248.887 67.928 250.063 68.324 250.975 68.732C251.911 69.116 252.715 69.692 253.387 70.46C254.059 71.228 254.407 72.248 254.431 73.52C254.431 74.648 254.119 75.656 253.495 76.544C252.871 77.432 251.983 78.128 250.831 78.632C249.703 79.136 248.371 79.388 246.835 79.388ZM262.934 62.576V73.556C262.934 74.3 263.102 74.84 263.438 75.176C263.798 75.488 264.398 75.644 265.238 75.644H267.758V79.064H264.518C262.67 79.064 261.254 78.632 260.27 77.768C259.286 76.904 258.794 75.5 258.794 73.556V62.576H256.454V59.228H258.794V54.296H262.934V59.228H267.758V62.576H262.934ZM286.048 64.304V67.76H271.252V64.304H286.048ZM295.947 62.576V73.556C295.947 74.3 296.115 74.84 296.451 75.176C296.811 75.488 297.411 75.644 298.251 75.644H300.771V79.064H297.531C295.683 79.064 294.267 78.632 293.283 77.768C292.299 76.904 291.807 75.5 291.807 73.556V62.576H289.467V59.228H291.807V54.296H295.947V59.228H300.771V62.576H295.947ZM305.921 56.6C305.177 56.6 304.553 56.348 304.049 55.844C303.545 55.34 303.293 54.716 303.293 53.972C303.293 53.228 303.545 52.604 304.049 52.1C304.553 51.596 305.177 51.344 305.921 51.344C306.641 51.344 307.253 51.596 307.757 52.1C308.261 52.604 308.513 53.228 308.513 53.972C308.513 54.716 308.261 55.34 307.757 55.844C307.253 56.348 306.641 56.6 305.921 56.6ZM307.937 59.228V79.064H303.833V59.228H307.937ZM336.618 58.904C338.178 58.904 339.57 59.228 340.794 59.876C342.042 60.524 343.014 61.484 343.71 62.756C344.43 64.028 344.79 65.564 344.79 67.364V79.064H340.722V67.976C340.722 66.2 340.278 64.844 339.39 63.908C338.502 62.948 337.29 62.468 335.754 62.468C334.218 62.468 332.994 62.948 332.082 63.908C331.194 64.844 330.75 66.2 330.75 67.976V79.064H326.682V67.976C326.682 66.2 326.238 64.844 325.35 63.908C324.462 62.948 323.25 62.468 321.714 62.468C320.178 62.468 318.954 62.948 318.042 63.908C317.154 64.844 316.71 66.2 316.71 67.976V79.064H312.606V59.228H316.71V61.496C317.382 60.68 318.234 60.044 319.266 59.588C320.298 59.132 321.402 58.904 322.578 58.904C324.162 58.904 325.578 59.24 326.826 59.912C328.074 60.584 329.034 61.556 329.706 62.828C330.306 61.628 331.242 60.68 332.514 59.984C333.786 59.264 335.154 58.904 336.618 58.904ZM367.472 68.66C367.472 69.404 367.424 70.076 367.328 70.676H352.172C352.292 72.26 352.88 73.532 353.936 74.492C354.992 75.452 356.288 75.932 357.824 75.932C360.032 75.932 361.592 75.008 362.504 73.16H366.932C366.332 74.984 365.24 76.484 363.656 77.66C362.096 78.812 360.152 79.388 357.824 79.388C355.928 79.388 354.224 78.968 352.712 78.128C351.224 77.264 350.048 76.064 349.184 74.528C348.344 72.968 347.924 71.168 347.924 69.128C347.924 67.088 348.332 65.3 349.148 63.764C349.988 62.204 351.152 61.004 352.64 60.164C354.152 59.324 355.88 58.904 357.824 58.904C359.696 58.904 361.364 59.312 362.828 60.128C364.292 60.944 365.432 62.096 366.248 63.584C367.064 65.048 367.472 66.74 367.472 68.66ZM363.188 67.364C363.164 65.852 362.624 64.64 361.568 63.728C360.512 62.816 359.204 62.36 357.644 62.36C356.228 62.36 355.016 62.816 354.008 63.728C353 64.616 352.4 65.828 352.208 67.364H363.188ZM381.51 56.6C380.766 56.6 380.142 56.348 379.638 55.844C379.134 55.34 378.882 54.716 378.882 53.972C378.882 53.228 379.134 52.604 379.638 52.1C380.142 51.596 380.766 51.344 381.51 51.344C382.23 51.344 382.842 51.596 383.346 52.1C383.85 52.604 384.102 53.228 384.102 53.972C384.102 54.716 383.85 55.34 383.346 55.844C382.842 56.348 382.23 56.6 381.51 56.6ZM383.526 59.228V79.064H379.422V59.228H383.526ZM398.202 58.904C399.762 58.904 401.154 59.228 402.378 59.876C403.626 60.524 404.598 61.484 405.294 62.756C405.99 64.028 406.338 65.564 406.338 67.364V79.064H402.27V67.976C402.27 66.2 401.826 64.844 400.938 63.908C400.05 62.948 398.838 62.468 397.302 62.468C395.766 62.468 394.542 62.948 393.63 63.908C392.742 64.844 392.298 66.2 392.298 67.976V79.064H388.194V59.228H392.298V61.496C392.97 60.68 393.822 60.044 394.854 59.588C395.91 59.132 397.026 58.904 398.202 58.904ZM418.521 75.392L424.137 59.228H428.493L420.933 79.064H416.037L408.513 59.228H412.905L418.521 75.392ZM449.055 68.66C449.055 69.404 449.007 70.076 448.911 70.676H433.755C433.875 72.26 434.463 73.532 435.519 74.492C436.575 75.452 437.871 75.932 439.407 75.932C441.615 75.932 443.175 75.008 444.087 73.16H448.515C447.915 74.984 446.823 76.484 445.239 77.66C443.679 78.812 441.735 79.388 439.407 79.388C437.511 79.388 435.807 78.968 434.295 78.128C432.807 77.264 431.631 76.064 430.767 74.528C429.927 72.968 429.507 71.168 429.507 69.128C429.507 67.088 429.915 65.3 430.731 63.764C431.571 62.204 432.735 61.004 434.223 60.164C435.735 59.324 437.463 58.904 439.407 58.904C441.279 58.904 442.947 59.312 444.411 60.128C445.875 60.944 447.015 62.096 447.831 63.584C448.647 65.048 449.055 66.74 449.055 68.66ZM444.771 67.364C444.747 65.852 444.207 64.64 443.151 63.728C442.095 62.816 440.787 62.36 439.227 62.36C437.811 62.36 436.599 62.816 435.591 63.728C434.583 64.616 433.983 65.828 433.791 67.364H444.771ZM459.574 79.388C458.014 79.388 456.61 79.112 455.362 78.56C454.138 77.984 453.166 77.216 452.446 76.256C451.726 75.272 451.342 74.18 451.294 72.98H455.542C455.614 73.82 456.01 74.528 456.73 75.104C457.474 75.656 458.398 75.932 459.502 75.932C460.654 75.932 461.542 75.716 462.166 75.284C462.814 74.828 463.138 74.252 463.138 73.556C463.138 72.812 462.778 72.26 462.058 71.9C461.362 71.54 460.246 71.144 458.71 70.712C457.222 70.304 456.01 69.908 455.074 69.524C454.138 69.14 453.322 68.552 452.626 67.76C451.954 66.968 451.618 65.924 451.618 64.628C451.618 63.572 451.93 62.612 452.554 61.748C453.178 60.86 454.066 60.164 455.218 59.66C456.394 59.156 457.738 58.904 459.25 58.904C461.506 58.904 463.318 59.48 464.686 60.632C466.078 61.76 466.822 63.308 466.918 65.276H462.814C462.742 64.388 462.382 63.68 461.734 63.152C461.086 62.624 460.21 62.36 459.106 62.36C458.026 62.36 457.198 62.564 456.622 62.972C456.046 63.38 455.758 63.92 455.758 64.592C455.758 65.12 455.95 65.564 456.334 65.924C456.718 66.284 457.186 66.572 457.738 66.788C458.29 66.98 459.106 67.232 460.186 67.544C461.626 67.928 462.802 68.324 463.714 68.732C464.65 69.116 465.454 69.692 466.126 70.46C466.798 71.228 467.146 72.248 467.17 73.52C467.17 74.648 466.858 75.656 466.234 76.544C465.61 77.432 464.722 78.128 463.57 78.632C462.442 79.136 461.11 79.388 459.574 79.388ZM475.673 62.576V73.556C475.673 74.3 475.841 74.84 476.177 75.176C476.537 75.488 477.137 75.644 477.977 75.644H480.497V79.064H477.257C475.409 79.064 473.993 78.632 473.009 77.768C472.025 76.904 471.533 75.5 471.533 73.556V62.576H469.193V59.228H471.533V54.296H475.673V59.228H480.497V62.576H475.673ZM492.163 79.388C490.291 79.388 488.599 78.968 487.087 78.128C485.575 77.264 484.387 76.064 483.523 74.528C482.659 72.968 482.227 71.168 482.227 69.128C482.227 67.112 482.671 65.324 483.559 63.764C484.447 62.204 485.659 61.004 487.195 60.164C488.731 59.324 490.447 58.904 492.343 58.904C494.239 58.904 495.955 59.324 497.491 60.164C499.027 61.004 500.239 62.204 501.127 63.764C502.015 65.324 502.459 67.112 502.459 69.128C502.459 71.144 502.003 72.932 501.091 74.492C500.179 76.052 498.931 77.264 497.347 78.128C495.787 78.968 494.059 79.388 492.163 79.388ZM492.163 75.824C493.219 75.824 494.203 75.572 495.115 75.068C496.051 74.564 496.807 73.808 497.383 72.8C497.959 71.792 498.247 70.568 498.247 69.128C498.247 67.688 497.971 66.476 497.419 65.492C496.867 64.484 496.135 63.728 495.223 63.224C494.311 62.72 493.327 62.468 492.271 62.468C491.215 62.468 490.231 62.72 489.319 63.224C488.431 63.728 487.723 64.484 487.195 65.492C486.667 66.476 486.403 67.688 486.403 69.128C486.403 71.264 486.943 72.92 488.023 74.096C489.127 75.248 490.507 75.824 492.163 75.824ZM509.9 62.108C510.5 61.1 511.292 60.32 512.276 59.768C513.284 59.192 514.472 58.904 515.84 58.904V63.152H514.796C513.188 63.152 511.964 63.56 511.124 64.376C510.308 65.192 509.9 66.608 509.9 68.624V79.064H505.796V59.228H509.9V62.108ZM529.612 56.6C528.868 56.6 528.244 56.348 527.74 55.844C527.236 55.34 526.984 54.716 526.984 53.972C526.984 53.228 527.236 52.604 527.74 52.1C528.244 51.596 528.868 51.344 529.612 51.344C530.332 51.344 530.944 51.596 531.448 52.1C531.952 52.604 532.204 53.228 532.204 53.972C532.204 54.716 531.952 55.34 531.448 55.844C530.944 56.348 530.332 56.6 529.612 56.6ZM531.628 59.228V79.064H527.524V59.228H531.628ZM546.304 58.904C547.864 58.904 549.256 59.228 550.48 59.876C551.728 60.524 552.7 61.484 553.396 62.756C554.092 64.028 554.44 65.564 554.44 67.364V79.064H550.372V67.976C550.372 66.2 549.928 64.844 549.04 63.908C548.152 62.948 546.94 62.468 545.404 62.468C543.868 62.468 542.644 62.948 541.732 63.908C540.844 64.844 540.4 66.2 540.4 67.976V79.064H536.296V59.228H540.4V61.496C541.072 60.68 541.924 60.044 542.956 59.588C544.012 59.132 545.128 58.904 546.304 58.904ZM571.691 52.424V79.064H567.587V52.424H571.691ZM574.991 69.056C574.991 67.064 575.399 65.3 576.215 63.764C577.055 62.228 578.183 61.04 579.599 60.2C581.039 59.336 582.623 58.904 584.351 58.904C585.911 58.904 587.267 59.216 588.419 59.84C589.595 60.44 590.531 61.196 591.227 62.108V59.228H595.367V79.064H591.227V76.112C590.531 77.048 589.583 77.828 588.383 78.452C587.183 79.076 585.815 79.388 584.279 79.388C582.575 79.388 581.015 78.956 579.599 78.092C578.183 77.204 577.055 75.98 576.215 74.42C575.399 72.836 574.991 71.048 574.991 69.056ZM591.227 69.128C591.227 67.76 590.939 66.572 590.363 65.564C589.811 64.556 589.079 63.788 588.167 63.26C587.255 62.732 586.271 62.468 585.215 62.468C584.159 62.468 583.175 62.732 582.263 63.26C581.351 63.764 580.607 64.52 580.031 65.528C579.479 66.512 579.203 67.688 579.203 69.056C579.203 70.424 579.479 71.624 580.031 72.656C580.607 73.688 581.351 74.48 582.263 75.032C583.199 75.56 584.183 75.824 585.215 75.824C586.271 75.824 587.255 75.56 588.167 75.032C589.079 74.504 589.811 73.736 590.363 72.728C590.939 71.696 591.227 70.496 591.227 69.128ZM610.045 58.904C611.605 58.904 612.997 59.228 614.221 59.876C615.469 60.524 616.441 61.484 617.137 62.756C617.833 64.028 618.181 65.564 618.181 67.364V79.064H614.113V67.976C614.113 66.2 613.669 64.844 612.781 63.908C611.893 62.948 610.681 62.468 609.145 62.468C607.609 62.468 606.385 62.948 605.473 63.908C604.585 64.844 604.141 66.2 604.141 67.976V79.064H600.037V59.228H604.141V61.496C604.813 60.68 605.665 60.044 606.697 59.588C607.753 59.132 608.869 58.904 610.045 58.904ZM621.328 69.056C621.328 67.064 621.736 65.3 622.552 63.764C623.392 62.228 624.52 61.04 625.936 60.2C627.376 59.336 628.972 58.904 630.724 58.904C632.02 58.904 633.292 59.192 634.54 59.768C635.812 60.32 636.82 61.064 637.564 62V52.424H641.704V79.064H637.564V76.076C636.892 77.036 635.956 77.828 634.756 78.452C633.58 79.076 632.224 79.388 630.688 79.388C628.96 79.388 627.376 78.956 625.936 78.092C624.52 77.204 623.392 75.98 622.552 74.42C621.736 72.836 621.328 71.048 621.328 69.056ZM637.564 69.128C637.564 67.76 637.276 66.572 636.7 65.564C636.148 64.556 635.416 63.788 634.504 63.26C633.592 62.732 632.608 62.468 631.552 62.468C630.496 62.468 629.512 62.732 628.6 63.26C627.688 63.764 626.944 64.52 626.368 65.528C625.816 66.512 625.54 67.688 625.54 69.056C625.54 70.424 625.816 71.624 626.368 72.656C626.944 73.688 627.688 74.48 628.6 75.032C629.536 75.56 630.52 75.824 631.552 75.824C632.608 75.824 633.592 75.56 634.504 75.032C635.416 74.504 636.148 73.736 636.7 72.728C637.276 71.696 637.564 70.496 637.564 69.128ZM650.875 74.132L646.519 84.068H643.855L646.411 74.132H650.875ZM666.476 54.044V79.064H662.372V54.044H666.476ZM706.416 59.228L700.26 79.064H695.94L691.944 64.412L687.948 79.064H683.628L677.436 59.228H681.612L685.752 75.176L689.964 59.228H694.248L698.28 75.104L702.384 59.228H706.416ZM707.395 69.056C707.395 67.064 707.803 65.3 708.619 63.764C709.459 62.228 710.587 61.04 712.003 60.2C713.443 59.336 715.027 58.904 716.755 58.904C718.315 58.904 719.671 59.216 720.823 59.84C721.999 60.44 722.935 61.196 723.631 62.108V59.228H727.771V79.064H723.631V76.112C722.935 77.048 721.987 77.828 720.787 78.452C719.587 79.076 718.219 79.388 716.683 79.388C714.979 79.388 713.419 78.956 712.003 78.092C710.587 77.204 709.459 75.98 708.619 74.42C707.803 72.836 707.395 71.048 707.395 69.056ZM723.631 69.128C723.631 67.76 723.343 66.572 722.767 65.564C722.215 64.556 721.483 63.788 720.571 63.26C719.659 62.732 718.675 62.468 717.619 62.468C716.563 62.468 715.579 62.732 714.667 63.26C713.755 63.764 713.011 64.52 712.435 65.528C711.883 66.512 711.607 67.688 711.607 69.056C711.607 70.424 711.883 71.624 712.435 72.656C713.011 73.688 713.755 74.48 714.667 75.032C715.603 75.56 716.587 75.824 717.619 75.824C718.675 75.824 719.659 75.56 720.571 75.032C721.483 74.504 722.215 73.736 722.767 72.728C723.343 71.696 723.631 70.496 723.631 69.128ZM739.642 79.388C738.082 79.388 736.678 79.112 735.43 78.56C734.206 77.984 733.234 77.216 732.514 76.256C731.794 75.272 731.41 74.18 731.362 72.98H735.61C735.682 73.82 736.078 74.528 736.798 75.104C737.542 75.656 738.466 75.932 739.57 75.932C740.722 75.932 741.61 75.716 742.234 75.284C742.882 74.828 743.206 74.252 743.206 73.556C743.206 72.812 742.846 72.26 742.126 71.9C741.43 71.54 740.314 71.144 738.778 70.712C737.29 70.304 736.078 69.908 735.142 69.524C734.206 69.14 733.39 68.552 732.694 67.76C732.022 66.968 731.686 65.924 731.686 64.628C731.686 63.572 731.998 62.612 732.622 61.748C733.246 60.86 734.134 60.164 735.286 59.66C736.462 59.156 737.806 58.904 739.318 58.904C741.574 58.904 743.386 59.48 744.754 60.632C746.146 61.76 746.89 63.308 746.986 65.276H742.882C742.81 64.388 742.45 63.68 741.802 63.152C741.154 62.624 740.278 62.36 739.174 62.36C738.094 62.36 737.266 62.564 736.69 62.972C736.114 63.38 735.826 63.92 735.826 64.592C735.826 65.12 736.018 65.564 736.402 65.924C736.786 66.284 737.254 66.572 737.806 66.788C738.358 66.98 739.174 67.232 740.254 67.544C741.694 67.928 742.87 68.324 743.782 68.732C744.718 69.116 745.522 69.692 746.194 70.46C746.866 71.228 747.214 72.248 747.238 73.52C747.238 74.648 746.926 75.656 746.302 76.544C745.678 77.432 744.79 78.128 743.638 78.632C742.51 79.136 741.178 79.388 739.642 79.388ZM761.672 56.6C760.928 56.6 760.304 56.348 759.8 55.844C759.296 55.34 759.044 54.716 759.044 53.972C759.044 53.228 759.296 52.604 759.8 52.1C760.304 51.596 760.928 51.344 761.672 51.344C762.392 51.344 763.004 51.596 763.508 52.1C764.012 52.604 764.264 53.228 764.264 53.972C764.264 54.716 764.012 55.34 763.508 55.844C763.004 56.348 762.392 56.6 761.672 56.6ZM763.688 59.228V79.064H759.584V59.228H763.688ZM778.364 58.904C779.924 58.904 781.316 59.228 782.54 59.876C783.788 60.524 784.76 61.484 785.456 62.756C786.152 64.028 786.5 65.564 786.5 67.364V79.064H782.432V67.976C782.432 66.2 781.988 64.844 781.1 63.908C780.212 62.948 779 62.468 777.464 62.468C775.928 62.468 774.704 62.948 773.792 63.908C772.904 64.844 772.46 66.2 772.46 67.976V79.064H768.356V59.228H772.46V61.496C773.132 60.68 773.984 60.044 775.016 59.588C776.072 59.132 777.188 58.904 778.364 58.904ZM793.103 56.6C792.359 56.6 791.735 56.348 791.231 55.844C790.727 55.34 790.475 54.716 790.475 53.972C790.475 53.228 790.727 52.604 791.231 52.1C791.735 51.596 792.359 51.344 793.103 51.344C793.823 51.344 794.435 51.596 794.939 52.1C795.443 52.604 795.695 53.228 795.695 53.972C795.695 54.716 795.443 55.34 794.939 55.844C794.435 56.348 793.823 56.6 793.103 56.6ZM795.119 59.228V79.064H791.015V59.228H795.119ZM804.575 62.576V73.556C804.575 74.3 804.743 74.84 805.079 75.176C805.439 75.488 806.039 75.644 806.879 75.644H809.399V79.064H806.159C804.311 79.064 802.895 78.632 801.911 77.768C800.927 76.904 800.435 75.5 800.435 73.556V62.576H798.095V59.228H800.435V54.296H804.575V59.228H809.399V62.576H804.575ZM814.549 56.6C813.805 56.6 813.181 56.348 812.677 55.844C812.173 55.34 811.921 54.716 811.921 53.972C811.921 53.228 812.173 52.604 812.677 52.1C813.181 51.596 813.805 51.344 814.549 51.344C815.269 51.344 815.881 51.596 816.385 52.1C816.889 52.604 817.141 53.228 817.141 53.972C817.141 54.716 816.889 55.34 816.385 55.844C815.881 56.348 815.269 56.6 814.549 56.6ZM816.565 59.228V79.064H812.461V59.228H816.565ZM819.866 69.056C819.866 67.064 820.274 65.3 821.09 63.764C821.93 62.228 823.058 61.04 824.474 60.2C825.914 59.336 827.498 58.904 829.226 58.904C830.786 58.904 832.142 59.216 833.294 59.84C834.47 60.44 835.406 61.196 836.102 62.108V59.228H840.242V79.064H836.102V76.112C835.406 77.048 834.458 77.828 833.258 78.452C832.058 79.076 830.69 79.388 829.154 79.388C827.45 79.388 825.89 78.956 824.474 78.092C823.058 77.204 821.93 75.98 821.09 74.42C820.274 72.836 819.866 71.048 819.866 69.056ZM836.102 69.128C836.102 67.76 835.814 66.572 835.238 65.564C834.686 64.556 833.954 63.788 833.042 63.26C832.13 62.732 831.146 62.468 830.09 62.468C829.034 62.468 828.05 62.732 827.138 63.26C826.226 63.764 825.482 64.52 824.906 65.528C824.354 66.512 824.078 67.688 824.078 69.056C824.078 70.424 824.354 71.624 824.906 72.656C825.482 73.688 826.226 74.48 827.138 75.032C828.074 75.56 829.058 75.824 830.09 75.824C831.146 75.824 832.13 75.56 833.042 75.032C833.954 74.504 834.686 73.736 835.238 72.728C835.814 71.696 836.102 70.496 836.102 69.128ZM849.016 52.424V79.064H844.912V52.424H849.016ZM857.788 52.424V79.064H853.684V52.424H857.788ZM880.312 59.228L868.144 88.388H863.896L867.928 78.74L860.116 59.228H864.688L870.268 74.348L876.064 59.228H880.312ZM121.332 113.056C121.332 111.064 121.74 109.3 122.556 107.764C123.396 106.228 124.524 105.04 125.94 104.2C127.38 103.336 128.964 102.904 130.692 102.904C132.252 102.904 133.608 103.216 134.76 103.84C135.936 104.44 136.872 105.196 137.568 106.108V103.228H141.708V123.064H137.568V120.112C136.872 121.048 135.924 121.828 134.724 122.452C133.524 123.076 132.156 123.388 130.62 123.388C128.916 123.388 127.356 122.956 125.94 122.092C124.524 121.204 123.396 119.98 122.556 118.42C121.74 116.836 121.332 115.048 121.332 113.056ZM137.568 113.128C137.568 111.76 137.28 110.572 136.704 109.564C136.152 108.556 135.42 107.788 134.508 107.26C133.596 106.732 132.612 106.468 131.556 106.468C130.5 106.468 129.516 106.732 128.604 107.26C127.692 107.764 126.948 108.52 126.372 109.528C125.82 110.512 125.544 111.688 125.544 113.056C125.544 114.424 125.82 115.624 126.372 116.656C126.948 117.688 127.692 118.48 128.604 119.032C129.54 119.56 130.524 119.824 131.556 119.824C132.612 119.824 133.596 119.56 134.508 119.032C135.42 118.504 136.152 117.736 136.704 116.728C137.28 115.696 137.568 114.496 137.568 113.128ZM150.482 106.144C151.178 105.232 152.126 104.464 153.326 103.84C154.526 103.216 155.882 102.904 157.394 102.904C159.122 102.904 160.694 103.336 162.11 104.2C163.55 105.04 164.678 106.228 165.494 107.764C166.31 109.3 166.718 111.064 166.718 113.056C166.718 115.048 166.31 116.836 165.494 118.42C164.678 119.98 163.55 121.204 162.11 122.092C160.694 122.956 159.122 123.388 157.394 123.388C155.882 123.388 154.538 123.088 153.362 122.488C152.186 121.864 151.226 121.096 150.482 120.184V132.496H146.378V103.228H150.482V106.144ZM162.542 113.056C162.542 111.688 162.254 110.512 161.678 109.528C161.126 108.52 160.382 107.764 159.446 107.26C158.534 106.732 157.55 106.468 156.494 106.468C155.462 106.468 154.478 106.732 153.542 107.26C152.63 107.788 151.886 108.556 151.31 109.564C150.758 110.572 150.482 111.76 150.482 113.128C150.482 114.496 150.758 115.696 151.31 116.728C151.886 117.736 152.63 118.504 153.542 119.032C154.478 119.56 155.462 119.824 156.494 119.824C157.55 119.824 158.534 119.56 159.446 119.032C160.382 118.48 161.126 117.688 161.678 116.656C162.254 115.624 162.542 114.424 162.542 113.056ZM174.161 106.144C174.857 105.232 175.805 104.464 177.005 103.84C178.205 103.216 179.561 102.904 181.073 102.904C182.801 102.904 184.373 103.336 185.789 104.2C187.229 105.04 188.357 106.228 189.173 107.764C189.989 109.3 190.397 111.064 190.397 113.056C190.397 115.048 189.989 116.836 189.173 118.42C188.357 119.98 187.229 121.204 185.789 122.092C184.373 122.956 182.801 123.388 181.073 123.388C179.561 123.388 178.217 123.088 177.041 122.488C175.865 121.864 174.905 121.096 174.161 120.184V132.496H170.057V103.228H174.161V106.144ZM186.221 113.056C186.221 111.688 185.933 110.512 185.357 109.528C184.805 108.52 184.061 107.764 183.125 107.26C182.213 106.732 181.229 106.468 180.173 106.468C179.141 106.468 178.157 106.732 177.221 107.26C176.309 107.788 175.565 108.556 174.989 109.564C174.437 110.572 174.161 111.76 174.161 113.128C174.161 114.496 174.437 115.696 174.989 116.728C175.565 117.736 176.309 118.504 177.221 119.032C178.157 119.56 179.141 119.824 180.173 119.824C181.229 119.824 182.213 119.56 183.125 119.032C184.061 118.48 184.805 117.688 185.357 116.656C185.933 115.624 186.221 114.424 186.221 113.056ZM197.839 106.108C198.439 105.1 199.231 104.32 200.215 103.768C201.223 103.192 202.411 102.904 203.779 102.904V107.152H202.735C201.127 107.152 199.903 107.56 199.063 108.376C198.247 109.192 197.839 110.608 197.839 112.624V123.064H193.735V103.228H197.839V106.108ZM225.012 112.66C225.012 113.404 224.964 114.076 224.868 114.676H209.712C209.832 116.26 210.42 117.532 211.476 118.492C212.532 119.452 213.828 119.932 215.364 119.932C217.572 119.932 219.132 119.008 220.044 117.16H224.472C223.872 118.984 222.78 120.484 221.196 121.66C219.636 122.812 217.692 123.388 215.364 123.388C213.468 123.388 211.764 122.968 210.252 122.128C208.764 121.264 207.588 120.064 206.724 118.528C205.884 116.968 205.464 115.168 205.464 113.128C205.464 111.088 205.872 109.3 206.688 107.764C207.528 106.204 208.692 105.004 210.18 104.164C211.692 103.324 213.42 102.904 215.364 102.904C217.236 102.904 218.904 103.312 220.368 104.128C221.832 104.944 222.972 106.096 223.788 107.584C224.604 109.048 225.012 110.74 225.012 112.66ZM220.728 111.364C220.704 109.852 220.164 108.64 219.108 107.728C218.052 106.816 216.744 106.36 215.184 106.36C213.768 106.36 212.556 106.816 211.548 107.728C210.54 108.616 209.94 109.828 209.748 111.364H220.728ZM238.59 102.904C240.102 102.904 241.446 103.228 242.622 103.876C243.822 104.524 244.758 105.484 245.43 106.756C246.126 108.028 246.474 109.564 246.474 111.364V123.064H242.406V111.976C242.406 110.2 241.962 108.844 241.074 107.908C240.186 106.948 238.974 106.468 237.438 106.468C235.902 106.468 234.678 106.948 233.766 107.908C232.878 108.844 232.434 110.2 232.434 111.976V123.064H228.33V96.424H232.434V105.532C233.13 104.692 234.006 104.044 235.062 103.588C236.142 103.132 237.318 102.904 238.59 102.904ZM269.169 112.66C269.169 113.404 269.121 114.076 269.025 114.676H253.869C253.989 116.26 254.577 117.532 255.633 118.492C256.689 119.452 257.985 119.932 259.521 119.932C261.729 119.932 263.289 119.008 264.201 117.16H268.629C268.029 118.984 266.937 120.484 265.353 121.66C263.793 122.812 261.849 123.388 259.521 123.388C257.625 123.388 255.921 122.968 254.409 122.128C252.921 121.264 251.745 120.064 250.881 118.528C250.041 116.968 249.621 115.168 249.621 113.128C249.621 111.088 250.029 109.3 250.845 107.764C251.685 106.204 252.849 105.004 254.337 104.164C255.849 103.324 257.577 102.904 259.521 102.904C261.393 102.904 263.061 103.312 264.525 104.128C265.989 104.944 267.129 106.096 267.945 107.584C268.761 109.048 269.169 110.74 269.169 112.66ZM264.885 111.364C264.861 109.852 264.321 108.64 263.265 107.728C262.209 106.816 260.901 106.36 259.341 106.36C257.925 106.36 256.713 106.816 255.705 107.728C254.697 108.616 254.097 109.828 253.905 111.364H264.885ZM282.496 102.904C284.056 102.904 285.448 103.228 286.672 103.876C287.92 104.524 288.892 105.484 289.588 106.756C290.284 108.028 290.632 109.564 290.632 111.364V123.064H286.564V111.976C286.564 110.2 286.12 108.844 285.232 107.908C284.344 106.948 283.132 106.468 281.596 106.468C280.06 106.468 278.836 106.948 277.924 107.908C277.036 108.844 276.592 110.2 276.592 111.976V123.064H272.488V103.228H276.592V105.496C277.264 104.68 278.116 104.044 279.148 103.588C280.204 103.132 281.32 102.904 282.496 102.904ZM302.347 123.388C300.787 123.388 299.383 123.112 298.135 122.56C296.911 121.984 295.939 121.216 295.219 120.256C294.499 119.272 294.115 118.18 294.067 116.98H298.315C298.387 117.82 298.783 118.528 299.503 119.104C300.247 119.656 301.171 119.932 302.275 119.932C303.427 119.932 304.315 119.716 304.939 119.284C305.587 118.828 305.911 118.252 305.911 117.556C305.911 116.812 305.551 116.26 304.831 115.9C304.135 115.54 303.019 115.144 301.483 114.712C299.995 114.304 298.783 113.908 297.847 113.524C296.911 113.14 296.095 112.552 295.399 111.76C294.727 110.968 294.391 109.924 294.391 108.628C294.391 107.572 294.703 106.612 295.327 105.748C295.951 104.86 296.839 104.164 297.991 103.66C299.167 103.156 300.511 102.904 302.023 102.904C304.279 102.904 306.091 103.48 307.459 104.632C308.851 105.76 309.595 107.308 309.691 109.276H305.587C305.515 108.388 305.155 107.68 304.507 107.152C303.859 106.624 302.983 106.36 301.879 106.36C300.799 106.36 299.971 106.564 299.395 106.972C298.819 107.38 298.531 107.92 298.531 108.592C298.531 109.12 298.723 109.564 299.107 109.924C299.491 110.284 299.959 110.572 300.511 110.788C301.063 110.98 301.879 111.232 302.959 111.544C304.399 111.928 305.575 112.324 306.487 112.732C307.423 113.116 308.227 113.692 308.899 114.46C309.571 115.228 309.919 116.248 309.943 117.52C309.943 118.648 309.631 119.656 309.007 120.544C308.383 121.432 307.495 122.128 306.343 122.632C305.215 123.136 303.883 123.388 302.347 123.388ZM315.746 100.6C315.002 100.6 314.378 100.348 313.874 99.844C313.37 99.34 313.118 98.716 313.118 97.972C313.118 97.228 313.37 96.604 313.874 96.1C314.378 95.596 315.002 95.344 315.746 95.344C316.466 95.344 317.078 95.596 317.582 96.1C318.086 96.604 318.338 97.228 318.338 97.972C318.338 98.716 318.086 99.34 317.582 99.844C317.078 100.348 316.466 100.6 315.746 100.6ZM317.762 103.228V123.064H313.658V103.228H317.762ZM330.098 119.392L335.714 103.228H340.07L332.51 123.064H327.614L320.09 103.228H324.482L330.098 119.392ZM360.632 112.66C360.632 113.404 360.584 114.076 360.488 114.676H345.332C345.452 116.26 346.04 117.532 347.096 118.492C348.152 119.452 349.448 119.932 350.984 119.932C353.192 119.932 354.752 119.008 355.664 117.16H360.092C359.492 118.984 358.4 120.484 356.816 121.66C355.256 122.812 353.312 123.388 350.984 123.388C349.088 123.388 347.384 122.968 345.872 122.128C344.384 121.264 343.208 120.064 342.344 118.528C341.504 116.968 341.084 115.168 341.084 113.128C341.084 111.088 341.492 109.3 342.308 107.764C343.148 106.204 344.312 105.004 345.8 104.164C347.312 103.324 349.04 102.904 350.984 102.904C352.856 102.904 354.524 103.312 355.988 104.128C357.452 104.944 358.592 106.096 359.408 107.584C360.224 109.048 360.632 110.74 360.632 112.66ZM356.348 111.364C356.324 109.852 355.784 108.64 354.728 107.728C353.672 106.816 352.364 106.36 350.804 106.36C349.388 106.36 348.176 106.816 347.168 107.728C346.16 108.616 345.56 109.828 345.368 111.364H356.348ZM368.451 118.132L364.095 128.068H361.431L363.987 118.132H368.451ZM384.052 106.18C384.748 105.22 385.696 104.44 386.896 103.84C388.12 103.216 389.476 102.904 390.964 102.904C392.716 102.904 394.3 103.324 395.716 104.164C397.132 105.004 398.248 106.204 399.064 107.764C399.88 109.3 400.288 111.064 400.288 113.056C400.288 115.048 399.88 116.836 399.064 118.42C398.248 119.98 397.12 121.204 395.68 122.092C394.264 122.956 392.692 123.388 390.964 123.388C389.428 123.388 388.06 123.088 386.86 122.488C385.684 121.888 384.748 121.12 384.052 120.184V123.064H379.948V96.424H384.052V106.18ZM396.112 113.056C396.112 111.688 395.824 110.512 395.248 109.528C394.696 108.52 393.952 107.764 393.016 107.26C392.104 106.732 391.12 106.468 390.064 106.468C389.032 106.468 388.048 106.732 387.112 107.26C386.2 107.788 385.456 108.556 384.88 109.564C384.328 110.572 384.052 111.76 384.052 113.128C384.052 114.496 384.328 115.696 384.88 116.728C385.456 117.736 386.2 118.504 387.112 119.032C388.048 119.56 389.032 119.824 390.064 119.824C391.12 119.824 392.104 119.56 393.016 119.032C393.952 118.48 394.696 117.688 395.248 116.656C395.824 115.624 396.112 114.424 396.112 113.056ZM421.591 103.228V123.064H417.487V120.724C416.839 121.54 415.987 122.188 414.931 122.668C413.899 123.124 412.795 123.352 411.619 123.352C410.059 123.352 408.655 123.028 407.407 122.38C406.183 121.732 405.211 120.772 404.491 119.5C403.795 118.228 403.447 116.692 403.447 114.892V103.228H407.515V114.28C407.515 116.056 407.959 117.424 408.847 118.384C409.735 119.32 410.947 119.788 412.483 119.788C414.019 119.788 415.231 119.32 416.119 118.384C417.031 117.424 417.487 116.056 417.487 114.28V103.228H421.591ZM431.073 106.576V117.556C431.073 118.3 431.241 118.84 431.577 119.176C431.937 119.488 432.537 119.644 433.377 119.644H435.897V123.064H432.657C430.809 123.064 429.393 122.632 428.409 121.768C427.425 120.904 426.933 119.5 426.933 117.556V106.576H424.593V103.228H426.933V98.296H431.073V103.228H435.897V106.576H431.073ZM449.68 100.6C448.936 100.6 448.312 100.348 447.808 99.844C447.304 99.34 447.052 98.716 447.052 97.972C447.052 97.228 447.304 96.604 447.808 96.1C448.312 95.596 448.936 95.344 449.68 95.344C450.4 95.344 451.012 95.596 451.516 96.1C452.02 96.604 452.272 97.228 452.272 97.972C452.272 98.716 452.02 99.34 451.516 99.844C451.012 100.348 450.4 100.6 449.68 100.6ZM451.696 103.228V123.064H447.592V103.228H451.696ZM472.528 98.044V101.392H465.868V123.064H461.764V101.392H455.068V98.044H472.528ZM494.144 112.66C494.144 113.404 494.096 114.076 494 114.676H478.844C478.964 116.26 479.552 117.532 480.608 118.492C481.664 119.452 482.96 119.932 484.496 119.932C486.704 119.932 488.264 119.008 489.176 117.16H493.604C493.004 118.984 491.912 120.484 490.328 121.66C488.768 122.812 486.824 123.388 484.496 123.388C482.6 123.388 480.896 122.968 479.384 122.128C477.896 121.264 476.72 120.064 475.856 118.528C475.016 116.968 474.596 115.168 474.596 113.128C474.596 111.088 475.004 109.3 475.82 107.764C476.66 106.204 477.824 105.004 479.312 104.164C480.824 103.324 482.552 102.904 484.496 102.904C486.368 102.904 488.036 103.312 489.5 104.128C490.964 104.944 492.104 106.096 492.92 107.584C493.736 109.048 494.144 110.74 494.144 112.66ZM489.86 111.364C489.836 109.852 489.296 108.64 488.24 107.728C487.184 106.816 485.876 106.36 484.316 106.36C482.9 106.36 481.688 106.816 480.68 107.728C479.672 108.616 479.072 109.828 478.88 111.364H489.86ZM496.095 113.128C496.095 111.088 496.503 109.3 497.319 107.764C498.159 106.204 499.311 105.004 500.775 104.164C502.239 103.324 503.919 102.904 505.815 102.904C508.215 102.904 510.195 103.48 511.755 104.632C513.339 105.76 514.407 107.38 514.959 109.492H510.531C510.171 108.508 509.595 107.74 508.803 107.188C508.011 106.636 507.015 106.36 505.815 106.36C504.135 106.36 502.791 106.96 501.783 108.16C500.799 109.336 500.307 110.992 500.307 113.128C500.307 115.264 500.799 116.932 501.783 118.132C502.791 119.332 504.135 119.932 505.815 119.932C508.191 119.932 509.763 118.888 510.531 116.8H514.959C514.383 118.816 513.303 120.424 511.719 121.624C510.135 122.8 508.167 123.388 505.815 123.388C503.919 123.388 502.239 122.968 500.775 122.128C499.311 121.264 498.159 120.064 497.319 118.528C496.503 116.968 496.095 115.168 496.095 113.128ZM528.589 102.904C530.101 102.904 531.445 103.228 532.621 103.876C533.821 104.524 534.757 105.484 535.429 106.756C536.125 108.028 536.473 109.564 536.473 111.364V123.064H532.405V111.976C532.405 110.2 531.961 108.844 531.073 107.908C530.185 106.948 528.973 106.468 527.437 106.468C525.901 106.468 524.677 106.948 523.765 107.908C522.877 108.844 522.433 110.2 522.433 111.976V123.064H518.329V96.424H522.433V105.532C523.129 104.692 524.005 104.044 525.061 103.588C526.141 103.132 527.317 102.904 528.589 102.904ZM543.22 94.372L542.788 101.752H539.98L539.512 94.372H543.22ZM553.655 123.388C552.095 123.388 550.691 123.112 549.443 122.56C548.219 121.984 547.247 121.216 546.527 120.256C545.807 119.272 545.423 118.18 545.375 116.98H549.623C549.695 117.82 550.091 118.528 550.811 119.104C551.555 119.656 552.479 119.932 553.583 119.932C554.735 119.932 555.623 119.716 556.247 119.284C556.895 118.828 557.219 118.252 557.219 117.556C557.219 116.812 556.859 116.26 556.139 115.9C555.443 115.54 554.327 115.144 552.791 114.712C551.303 114.304 550.091 113.908 549.155 113.524C548.219 113.14 547.403 112.552 546.707 111.76C546.035 110.968 545.699 109.924 545.699 108.628C545.699 107.572 546.011 106.612 546.635 105.748C547.259 104.86 548.147 104.164 549.299 103.66C550.475 103.156 551.819 102.904 553.331 102.904C555.587 102.904 557.399 103.48 558.767 104.632C560.159 105.76 560.903 107.308 560.999 109.276H556.895C556.823 108.388 556.463 107.68 555.815 107.152C555.167 106.624 554.291 106.36 553.187 106.36C552.107 106.36 551.279 106.564 550.703 106.972C550.127 107.38 549.839 107.92 549.839 108.592C549.839 109.12 550.031 109.564 550.415 109.924C550.799 110.284 551.267 110.572 551.819 110.788C552.371 110.98 553.187 111.232 554.267 111.544C555.707 111.928 556.883 112.324 557.795 112.732C558.731 113.116 559.535 113.692 560.207 114.46C560.879 115.228 561.227 116.248 561.251 117.52C561.251 118.648 560.939 119.656 560.315 120.544C559.691 121.432 558.803 122.128 557.651 122.632C556.523 123.136 555.191 123.388 553.655 123.388ZM572.229 113.128C572.229 111.088 572.637 109.3 573.453 107.764C574.293 106.204 575.445 105.004 576.909 104.164C578.373 103.324 580.053 102.904 581.949 102.904C584.349 102.904 586.329 103.48 587.889 104.632C589.473 105.76 590.541 107.38 591.093 109.492H586.665C586.305 108.508 585.729 107.74 584.937 107.188C584.145 106.636 583.149 106.36 581.949 106.36C580.269 106.36 578.925 106.96 577.917 108.16C576.933 109.336 576.441 110.992 576.441 113.128C576.441 115.264 576.933 116.932 577.917 118.132C578.925 119.332 580.269 119.932 581.949 119.932C584.325 119.932 585.897 118.888 586.665 116.8H591.093C590.517 118.816 589.437 120.424 587.853 121.624C586.269 122.8 584.301 123.388 581.949 123.388C580.053 123.388 578.373 122.968 576.909 122.128C575.445 121.264 574.293 120.064 573.453 118.528C572.637 116.968 572.229 115.168 572.229 113.128ZM603.067 123.388C601.195 123.388 599.503 122.968 597.991 122.128C596.479 121.264 595.291 120.064 594.427 118.528C593.563 116.968 593.131 115.168 593.131 113.128C593.131 111.112 593.575 109.324 594.463 107.764C595.351 106.204 596.563 105.004 598.099 104.164C599.635 103.324 601.351 102.904 603.247 102.904C605.143 102.904 606.859 103.324 608.395 104.164C609.931 105.004 611.143 106.204 612.031 107.764C612.919 109.324 613.363 111.112 613.363 113.128C613.363 115.144 612.907 116.932 611.995 118.492C611.083 120.052 609.835 121.264 608.251 122.128C606.691 122.968 604.963 123.388 603.067 123.388ZM603.067 119.824C604.123 119.824 605.107 119.572 606.019 119.068C606.955 118.564 607.711 117.808 608.287 116.8C608.863 115.792 609.151 114.568 609.151 113.128C609.151 111.688 608.875 110.476 608.323 109.492C607.771 108.484 607.039 107.728 606.127 107.224C605.215 106.72 604.231 106.468 603.175 106.468C602.119 106.468 601.135 106.72 600.223 107.224C599.335 107.728 598.627 108.484 598.099 109.492C597.571 110.476 597.307 111.688 597.307 113.128C597.307 115.264 597.847 116.92 598.927 118.096C600.031 119.248 601.411 119.824 603.067 119.824ZM640.712 102.904C642.272 102.904 643.664 103.228 644.888 103.876C646.136 104.524 647.108 105.484 647.804 106.756C648.524 108.028 648.884 109.564 648.884 111.364V123.064H644.816V111.976C644.816 110.2 644.372 108.844 643.484 107.908C642.596 106.948 641.384 106.468 639.848 106.468C638.312 106.468 637.088 106.948 636.176 107.908C635.288 108.844 634.844 110.2 634.844 111.976V123.064H630.776V111.976C630.776 110.2 630.332 108.844 629.444 107.908C628.556 106.948 627.344 106.468 625.808 106.468C624.272 106.468 623.048 106.948 622.136 107.908C621.248 108.844 620.804 110.2 620.804 111.976V123.064H616.7V103.228H620.804V105.496C621.476 104.68 622.328 104.044 623.36 103.588C624.392 103.132 625.496 102.904 626.672 102.904C628.256 102.904 629.672 103.24 630.92 103.912C632.168 104.584 633.128 105.556 633.8 106.828C634.4 105.628 635.336 104.68 636.608 103.984C637.88 103.264 639.248 102.904 640.712 102.904ZM677.398 102.904C678.958 102.904 680.35 103.228 681.574 103.876C682.822 104.524 683.794 105.484 684.49 106.756C685.21 108.028 685.57 109.564 685.57 111.364V123.064H681.502V111.976C681.502 110.2 681.058 108.844 680.17 107.908C679.282 106.948 678.07 106.468 676.534 106.468C674.998 106.468 673.774 106.948 672.862 107.908C671.974 108.844 671.53 110.2 671.53 111.976V123.064H667.462V111.976C667.462 110.2 667.018 108.844 666.13 107.908C665.242 106.948 664.03 106.468 662.494 106.468C660.958 106.468 659.734 106.948 658.822 107.908C657.934 108.844 657.49 110.2 657.49 111.976V123.064H653.386V103.228H657.49V105.496C658.162 104.68 659.014 104.044 660.046 103.588C661.078 103.132 662.182 102.904 663.358 102.904C664.942 102.904 666.358 103.24 667.606 103.912C668.854 104.584 669.814 105.556 670.486 106.828C671.086 105.628 672.022 104.68 673.294 103.984C674.566 103.264 675.934 102.904 677.398 102.904ZM692.161 100.6C691.417 100.6 690.793 100.348 690.289 99.844C689.785 99.34 689.533 98.716 689.533 97.972C689.533 97.228 689.785 96.604 690.289 96.1C690.793 95.596 691.417 95.344 692.161 95.344C692.881 95.344 693.493 95.596 693.997 96.1C694.501 96.604 694.753 97.228 694.753 97.972C694.753 98.716 694.501 99.34 693.997 99.844C693.493 100.348 692.881 100.6 692.161 100.6ZM694.177 103.228V123.064H690.073V103.228H694.177ZM703.633 106.576V117.556C703.633 118.3 703.801 118.84 704.137 119.176C704.497 119.488 705.097 119.644 705.937 119.644H708.457V123.064H705.217C703.369 123.064 701.953 122.632 700.969 121.768C699.985 120.904 699.493 119.5 699.493 117.556V106.576H697.153V103.228H699.493V98.296H703.633V103.228H708.457V106.576H703.633ZM735.531 102.904C737.091 102.904 738.483 103.228 739.707 103.876C740.955 104.524 741.927 105.484 742.623 106.756C743.343 108.028 743.703 109.564 743.703 111.364V123.064H739.635V111.976C739.635 110.2 739.191 108.844 738.303 107.908C737.415 106.948 736.203 106.468 734.667 106.468C733.131 106.468 731.907 106.948 730.995 107.908C730.107 108.844 729.663 110.2 729.663 111.976V123.064H725.595V111.976C725.595 110.2 725.151 108.844 724.263 107.908C723.375 106.948 722.163 106.468 720.627 106.468C719.091 106.468 717.867 106.948 716.955 107.908C716.067 108.844 715.623 110.2 715.623 111.976V123.064H711.519V103.228H715.623V105.496C716.295 104.68 717.147 104.044 718.179 103.588C719.211 103.132 720.315 102.904 721.491 102.904C723.075 102.904 724.491 103.24 725.739 103.912C726.987 104.584 727.947 105.556 728.619 106.828C729.219 105.628 730.155 104.68 731.427 103.984C732.699 103.264 734.067 102.904 735.531 102.904ZM766.386 112.66C766.386 113.404 766.338 114.076 766.242 114.676H751.086C751.206 116.26 751.794 117.532 752.85 118.492C753.906 119.452 755.202 119.932 756.738 119.932C758.946 119.932 760.506 119.008 761.418 117.16H765.846C765.246 118.984 764.154 120.484 762.57 121.66C761.01 122.812 759.066 123.388 756.738 123.388C754.842 123.388 753.138 122.968 751.626 122.128C750.138 121.264 748.962 120.064 748.098 118.528C747.258 116.968 746.838 115.168 746.838 113.128C746.838 111.088 747.246 109.3 748.062 107.764C748.902 106.204 750.066 105.004 751.554 104.164C753.066 103.324 754.794 102.904 756.738 102.904C758.61 102.904 760.278 103.312 761.742 104.128C763.206 104.944 764.346 106.096 765.162 107.584C765.978 109.048 766.386 110.74 766.386 112.66ZM762.102 111.364C762.078 109.852 761.538 108.64 760.482 107.728C759.426 106.816 758.118 106.36 756.558 106.36C755.142 106.36 753.93 106.816 752.922 107.728C751.914 108.616 751.314 109.828 751.122 111.364H762.102ZM779.712 102.904C781.272 102.904 782.664 103.228 783.888 103.876C785.136 104.524 786.108 105.484 786.804 106.756C787.5 108.028 787.848 109.564 787.848 111.364V123.064H783.78V111.976C783.78 110.2 783.336 108.844 782.448 107.908C781.56 106.948 780.348 106.468 778.812 106.468C777.276 106.468 776.052 106.948 775.14 107.908C774.252 108.844 773.808 110.2 773.808 111.976V123.064H769.704V103.228H773.808V105.496C774.48 104.68 775.332 104.044 776.364 103.588C777.42 103.132 778.536 102.904 779.712 102.904ZM797.151 106.576V117.556C797.151 118.3 797.319 118.84 797.655 119.176C798.015 119.488 798.615 119.644 799.455 119.644H801.975V123.064H798.735C796.887 123.064 795.471 122.632 794.487 121.768C793.503 120.904 793.011 119.5 793.011 117.556V106.576H790.671V103.228H793.011V98.296H797.151V103.228H801.975V106.576H797.151ZM818.457 106.576V117.556C818.457 118.3 818.625 118.84 818.961 119.176C819.321 119.488 819.921 119.644 820.761 119.644H823.281V123.064H820.041C818.193 123.064 816.777 122.632 815.793 121.768C814.809 120.904 814.317 119.5 814.317 117.556V106.576H811.977V103.228H814.317V98.296H818.457V103.228H823.281V106.576H818.457ZM834.948 123.388C833.076 123.388 831.384 122.968 829.872 122.128C828.36 121.264 827.172 120.064 826.308 118.528C825.444 116.968 825.012 115.168 825.012 113.128C825.012 111.112 825.456 109.324 826.344 107.764C827.232 106.204 828.444 105.004 829.98 104.164C831.516 103.324 833.232 102.904 835.128 102.904C837.024 102.904 838.74 103.324 840.276 104.164C841.812 105.004 843.024 106.204 843.912 107.764C844.8 109.324 845.244 111.112 845.244 113.128C845.244 115.144 844.788 116.932 843.876 118.492C842.964 120.052 841.716 121.264 840.132 122.128C838.572 122.968 836.844 123.388 834.948 123.388ZM834.948 119.824C836.004 119.824 836.988 119.572 837.9 119.068C838.836 118.564 839.592 117.808 840.168 116.8C840.744 115.792 841.032 114.568 841.032 113.128C841.032 111.688 840.756 110.476 840.204 109.492C839.652 108.484 838.92 107.728 838.008 107.224C837.096 106.72 836.112 106.468 835.056 106.468C834 106.468 833.016 106.72 832.104 107.224C831.216 107.728 830.508 108.484 829.98 109.492C829.452 110.476 829.188 111.688 829.188 113.128C829.188 115.264 829.728 116.92 830.808 118.096C831.912 119.248 833.292 119.824 834.948 119.824ZM129.9 167.388C128.34 167.388 126.936 167.112 125.688 166.56C124.464 165.984 123.492 165.216 122.772 164.256C122.052 163.272 121.668 162.18 121.62 160.98H125.868C125.94 161.82 126.336 162.528 127.056 163.104C127.8 163.656 128.724 163.932 129.828 163.932C130.98 163.932 131.868 163.716 132.492 163.284C133.14 162.828 133.464 162.252 133.464 161.556C133.464 160.812 133.104 160.26 132.384 159.9C131.688 159.54 130.572 159.144 129.036 158.712C127.548 158.304 126.336 157.908 125.4 157.524C124.464 157.14 123.648 156.552 122.952 155.76C122.28 154.968 121.944 153.924 121.944 152.628C121.944 151.572 122.256 150.612 122.88 149.748C123.504 148.86 124.392 148.164 125.544 147.66C126.72 147.156 128.064 146.904 129.576 146.904C131.832 146.904 133.644 147.48 135.012 148.632C136.404 149.76 137.148 151.308 137.244 153.276H133.14C133.068 152.388 132.708 151.68 132.06 151.152C131.412 150.624 130.536 150.36 129.432 150.36C128.352 150.36 127.524 150.564 126.948 150.972C126.372 151.38 126.084 151.92 126.084 152.592C126.084 153.12 126.276 153.564 126.66 153.924C127.044 154.284 127.512 154.572 128.064 154.788C128.616 154.98 129.432 155.232 130.512 155.544C131.952 155.928 133.128 156.324 134.04 156.732C134.976 157.116 135.78 157.692 136.452 158.46C137.124 159.228 137.472 160.248 137.496 161.52C137.496 162.648 137.184 163.656 136.56 164.544C135.936 165.432 135.048 166.128 133.896 166.632C132.768 167.136 131.436 167.388 129.9 167.388ZM143.298 144.6C142.554 144.6 141.93 144.348 141.426 143.844C140.922 143.34 140.67 142.716 140.67 141.972C140.67 141.228 140.922 140.604 141.426 140.1C141.93 139.596 142.554 139.344 143.298 139.344C144.018 139.344 144.63 139.596 145.134 140.1C145.638 140.604 145.89 141.228 145.89 141.972C145.89 142.716 145.638 143.34 145.134 143.844C144.63 144.348 144.018 144.6 143.298 144.6ZM145.314 147.228V167.064H141.21V147.228H145.314ZM173.995 146.904C175.555 146.904 176.947 147.228 178.171 147.876C179.419 148.524 180.391 149.484 181.087 150.756C181.807 152.028 182.167 153.564 182.167 155.364V167.064H178.099V155.976C178.099 154.2 177.655 152.844 176.767 151.908C175.879 150.948 174.667 150.468 173.131 150.468C171.595 150.468 170.371 150.948 169.459 151.908C168.571 152.844 168.127 154.2 168.127 155.976V167.064H164.059V155.976C164.059 154.2 163.615 152.844 162.727 151.908C161.839 150.948 160.627 150.468 159.091 150.468C157.555 150.468 156.331 150.948 155.419 151.908C154.531 152.844 154.087 154.2 154.087 155.976V167.064H149.983V147.228H154.087V149.496C154.759 148.68 155.611 148.044 156.643 147.588C157.675 147.132 158.779 146.904 159.955 146.904C161.539 146.904 162.955 147.24 164.203 147.912C165.451 148.584 166.411 149.556 167.083 150.828C167.683 149.628 168.619 148.68 169.891 147.984C171.163 147.264 172.531 146.904 173.995 146.904ZM190.773 150.144C191.469 149.232 192.417 148.464 193.617 147.84C194.817 147.216 196.173 146.904 197.685 146.904C199.413 146.904 200.985 147.336 202.401 148.2C203.841 149.04 204.969 150.228 205.785 151.764C206.601 153.3 207.009 155.064 207.009 157.056C207.009 159.048 206.601 160.836 205.785 162.42C204.969 163.98 203.841 165.204 202.401 166.092C200.985 166.956 199.413 167.388 197.685 167.388C196.173 167.388 194.829 167.088 193.653 166.488C192.477 165.864 191.517 165.096 190.773 164.184V176.496H186.669V147.228H190.773V150.144ZM202.833 157.056C202.833 155.688 202.545 154.512 201.969 153.528C201.417 152.52 200.673 151.764 199.737 151.26C198.825 150.732 197.841 150.468 196.785 150.468C195.753 150.468 194.769 150.732 193.833 151.26C192.921 151.788 192.177 152.556 191.601 153.564C191.049 154.572 190.773 155.76 190.773 157.128C190.773 158.496 191.049 159.696 191.601 160.728C192.177 161.736 192.921 162.504 193.833 163.032C194.769 163.56 195.753 163.824 196.785 163.824C197.841 163.824 198.825 163.56 199.737 163.032C200.673 162.48 201.417 161.688 201.969 160.656C202.545 159.624 202.833 158.424 202.833 157.056ZM214.451 140.424V167.064H210.347V140.424H214.451ZM221.208 144.6C220.464 144.6 219.84 144.348 219.336 143.844C218.832 143.34 218.58 142.716 218.58 141.972C218.58 141.228 218.832 140.604 219.336 140.1C219.84 139.596 220.464 139.344 221.208 139.344C221.928 139.344 222.54 139.596 223.044 140.1C223.548 140.604 223.8 141.228 223.8 141.972C223.8 142.716 223.548 143.34 223.044 143.844C222.54 144.348 221.928 144.6 221.208 144.6ZM223.224 147.228V167.064H219.12V147.228H223.224ZM226.524 157.128C226.524 155.088 226.932 153.3 227.748 151.764C228.588 150.204 229.74 149.004 231.204 148.164C232.668 147.324 234.348 146.904 236.244 146.904C238.644 146.904 240.624 147.48 242.184 148.632C243.768 149.76 244.836 151.38 245.388 153.492H240.96C240.6 152.508 240.024 151.74 239.232 151.188C238.44 150.636 237.444 150.36 236.244 150.36C234.564 150.36 233.22 150.96 232.212 152.16C231.228 153.336 230.736 154.992 230.736 157.128C230.736 159.264 231.228 160.932 232.212 162.132C233.22 163.332 234.564 163.932 236.244 163.932C238.62 163.932 240.192 162.888 240.96 160.8H245.388C244.812 162.816 243.732 164.424 242.148 165.624C240.564 166.8 238.596 167.388 236.244 167.388C234.348 167.388 232.668 166.968 231.204 166.128C229.74 165.264 228.588 164.064 227.748 162.528C226.932 160.968 226.524 159.168 226.524 157.128ZM250.846 144.6C250.102 144.6 249.478 144.348 248.974 143.844C248.47 143.34 248.218 142.716 248.218 141.972C248.218 141.228 248.47 140.604 248.974 140.1C249.478 139.596 250.102 139.344 250.846 139.344C251.566 139.344 252.178 139.596 252.682 140.1C253.186 140.604 253.438 141.228 253.438 141.972C253.438 142.716 253.186 143.34 252.682 143.844C252.178 144.348 251.566 144.6 250.846 144.6ZM252.862 147.228V167.064H248.758V147.228H252.862ZM262.318 150.576V161.556C262.318 162.3 262.486 162.84 262.822 163.176C263.182 163.488 263.782 163.644 264.622 163.644H267.142V167.064H263.902C262.054 167.064 260.638 166.632 259.654 165.768C258.67 164.904 258.178 163.5 258.178 161.556V150.576H255.838V147.228H258.178V142.296H262.318V147.228H267.142V150.576H262.318ZM288.06 147.228L275.892 176.388H271.644L275.676 166.74L267.864 147.228H272.436L278.016 162.348L283.812 147.228H288.06ZM294.938 162.132L290.582 172.068H287.918L290.474 162.132H294.938ZM313.635 167.388C312.075 167.388 310.671 167.112 309.423 166.56C308.199 165.984 307.227 165.216 306.507 164.256C305.787 163.272 305.403 162.18 305.355 160.98H309.603C309.675 161.82 310.071 162.528 310.791 163.104C311.535 163.656 312.459 163.932 313.563 163.932C314.715 163.932 315.603 163.716 316.227 163.284C316.875 162.828 317.199 162.252 317.199 161.556C317.199 160.812 316.839 160.26 316.119 159.9C315.423 159.54 314.307 159.144 312.771 158.712C311.283 158.304 310.071 157.908 309.135 157.524C308.199 157.14 307.383 156.552 306.687 155.76C306.015 154.968 305.679 153.924 305.679 152.628C305.679 151.572 305.991 150.612 306.615 149.748C307.239 148.86 308.127 148.164 309.279 147.66C310.455 147.156 311.799 146.904 313.311 146.904C315.567 146.904 317.379 147.48 318.747 148.632C320.139 149.76 320.883 151.308 320.979 153.276H316.875C316.803 152.388 316.443 151.68 315.795 151.152C315.147 150.624 314.271 150.36 313.167 150.36C312.087 150.36 311.259 150.564 310.683 150.972C310.107 151.38 309.819 151.92 309.819 152.592C309.819 153.12 310.011 153.564 310.395 153.924C310.779 154.284 311.247 154.572 311.799 154.788C312.351 154.98 313.167 155.232 314.247 155.544C315.687 155.928 316.863 156.324 317.775 156.732C318.711 157.116 319.515 157.692 320.187 158.46C320.859 159.228 321.207 160.248 321.231 161.52C321.231 162.648 320.919 163.656 320.295 164.544C319.671 165.432 318.783 166.128 317.631 166.632C316.503 167.136 315.171 167.388 313.635 167.388ZM343.125 156.66C343.125 157.404 343.077 158.076 342.981 158.676H327.825C327.945 160.26 328.533 161.532 329.589 162.492C330.645 163.452 331.941 163.932 333.477 163.932C335.685 163.932 337.245 163.008 338.157 161.16H342.585C341.985 162.984 340.893 164.484 339.309 165.66C337.749 166.812 335.805 167.388 333.477 167.388C331.581 167.388 329.877 166.968 328.365 166.128C326.877 165.264 325.701 164.064 324.837 162.528C323.997 160.968 323.577 159.168 323.577 157.128C323.577 155.088 323.985 153.3 324.801 151.764C325.641 150.204 326.805 149.004 328.293 148.164C329.805 147.324 331.533 146.904 333.477 146.904C335.349 146.904 337.017 147.312 338.481 148.128C339.945 148.944 341.085 150.096 341.901 151.584C342.717 153.048 343.125 154.74 343.125 156.66ZM338.841 155.364C338.817 153.852 338.277 152.64 337.221 151.728C336.165 150.816 334.857 150.36 333.297 150.36C331.881 150.36 330.669 150.816 329.661 151.728C328.653 152.616 328.053 153.828 327.861 155.364H338.841ZM345.076 157.128C345.076 155.088 345.484 153.3 346.3 151.764C347.14 150.204 348.292 149.004 349.756 148.164C351.22 147.324 352.9 146.904 354.796 146.904C357.196 146.904 359.176 147.48 360.736 148.632C362.32 149.76 363.388 151.38 363.94 153.492H359.512C359.152 152.508 358.576 151.74 357.784 151.188C356.992 150.636 355.996 150.36 354.796 150.36C353.116 150.36 351.772 150.96 350.764 152.16C349.78 153.336 349.288 154.992 349.288 157.128C349.288 159.264 349.78 160.932 350.764 162.132C351.772 163.332 353.116 163.932 354.796 163.932C357.172 163.932 358.744 162.888 359.512 160.8H363.94C363.364 162.816 362.284 164.424 360.7 165.624C359.116 166.8 357.148 167.388 354.796 167.388C352.9 167.388 351.22 166.968 349.756 166.128C348.292 165.264 347.14 164.064 346.3 162.528C345.484 160.968 345.076 159.168 345.076 157.128ZM385.274 147.228V167.064H381.17V164.724C380.522 165.54 379.67 166.188 378.614 166.668C377.582 167.124 376.478 167.352 375.302 167.352C373.742 167.352 372.338 167.028 371.09 166.38C369.866 165.732 368.894 164.772 368.174 163.5C367.478 162.228 367.13 160.692 367.13 158.892V147.228H371.198V158.28C371.198 160.056 371.642 161.424 372.53 162.384C373.418 163.32 374.63 163.788 376.166 163.788C377.702 163.788 378.914 163.32 379.802 162.384C380.714 161.424 381.17 160.056 381.17 158.28V147.228H385.274ZM394.073 150.108C394.673 149.1 395.465 148.32 396.449 147.768C397.457 147.192 398.645 146.904 400.013 146.904V151.152H398.969C397.361 151.152 396.137 151.56 395.297 152.376C394.481 153.192 394.073 154.608 394.073 156.624V167.064H389.969V147.228H394.073V150.108ZM405.153 144.6C404.409 144.6 403.785 144.348 403.281 143.844C402.777 143.34 402.525 142.716 402.525 141.972C402.525 141.228 402.777 140.604 403.281 140.1C403.785 139.596 404.409 139.344 405.153 139.344C405.873 139.344 406.485 139.596 406.989 140.1C407.493 140.604 407.745 141.228 407.745 141.972C407.745 142.716 407.493 143.34 406.989 143.844C406.485 144.348 405.873 144.6 405.153 144.6ZM407.169 147.228V167.064H403.065V147.228H407.169ZM416.626 150.576V161.556C416.626 162.3 416.794 162.84 417.13 163.176C417.49 163.488 418.09 163.644 418.93 163.644H421.45V167.064H418.21C416.362 167.064 414.946 166.632 413.962 165.768C412.978 164.904 412.486 163.5 412.486 161.556V150.576H410.146V147.228H412.486V142.296H416.626V147.228H421.45V150.576H416.626ZM442.368 147.228L430.2 176.388H425.952L429.984 166.74L422.172 147.228H426.744L432.324 162.348L438.12 147.228H442.368ZM449.245 162.132L444.889 172.068H442.225L444.781 162.132H449.245ZM459.375 157.056C459.375 155.064 459.783 153.3 460.599 151.764C461.439 150.228 462.567 149.04 463.983 148.2C465.423 147.336 467.007 146.904 468.735 146.904C470.295 146.904 471.651 147.216 472.803 147.84C473.979 148.44 474.915 149.196 475.611 150.108V147.228H479.751V167.064H475.611V164.112C474.915 165.048 473.967 165.828 472.767 166.452C471.567 167.076 470.199 167.388 468.663 167.388C466.959 167.388 465.399 166.956 463.983 166.092C462.567 165.204 461.439 163.98 460.599 162.42C459.783 160.836 459.375 159.048 459.375 157.056ZM475.611 157.128C475.611 155.76 475.323 154.572 474.747 153.564C474.195 152.556 473.463 151.788 472.551 151.26C471.639 150.732 470.655 150.468 469.599 150.468C468.543 150.468 467.559 150.732 466.647 151.26C465.735 151.764 464.991 152.52 464.415 153.528C463.863 154.512 463.587 155.688 463.587 157.056C463.587 158.424 463.863 159.624 464.415 160.656C464.991 161.688 465.735 162.48 466.647 163.032C467.583 163.56 468.567 163.824 469.599 163.824C470.655 163.824 471.639 163.56 472.551 163.032C473.463 162.504 474.195 161.736 474.747 160.728C475.323 159.696 475.611 158.496 475.611 157.128ZM494.429 146.904C495.989 146.904 497.381 147.228 498.605 147.876C499.853 148.524 500.825 149.484 501.521 150.756C502.217 152.028 502.565 153.564 502.565 155.364V167.064H498.497V155.976C498.497 154.2 498.053 152.844 497.165 151.908C496.277 150.948 495.065 150.468 493.529 150.468C491.993 150.468 490.769 150.948 489.857 151.908C488.969 152.844 488.525 154.2 488.525 155.976V167.064H484.421V147.228H488.525V149.496C489.197 148.68 490.049 148.044 491.081 147.588C492.137 147.132 493.253 146.904 494.429 146.904ZM505.712 157.056C505.712 155.064 506.12 153.3 506.936 151.764C507.776 150.228 508.904 149.04 510.32 148.2C511.76 147.336 513.356 146.904 515.108 146.904C516.404 146.904 517.676 147.192 518.924 147.768C520.196 148.32 521.204 149.064 521.948 150V140.424H526.088V167.064H521.948V164.076C521.276 165.036 520.34 165.828 519.14 166.452C517.964 167.076 516.608 167.388 515.072 167.388C513.344 167.388 511.76 166.956 510.32 166.092C508.904 165.204 507.776 163.98 506.936 162.42C506.12 160.836 505.712 159.048 505.712 157.056ZM521.948 157.128C521.948 155.76 521.66 154.572 521.084 153.564C520.532 152.556 519.8 151.788 518.888 151.26C517.976 150.732 516.992 150.468 515.936 150.468C514.88 150.468 513.896 150.732 512.984 151.26C512.072 151.764 511.328 152.52 510.752 153.528C510.2 154.512 509.924 155.688 509.924 157.056C509.924 158.424 510.2 159.624 510.752 160.656C511.328 161.688 512.072 162.48 512.984 163.032C513.92 163.56 514.904 163.824 515.936 163.824C516.992 163.824 517.976 163.56 518.888 163.032C519.8 162.504 520.532 161.736 521.084 160.728C521.66 159.696 521.948 158.496 521.948 157.128ZM543.494 150.144C544.19 149.232 545.138 148.464 546.338 147.84C547.538 147.216 548.894 146.904 550.406 146.904C552.134 146.904 553.706 147.336 555.122 148.2C556.562 149.04 557.69 150.228 558.506 151.764C559.322 153.3 559.73 155.064 559.73 157.056C559.73 159.048 559.322 160.836 558.506 162.42C557.69 163.98 556.562 165.204 555.122 166.092C553.706 166.956 552.134 167.388 550.406 167.388C548.894 167.388 547.55 167.088 546.374 166.488C545.198 165.864 544.238 165.096 543.494 164.184V176.496H539.39V147.228H543.494V150.144ZM555.554 157.056C555.554 155.688 555.266 154.512 554.69 153.528C554.138 152.52 553.394 151.764 552.458 151.26C551.546 150.732 550.562 150.468 549.506 150.468C548.474 150.468 547.49 150.732 546.554 151.26C545.642 151.788 544.898 152.556 544.322 153.564C543.77 154.572 543.494 155.76 543.494 157.128C543.494 158.496 543.77 159.696 544.322 160.728C544.898 161.736 545.642 162.504 546.554 163.032C547.49 163.56 548.474 163.824 549.506 163.824C550.562 163.824 551.546 163.56 552.458 163.032C553.394 162.48 554.138 161.688 554.69 160.656C555.266 159.624 555.554 158.424 555.554 157.056ZM567.173 150.108C567.773 149.1 568.565 148.32 569.549 147.768C570.557 147.192 571.745 146.904 573.113 146.904V151.152H572.069C570.461 151.152 569.237 151.56 568.397 152.376C567.581 153.192 567.173 154.608 567.173 156.624V167.064H563.069V147.228H567.173V150.108ZM584.769 167.388C582.897 167.388 581.205 166.968 579.693 166.128C578.181 165.264 576.993 164.064 576.129 162.528C575.265 160.968 574.833 159.168 574.833 157.128C574.833 155.112 575.277 153.324 576.165 151.764C577.053 150.204 578.265 149.004 579.801 148.164C581.337 147.324 583.053 146.904 584.949 146.904C586.845 146.904 588.561 147.324 590.097 148.164C591.633 149.004 592.845 150.204 593.733 151.764C594.621 153.324 595.065 155.112 595.065 157.128C595.065 159.144 594.609 160.932 593.697 162.492C592.785 164.052 591.537 165.264 589.953 166.128C588.393 166.968 586.665 167.388 584.769 167.388ZM584.769 163.824C585.825 163.824 586.809 163.572 587.721 163.068C588.657 162.564 589.413 161.808 589.989 160.8C590.565 159.792 590.853 158.568 590.853 157.128C590.853 155.688 590.577 154.476 590.025 153.492C589.473 152.484 588.741 151.728 587.829 151.224C586.917 150.72 585.933 150.468 584.877 150.468C583.821 150.468 582.837 150.72 581.925 151.224C581.037 151.728 580.329 152.484 579.801 153.492C579.273 154.476 579.009 155.688 579.009 157.128C579.009 159.264 579.549 160.92 580.629 162.096C581.733 163.248 583.113 163.824 584.769 163.824ZM606.718 150.576H603.046V167.064H598.906V150.576H596.566V147.228H598.906V145.824C598.906 143.544 599.506 141.888 600.706 140.856C601.93 139.8 603.838 139.272 606.43 139.272V142.692C605.182 142.692 604.306 142.932 603.802 143.412C603.298 143.868 603.046 144.672 603.046 145.824V147.228H606.718V150.576ZM611.723 144.6C610.979 144.6 610.355 144.348 609.851 143.844C609.347 143.34 609.095 142.716 609.095 141.972C609.095 141.228 609.347 140.604 609.851 140.1C610.355 139.596 610.979 139.344 611.723 139.344C612.443 139.344 613.055 139.596 613.559 140.1C614.063 140.604 614.315 141.228 614.315 141.972C614.315 142.716 614.063 143.34 613.559 143.844C613.055 144.348 612.443 144.6 611.723 144.6ZM613.739 147.228V167.064H609.635V147.228H613.739ZM623.195 150.576V161.556C623.195 162.3 623.363 162.84 623.699 163.176C624.059 163.488 624.659 163.644 625.499 163.644H628.019V167.064H624.779C622.931 167.064 621.515 166.632 620.531 165.768C619.547 164.904 619.055 163.5 619.055 161.556V150.576H616.715V147.228H619.055V142.296H623.195V147.228H628.019V150.576H623.195ZM629.714 157.056C629.714 155.064 630.122 153.3 630.938 151.764C631.778 150.228 632.906 149.04 634.322 148.2C635.762 147.336 637.346 146.904 639.074 146.904C640.634 146.904 641.99 147.216 643.142 147.84C644.318 148.44 645.254 149.196 645.95 150.108V147.228H650.09V167.064H645.95V164.112C645.254 165.048 644.306 165.828 643.106 166.452C641.906 167.076 640.538 167.388 639.002 167.388C637.298 167.388 635.738 166.956 634.322 166.092C632.906 165.204 631.778 163.98 630.938 162.42C630.122 160.836 629.714 159.048 629.714 157.056ZM645.95 157.128C645.95 155.76 645.662 154.572 645.086 153.564C644.534 152.556 643.802 151.788 642.89 151.26C641.978 150.732 640.994 150.468 639.938 150.468C638.882 150.468 637.898 150.732 636.986 151.26C636.074 151.764 635.33 152.52 634.754 153.528C634.202 154.512 633.926 155.688 633.926 157.056C633.926 158.424 634.202 159.624 634.754 160.656C635.33 161.688 636.074 162.48 636.986 163.032C637.922 163.56 638.906 163.824 639.938 163.824C640.994 163.824 641.978 163.56 642.89 163.032C643.802 162.504 644.534 161.736 645.086 160.728C645.662 159.696 645.95 158.496 645.95 157.128ZM658.864 150.18C659.56 149.22 660.508 148.44 661.708 147.84C662.932 147.216 664.288 146.904 665.776 146.904C667.528 146.904 669.112 147.324 670.528 148.164C671.944 149.004 673.06 150.204 673.876 151.764C674.692 153.3 675.1 155.064 675.1 157.056C675.1 159.048 674.692 160.836 673.876 162.42C673.06 163.98 671.932 165.204 670.492 166.092C669.076 166.956 667.504 167.388 665.776 167.388C664.24 167.388 662.872 167.088 661.672 166.488C660.496 165.888 659.56 165.12 658.864 164.184V167.064H654.76V140.424H658.864V150.18ZM670.924 157.056C670.924 155.688 670.636 154.512 670.06 153.528C669.508 152.52 668.764 151.764 667.828 151.26C666.916 150.732 665.932 150.468 664.876 150.468C663.844 150.468 662.86 150.732 661.924 151.26C661.012 151.788 660.268 152.556 659.692 153.564C659.14 154.572 658.864 155.76 658.864 157.128C658.864 158.496 659.14 159.696 659.692 160.728C660.268 161.736 661.012 162.504 661.924 163.032C662.86 163.56 663.844 163.824 664.876 163.824C665.932 163.824 666.916 163.56 667.828 163.032C668.764 162.48 669.508 161.688 670.06 160.656C670.636 159.624 670.924 158.424 670.924 157.056ZM680.527 144.6C679.783 144.6 679.159 144.348 678.655 143.844C678.151 143.34 677.899 142.716 677.899 141.972C677.899 141.228 678.151 140.604 678.655 140.1C679.159 139.596 679.783 139.344 680.527 139.344C681.247 139.344 681.859 139.596 682.363 140.1C682.867 140.604 683.119 141.228 683.119 141.972C683.119 142.716 682.867 143.34 682.363 143.844C681.859 144.348 681.247 144.6 680.527 144.6ZM682.543 147.228V167.064H678.439V147.228H682.543ZM691.315 140.424V167.064H687.211V140.424H691.315ZM698.071 144.6C697.327 144.6 696.703 144.348 696.199 143.844C695.695 143.34 695.443 142.716 695.443 141.972C695.443 141.228 695.695 140.604 696.199 140.1C696.703 139.596 697.327 139.344 698.071 139.344C698.791 139.344 699.403 139.596 699.907 140.1C700.411 140.604 700.663 141.228 700.663 141.972C700.663 142.716 700.411 143.34 699.907 143.844C699.403 144.348 698.791 144.6 698.071 144.6ZM700.087 147.228V167.064H695.983V147.228H700.087ZM709.543 150.576V161.556C709.543 162.3 709.711 162.84 710.047 163.176C710.407 163.488 711.007 163.644 711.847 163.644H714.367V167.064H711.127C709.279 167.064 707.863 166.632 706.879 165.768C705.895 164.904 705.403 163.5 705.403 161.556V150.576H703.063V147.228H705.403V142.296H709.543V147.228H714.367V150.576H709.543ZM735.286 147.228L723.118 176.388H718.87L722.902 166.74L715.09 147.228H719.662L725.242 162.348L731.038 147.228H735.286ZM772.935 147.228L766.779 167.064H762.459L758.463 152.412L754.467 167.064H750.147L743.955 147.228H748.131L752.271 163.176L756.483 147.228H760.767L764.799 163.104L768.903 147.228H772.935ZM783.886 167.388C782.014 167.388 780.322 166.968 778.81 166.128C777.298 165.264 776.11 164.064 775.246 162.528C774.382 160.968 773.95 159.168 773.95 157.128C773.95 155.112 774.394 153.324 775.282 151.764C776.17 150.204 777.382 149.004 778.918 148.164C780.454 147.324 782.17 146.904 784.066 146.904C785.962 146.904 787.678 147.324 789.214 148.164C790.75 149.004 791.962 150.204 792.85 151.764C793.738 153.324 794.182 155.112 794.182 157.128C794.182 159.144 793.726 160.932 792.814 162.492C791.902 164.052 790.654 165.264 789.07 166.128C787.51 166.968 785.782 167.388 783.886 167.388ZM783.886 163.824C784.942 163.824 785.926 163.572 786.838 163.068C787.774 162.564 788.53 161.808 789.106 160.8C789.682 159.792 789.97 158.568 789.97 157.128C789.97 155.688 789.694 154.476 789.142 153.492C788.59 152.484 787.858 151.728 786.946 151.224C786.034 150.72 785.05 150.468 783.994 150.468C782.938 150.468 781.954 150.72 781.042 151.224C780.154 151.728 779.446 152.484 778.918 153.492C778.39 154.476 778.126 155.688 778.126 157.128C778.126 159.264 778.666 160.92 779.746 162.096C780.85 163.248 782.23 163.824 783.886 163.824ZM807.527 146.904C809.087 146.904 810.479 147.228 811.703 147.876C812.951 148.524 813.923 149.484 814.619 150.756C815.315 152.028 815.663 153.564 815.663 155.364V167.064H811.595V155.976C811.595 154.2 811.151 152.844 810.263 151.908C809.375 150.948 808.163 150.468 806.627 150.468C805.091 150.468 803.867 150.948 802.955 151.908C802.067 152.844 801.623 154.2 801.623 155.976V167.064H797.519V147.228H801.623V149.496C802.295 148.68 803.147 148.044 804.179 147.588C805.235 147.132 806.351 146.904 807.527 146.904ZM852.821 146.904C854.381 146.904 855.773 147.228 856.997 147.876C858.245 148.524 859.217 149.484 859.913 150.756C860.633 152.028 860.993 153.564 860.993 155.364V167.064H856.925V155.976C856.925 154.2 856.481 152.844 855.593 151.908C854.705 150.948 853.493 150.468 851.957 150.468C850.421 150.468 849.197 150.948 848.285 151.908C847.397 152.844 846.953 154.2 846.953 155.976V167.064H842.885V155.976C842.885 154.2 842.441 152.844 841.553 151.908C840.665 150.948 839.453 150.468 837.917 150.468C836.381 150.468 835.157 150.948 834.245 151.908C833.357 152.844 832.913 154.2 832.913 155.976V167.064H828.809V147.228H832.913V149.496C833.585 148.68 834.437 148.044 835.469 147.588C836.501 147.132 837.605 146.904 838.781 146.904C840.365 146.904 841.781 147.24 843.029 147.912C844.277 148.584 845.237 149.556 845.909 150.828C846.509 149.628 847.445 148.68 848.717 147.984C849.989 147.264 851.357 146.904 852.821 146.904ZM883.675 156.66C883.675 157.404 883.627 158.076 883.531 158.676H868.375C868.495 160.26 869.083 161.532 870.139 162.492C871.195 163.452 872.491 163.932 874.027 163.932C876.235 163.932 877.795 163.008 878.707 161.16H883.135C882.535 162.984 881.443 164.484 879.859 165.66C878.299 166.812 876.355 167.388 874.027 167.388C872.131 167.388 870.427 166.968 868.915 166.128C867.427 165.264 866.251 164.064 865.387 162.528C864.547 160.968 864.127 159.168 864.127 157.128C864.127 155.088 864.535 153.3 865.351 151.764C866.191 150.204 867.355 149.004 868.843 148.164C870.355 147.324 872.083 146.904 874.027 146.904C875.899 146.904 877.567 147.312 879.031 148.128C880.495 148.944 881.635 150.096 882.451 151.584C883.267 153.048 883.675 154.74 883.675 156.66ZM879.391 155.364C879.367 153.852 878.827 152.64 877.771 151.728C876.715 150.816 875.407 150.36 873.847 150.36C872.431 150.36 871.219 150.816 870.211 151.728C869.203 152.616 868.603 153.828 868.411 155.364H879.391ZM131.304 211.388C129.432 211.388 127.74 210.968 126.228 210.128C124.716 209.264 123.528 208.064 122.664 206.528C121.8 204.968 121.368 203.168 121.368 201.128C121.368 199.112 121.812 197.324 122.7 195.764C123.588 194.204 124.8 193.004 126.336 192.164C127.872 191.324 129.588 190.904 131.484 190.904C133.38 190.904 135.096 191.324 136.632 192.164C138.168 193.004 139.38 194.204 140.268 195.764C141.156 197.324 141.6 199.112 141.6 201.128C141.6 203.144 141.144 204.932 140.232 206.492C139.32 208.052 138.072 209.264 136.488 210.128C134.928 210.968 133.2 211.388 131.304 211.388ZM131.304 207.824C132.36 207.824 133.344 207.572 134.256 207.068C135.192 206.564 135.948 205.808 136.524 204.8C137.1 203.792 137.388 202.568 137.388 201.128C137.388 199.688 137.112 198.476 136.56 197.492C136.008 196.484 135.276 195.728 134.364 195.224C133.452 194.72 132.468 194.468 131.412 194.468C130.356 194.468 129.372 194.72 128.46 195.224C127.572 195.728 126.864 196.484 126.336 197.492C125.808 198.476 125.544 199.688 125.544 201.128C125.544 203.264 126.084 204.92 127.164 206.096C128.268 207.248 129.648 207.824 131.304 207.824ZM152.605 207.392L158.221 191.228H162.577L155.017 211.064H150.121L142.597 191.228H146.989L152.605 207.392ZM183.139 200.66C183.139 201.404 183.091 202.076 182.995 202.676H167.839C167.959 204.26 168.547 205.532 169.603 206.492C170.659 207.452 171.955 207.932 173.491 207.932C175.699 207.932 177.259 207.008 178.171 205.16H182.599C181.999 206.984 180.907 208.484 179.323 209.66C177.763 210.812 175.819 211.388 173.491 211.388C171.595 211.388 169.891 210.968 168.379 210.128C166.891 209.264 165.715 208.064 164.851 206.528C164.011 204.968 163.591 203.168 163.591 201.128C163.591 199.088 163.999 197.3 164.815 195.764C165.655 194.204 166.819 193.004 168.307 192.164C169.819 191.324 171.547 190.904 173.491 190.904C175.363 190.904 177.031 191.312 178.495 192.128C179.959 192.944 181.099 194.096 181.915 195.584C182.731 197.048 183.139 198.74 183.139 200.66ZM178.855 199.364C178.831 197.852 178.291 196.64 177.235 195.728C176.179 194.816 174.871 194.36 173.311 194.36C171.895 194.36 170.683 194.816 169.675 195.728C168.667 196.616 168.067 197.828 167.875 199.364H178.855ZM190.562 194.108C191.162 193.1 191.954 192.32 192.938 191.768C193.946 191.192 195.134 190.904 196.502 190.904V195.152H195.458C193.85 195.152 192.626 195.56 191.786 196.376C190.97 197.192 190.562 198.608 190.562 200.624V211.064H186.458V191.228H190.562V194.108ZM201.21 211.316C200.466 211.316 199.842 211.064 199.338 210.56C198.834 210.056 198.582 209.432 198.582 208.688C198.582 207.944 198.834 207.32 199.338 206.816C199.842 206.312 200.466 206.06 201.21 206.06C201.93 206.06 202.542 206.312 203.046 206.816C203.55 207.32 203.802 207.944 203.802 208.688C203.802 209.432 203.55 210.056 203.046 210.56C202.542 211.064 201.93 211.316 201.21 211.316Z" fill="#292929"/>
    <path d="M138 265.566V267.471H120V265.566H138ZM143.756 259.973H146.658L150.544 269.459H150.698L154.584 259.973H157.486V273.064H155.211V264.07H155.089L151.471 273.026H149.771L146.153 264.051H146.032V273.064H143.756V259.973ZM162.792 273.262C162.169 273.262 161.609 273.151 161.11 272.93C160.616 272.704 160.224 272.371 159.934 271.933C159.649 271.494 159.506 270.952 159.506 270.309C159.506 269.755 159.608 269.297 159.813 268.935C160.017 268.572 160.297 268.283 160.65 268.065C161.004 267.848 161.402 267.684 161.846 267.573C162.293 267.458 162.755 267.375 163.233 267.324C163.808 267.264 164.275 267.211 164.632 267.164C164.99 267.113 165.25 267.036 165.412 266.934C165.578 266.827 165.662 266.663 165.662 266.442V266.403C165.662 265.922 165.519 265.549 165.233 265.285C164.948 265.021 164.537 264.889 164 264.889C163.433 264.889 162.983 265.012 162.651 265.259C162.323 265.506 162.101 265.798 161.986 266.135L159.826 265.828C159.996 265.232 160.277 264.733 160.669 264.332C161.061 263.928 161.541 263.625 162.108 263.425C162.674 263.22 163.301 263.118 163.987 263.118C164.46 263.118 164.931 263.173 165.4 263.284C165.868 263.395 166.297 263.578 166.684 263.834C167.072 264.085 167.383 264.428 167.618 264.863C167.856 265.298 167.975 265.841 167.975 266.493V273.064H165.751V271.715H165.674C165.534 271.988 165.336 272.244 165.08 272.482C164.828 272.717 164.511 272.906 164.127 273.051C163.748 273.192 163.303 273.262 162.792 273.262ZM163.392 271.562C163.857 271.562 164.26 271.47 164.6 271.287C164.941 271.099 165.203 270.852 165.387 270.545C165.574 270.239 165.668 269.904 165.668 269.542V268.385C165.596 268.445 165.472 268.5 165.297 268.551C165.127 268.602 164.935 268.647 164.722 268.685C164.509 268.724 164.298 268.758 164.089 268.788C163.88 268.818 163.699 268.843 163.546 268.864C163.201 268.911 162.892 268.988 162.619 269.095C162.346 269.201 162.131 269.35 161.973 269.542C161.816 269.729 161.737 269.972 161.737 270.271C161.737 270.697 161.892 271.019 162.203 271.236C162.515 271.453 162.911 271.562 163.392 271.562ZM170.302 273.064V263.246H172.546V264.882H172.648C172.827 264.315 173.134 263.879 173.569 263.572C174.007 263.261 174.508 263.105 175.071 263.105C175.199 263.105 175.341 263.112 175.499 263.124C175.661 263.133 175.795 263.148 175.902 263.169V265.298C175.804 265.264 175.648 265.234 175.435 265.208C175.226 265.178 175.024 265.163 174.828 265.163C174.406 265.163 174.027 265.255 173.69 265.438C173.358 265.617 173.096 265.867 172.904 266.186C172.712 266.506 172.616 266.874 172.616 267.292V273.064H170.302ZM179.176 276.746C178.861 276.746 178.569 276.72 178.3 276.669C178.036 276.622 177.825 276.567 177.667 276.503L178.204 274.7C178.541 274.798 178.841 274.845 179.106 274.841C179.37 274.837 179.602 274.754 179.802 274.592C180.007 274.434 180.18 274.17 180.32 273.799L180.518 273.269L176.958 263.246H179.412L181.675 270.661H181.778L184.047 263.246H186.508L182.577 274.253C182.393 274.773 182.15 275.218 181.848 275.589C181.545 275.964 181.175 276.249 180.736 276.445C180.301 276.646 179.781 276.746 179.176 276.746ZM192.676 273.064V259.973H201.19V261.961H195.047V265.515H200.749V267.503H195.047V271.076H201.241V273.064H192.676ZM203.507 273.064V263.246H205.719V264.914H205.834C206.039 264.352 206.377 263.913 206.85 263.597C207.323 263.278 207.888 263.118 208.544 263.118C209.209 263.118 209.769 263.28 210.225 263.604C210.686 263.923 211.009 264.36 211.197 264.914H211.299C211.517 264.369 211.883 263.934 212.399 263.61C212.919 263.282 213.534 263.118 214.246 263.118C215.149 263.118 215.887 263.403 216.458 263.974C217.029 264.545 217.314 265.379 217.314 266.474V273.064H214.994V266.832C214.994 266.222 214.832 265.777 214.508 265.496C214.184 265.21 213.788 265.068 213.319 265.068C212.761 265.068 212.324 265.242 212.009 265.592C211.698 265.937 211.542 266.386 211.542 266.94V273.064H209.273V266.736C209.273 266.229 209.119 265.824 208.813 265.521C208.51 265.219 208.114 265.068 207.624 265.068C207.291 265.068 206.989 265.153 206.716 265.323C206.443 265.489 206.226 265.726 206.064 266.033C205.902 266.335 205.821 266.689 205.821 267.094V273.064H203.507ZM219.662 273.064V263.246H221.873V264.914H221.988C222.193 264.352 222.532 263.913 223.005 263.597C223.478 263.278 224.042 263.118 224.699 263.118C225.363 263.118 225.924 263.28 226.38 263.604C226.84 263.923 227.164 264.36 227.351 264.914H227.453C227.671 264.369 228.037 263.934 228.553 263.61C229.073 263.282 229.689 263.118 230.4 263.118C231.304 263.118 232.041 263.403 232.612 263.974C233.183 264.545 233.468 265.379 233.468 266.474V273.064H231.148V266.832C231.148 266.222 230.986 265.777 230.662 265.496C230.338 265.21 229.942 265.068 229.473 265.068C228.915 265.068 228.478 265.242 228.163 265.592C227.852 265.937 227.696 266.386 227.696 266.94V273.064H225.427V266.736C225.427 266.229 225.274 265.824 224.967 265.521C224.664 265.219 224.268 265.068 223.778 265.068C223.446 265.068 223.143 265.153 222.87 265.323C222.598 265.489 222.38 265.726 222.218 266.033C222.056 266.335 221.975 266.689 221.975 267.094V273.064H219.662ZM238.641 273.262C238.019 273.262 237.459 273.151 236.96 272.93C236.466 272.704 236.074 272.371 235.784 271.933C235.498 271.494 235.356 270.952 235.356 270.309C235.356 269.755 235.458 269.297 235.662 268.935C235.867 268.572 236.146 268.283 236.5 268.065C236.854 267.848 237.252 267.684 237.695 267.573C238.143 267.458 238.605 267.375 239.082 267.324C239.657 267.264 240.124 267.211 240.482 267.164C240.84 267.113 241.1 267.036 241.262 266.934C241.428 266.827 241.511 266.663 241.511 266.442V266.403C241.511 265.922 241.368 265.549 241.083 265.285C240.797 265.021 240.386 264.889 239.849 264.889C239.282 264.889 238.833 265.012 238.501 265.259C238.172 265.506 237.951 265.798 237.836 266.135L235.675 265.828C235.846 265.232 236.127 264.733 236.519 264.332C236.911 263.928 237.39 263.625 237.957 263.425C238.524 263.22 239.15 263.118 239.836 263.118C240.309 263.118 240.78 263.173 241.249 263.284C241.718 263.395 242.146 263.578 242.534 263.834C242.922 264.085 243.233 264.428 243.467 264.863C243.706 265.298 243.825 265.841 243.825 266.493V273.064H241.601V271.715H241.524C241.383 271.988 241.185 272.244 240.93 272.482C240.678 272.717 240.361 272.906 239.977 273.051C239.598 273.192 239.153 273.262 238.641 273.262ZM239.242 271.562C239.706 271.562 240.109 271.47 240.45 271.287C240.791 271.099 241.053 270.852 241.236 270.545C241.424 270.239 241.518 269.904 241.518 269.542V268.385C241.445 268.445 241.322 268.5 241.147 268.551C240.976 268.602 240.785 268.647 240.572 268.685C240.358 268.724 240.148 268.758 239.939 268.788C239.73 268.818 239.549 268.843 239.395 268.864C239.05 268.911 238.741 268.988 238.469 269.095C238.196 269.201 237.981 269.35 237.823 269.542C237.665 269.729 237.586 269.972 237.586 270.271C237.586 270.697 237.742 271.019 238.053 271.236C238.364 271.453 238.76 271.562 239.242 271.562ZM248.466 267.311V273.064H246.152V263.246H248.363V264.914H248.479C248.704 264.364 249.064 263.928 249.559 263.604C250.057 263.28 250.673 263.118 251.406 263.118C252.084 263.118 252.674 263.263 253.177 263.553C253.684 263.842 254.076 264.262 254.353 264.812C254.634 265.362 254.773 266.028 254.768 266.813V273.064H252.454V267.17C252.454 266.514 252.284 266.001 251.943 265.63C251.606 265.259 251.14 265.074 250.543 265.074C250.138 265.074 249.778 265.163 249.463 265.342C249.152 265.517 248.907 265.771 248.728 266.103C248.553 266.435 248.466 266.838 248.466 267.311ZM263.378 268.935V263.246H265.692V273.064H263.449V271.319H263.346C263.125 271.869 262.76 272.318 262.253 272.668C261.751 273.017 261.131 273.192 260.393 273.192C259.75 273.192 259.181 273.049 258.687 272.764C258.197 272.474 257.813 272.054 257.536 271.504C257.259 270.95 257.121 270.281 257.121 269.497V263.246H259.434V269.139C259.434 269.761 259.605 270.256 259.946 270.622C260.287 270.989 260.734 271.172 261.288 271.172C261.629 271.172 261.959 271.089 262.279 270.923C262.599 270.756 262.861 270.509 263.065 270.181C263.274 269.849 263.378 269.433 263.378 268.935ZM270.897 273.262C270.275 273.262 269.714 273.151 269.216 272.93C268.722 272.704 268.33 272.371 268.04 271.933C267.754 271.494 267.612 270.952 267.612 270.309C267.612 269.755 267.714 269.297 267.918 268.935C268.123 268.572 268.402 268.283 268.756 268.065C269.109 267.848 269.508 267.684 269.951 267.573C270.398 267.458 270.861 267.375 271.338 267.324C271.913 267.264 272.38 267.211 272.738 267.164C273.096 267.113 273.356 267.036 273.518 266.934C273.684 266.827 273.767 266.663 273.767 266.442V266.403C273.767 265.922 273.624 265.549 273.339 265.285C273.053 265.021 272.642 264.889 272.105 264.889C271.538 264.889 271.089 265.012 270.756 265.259C270.428 265.506 270.207 265.798 270.092 266.135L267.931 265.828C268.102 265.232 268.383 264.733 268.775 264.332C269.167 263.928 269.646 263.625 270.213 263.425C270.78 263.22 271.406 263.118 272.092 263.118C272.565 263.118 273.036 263.173 273.505 263.284C273.974 263.395 274.402 263.578 274.79 263.834C275.178 264.085 275.489 264.428 275.723 264.863C275.962 265.298 276.081 265.841 276.081 266.493V273.064H273.857V271.715H273.78C273.639 271.988 273.441 272.244 273.185 272.482C272.934 272.717 272.616 272.906 272.233 273.051C271.854 273.192 271.408 273.262 270.897 273.262ZM271.498 271.562C271.962 271.562 272.365 271.47 272.706 271.287C273.047 271.099 273.309 270.852 273.492 270.545C273.68 270.239 273.773 269.904 273.773 269.542V268.385C273.701 268.445 273.577 268.5 273.403 268.551C273.232 268.602 273.04 268.647 272.827 268.685C272.614 268.724 272.403 268.758 272.195 268.788C271.986 268.818 271.805 268.843 271.651 268.864C271.306 268.911 270.997 268.988 270.724 269.095C270.452 269.201 270.237 269.35 270.079 269.542C269.921 269.729 269.842 269.972 269.842 270.271C269.842 270.697 269.998 271.019 270.309 271.236C270.62 271.453 271.016 271.562 271.498 271.562ZM280.722 259.973V273.064H278.408V259.973H280.722ZM285.415 259.973V273.064H283.101V259.973H285.415ZM290.62 273.262C289.998 273.262 289.437 273.151 288.939 272.93C288.444 272.704 288.052 272.371 287.762 271.933C287.477 271.494 287.334 270.952 287.334 270.309C287.334 269.755 287.436 269.297 287.641 268.935C287.846 268.572 288.125 268.283 288.478 268.065C288.832 267.848 289.23 267.684 289.674 267.573C290.121 267.458 290.583 267.375 291.061 267.324C291.636 267.264 292.103 267.211 292.461 267.164C292.819 267.113 293.078 267.036 293.24 266.934C293.407 266.827 293.49 266.663 293.49 266.442V266.403C293.49 265.922 293.347 265.549 293.061 265.285C292.776 265.021 292.365 264.889 291.828 264.889C291.261 264.889 290.811 265.012 290.479 265.259C290.151 265.506 289.929 265.798 289.814 266.135L287.654 265.828C287.824 265.232 288.105 264.733 288.498 264.332C288.89 263.928 289.369 263.625 289.936 263.425C290.502 263.22 291.129 263.118 291.815 263.118C292.288 263.118 292.759 263.173 293.228 263.284C293.696 263.395 294.125 263.578 294.512 263.834C294.9 264.085 295.211 264.428 295.446 264.863C295.684 265.298 295.804 265.841 295.804 266.493V273.064H293.579V271.715H293.502C293.362 271.988 293.164 272.244 292.908 272.482C292.657 272.717 292.339 272.906 291.956 273.051C291.576 273.192 291.131 273.262 290.62 273.262ZM291.221 271.562C291.685 271.562 292.088 271.47 292.429 271.287C292.77 271.099 293.032 270.852 293.215 270.545C293.402 270.239 293.496 269.904 293.496 269.542V268.385C293.424 268.445 293.3 268.5 293.125 268.551C292.955 268.602 292.763 268.647 292.55 268.685C292.337 268.724 292.126 268.758 291.917 268.788C291.708 268.818 291.527 268.843 291.374 268.864C291.029 268.911 290.72 268.988 290.447 269.095C290.174 269.201 289.959 269.35 289.801 269.542C289.644 269.729 289.565 269.972 289.565 270.271C289.565 270.697 289.721 271.019 290.032 271.236C290.343 271.453 290.739 271.562 291.221 271.562Z" fill="#101828"/>
    <defs>
        <clipPath id="clip0_311_34463">
            <rect width="20" height="20" fill="white" transform="translate(120 0.0639648)"/>
        </clipPath>
        <clipPath id="clip1_311_34463">
            <rect width="20" height="20" fill="white" transform="translate(120 0.0639648)"/>
        </clipPath>
        <clipPath id="clip2_311_34463">
            <rect width="20" height="20" fill="white" transform="translate(144 0.0639648)"/>
        </clipPath>
        <clipPath id="clip3_311_34463">
            <rect width="20" height="20" fill="white" transform="translate(144 0.0639648)"/>
        </clipPath>
        <clipPath id="clip4_311_34463">
            <rect width="20" height="20" fill="white" transform="translate(168 0.0639648)"/>
        </clipPath>
        <clipPath id="clip5_311_34463">
            <rect width="20" height="20" fill="white" transform="translate(168 0.0639648)"/>
        </clipPath>
        <clipPath id="clip6_311_34463">
            <rect width="20" height="20" fill="white" transform="translate(192 0.0639648)"/>
        </clipPath>
        <clipPath id="clip7_311_34463">
            <rect width="20" height="20" fill="white" transform="translate(192 0.0639648)"/>
        </clipPath>
        <clipPath id="clip8_311_34463">
            <rect width="20" height="20" fill="white" transform="translate(216 0.0639648)"/>
        </clipPath>
        <clipPath id="clip9_311_34463">
            <rect width="20" height="20" fill="white" transform="translate(216 0.0639648)"/>
        </clipPath>
    </defs>
</svg>
