<svg width="384" height="179" viewBox="0 0 384 179" fill="none" xmlns="http://www.w3.org/2000/svg">
    <rect x="168" y="4.06396" width="48" height="48" rx="24" fill="#FFEEEF"/>
    <rect x="168" y="4.06396" width="48" height="48" rx="24" stroke="#FFDADC" stroke-width="8"/>
    <path d="M182 23.064L190.165 28.7794C190.826 29.2422 191.157 29.4736 191.516 29.5633C191.834 29.6424 192.166 29.6424 192.484 29.5633C192.843 29.4736 193.174 29.2422 193.835 28.7794L202 23.064M186.8 36.064H197.2C198.88 36.064 199.72 36.064 200.362 35.737C200.926 35.4494 201.385 34.9904 201.673 34.4259C202 33.7842 202 32.9441 202 31.264V24.864C202 23.1838 202 22.3437 201.673 21.702C201.385 21.1375 200.926 20.6786 200.362 20.3909C199.72 20.064 198.88 20.064 197.2 20.064H186.8C185.12 20.064 184.28 20.064 183.638 20.3909C183.074 20.6786 182.615 21.1375 182.327 21.702C182 22.3437 182 23.1838 182 24.864V31.264C182 32.9441 182 33.7842 182.327 34.4259C182.615 34.9904 183.074 35.4494 183.638 35.737C184.28 36.064 185.12 36.064 186.8 36.064Z" stroke="#7D0007" stroke-width="2" stroke-linecap="round" stroke-linejoin="round"/>
    <path d="M167.429 94.064V79.5185H176.889V81.7273H170.064V85.6762H176.399V87.885H170.064V91.8552H176.946V94.064H167.429ZM179.464 94.064V83.1549H181.921V85.0086H182.049C182.276 84.3836 182.653 83.8959 183.178 83.5455C183.704 83.1904 184.331 83.0128 185.06 83.0128C185.799 83.0128 186.421 83.1928 186.928 83.5526C187.439 83.9077 187.799 84.393 188.008 85.0086H188.121C188.363 84.4025 188.77 83.9196 189.343 83.5597C189.921 83.1951 190.605 83.0128 191.395 83.0128C192.399 83.0128 193.218 83.3301 193.853 83.9645C194.487 84.599 194.805 85.5247 194.805 86.7415V94.064H192.226V87.1392C192.226 86.4622 192.046 85.9674 191.687 85.6549C191.327 85.3376 190.886 85.179 190.366 85.179C189.745 85.179 189.26 85.3732 188.91 85.7614C188.564 86.1449 188.391 86.6445 188.391 87.26V94.064H185.87V87.0327C185.87 86.4693 185.699 86.0195 185.358 85.6833C185.022 85.3471 184.582 85.179 184.037 85.179C183.668 85.179 183.332 85.2737 183.029 85.4631C182.726 85.6478 182.484 85.9106 182.305 86.2515C182.125 86.5876 182.035 86.9806 182.035 87.4304V94.064H179.464ZM200.552 94.2841C199.861 94.2841 199.238 94.161 198.684 93.9148C198.135 93.6639 197.699 93.2946 197.377 92.8069C197.06 92.3192 196.901 91.7178 196.901 91.0029C196.901 90.3874 197.015 89.8784 197.242 89.4759C197.47 89.0734 197.78 88.7515 198.173 88.51C198.566 88.2685 199.008 88.0862 199.501 87.9631C199.998 87.8353 200.512 87.7429 201.042 87.6861C201.681 87.6198 202.2 87.5607 202.597 87.5086C202.995 87.4517 203.284 87.3665 203.464 87.2529C203.649 87.1345 203.741 86.9522 203.741 86.706V86.6634C203.741 86.1284 203.582 85.7141 203.265 85.4205C202.948 85.1269 202.491 84.9802 201.894 84.9802C201.265 84.9802 200.765 85.1175 200.396 85.3921C200.031 85.6667 199.785 85.991 199.657 86.3651L197.257 86.0242C197.446 85.3613 197.758 84.8073 198.194 84.3623C198.63 83.9124 199.162 83.5763 199.792 83.3537C200.422 83.1265 201.118 83.0128 201.88 83.0128C202.406 83.0128 202.929 83.0744 203.45 83.1975C203.971 83.3206 204.446 83.5242 204.877 83.8083C205.308 84.0876 205.654 84.4688 205.914 84.9517C206.179 85.4347 206.312 86.0384 206.312 86.7628V94.064H203.84V92.5654H203.755C203.599 92.8684 203.379 93.1525 203.095 93.4177C202.815 93.6781 202.463 93.8888 202.036 94.0498C201.615 94.206 201.12 94.2841 200.552 94.2841ZM201.22 92.3949C201.736 92.3949 202.183 92.2931 202.562 92.0895C202.941 91.8812 203.232 91.6066 203.436 91.2657C203.644 90.9248 203.748 90.5531 203.748 90.1506V88.8651C203.668 88.9314 203.53 88.9929 203.336 89.0498C203.147 89.1066 202.934 89.1563 202.697 89.1989C202.46 89.2415 202.226 89.2794 201.994 89.3125C201.762 89.3457 201.561 89.3741 201.39 89.3978C201.007 89.4499 200.663 89.5351 200.36 89.6535C200.057 89.7718 199.818 89.9375 199.643 90.1506C199.468 90.3589 199.38 90.6288 199.38 90.9603C199.38 91.4338 199.553 91.7912 199.899 92.0327C200.244 92.2742 200.685 92.3949 201.22 92.3949ZM208.897 94.064V83.1549H211.468V94.064H208.897ZM210.19 81.6066C209.783 81.6066 209.432 81.4716 209.139 81.2017C208.845 80.9271 208.698 80.5981 208.698 80.2145C208.698 79.8263 208.845 79.4972 209.139 79.2273C209.432 78.9527 209.783 78.8154 210.19 78.8154C210.602 78.8154 210.952 78.9527 211.241 79.2273C211.535 79.4972 211.681 79.8263 211.681 80.2145C211.681 80.5981 211.535 80.9271 211.241 81.2017C210.952 81.4716 210.602 81.6066 210.19 81.6066ZM216.683 79.5185V94.064H214.112V79.5185H216.683Z" fill="#101828"/>
    <path d="M68.6943 128.176C67.6596 128.176 66.7156 127.936 65.8623 127.456C65.0089 126.965 64.3316 126.288 63.8303 125.424C63.3396 124.549 63.0943 123.568 63.0943 122.48C63.0943 121.392 63.3396 120.416 63.8303 119.552C64.3316 118.677 65.0089 118 65.8623 117.52C66.7156 117.029 67.6596 116.784 68.6943 116.784C69.7396 116.784 70.6889 117.029 71.5423 117.52C72.3956 118 73.0676 118.672 73.5583 119.536C74.0489 120.4 74.2943 121.381 74.2943 122.48C74.2943 123.579 74.0489 124.56 73.5583 125.424C73.0676 126.288 72.3956 126.965 71.5423 127.456C70.6889 127.936 69.7396 128.176 68.6943 128.176ZM68.6943 126.912C69.4729 126.912 70.1716 126.731 70.7903 126.368C71.4196 126.005 71.9103 125.488 72.2623 124.816C72.6249 124.144 72.8063 123.365 72.8063 122.48C72.8063 121.584 72.6249 120.805 72.2623 120.144C71.9103 119.472 71.4249 118.955 70.8063 118.592C70.1876 118.229 69.4836 118.048 68.6943 118.048C67.9049 118.048 67.2009 118.229 66.5823 118.592C65.9636 118.955 65.4729 119.472 65.1103 120.144C64.7583 120.805 64.5823 121.584 64.5823 122.48C64.5823 123.365 64.7583 124.144 65.1103 124.816C65.4729 125.488 65.9636 126.005 66.5823 126.368C67.2116 126.731 67.9156 126.912 68.6943 126.912ZM83.9924 119.296V128.064H82.5364V126.768C82.259 127.216 81.8697 127.568 81.3684 127.824C80.8777 128.069 80.3337 128.192 79.7364 128.192C79.0537 128.192 78.4404 128.053 77.8964 127.776C77.3524 127.488 76.9204 127.061 76.6004 126.496C76.291 125.931 76.1364 125.243 76.1364 124.432V119.296H77.5764V124.24C77.5764 125.104 77.795 125.771 78.2324 126.24C78.6697 126.699 79.267 126.928 80.0244 126.928C80.803 126.928 81.4164 126.688 81.8644 126.208C82.3124 125.728 82.5364 125.029 82.5364 124.112V119.296H83.9924ZM87.9068 120.72C88.1628 120.219 88.5254 119.829 88.9948 119.552C89.4748 119.275 90.0561 119.136 90.7388 119.136V120.64H90.3548C88.7228 120.64 87.9068 121.525 87.9068 123.296V128.064H86.4508V119.296H87.9068V120.72ZM100.253 120.496H98.4131V128.064H96.9571V120.496H95.8211V119.296H96.9571V118.672C96.9571 117.691 97.2078 116.976 97.7091 116.528C98.2211 116.069 99.0371 115.84 100.157 115.84V117.056C99.5171 117.056 99.0638 117.184 98.7971 117.44C98.5411 117.685 98.4131 118.096 98.4131 118.672V119.296H100.253V120.496ZM103.407 120.72C103.663 120.219 104.025 119.829 104.495 119.552C104.975 119.275 105.556 119.136 106.239 119.136V120.64H105.855C104.223 120.64 103.407 121.525 103.407 123.296V128.064H101.951V119.296H103.407V120.72ZM108.672 117.872C108.394 117.872 108.16 117.776 107.968 117.584C107.776 117.392 107.68 117.157 107.68 116.88C107.68 116.603 107.776 116.368 107.968 116.176C108.16 115.984 108.394 115.888 108.672 115.888C108.938 115.888 109.162 115.984 109.344 116.176C109.536 116.368 109.632 116.603 109.632 116.88C109.632 117.157 109.536 117.392 109.344 117.584C109.162 117.776 108.938 117.872 108.672 117.872ZM109.376 119.296V128.064H107.92V119.296H109.376ZM119.857 123.344C119.857 123.621 119.841 123.915 119.809 124.224H112.801C112.854 125.088 113.148 125.765 113.681 126.256C114.225 126.736 114.881 126.976 115.649 126.976C116.278 126.976 116.801 126.832 117.217 126.544C117.644 126.245 117.942 125.851 118.113 125.36H119.681C119.446 126.203 118.977 126.891 118.273 127.424C117.569 127.947 116.694 128.208 115.649 128.208C114.817 128.208 114.07 128.021 113.409 127.648C112.758 127.275 112.246 126.747 111.873 126.064C111.5 125.371 111.313 124.571 111.313 123.664C111.313 122.757 111.494 121.963 111.857 121.28C112.22 120.597 112.726 120.075 113.377 119.712C114.038 119.339 114.796 119.152 115.649 119.152C116.481 119.152 117.217 119.333 117.857 119.696C118.497 120.059 118.988 120.56 119.329 121.2C119.681 121.829 119.857 122.544 119.857 123.344ZM118.353 123.04C118.353 122.485 118.23 122.011 117.985 121.616C117.74 121.211 117.404 120.907 116.977 120.704C116.561 120.491 116.097 120.384 115.585 120.384C114.849 120.384 114.22 120.619 113.697 121.088C113.185 121.557 112.892 122.208 112.817 123.04H118.353ZM126.051 119.136C127.118 119.136 127.982 119.461 128.643 120.112C129.304 120.752 129.635 121.68 129.635 122.896V128.064H128.195V123.104C128.195 122.229 127.976 121.563 127.539 121.104C127.102 120.635 126.504 120.4 125.747 120.4C124.979 120.4 124.366 120.64 123.907 121.12C123.459 121.6 123.235 122.299 123.235 123.216V128.064H121.779V119.296H123.235V120.544C123.523 120.096 123.912 119.749 124.403 119.504C124.904 119.259 125.454 119.136 126.051 119.136ZM131.469 123.648C131.469 122.752 131.651 121.968 132.013 121.296C132.376 120.613 132.872 120.085 133.501 119.712C134.141 119.339 134.856 119.152 135.645 119.152C136.328 119.152 136.963 119.312 137.549 119.632C138.136 119.941 138.584 120.352 138.893 120.864V116.224H140.365V128.064H138.893V126.416C138.605 126.939 138.179 127.371 137.613 127.712C137.048 128.043 136.387 128.208 135.629 128.208C134.851 128.208 134.141 128.016 133.501 127.632C132.872 127.248 132.376 126.709 132.013 126.016C131.651 125.323 131.469 124.533 131.469 123.648ZM138.893 123.664C138.893 123.003 138.76 122.427 138.493 121.936C138.227 121.445 137.864 121.072 137.405 120.816C136.957 120.549 136.461 120.416 135.917 120.416C135.373 120.416 134.877 120.544 134.429 120.8C133.981 121.056 133.624 121.429 133.357 121.92C133.091 122.411 132.957 122.987 132.957 123.648C132.957 124.32 133.091 124.907 133.357 125.408C133.624 125.899 133.981 126.277 134.429 126.544C134.877 126.8 135.373 126.928 135.917 126.928C136.461 126.928 136.957 126.8 137.405 126.544C137.864 126.277 138.227 125.899 138.493 125.408C138.76 124.907 138.893 124.325 138.893 123.664ZM144.282 116.224V128.064H142.826V116.224H144.282ZM154.315 119.296L149.035 132.192H147.531L149.259 127.968L145.723 119.296H147.339L150.091 126.4L152.811 119.296H154.315ZM161.821 120.496V125.664C161.821 126.091 161.911 126.395 162.093 126.576C162.274 126.747 162.589 126.832 163.036 126.832H164.109V128.064H162.797C161.986 128.064 161.378 127.877 160.973 127.504C160.567 127.131 160.365 126.517 160.365 125.664V120.496H159.229V119.296H160.365V117.088H161.821V119.296H164.109V120.496H161.821ZM173.873 123.344C173.873 123.621 173.857 123.915 173.825 124.224H166.817C166.87 125.088 167.163 125.765 167.697 126.256C168.241 126.736 168.897 126.976 169.665 126.976C170.294 126.976 170.817 126.832 171.233 126.544C171.659 126.245 171.958 125.851 172.129 125.36H173.697C173.462 126.203 172.993 126.891 172.289 127.424C171.585 127.947 170.71 128.208 169.665 128.208C168.833 128.208 168.086 128.021 167.425 127.648C166.774 127.275 166.262 126.747 165.889 126.064C165.515 125.371 165.329 124.571 165.329 123.664C165.329 122.757 165.51 121.963 165.873 121.28C166.235 120.597 166.742 120.075 167.393 119.712C168.054 119.339 168.811 119.152 169.665 119.152C170.497 119.152 171.233 119.333 171.873 119.696C172.513 120.059 173.003 120.56 173.345 121.2C173.697 121.829 173.873 122.544 173.873 123.344ZM172.369 123.04C172.369 122.485 172.246 122.011 172.001 121.616C171.755 121.211 171.419 120.907 170.993 120.704C170.577 120.491 170.113 120.384 169.601 120.384C168.865 120.384 168.235 120.619 167.713 121.088C167.201 121.557 166.907 122.208 166.833 123.04H172.369ZM175.251 123.648C175.251 122.752 175.432 121.968 175.795 121.296C176.157 120.613 176.653 120.085 177.283 119.712C177.923 119.339 178.632 119.152 179.411 119.152C180.179 119.152 180.845 119.317 181.411 119.648C181.976 119.979 182.397 120.395 182.675 120.896V119.296H184.147V128.064H182.675V126.432C182.387 126.944 181.955 127.371 181.379 127.712C180.813 128.043 180.152 128.208 179.395 128.208C178.616 128.208 177.912 128.016 177.283 127.632C176.653 127.248 176.157 126.709 175.795 126.016C175.432 125.323 175.251 124.533 175.251 123.648ZM182.675 123.664C182.675 123.003 182.541 122.427 182.275 121.936C182.008 121.445 181.645 121.072 181.187 120.816C180.739 120.549 180.243 120.416 179.699 120.416C179.155 120.416 178.659 120.544 178.211 120.8C177.763 121.056 177.405 121.429 177.139 121.92C176.872 122.411 176.739 122.987 176.739 123.648C176.739 124.32 176.872 124.907 177.139 125.408C177.405 125.899 177.763 126.277 178.211 126.544C178.659 126.8 179.155 126.928 179.699 126.928C180.243 126.928 180.739 126.8 181.187 126.544C181.645 126.277 182.008 125.899 182.275 125.408C182.541 124.907 182.675 124.325 182.675 123.664ZM197.151 119.136C197.834 119.136 198.442 119.28 198.975 119.568C199.508 119.845 199.93 120.267 200.239 120.832C200.548 121.397 200.703 122.085 200.703 122.896V128.064H199.263V123.104C199.263 122.229 199.044 121.563 198.607 121.104C198.18 120.635 197.599 120.4 196.863 120.4C196.106 120.4 195.503 120.645 195.055 121.136C194.607 121.616 194.383 122.315 194.383 123.232V128.064H192.943V123.104C192.943 122.229 192.724 121.563 192.287 121.104C191.86 120.635 191.279 120.4 190.543 120.4C189.786 120.4 189.183 120.645 188.735 121.136C188.287 121.616 188.063 122.315 188.063 123.232V128.064H186.607V119.296H188.063V120.56C188.351 120.101 188.735 119.749 189.215 119.504C189.706 119.259 190.244 119.136 190.831 119.136C191.567 119.136 192.218 119.301 192.783 119.632C193.348 119.963 193.77 120.448 194.047 121.088C194.292 120.469 194.698 119.989 195.263 119.648C195.828 119.307 196.458 119.136 197.151 119.136ZM208.109 117.872C207.832 117.872 207.597 117.776 207.405 117.584C207.213 117.392 207.117 117.157 207.117 116.88C207.117 116.603 207.213 116.368 207.405 116.176C207.597 115.984 207.832 115.888 208.109 115.888C208.376 115.888 208.6 115.984 208.781 116.176C208.973 116.368 209.069 116.603 209.069 116.88C209.069 117.157 208.973 117.392 208.781 117.584C208.6 117.776 208.376 117.872 208.109 117.872ZM208.813 119.296V128.064H207.357V119.296H208.813ZM214.399 128.208C213.727 128.208 213.124 128.096 212.591 127.872C212.057 127.637 211.636 127.317 211.327 126.912C211.017 126.496 210.847 126.021 210.815 125.488H212.319C212.361 125.925 212.564 126.283 212.927 126.56C213.3 126.837 213.785 126.976 214.383 126.976C214.937 126.976 215.375 126.853 215.695 126.608C216.015 126.363 216.175 126.053 216.175 125.68C216.175 125.296 216.004 125.013 215.663 124.832C215.321 124.64 214.793 124.453 214.079 124.272C213.428 124.101 212.895 123.931 212.479 123.76C212.073 123.579 211.721 123.317 211.423 122.976C211.135 122.624 210.991 122.165 210.991 121.6C210.991 121.152 211.124 120.741 211.391 120.368C211.657 119.995 212.036 119.701 212.527 119.488C213.017 119.264 213.577 119.152 214.207 119.152C215.177 119.152 215.961 119.397 216.559 119.888C217.156 120.379 217.476 121.051 217.519 121.904H216.063C216.031 121.445 215.844 121.077 215.503 120.8C215.172 120.523 214.724 120.384 214.159 120.384C213.636 120.384 213.22 120.496 212.911 120.72C212.601 120.944 212.447 121.237 212.447 121.6C212.447 121.888 212.537 122.128 212.719 122.32C212.911 122.501 213.145 122.651 213.423 122.768C213.711 122.875 214.105 122.997 214.607 123.136C215.236 123.307 215.748 123.477 216.143 123.648C216.537 123.808 216.873 124.053 217.151 124.384C217.439 124.715 217.588 125.147 217.599 125.68C217.599 126.16 217.465 126.592 217.199 126.976C216.932 127.36 216.553 127.664 216.063 127.888C215.583 128.101 215.028 128.208 214.399 128.208ZM228.272 119.136C228.933 119.136 229.53 119.28 230.064 119.568C230.597 119.845 231.013 120.267 231.312 120.832C231.621 121.397 231.776 122.085 231.776 122.896V128.064H230.336V123.104C230.336 122.229 230.117 121.563 229.68 121.104C229.242 120.635 228.645 120.4 227.888 120.4C227.12 120.4 226.506 120.64 226.048 121.12C225.6 121.6 225.376 122.299 225.376 123.216V128.064H223.92V116.224H225.376V120.544C225.664 120.096 226.058 119.749 226.56 119.504C227.072 119.259 227.642 119.136 228.272 119.136ZM242.154 123.344C242.154 123.621 242.138 123.915 242.106 124.224H235.098C235.151 125.088 235.445 125.765 235.978 126.256C236.522 126.736 237.178 126.976 237.946 126.976C238.575 126.976 239.098 126.832 239.514 126.544C239.941 126.245 240.239 125.851 240.41 125.36H241.978C241.743 126.203 241.274 126.891 240.57 127.424C239.866 127.947 238.991 128.208 237.946 128.208C237.114 128.208 236.367 128.021 235.706 127.648C235.055 127.275 234.543 126.747 234.17 126.064C233.797 125.371 233.61 124.571 233.61 123.664C233.61 122.757 233.791 121.963 234.154 121.28C234.517 120.597 235.023 120.075 235.674 119.712C236.335 119.339 237.093 119.152 237.946 119.152C238.778 119.152 239.514 119.333 240.154 119.696C240.794 120.059 241.285 120.56 241.626 121.2C241.978 121.829 242.154 122.544 242.154 123.344ZM240.65 123.04C240.65 122.485 240.527 122.011 240.282 121.616C240.037 121.211 239.701 120.907 239.274 120.704C238.858 120.491 238.394 120.384 237.882 120.384C237.146 120.384 236.517 120.619 235.994 121.088C235.482 121.557 235.189 122.208 235.114 123.04H240.65ZM245.532 120.72C245.788 120.219 246.15 119.829 246.62 119.552C247.1 119.275 247.681 119.136 248.364 119.136V120.64H247.98C246.348 120.64 245.532 121.525 245.532 123.296V128.064H244.076V119.296H245.532V120.72ZM258.045 123.344C258.045 123.621 258.029 123.915 257.997 124.224H250.989C251.042 125.088 251.335 125.765 251.869 126.256C252.413 126.736 253.069 126.976 253.837 126.976C254.466 126.976 254.989 126.832 255.405 126.544C255.831 126.245 256.13 125.851 256.301 125.36H257.869C257.634 126.203 257.165 126.891 256.461 127.424C255.757 127.947 254.882 128.208 253.837 128.208C253.005 128.208 252.258 128.021 251.597 127.648C250.946 127.275 250.434 126.747 250.061 126.064C249.687 125.371 249.501 124.571 249.501 123.664C249.501 122.757 249.682 121.963 250.045 121.28C250.407 120.597 250.914 120.075 251.565 119.712C252.226 119.339 252.983 119.152 253.837 119.152C254.669 119.152 255.405 119.333 256.045 119.696C256.685 120.059 257.175 120.56 257.517 121.2C257.869 121.829 258.045 122.544 258.045 123.344ZM256.541 123.04C256.541 122.485 256.418 122.011 256.173 121.616C255.927 121.211 255.591 120.907 255.165 120.704C254.749 120.491 254.285 120.384 253.773 120.384C253.037 120.384 252.407 120.619 251.885 121.088C251.373 121.557 251.079 122.208 251.005 123.04H256.541ZM266.008 120.496V125.664C266.008 126.091 266.099 126.395 266.28 126.576C266.461 126.747 266.776 126.832 267.224 126.832H268.296V128.064H266.984C266.173 128.064 265.565 127.877 265.16 127.504C264.755 127.131 264.552 126.517 264.552 125.664V120.496H263.416V119.296H264.552V117.088H266.008V119.296H268.296V120.496H266.008ZM273.884 128.208C273.063 128.208 272.316 128.021 271.644 127.648C270.983 127.275 270.46 126.747 270.076 126.064C269.703 125.371 269.516 124.571 269.516 123.664C269.516 122.768 269.708 121.979 270.092 121.296C270.487 120.603 271.02 120.075 271.692 119.712C272.364 119.339 273.116 119.152 273.948 119.152C274.78 119.152 275.532 119.339 276.204 119.712C276.876 120.075 277.404 120.597 277.788 121.28C278.183 121.963 278.38 122.757 278.38 123.664C278.38 124.571 278.177 125.371 277.772 126.064C277.377 126.747 276.839 127.275 276.156 127.648C275.473 128.021 274.716 128.208 273.884 128.208ZM273.884 126.928C274.407 126.928 274.897 126.805 275.356 126.56C275.815 126.315 276.183 125.947 276.46 125.456C276.748 124.965 276.892 124.368 276.892 123.664C276.892 122.96 276.753 122.363 276.476 121.872C276.199 121.381 275.836 121.019 275.388 120.784C274.94 120.539 274.455 120.416 273.932 120.416C273.399 120.416 272.908 120.539 272.46 120.784C272.023 121.019 271.671 121.381 271.404 121.872C271.137 122.363 271.004 122.96 271.004 123.664C271.004 124.379 271.132 124.981 271.388 125.472C271.655 125.963 272.007 126.331 272.444 126.576C272.881 126.811 273.361 126.928 273.884 126.928ZM288.912 119.136C289.573 119.136 290.171 119.28 290.704 119.568C291.237 119.845 291.653 120.267 291.952 120.832C292.261 121.397 292.416 122.085 292.416 122.896V128.064H290.976V123.104C290.976 122.229 290.757 121.563 290.32 121.104C289.883 120.635 289.285 120.4 288.528 120.4C287.76 120.4 287.147 120.64 286.688 121.12C286.24 121.6 286.016 122.299 286.016 123.216V128.064H284.56V116.224H286.016V120.544C286.304 120.096 286.699 119.749 287.2 119.504C287.712 119.259 288.283 119.136 288.912 119.136ZM302.795 123.344C302.795 123.621 302.779 123.915 302.747 124.224H295.739C295.792 125.088 296.085 125.765 296.619 126.256C297.163 126.736 297.819 126.976 298.587 126.976C299.216 126.976 299.739 126.832 300.155 126.544C300.581 126.245 300.88 125.851 301.051 125.36H302.619C302.384 126.203 301.915 126.891 301.211 127.424C300.507 127.947 299.632 128.208 298.587 128.208C297.755 128.208 297.008 128.021 296.347 127.648C295.696 127.275 295.184 126.747 294.811 126.064C294.437 125.371 294.251 124.571 294.251 123.664C294.251 122.757 294.432 121.963 294.795 121.28C295.157 120.597 295.664 120.075 296.315 119.712C296.976 119.339 297.733 119.152 298.587 119.152C299.419 119.152 300.155 119.333 300.795 119.696C301.435 120.059 301.925 120.56 302.267 121.2C302.619 121.829 302.795 122.544 302.795 123.344ZM301.291 123.04C301.291 122.485 301.168 122.011 300.923 121.616C300.677 121.211 300.341 120.907 299.915 120.704C299.499 120.491 299.035 120.384 298.523 120.384C297.787 120.384 297.157 120.619 296.635 121.088C296.123 121.557 295.829 122.208 295.755 123.04H301.291ZM306.172 116.224V128.064H304.716V116.224H306.172ZM310.11 120.912C310.398 120.411 310.825 119.995 311.39 119.664C311.966 119.323 312.633 119.152 313.39 119.152C314.169 119.152 314.873 119.339 315.502 119.712C316.142 120.085 316.643 120.613 317.006 121.296C317.369 121.968 317.55 122.752 317.55 123.648C317.55 124.533 317.369 125.323 317.006 126.016C316.643 126.709 316.142 127.248 315.502 127.632C314.873 128.016 314.169 128.208 313.39 128.208C312.643 128.208 311.982 128.043 311.406 127.712C310.841 127.371 310.409 126.949 310.11 126.448V132.224H308.654V119.296H310.11V120.912ZM316.062 123.648C316.062 122.987 315.929 122.411 315.662 121.92C315.395 121.429 315.033 121.056 314.574 120.8C314.126 120.544 313.63 120.416 313.086 120.416C312.553 120.416 312.057 120.549 311.598 120.816C311.15 121.072 310.787 121.451 310.51 121.952C310.243 122.443 310.11 123.013 310.11 123.664C310.11 124.325 310.243 124.907 310.51 125.408C310.787 125.899 311.15 126.277 311.598 126.544C312.057 126.8 312.553 126.928 313.086 126.928C313.63 126.928 314.126 126.8 314.574 126.544C315.033 126.277 315.395 125.899 315.662 125.408C315.929 124.907 316.062 124.32 316.062 123.648ZM319.93 128.16C319.653 128.16 319.418 128.064 319.226 127.872C319.034 127.68 318.938 127.445 318.938 127.168C318.938 126.891 319.034 126.656 319.226 126.464C319.418 126.272 319.653 126.176 319.93 126.176C320.197 126.176 320.421 126.272 320.602 126.464C320.794 126.656 320.89 126.891 320.89 127.168C320.89 127.445 320.794 127.68 320.602 127.872C320.421 128.064 320.197 128.16 319.93 128.16Z" fill="#656565"/>
    <g clip-path="url(#clip0_311_34597)">
        <path d="M95.3259 162.144C94.9313 162.144 94.6006 162.021 94.3339 161.776C94.0779 161.52 93.9499 161.205 93.9499 160.832C93.9499 160.459 94.0779 160.149 94.3339 159.904C94.6006 159.648 94.9313 159.52 95.3259 159.52C95.7206 159.52 96.0459 159.648 96.3019 159.904C96.5686 160.149 96.7019 160.459 96.7019 160.832C96.7019 161.205 96.5686 161.52 96.3019 161.776C96.0459 162.021 95.7206 162.144 95.3259 162.144ZM96.4299 163.2V172.064H94.1899V163.2H96.4299ZM103.555 163.072C104.611 163.072 105.464 163.408 106.115 164.08C106.766 164.741 107.091 165.669 107.091 166.864V172.064H104.851V167.168C104.851 166.464 104.675 165.925 104.323 165.552C103.971 165.168 103.491 164.976 102.883 164.976C102.264 164.976 101.774 165.168 101.411 165.552C101.059 165.925 100.883 166.464 100.883 167.168V172.064H98.6431V163.2H100.883V164.304C101.182 163.92 101.56 163.621 102.019 163.408C102.488 163.184 103 163.072 103.555 163.072ZM113.285 165.04H111.733V172.064H109.461V165.04H108.453V163.2H109.461V162.752C109.461 161.664 109.771 160.864 110.389 160.352C111.008 159.84 111.941 159.6 113.189 159.632V161.52C112.645 161.509 112.267 161.6 112.053 161.792C111.84 161.984 111.733 162.331 111.733 162.832V163.2H113.285V165.04ZM118.673 172.208C117.819 172.208 117.051 172.021 116.369 171.648C115.686 171.264 115.147 170.725 114.753 170.032C114.369 169.339 114.177 168.539 114.177 167.632C114.177 166.725 114.374 165.925 114.769 165.232C115.174 164.539 115.723 164.005 116.417 163.632C117.11 163.248 117.883 163.056 118.737 163.056C119.59 163.056 120.363 163.248 121.057 163.632C121.75 164.005 122.294 164.539 122.689 165.232C123.094 165.925 123.297 166.725 123.297 167.632C123.297 168.539 123.089 169.339 122.673 170.032C122.267 170.725 121.713 171.264 121.009 171.648C120.315 172.021 119.537 172.208 118.673 172.208ZM118.673 170.256C119.078 170.256 119.457 170.16 119.809 169.968C120.171 169.765 120.459 169.467 120.673 169.072C120.886 168.677 120.993 168.197 120.993 167.632C120.993 166.789 120.769 166.144 120.321 165.696C119.883 165.237 119.345 165.008 118.705 165.008C118.065 165.008 117.526 165.237 117.089 165.696C116.662 166.144 116.449 166.789 116.449 167.632C116.449 168.475 116.657 169.125 117.073 169.584C117.499 170.032 118.033 170.256 118.673 170.256ZM133.468 161.568C134.705 161.568 135.777 161.797 136.684 162.256C137.591 162.715 138.284 163.36 138.764 164.192C139.255 165.024 139.5 165.984 139.5 167.072C139.5 167.947 139.345 168.773 139.036 169.552C138.737 170.331 138.3 170.96 137.724 171.44C137.148 171.92 136.465 172.16 135.676 172.16C135.121 172.16 134.673 172.048 134.332 171.824C133.991 171.589 133.772 171.259 133.676 170.832C133.367 171.248 132.967 171.579 132.476 171.824C131.985 172.059 131.468 172.176 130.924 172.176C130.113 172.176 129.479 171.936 129.02 171.456C128.561 170.965 128.332 170.299 128.332 169.456C128.332 168.656 128.497 167.909 128.828 167.216C129.159 166.523 129.617 165.968 130.204 165.552C130.791 165.125 131.452 164.912 132.188 164.912C133.105 164.912 133.735 165.232 134.076 165.872L134.22 165.04H136.092L135.34 169.36C135.308 169.563 135.292 169.749 135.292 169.92C135.292 170.176 135.345 170.368 135.452 170.496C135.559 170.624 135.74 170.688 135.996 170.688C136.38 170.688 136.7 170.507 136.956 170.144C137.223 169.781 137.42 169.328 137.548 168.784C137.687 168.24 137.756 167.696 137.756 167.152C137.756 165.861 137.361 164.864 136.572 164.16C135.783 163.445 134.668 163.088 133.228 163.088C132.001 163.088 130.892 163.387 129.9 163.984C128.908 164.571 128.129 165.376 127.564 166.4C127.009 167.413 126.732 168.544 126.732 169.792C126.732 171.115 127.121 172.133 127.9 172.848C128.689 173.563 129.804 173.92 131.244 173.92C132.279 173.92 133.191 173.733 133.98 173.36L134.3 174.832C133.287 175.259 132.161 175.472 130.924 175.472C129.729 175.472 128.684 175.243 127.788 174.784C126.892 174.336 126.199 173.696 125.708 172.864C125.217 172.032 124.972 171.067 124.972 169.968C124.972 168.4 125.335 166.976 126.06 165.696C126.796 164.416 127.809 163.408 129.1 162.672C130.401 161.936 131.857 161.568 133.468 161.568ZM131.628 170.512C132.012 170.512 132.364 170.4 132.684 170.176C133.004 169.952 133.255 169.653 133.436 169.28C133.628 168.907 133.724 168.507 133.724 168.08C133.724 167.632 133.601 167.269 133.356 166.992C133.111 166.715 132.769 166.576 132.332 166.576C131.937 166.576 131.591 166.699 131.292 166.944C130.993 167.179 130.759 167.488 130.588 167.872C130.428 168.256 130.348 168.661 130.348 169.088C130.348 169.525 130.455 169.872 130.668 170.128C130.881 170.384 131.201 170.512 131.628 170.512ZM142.888 162.144C142.494 162.144 142.163 162.021 141.896 161.776C141.64 161.52 141.512 161.205 141.512 160.832C141.512 160.459 141.64 160.149 141.896 159.904C142.163 159.648 142.494 159.52 142.888 159.52C143.283 159.52 143.608 159.648 143.864 159.904C144.131 160.149 144.264 160.459 144.264 160.832C144.264 161.205 144.131 161.52 143.864 161.776C143.608 162.021 143.283 162.144 142.888 162.144ZM143.992 163.2V172.064H141.752V163.2H143.992ZM148.814 165.04V169.328C148.814 169.627 148.883 169.845 149.022 169.984C149.171 170.112 149.416 170.176 149.758 170.176H150.798V172.064H149.39C147.502 172.064 146.558 171.147 146.558 169.312V165.04H145.502V163.2H146.558V161.008H148.814V163.2H150.798V165.04H148.814ZM160.649 167.44C160.649 167.76 160.627 168.048 160.585 168.304H154.105C154.158 168.944 154.382 169.445 154.777 169.808C155.171 170.171 155.657 170.352 156.233 170.352C157.065 170.352 157.657 169.995 158.009 169.28H160.425C160.169 170.133 159.678 170.837 158.953 171.392C158.227 171.936 157.337 172.208 156.281 172.208C155.427 172.208 154.659 172.021 153.977 171.648C153.305 171.264 152.777 170.725 152.393 170.032C152.019 169.339 151.833 168.539 151.833 167.632C151.833 166.715 152.019 165.909 152.393 165.216C152.766 164.523 153.289 163.989 153.961 163.616C154.633 163.243 155.406 163.056 156.281 163.056C157.123 163.056 157.875 163.237 158.537 163.6C159.209 163.963 159.726 164.48 160.089 165.152C160.462 165.813 160.649 166.576 160.649 167.44ZM158.329 166.8C158.318 166.224 158.11 165.765 157.705 165.424C157.299 165.072 156.803 164.896 156.217 164.896C155.662 164.896 155.193 165.067 154.809 165.408C154.435 165.739 154.206 166.203 154.121 166.8H158.329ZM161.708 167.632C161.708 166.715 161.894 165.915 162.268 165.232C162.641 164.539 163.158 164.005 163.82 163.632C164.481 163.248 165.238 163.056 166.092 163.056C167.19 163.056 168.097 163.333 168.812 163.888C169.537 164.432 170.022 165.2 170.268 166.192H167.852C167.724 165.808 167.505 165.509 167.196 165.296C166.897 165.072 166.524 164.96 166.076 164.96C165.436 164.96 164.929 165.195 164.556 165.664C164.182 166.123 163.996 166.779 163.996 167.632C163.996 168.475 164.182 169.131 164.556 169.6C164.929 170.059 165.436 170.288 166.076 170.288C166.982 170.288 167.574 169.883 167.852 169.072H170.268C170.022 170.032 169.537 170.795 168.812 171.36C168.086 171.925 167.18 172.208 166.092 172.208C165.238 172.208 164.481 172.021 163.82 171.648C163.158 171.264 162.641 170.731 162.268 170.048C161.894 169.355 161.708 168.549 161.708 167.632ZM176.901 163.072C177.573 163.072 178.17 163.221 178.693 163.52C179.215 163.808 179.621 164.24 179.909 164.816C180.207 165.381 180.357 166.064 180.357 166.864V172.064H178.117V167.168C178.117 166.464 177.941 165.925 177.589 165.552C177.237 165.168 176.757 164.976 176.149 164.976C175.53 164.976 175.039 165.168 174.677 165.552C174.325 165.925 174.149 166.464 174.149 167.168V172.064H171.909V160.224H174.149V164.304C174.437 163.92 174.821 163.621 175.301 163.408C175.781 163.184 176.314 163.072 176.901 163.072ZM184.727 164.48C185.015 164.075 185.409 163.739 185.911 163.472C186.423 163.195 187.004 163.056 187.655 163.056C188.412 163.056 189.095 163.243 189.703 163.616C190.321 163.989 190.807 164.523 191.159 165.216C191.521 165.899 191.703 166.693 191.703 167.6C191.703 168.507 191.521 169.312 191.159 170.016C190.807 170.709 190.321 171.248 189.703 171.632C189.095 172.016 188.412 172.208 187.655 172.208C187.004 172.208 186.428 172.075 185.927 171.808C185.436 171.541 185.036 171.205 184.727 170.8V176.288H182.487V163.2H184.727V164.48ZM189.415 167.6C189.415 167.067 189.303 166.608 189.079 166.224C188.865 165.829 188.577 165.531 188.215 165.328C187.863 165.125 187.479 165.024 187.063 165.024C186.657 165.024 186.273 165.131 185.911 165.344C185.559 165.547 185.271 165.845 185.047 166.24C184.833 166.635 184.727 167.099 184.727 167.632C184.727 168.165 184.833 168.629 185.047 169.024C185.271 169.419 185.559 169.723 185.911 169.936C186.273 170.139 186.657 170.24 187.063 170.24C187.479 170.24 187.863 170.133 188.215 169.92C188.577 169.707 188.865 169.403 189.079 169.008C189.303 168.613 189.415 168.144 189.415 167.6ZM195.571 164.576C195.859 164.107 196.232 163.739 196.691 163.472C197.16 163.205 197.693 163.072 198.291 163.072V165.424H197.699C196.995 165.424 196.461 165.589 196.099 165.92C195.747 166.251 195.571 166.827 195.571 167.648V172.064H193.331V163.2H195.571V164.576ZM203.735 172.208C202.882 172.208 202.114 172.021 201.431 171.648C200.749 171.264 200.21 170.725 199.815 170.032C199.431 169.339 199.239 168.539 199.239 167.632C199.239 166.725 199.437 165.925 199.831 165.232C200.237 164.539 200.786 164.005 201.479 163.632C202.173 163.248 202.946 163.056 203.799 163.056C204.653 163.056 205.426 163.248 206.119 163.632C206.813 164.005 207.357 164.539 207.751 165.232C208.157 165.925 208.359 166.725 208.359 167.632C208.359 168.539 208.151 169.339 207.735 170.032C207.33 170.725 206.775 171.264 206.071 171.648C205.378 172.021 204.599 172.208 203.735 172.208ZM203.735 170.256C204.141 170.256 204.519 170.16 204.871 169.968C205.234 169.765 205.522 169.467 205.735 169.072C205.949 168.677 206.055 168.197 206.055 167.632C206.055 166.789 205.831 166.144 205.383 165.696C204.946 165.237 204.407 165.008 203.767 165.008C203.127 165.008 202.589 165.237 202.151 165.696C201.725 166.144 201.511 166.789 201.511 167.632C201.511 168.475 201.719 169.125 202.135 169.584C202.562 170.032 203.095 170.256 203.735 170.256ZM212.242 164.48C212.53 164.075 212.925 163.739 213.426 163.472C213.938 163.195 214.52 163.056 215.17 163.056C215.928 163.056 216.61 163.243 217.218 163.616C217.837 163.989 218.322 164.523 218.674 165.216C219.037 165.899 219.218 166.693 219.218 167.6C219.218 168.507 219.037 169.312 218.674 170.016C218.322 170.709 217.837 171.248 217.218 171.632C216.61 172.016 215.928 172.208 215.17 172.208C214.52 172.208 213.944 172.075 213.442 171.808C212.952 171.541 212.552 171.205 212.242 170.8V176.288H210.002V163.2H212.242V164.48ZM216.93 167.6C216.93 167.067 216.818 166.608 216.594 166.224C216.381 165.829 216.093 165.531 215.73 165.328C215.378 165.125 214.994 165.024 214.578 165.024C214.173 165.024 213.789 165.131 213.426 165.344C213.074 165.547 212.786 165.845 212.562 166.24C212.349 166.635 212.242 167.099 212.242 167.632C212.242 168.165 212.349 168.629 212.562 169.024C212.786 169.419 213.074 169.723 213.426 169.936C213.789 170.139 214.173 170.24 214.578 170.24C214.994 170.24 215.378 170.133 215.73 169.92C216.093 169.707 216.381 169.403 216.594 169.008C216.818 168.613 216.93 168.144 216.93 167.6ZM229.086 167.44C229.086 167.76 229.065 168.048 229.022 168.304H222.542C222.596 168.944 222.82 169.445 223.214 169.808C223.609 170.171 224.094 170.352 224.67 170.352C225.502 170.352 226.094 169.995 226.446 169.28H228.862C228.606 170.133 228.116 170.837 227.39 171.392C226.665 171.936 225.774 172.208 224.718 172.208C223.865 172.208 223.097 172.021 222.414 171.648C221.742 171.264 221.214 170.725 220.83 170.032C220.457 169.339 220.27 168.539 220.27 167.632C220.27 166.715 220.457 165.909 220.83 165.216C221.204 164.523 221.726 163.989 222.398 163.616C223.07 163.243 223.844 163.056 224.718 163.056C225.561 163.056 226.313 163.237 226.974 163.6C227.646 163.963 228.164 164.48 228.526 165.152C228.9 165.813 229.086 166.576 229.086 167.44ZM226.766 166.8C226.756 166.224 226.548 165.765 226.142 165.424C225.737 165.072 225.241 164.896 224.654 164.896C224.1 164.896 223.63 165.067 223.246 165.408C222.873 165.739 222.644 166.203 222.558 166.8H226.766ZM232.961 164.576C233.249 164.107 233.623 163.739 234.081 163.472C234.551 163.205 235.084 163.072 235.681 163.072V165.424H235.089C234.385 165.424 233.852 165.589 233.489 165.92C233.137 166.251 232.961 166.827 232.961 167.648V172.064H230.721V163.2H232.961V164.576ZM239.798 165.04V169.328C239.798 169.627 239.867 169.845 240.006 169.984C240.155 170.112 240.401 170.176 240.742 170.176H241.782V172.064H240.374C238.486 172.064 237.542 171.147 237.542 169.312V165.04H236.486V163.2H237.542V161.008H239.798V163.2H241.782V165.04H239.798ZM244.529 162.144C244.134 162.144 243.804 162.021 243.537 161.776C243.281 161.52 243.153 161.205 243.153 160.832C243.153 160.459 243.281 160.149 243.537 159.904C243.804 159.648 244.134 159.52 244.529 159.52C244.924 159.52 245.249 159.648 245.505 159.904C245.772 160.149 245.905 160.459 245.905 160.832C245.905 161.205 245.772 161.52 245.505 161.776C245.249 162.021 244.924 162.144 244.529 162.144ZM245.633 163.2V172.064H243.393V163.2H245.633ZM256.086 167.44C256.086 167.76 256.065 168.048 256.022 168.304H249.542C249.596 168.944 249.82 169.445 250.214 169.808C250.609 170.171 251.094 170.352 251.67 170.352C252.502 170.352 253.094 169.995 253.446 169.28H255.862C255.606 170.133 255.116 170.837 254.39 171.392C253.665 171.936 252.774 172.208 251.718 172.208C250.865 172.208 250.097 172.021 249.414 171.648C248.742 171.264 248.214 170.725 247.83 170.032C247.457 169.339 247.27 168.539 247.27 167.632C247.27 166.715 247.457 165.909 247.83 165.216C248.204 164.523 248.726 163.989 249.398 163.616C250.07 163.243 250.844 163.056 251.718 163.056C252.561 163.056 253.313 163.237 253.974 163.6C254.646 163.963 255.164 164.48 255.526 165.152C255.9 165.813 256.086 166.576 256.086 167.44ZM253.766 166.8C253.756 166.224 253.548 165.765 253.142 165.424C252.737 165.072 252.241 164.896 251.654 164.896C251.1 164.896 250.63 165.067 250.246 165.408C249.873 165.739 249.644 166.203 249.558 166.8H253.766ZM261.113 172.208C260.388 172.208 259.737 172.08 259.161 171.824C258.585 171.557 258.127 171.2 257.785 170.752C257.455 170.304 257.273 169.808 257.241 169.264H259.497C259.54 169.605 259.705 169.888 259.993 170.112C260.292 170.336 260.66 170.448 261.097 170.448C261.524 170.448 261.855 170.363 262.089 170.192C262.335 170.021 262.457 169.803 262.457 169.536C262.457 169.248 262.308 169.035 262.009 168.896C261.721 168.747 261.257 168.587 260.617 168.416C259.956 168.256 259.412 168.091 258.985 167.92C258.569 167.749 258.207 167.488 257.897 167.136C257.599 166.784 257.449 166.309 257.449 165.712C257.449 165.221 257.588 164.773 257.865 164.368C258.153 163.963 258.559 163.643 259.081 163.408C259.615 163.173 260.239 163.056 260.953 163.056C262.009 163.056 262.852 163.323 263.481 163.856C264.111 164.379 264.457 165.088 264.521 165.984H262.377C262.345 165.632 262.196 165.355 261.929 165.152C261.673 164.939 261.327 164.832 260.889 164.832C260.484 164.832 260.169 164.907 259.945 165.056C259.732 165.205 259.625 165.413 259.625 165.68C259.625 165.979 259.775 166.208 260.073 166.368C260.372 166.517 260.836 166.672 261.465 166.832C262.105 166.992 262.633 167.157 263.049 167.328C263.465 167.499 263.823 167.765 264.121 168.128C264.431 168.48 264.591 168.949 264.601 169.536C264.601 170.048 264.457 170.507 264.169 170.912C263.892 171.317 263.487 171.637 262.953 171.872C262.431 172.096 261.817 172.208 261.113 172.208ZM267.432 172.176C267.027 172.176 266.691 172.053 266.424 171.808C266.168 171.552 266.04 171.237 266.04 170.864C266.04 170.491 266.168 170.181 266.424 169.936C266.691 169.68 267.027 169.552 267.432 169.552C267.827 169.552 268.152 169.68 268.408 169.936C268.664 170.181 268.792 170.491 268.792 170.864C268.792 171.237 268.664 171.552 268.408 171.808C268.152 172.053 267.827 172.176 267.432 172.176ZM275.508 163.072C276.564 163.072 277.418 163.408 278.068 164.08C278.719 164.741 279.044 165.669 279.044 166.864V172.064H276.804V167.168C276.804 166.464 276.628 165.925 276.276 165.552C275.924 165.168 275.444 164.976 274.836 164.976C274.218 164.976 273.727 165.168 273.364 165.552C273.012 165.925 272.836 166.464 272.836 167.168V172.064H270.596V163.2H272.836V164.304C273.135 163.92 273.514 163.621 273.972 163.408C274.442 163.184 274.954 163.072 275.508 163.072ZM284.646 163.056C285.308 163.056 285.889 163.189 286.39 163.456C286.892 163.712 287.286 164.048 287.574 164.464V163.2H289.83V172.128C289.83 172.949 289.665 173.68 289.334 174.32C289.004 174.971 288.508 175.483 287.846 175.856C287.185 176.24 286.385 176.432 285.446 176.432C284.188 176.432 283.153 176.139 282.342 175.552C281.542 174.965 281.089 174.165 280.982 173.152H283.206C283.324 173.557 283.574 173.877 283.958 174.112C284.353 174.357 284.828 174.48 285.382 174.48C286.033 174.48 286.561 174.283 286.966 173.888C287.372 173.504 287.574 172.917 287.574 172.128V170.752C287.286 171.168 286.886 171.515 286.374 171.792C285.873 172.069 285.297 172.208 284.646 172.208C283.9 172.208 283.217 172.016 282.598 171.632C281.98 171.248 281.489 170.709 281.126 170.016C280.774 169.312 280.598 168.507 280.598 167.6C280.598 166.704 280.774 165.909 281.126 165.216C281.489 164.523 281.974 163.989 282.582 163.616C283.201 163.243 283.889 163.056 284.646 163.056ZM287.574 167.632C287.574 167.088 287.468 166.624 287.254 166.24C287.041 165.845 286.753 165.547 286.39 165.344C286.028 165.131 285.638 165.024 285.222 165.024C284.806 165.024 284.422 165.125 284.07 165.328C283.718 165.531 283.43 165.829 283.206 166.224C282.993 166.608 282.886 167.067 282.886 167.6C282.886 168.133 282.993 168.603 283.206 169.008C283.43 169.403 283.718 169.707 284.07 169.92C284.433 170.133 284.817 170.24 285.222 170.24C285.638 170.24 286.028 170.139 286.39 169.936C286.753 169.723 287.041 169.424 287.254 169.04C287.468 168.645 287.574 168.176 287.574 167.632Z" fill="#7D0007"/>
    </g>
    <defs>
        <clipPath id="clip0_311_34597">
            <rect width="198" height="24" fill="white" transform="translate(93 154.064)"/>
        </clipPath>
    </defs>
</svg>
