<svg width="110" height="32" viewBox="0 0 110 32" fill="none" xmlns="http://www.w3.org/2000/svg">
<g clip-path="url(#clip0_199_1273)">
<path fill-rule="evenodd" clip-rule="evenodd" d="M89.439 24.2272H89.5401V24.3284H93.5782V24.2272H93.6787V14.9403H103.672V24.2272H103.774V24.3284H107.812V2.42273H103.672V10.9023H93.6787V2.42273H89.439V24.2272Z" fill="black"/>
<path fill-rule="evenodd" clip-rule="evenodd" d="M9.59033 12.0125H9.69148V12.2148H9.89317V12.3153H9.99432V12.4165H10.0949V12.5176H10.2972V12.6181H10.3977V12.7193H10.6V12.8204H10.7005V12.921H10.8017V13.0221H11.0034V13.1233H11.1045V13.2238H11.2057V13.325H11.4074V13.4261H11.5085V13.5267H11.7102V13.6278H11.8114V13.729H11.9119V13.8295H12.1142V13.9307H12.2147V14.0318H12.3159V14.1324H12.5176V14.2335H12.6187V14.3346H12.8204V14.4352H12.9216V14.5363H13.0227V14.6375H13.2244V14.738H13.3256V14.8392H13.5273V14.9403H13.6284V15.0409H13.729V15.142H13.9312V15.2432H14.0318V15.3437H14.1329V15.4449H14.3346V15.546H14.4358V15.6466H14.6375V15.7477H14.7386V15.8489H14.8398V15.9494H15.0415V16.0505H15.1426V16.1517H15.2432V16.2522H15.4454V16.3534H15.546V16.4545H15.7483V31.9999H20.2909V0H20.1897V0.101149H19.9881V0.201692H19.8869V0.30284H19.6852V0.403989H19.5841V0.504532H19.3824V0.605681H19.2812V0.70683H19.0795V0.807373H18.9784V0.908521H18.7767V1.00967H18.6755V1.11021H18.4739V1.21136H18.3727V1.31251H18.171V1.41305H18.0699V1.5142H17.9687V1.61535H17.767V1.71589H17.6659V1.81704H17.4642V1.91819H17.363V2.01873H17.1613V2.11988H17.0602V2.22103H16.8585V2.32157H16.7574V2.42272H16.5557V2.52387H16.4545V2.62442H16.2528V2.72556H16.1517V2.82671H15.95V2.92726H15.8488V3.0284H15.6471V3.12955H15.546V3.2301H15.3443V3.33124H15.2432V3.43239H15.0415V3.53294H14.9403V3.63409H14.7386V3.73523H14.6375V3.83578H14.4358V3.93693H14.3346V4.03807H14.1329V4.13862H14.0318V4.23977H13.8301V4.34091H13.729V4.44146H13.5273V4.54261H13.4261V4.64375H13.2244V4.7443H13.1233V4.84545H12.9216V4.9466H12.8204V5.04714H12.6187V5.14829H12.5176V5.24944H12.3159V5.34998H12.2147V5.45113H12.1142V5.55228H11.9119V5.65282H11.8114V5.75397H11.6091V5.85512H11.5085V5.95566H11.3062V6.05681H11.2057V6.15796H11.0034V6.2585H10.9028V6.35965H10.7005V6.4608H10.6V6.56134H10.3977V6.66249H10.2972V6.76364H10.0949V6.86418H9.99432V6.96533H9.79202V7.06648H9.69148V7.16702H9.59033V12.0125Z" fill="#7D0007"/>
<path fill-rule="evenodd" clip-rule="evenodd" d="M76.922 2.11983H76.2152V2.22097H75.7106V2.32152H75.2055V2.42267H74.9027V2.52381H74.5998V2.62436H74.297V2.72551H73.9941V2.82665H73.7924V2.9272H73.5908V3.02835H73.3885V3.1295H73.1868V3.23004H72.9851V3.33119H72.7828V3.43234H72.5811V3.53288H72.3794V3.63403H72.2782V3.73518H72.0766V3.83572H71.9754V3.93687H71.7737V4.03802H71.6726V4.13856H71.4709V4.23971H71.3697V4.34086H71.2686V4.4414H71.168V4.54255H70.9657V4.6437H70.8652V4.74424H70.764V4.84539H70.6629V4.94654H70.5623V5.04708H70.4612V5.14823H70.3601V5.24938H70.2595V5.34992H70.1584V5.45107H70.0572V5.55222H69.9567V5.65276H69.8555V5.75391H69.7544V5.85506H69.6538V6.05675H69.5527V6.1579H69.4515V6.25844H69.351V6.35959H69.2498V6.56128H69.1487V6.66243H69.0481V6.86412H68.947V6.96527H68.8459V7.16696H68.7453V7.26811H68.6442V7.4698H68.543V7.57095H68.4425V7.77264H68.3413V7.97494H68.2402V8.17663H68.1396V8.37833H68.0385V8.58062H67.9373V8.78231H67.8368V9.08516H67.7356V9.388H67.6345V9.69084H67.5339V9.99368H67.4328V10.2965H67.3316V10.801H67.2311V11.3062H67.13V12.0124H67.0288V14.5363H67.13V15.2431H67.2311V15.8488H67.3316V16.3533H67.4328V16.6562H67.5339V16.959H67.6345V17.2618H67.7356V17.5647H67.8368V17.7664H67.9373V17.9687H68.0385V18.1704H68.1396V18.3721H68.2402V18.5744H68.3413V18.776H68.4425V18.9777H68.543V19.18H68.6442V19.3817H68.7453V19.4829H68.8459V19.6846H68.947V19.7857H69.0481V19.9874H69.1487V20.0886H69.2498V20.2903H69.351V20.3914H69.4515V20.4919H69.5527V20.5931H69.6538V20.6942H69.7544V20.8959H69.8555V20.9971H69.9567V21.0976H70.0572V21.1988H70.1584V21.2999H70.2595V21.4005H70.3601V21.5016H70.4612V21.6028H70.5623V21.7033H70.6629V21.8045H70.764V21.9056H70.9657V22.0061H71.0669V22.1073H71.168V22.2084H71.2686V22.309H71.3697V22.4101H71.5714V22.5113H71.6726V22.6118H71.8743V22.713H71.9754V22.8141H72.0766V22.9147H72.2782V23.0158H72.3794V23.117H72.5811V23.2175H72.7828V23.3187H72.9851V23.4198H73.1868V23.5203H73.3885V23.6215H73.5908V23.7226H73.7924V23.8232H74.0953V23.9243H74.297V24.0255H74.5998V24.126H74.9027V24.2272H75.2055V24.3283H75.7106V24.4289H76.3163V24.53H77.0225V24.6312H79.3447V24.53H80.1521V24.4289H80.5561V24.3283H81.0606V24.2272H81.3635V24.126H81.6663V24.0255H81.9691V23.9243H82.272V23.8232H82.4737V23.7226H82.676V23.6215H82.9788V23.5203H83.1805V23.4198H83.2816V23.3187H83.4833V23.2175H83.685V23.117H83.8873V23.0158H83.9879V22.9147H84.1902V22.8141H84.3919V22.713H84.493V22.6118H84.6947V22.5113H84.7958V22.4101H84.8964V22.309H84.9975V22.2084H85.1992V22.1073H85.3004V22.0061H85.4015V21.7033H85.3004V21.6028H85.1992V21.4005H85.0987V21.2999H84.9975V21.1988H84.8964V20.9971H84.7958V20.8959H84.6947V20.6942H84.5936V20.5931H84.493V20.4919H84.3919V20.2903H84.2907V20.1891H84.1902V19.9874H84.089V19.8863H83.9879V19.7857H83.8873V19.5834H83.7862V19.4829H83.685V19.2806H83.5845V19.18H83.4833V19.0789H83.3822V18.8772H83.2816V18.776H83.1805V18.6749H83.0793V18.776H82.8777V18.8772H82.7765V18.9777H82.5748V19.0789H82.4737V19.18H82.272V19.2806H82.1708V19.3817H82.0703V19.4829H81.868V19.5834H81.6663V19.6846H81.4646V19.7857H81.3635V19.8863H81.0606V19.9874H80.8589V20.0886H80.5561V20.1891H80.2532V20.2903H79.9504V20.3914H79.4453V20.4919H78.335V20.5931H78.0322V20.4919H77.0225V20.3914H76.518V20.2903H76.2152V20.1891H75.9123V20.0886H75.6095V19.9874H75.4078V19.8863H75.2055V19.7857H75.0038V19.6846H74.8021V19.5834H74.701V19.4829H74.4993V19.3817H74.3981V19.2806H74.1964V19.18H74.0953V19.0789H73.8936V18.9777H73.7924V18.8772H73.6913V18.776H73.5908V18.6749H73.4896V18.5744H73.3885V18.4732H73.2879V18.3721H73.1868V18.2715H73.0856V18.1704H72.9851V17.9687H72.8839V17.8675H72.7828V17.7664H72.6822V17.6658H72.5811V17.4635H72.4799V17.2618H72.3794V17.1607H72.2782V16.959H72.1771V16.7573H72.0766V16.555H71.9754V16.3533H71.8743V16.1516H71.7737V15.8488H71.6726V15.546H71.5714V15.2431H71.4709V14.738H71.3697V14.0318H71.2686V12.6181H71.3697V11.9119H71.4709V11.4067H71.5714V11.1039H71.6726V10.801H71.7737V10.4982H71.8743V10.2965H71.9754V10.0948H72.0766V9.89253H72.1771V9.69084H72.2782V9.48914H72.3794V9.28685H72.4799V9.1863H72.5811V8.98401H72.6822V8.88346H72.7828V8.78231H72.8839V8.68117H72.9851V8.47947H73.0856V8.37833H73.1868V8.27778H73.2879V8.17663H73.3885V8.07549H73.4896V7.97494H73.5908V7.87379H73.6913V7.77264H73.7924V7.6721H73.8936V7.57095H74.0953V7.4698H74.1964V7.36926H74.3981V7.26811H74.4993V7.16696H74.5998V7.06642H74.8021V6.96527H75.0038V6.86412H75.2055V6.76358H75.4078V6.66243H75.6095V6.56128H75.9123V6.46074H76.2152V6.35959H76.518V6.25844H77.0225V6.1579H78.0322V6.05675H78.4362V6.1579H79.4453V6.25844H79.8492V6.35959H80.2532V6.46074H80.5561V6.56128H80.8589V6.66243H81.0606V6.76358H81.2623V6.86412H81.5651V6.96527H81.6663V7.06642H81.868V7.16696H82.0703V7.26811H82.272V7.36926H82.3731V7.4698H82.5748V7.57095H82.676V7.6721H82.7765V7.77264H82.9788V7.87379H83.1805V7.77264H83.2816V7.6721H83.3822V7.4698H83.4833V7.36926H83.5845V7.16696H83.685V7.06642H83.7862V6.96527H83.8873V6.76358H83.9879V6.66243H84.089V6.56128H84.1902V6.35959H84.2907V6.25844H84.3919V6.1579H84.493V5.9556H84.5936V5.85506H84.6947V5.75391H84.7958V5.55222H84.8964V5.45107H84.9975V5.24938H85.0987V5.14823H85.1992V5.04708H85.3004V4.84539H85.4015V4.6437H85.3004V4.54255H85.1992V4.4414H85.0987V4.34086H84.9975V4.23971H84.7958V4.13856H84.6947V4.03802H84.5936V3.93687H84.3919V3.83572H84.1902V3.73518H84.089V3.63403H83.8873V3.53288H83.7862V3.43234H83.5845V3.33119H83.3822V3.23004H83.1805V3.1295H82.9788V3.02835H82.7765V2.9272H82.4737V2.82665H82.272V2.72551H82.0703V2.62436H81.7674V2.52381H81.4646V2.42267H81.0606V2.32152H80.6566V2.22097H80.1521V2.11983H79.4453V2.01868H76.922V2.11983Z" fill="black"/>
<path fill-rule="evenodd" clip-rule="evenodd" d="M9.69138 31.9999V12.0125H9.48909V12.1136H9.38854V12.2147H9.28739V12.3153H9.0857V12.4164H8.98455V12.5176H8.78286V12.6181H8.68171V12.7193H8.48002V12.8204H8.37887V12.921H8.27833V13.0221H8.07603V13.1233H7.97549V13.2238H7.77319V13.325H7.67265V13.4261H7.47035V13.5267H7.36981V13.6278H7.26866V13.729H7.06697V13.8295H6.96582V13.9306H6.76413V14.0318H6.66298V14.1323H6.46129V14.2335H6.36014V14.3346H6.25899V14.4352H6.0573V14.5363H5.95615V14.6375H5.75446V14.738H5.65331V14.8392H5.45162V14.9403H5.35047V15.0409H5.24992V15.142H5.04763V15.2432H4.94708V15.3437H4.74479V15.4448H4.64424V15.546H4.44195V15.6465H4.3414V15.7477H4.24025V15.8488H4.03856V15.9494H3.93741V16.0505H3.73572V16.1517H3.63457V16.2522H3.43288V16.3534H3.33173V16.4545H3.13004V16.5551H3.02889V16.6562H2.92774V16.7574H2.72605V16.8579H2.6249V16.959H2.42321V17.0602H2.32206V17.1607H2.12037V17.2619H2.01922V17.363H1.91868V17.4636H1.71638V17.5647H1.61584V17.6659H1.41354V17.7664H1.313V17.8676H1.1107V17.9687H1.01016V18.0693H0.90901V18.1704H0.707318V18.2716H0.606169V18.3721H0.404477V18.4732H0.303329V18.5744H0.101637V18.6749H0.000488281V31.6971H0.20218V31.7982H3.53342V31.8988H6.96582V31.9999H9.69138Z" fill="black"/>
<path fill-rule="evenodd" clip-rule="evenodd" d="M50.7766 24.2272H66.0198V23.3187H65.9186V23.2176H65.6158V23.117H65.1113V23.0159H64.7073V22.9147H64.2027V22.8142H63.6982V22.713H63.2942V22.6119H62.7897V22.5114H62.2845V22.4102H61.8812V22.3091H61.376V22.2085H60.9726V22.1074H60.4675V22.0062H59.963V21.9057H59.559V21.8045H59.0545V21.7034H58.5499V21.6028H58.1459V21.5017H57.6414V21.4005H57.2374V21.3H56.7329V21.1988H56.2277V21.0977H55.8244V20.9971H55.7232V5.45113H56.026V5.34999H56.43V5.24944H56.9346V5.14829H57.3386V5.04715H57.8431V4.9466H58.3476V4.84545H58.7516V4.7443H59.2561V4.64376H59.7613V4.54261H60.1647V4.44146H60.6698V4.34092H61.0732V4.23977H61.5783V4.13862H62.0829V4.03808H62.4868V3.93693H62.9914V3.83578H63.4959V3.73524H63.8999V3.63409H64.4044V3.53294H64.8084V3.4324H65.3129V3.33125H65.8175V3.2301H66.0198V2.42273H50.7766V24.2272Z" fill="black"/>
<path fill-rule="evenodd" clip-rule="evenodd" d="M32.0005 6.35966H38.259V24.2272H38.3601V24.3284H42.3982V24.2272H42.4988V6.35966H48.8584V2.42273H32.0005V6.35966Z" fill="black"/>
<path fill-rule="evenodd" clip-rule="evenodd" d="M24.5305 24.2273H24.6311V24.3284H28.3663V24.2273H28.4674V7.8739H24.5305V24.2273Z" fill="black"/>
<path fill-rule="evenodd" clip-rule="evenodd" d="M26.0447 0.504474H25.6407V0.605622H25.439V0.706771H25.2368V0.807314H25.1362V0.908463H24.9339V1.00961H24.8334V1.11015H24.7322V1.2113H24.6311V1.31245H24.5305V1.51414H24.4294V1.61529H24.3282V1.81698H24.2277V2.01868H24.1265V2.52381H24.0254V3.12949H24.1265V3.53288H24.2277V3.83572H24.3282V4.03802H24.4294V4.13856H24.5305V4.23971H24.6311V4.4414H24.7322V4.54255H24.8334V4.6437H25.0351V4.74424H25.1362V4.84539H25.3379V4.94654H25.5396V5.04708H25.7419V5.14823H26.3476V5.24938H26.6504V5.14823H27.2561V5.04708H27.4578V4.94654H27.7606V4.84539H27.8618V4.74424H28.0635V4.6437H28.1646V4.54255H28.2652V4.4414H28.3663V4.34086H28.4675V4.13856H28.568V4.03802H28.6691V3.83572H28.7703V3.63403H28.8708V3.33119H28.972V2.22097H28.8708V2.01868H28.7703V1.71584H28.6691V1.61529H28.568V1.413H28.4675V1.31245H28.3663V1.2113H28.2652V1.11015H28.1646V1.00961H28.0635V0.908463H27.9623V0.807314H27.8618V0.706771H27.5589V0.605622H27.3566V0.504474H26.9533V0.403931H26.0447V0.504474Z" fill="black"/>
<path fill-rule="evenodd" clip-rule="evenodd" d="M34.3219 26.5488H34.2214V27.3568H34.1202V28.1641H34.0191V29.0727H33.9185V29.88H33.8174V30.6874H34.6248V30.284H34.7259V29.3755H34.8271V28.3658H34.9276V28.063H35.0287V28.3658H35.1299V28.6687H35.2304V28.9715H35.3316V29.2743H35.4327V29.6783H35.5333V29.9812H35.6344V30.284H35.7356V30.5869H35.8361V30.6874H36.5429V30.4857H36.6441V30.1829H36.7446V29.88H36.8458V29.5772H36.9469V29.2743H37.0475V28.9715H37.1486V28.6687H37.2498V28.3658H37.3503V28.063H37.4515V28.467H37.5526V29.476H37.6532V30.4857H37.7543V30.6874H38.5617V30.0817H38.4611V29.1732H38.36V28.3658H38.2588V27.5585H38.1583V26.6499H38.0572V26.4482H37.1486V26.5488H37.0475V26.8516H36.9469V27.2556H36.8458V27.5585H36.7446V27.8613H36.6441V28.1641H36.5429V28.467H36.4418V28.7698H36.3413V29.0727H36.2401V29.3755H36.139V29.1732H36.0384V28.8704H35.9373V28.5675H35.8361V28.1641H35.7356V27.8613H35.6344V27.5585H35.5333V27.2556H35.4327V26.9528H35.3316V26.6499H35.2304V26.4482H34.3219V26.5488Z" fill="#7D0007"/>
<path fill-rule="evenodd" clip-rule="evenodd" d="M55.622 26.5488H55.5215V30.5869H55.622V30.6874H56.43V27.9624H56.5306V28.063H56.6317V28.2647H56.7328V28.3658H56.8334V28.5675H56.9345V28.6687H57.0357V28.8704H57.1362V28.9715H57.2374V29.0727H57.3385V29.2743H57.4391V29.3755H57.5402V29.5772H57.6414V29.6783H57.7419V29.88H57.8431V29.9812H57.9442V30.1829H58.0448V30.284H58.1459V30.3846H58.247V30.5869H58.3476V30.6874H59.1556V26.4482H58.3476V29.1732H58.247V29.0727H58.1459V28.8704H58.0448V28.7698H57.9442V28.5675H57.8431V28.467H57.7419V28.2647H57.6414V28.1641H57.5402V28.063H57.4391V27.8613H57.3385V27.7601H57.2374V27.5585H57.1362V27.4573H57.0357V27.2556H56.9345V27.1545H56.8334V26.9528H56.7328V26.8516H56.6317V26.7511H56.5306V26.5488H56.43V26.4482H55.622V26.5488Z" fill="#7D0007"/>
<path fill-rule="evenodd" clip-rule="evenodd" d="M58.1459 12.0124H57.6414V12.1136H57.3385V12.2147H57.1362V12.3152H56.9345V12.4164H56.8334V12.5175H56.7328V12.6181H56.6317V12.7192H56.5306V12.9209H56.43V13.1232H56.3289V13.4261H56.43V13.7289H56.5306V13.9306H56.6317V14.0317H56.7328V14.1323H56.8334V14.2334H57.0357V14.3346H57.2374V14.4351H57.4391V14.5363H57.7419V14.6374H58.3476V14.738H58.8527V14.6374H59.4584V14.5363H59.7613V14.4351H60.0641V14.3346H60.1646V14.2334H60.3669V14.1323H60.4675V14.0317H60.5686V13.9306H60.6698V13.7289H60.7703V13.5266H60.8715V13.1232H60.7703V12.8204H60.6698V12.7192H60.5686V12.6181H60.4675V12.5175H60.3669V12.4164H60.2658V12.3152H60.0641V12.2147H59.8618V12.1136H59.559V12.0124H59.1556V11.9119H58.1459V12.0124Z" fill="black"/>
<path fill-rule="evenodd" clip-rule="evenodd" d="M63.4958 29.2743H63.3947V29.3755H63.2935V29.4766H63.1924V29.5778H63.0912V29.6789H62.8895V29.7801H62.5867V29.8812H61.6782V27.2568H62.5867V27.358H62.8895V27.4591H63.0912V27.5603H63.1924V27.6614H63.2935V27.7626H63.3947V27.8637H63.4958V28.0654H63.597V29.0751H63.4958V29.2768V29.2743ZM60.8714 26.5488H60.7703V30.5868H60.8714V30.688H62.6885V30.5868H63.0924V30.4857H63.2941V30.3845H63.4958V30.2834H63.597V30.1822H63.7987V30.0811H63.8998V29.9799H64.001V29.7783H64.1021V29.6771H64.2033V29.4754H64.3044V29.2737H64.4056V28.8697H64.5067V28.2641H64.4056V27.8601H64.3044V27.6584H64.2033V27.4567H64.1021V27.3555H64.001V27.1538H63.8998V27.0527H63.7987V26.9515H63.597V26.8504H63.4958V26.7492H63.2941V26.6481H63.0924V26.5469H62.6885V26.4458H60.8714V26.5469V26.5488Z" fill="#7D0007"/>
<path fill-rule="evenodd" clip-rule="evenodd" d="M93.5781 28.2647H93.4769V28.3658H93.3758V28.467H92.2656V27.2556H93.2752V27.3567H93.4769V27.4579H93.5781V27.7607H93.6792V28.0636H93.5781V28.2653V28.2647ZM91.3571 30.6874H92.1644V30.5862H92.2656V29.2737H93.0729V29.4754H93.1741V29.6771H93.2752V29.8788H93.3764V30.0805H93.4775V30.2822H93.5787V30.4839H93.6798V30.6856H94.5884V30.4839H94.4872V30.2822H94.3861V29.9793H94.2849V29.7777H94.1838V29.576H94.0826V29.3743H93.9815V29.1726H93.8803V28.9709H94.082V28.8697H94.1832V28.7686H94.2843V28.5669H94.3855V28.3652H94.4866V27.3555H94.3855V27.1538H94.2843V26.9522H94.1832V26.851H94.082V26.7499H93.8803V26.6487H93.7792V26.5476H93.4763V26.4464H91.3564V30.6862L91.3571 30.6874Z" fill="#7D0007"/>
<path fill-rule="evenodd" clip-rule="evenodd" d="M29.275 28.1642H29.3761V27.9625H29.4773V27.7608H29.5784V27.6597H29.6796V27.5585H29.7807V27.4574H29.8819V27.3562H30.0836V27.2551H30.9921V27.3562H31.1938V27.4574H31.3955V27.5585H31.4966V27.6597H31.5978V27.8614H31.6989V28.0631H31.8001V29.0727H31.6989V29.2744H31.5978V29.3756H31.4966V29.5773H31.2949V29.6784H31.1938V29.7796H30.9921V29.8807H30.0836V29.7796H29.8819V29.6784H29.7807V29.5773H29.6796V29.4761H29.5784V29.375H29.4773V29.1733H29.3761V28.9716H29.275V28.1642ZM30.4863 26.4483H29.8806V26.5495H29.679V26.6506H29.4773V26.7518H29.2756V26.8529H29.1744V26.9541H29.0733V27.0552H28.9721V27.1564H28.871V27.2575H28.7698V27.4592H28.6687V27.6609H28.5675V27.8626H28.4664V28.4683H28.3652V28.5694H28.4664V29.1751H28.5675V29.4779H28.6687V29.6796H28.7698V29.7808H28.871V29.9825H28.9721V30.0836H29.0733V30.1848H29.1744V30.2859H29.2756V30.3871H29.4773V30.4882H29.679V30.5894H29.8806V30.6905H30.4863V30.7917H30.688V30.6905H31.1926V30.5894H31.4954V30.4882H31.6971V30.3871H31.7982V30.2859H31.8994V30.1848H32.1011V29.9831H32.2022V29.8819H32.3034V29.7808H32.4045V29.5791H32.5057V29.3774H32.6068V28.9734H32.708V28.166H32.6068V27.762H32.5057V27.5604H32.4045V27.3587H32.3034V27.2575H32.2022V27.1564H32.1011V26.9547H31.8994V26.8535H31.7982V26.7524H31.6971V26.6512H31.4954V26.5501H31.1926V26.4489H30.688V26.3478H30.4863V26.4489V26.4483Z" fill="#7D0007"/>
<path fill-rule="evenodd" clip-rule="evenodd" d="M80.152 29.0727H80.0509V29.2744H79.9497V29.4761H79.8486V29.5773H79.7474V29.6784H79.5458V29.7796H79.3441V29.8807H78.5367V29.7796H78.2339V29.6784H78.1327V29.5773H78.0315V29.4761H77.9304V29.375H77.8293V29.1733H77.7281V28.8704H77.627V28.2648H77.7281V27.9619H77.8293V27.7602H77.9304V27.6591H78.0315V27.5579H78.1327V27.4568H78.2339V27.3556H78.4355V27.2545H79.3441V27.3556H79.5458V27.4568H79.7474V27.5579H79.8486V27.6591H79.9497V27.8608H80.0509V28.0625H80.152V28.4664H80.2532V28.6681H80.152V29.0721V29.0727ZM78.8395 26.4483H78.2339V26.5495H78.0322V26.6506H77.8305V26.7518H77.7293V26.8529H77.5276V26.9541H77.4265V27.0552H77.3253V27.1564H77.2242V27.3581H77.123V27.4592H77.0219V27.6609H76.9207V27.9637H76.8196V29.1751H76.9207V29.4779H77.0219V29.6796H77.123V29.7808H77.2242V29.9825H77.3253V30.0836H77.4265V30.1848H77.5276V30.2859H77.7293V30.3871H77.8305V30.4882H78.0322V30.5894H78.2339V30.6905H78.8395V30.7917H79.0412V30.6905H79.5458V30.5894H79.8486V30.4882H80.0503V30.3871H80.1514V30.2859H80.2526V30.1848H80.4543V30.0836H80.5554V29.8819H80.6566V29.7808H80.7577V29.5791H80.8589V29.3774H80.96V29.0746H81.0612V28.0649H80.96V27.762H80.8589V27.5604H80.7577V27.3587H80.6566V27.2575H80.5554V27.0558H80.4543V26.9547H80.2526V26.8535H80.1514V26.7524H80.0503V26.6512H79.8486V26.5501H79.5458V26.4489H79.0412V26.3478H78.8395V26.4489V26.4483Z" fill="#7D0007"/>
<path fill-rule="evenodd" clip-rule="evenodd" d="M74.701 28.2647H74.5999V28.3658H74.4987V28.467H73.2874V27.2556H74.3976V27.3568H74.5993V27.4579H74.7004V27.7607H74.8016V27.9624H74.7004V28.2653L74.701 28.2647ZM72.48 30.6874H73.2874V29.2743H74.1959V29.476H74.297V29.6777H74.3982V29.8794H74.4993V30.0811H74.6005V30.384H74.7016V30.5856H74.8028V30.6868H75.7113V30.4851H75.6101V30.2834H75.509V30.0817H75.4078V29.88H75.3067V29.6783H75.2055V29.4766H75.1044V29.1738H75.0032V28.9721H75.1044V28.871H75.3061V28.6693H75.4072V28.5681H75.5084V28.3664H75.6095V27.3568H75.5084V27.1551H75.4072V27.0539H75.3061V26.8522H75.2049V26.7511H75.0032V26.6499H74.8016V26.5488H74.5999V26.4476H72.48V30.6874Z" fill="#7D0007"/>
<path fill-rule="evenodd" clip-rule="evenodd" d="M39.9753 30.6874H43.0037V29.88H40.8839V28.8704H42.5998V28.1641H40.8839V27.2556H43.0037V26.4482H39.9753V30.6874Z" fill="#7D0007"/>
<path fill-rule="evenodd" clip-rule="evenodd" d="M102.663 30.6874H105.692V29.88H103.572V28.8704H105.288V28.1641H103.572V27.2556H105.692V26.4482H102.663V30.6874Z" fill="#7D0007"/>
<path fill-rule="evenodd" clip-rule="evenodd" d="M23.4197 30.6874H24.2277V28.8704H26.1452V30.6874H26.9532V26.4482H26.1452V28.063H24.2277V26.4482H23.4197V30.6874Z" fill="#7D0007"/>
<path fill-rule="evenodd" clip-rule="evenodd" d="M86.9158 30.6874H89.9442V29.88H87.7231V28.8704H89.439V28.1641H87.7231V27.2556H89.843V27.1545H89.9442V26.5488H89.843V26.4482H86.9158V30.6874Z" fill="#7D0007"/>
<path fill-rule="evenodd" clip-rule="evenodd" d="M70.1582 28.2647H70.0571V28.3658H69.9559V28.467H68.9462V27.2556H69.8548V27.3567H70.0565V27.4579H70.1576V27.559H70.2588V28.1647H70.1576V28.2659L70.1582 28.2647ZM68.0383 30.6874H68.9469V29.2743H70.1582V29.1732H70.4611V29.072H70.5622V28.9709H70.7639V28.8697H70.865V28.668H70.9662V28.4664H71.0673V28.1635H71.1685V27.5578H71.0673V27.255H70.9662V27.0533H70.865V26.9522H70.7639V26.851H70.6628V26.7499H70.5616V26.6487H70.3599V26.5476H70.0571V26.4464H68.0383V30.6862V30.6874Z" fill="#7D0007"/>
<path fill-rule="evenodd" clip-rule="evenodd" d="M84.5935 28.2647H84.4924V28.3658H84.3912V28.467H83.3815V27.2556H84.2901V27.3567H84.4918V27.4579H84.5929V27.559H84.6941V28.1647H84.5929V28.2659L84.5935 28.2647ZM82.4736 30.6874H83.3822V29.2743H84.5935V29.1732H84.8964V29.072H84.9975V28.9709H85.1992V28.8697H85.3003V28.668H85.4015V28.4664H85.5026V28.1635H85.6038V27.5578H85.5026V27.255H85.4015V27.0533H85.3003V26.9522H85.1992V26.851H85.098V26.7499H84.9969V26.6487H84.7952V26.5476H84.4924V26.4464H82.4736V30.6862V30.6874Z" fill="#7D0007"/>
<path fill-rule="evenodd" clip-rule="evenodd" d="M51.7863 28.9715H51.8875V28.7698H51.9886V28.467H52.0898V28.1641H52.1909V27.8613H52.2921V27.5585H52.3932V27.7601H52.4944V28.063H52.5955V28.3658H52.6967V28.6687H52.7978V28.8704H52.899V29.1732H51.7887V28.9715H51.7863ZM51.988 26.5488H51.8869V26.8516H51.7857V27.1545H51.6846V27.3562H51.5834V27.659H51.4823V27.8607H51.3811V28.1635H51.28V28.4664H51.1788V28.6681H51.0777V28.9709H50.9765V29.1726H50.8754V29.4754H50.7742V29.6771H50.6731V29.98H50.5719V30.2828H50.4708V30.4845H50.3696V30.6862H51.2781V30.3833H51.3793V30.0805H51.4804V29.8788H53.1963V30.0805H53.2975V30.2822H53.3986V30.585H53.4998V30.6862H54.3072V30.3833H54.206V30.1817H54.1049V29.8788H54.0037V29.6771H53.9026V29.3743H53.8014V29.0714H53.7003V28.8697H53.5991V28.5669H53.498V28.3652H53.3968V28.0624H53.2957V27.7595H53.1945V27.5578H53.0934V27.255H52.9922V27.0533H52.8911V26.7505H52.7899V26.5488H52.6888V26.4476H51.982V26.5488H51.988Z" fill="#7D0007"/>
<path fill-rule="evenodd" clip-rule="evenodd" d="M45.6282 26.4483H45.1237V26.5489H44.9214V26.65H44.7197V26.7512H44.6185V26.8517H44.518V26.9528H44.4169V27.1545H44.3157V27.9625H44.4169V28.1642H44.518V28.3659H44.6185V28.4671H44.8208V28.5676H44.9214V28.6687H45.2242V28.7699H45.4265V28.8704H45.7294V28.9716H46.0322V29.0727H46.2339V29.1733H46.335V29.2744H46.4356V29.5773H46.335V29.779H46.2339V29.8801H45.2242V29.779H45.0225V29.6784H44.8208V29.5773H44.7197V29.4761H44.518V29.5773H44.4169V29.6784H44.3157V29.779H44.2152V29.8801H44.114V30.0818H44.2152V30.1829H44.3157V30.2841H44.4169V30.3846H44.6185V30.4858H44.8208V30.5869H45.1237V30.6875H45.7294V30.7886H45.8299V30.6875H46.335V30.5869H46.6379V30.4858H46.7384V30.3846H46.9407V30.1829H47.0413V30.0818H47.1424V29.8801H47.2436V28.9716H47.1424V28.8704H47.0413V28.6687H46.9407V28.5676H46.7384V28.4671H46.6379V28.3659H46.335V28.2648H46.1327V28.1642H45.8299V28.0631H45.5271V27.9625H45.3254V27.8614H45.2242V27.7602H45.1237V27.5585H45.2242V27.3568H45.3254V27.2557H45.6282V27.1545H45.9311V27.2557H46.335V27.3568H46.4356V27.4574H46.6379V27.5585H46.7384V27.4574H46.8396V27.3568H46.9407V27.2557H47.0413V27.1545H47.1424V26.8517H46.9407V26.7512H46.8396V26.65H46.6379V26.5489H46.4356V26.4483H45.8299V26.3472H45.6282V26.4483Z" fill="#7D0007"/>
<path fill-rule="evenodd" clip-rule="evenodd" d="M108.316 26.4483H107.812V26.5489H107.609V26.65H107.408V26.7512H107.307V26.8517H107.206V26.9528H107.105V27.1545H107.004V27.9625H107.105V28.1642H107.206V28.3659H107.307V28.4671H107.509V28.5676H107.609V28.6687H107.912V28.7699H108.115V28.8704H108.417V28.9716H108.72V29.0727H108.922V29.1733H109.023V29.2744H109.124V29.5773H109.023V29.779H108.821V29.8801H107.912V29.779H107.711V29.6784H107.509V29.5773H107.408V29.4761H107.206V29.5773H107.105V29.6784H107.004V29.779H106.903V29.8801H106.802V30.0818H106.903V30.1829H107.004V30.2841H107.105V30.3846H107.307V30.4858H107.509V30.5869H107.812V30.6875H108.417V30.7886H108.518V30.6875H109.023V30.5869H109.326V30.4858H109.426V30.3846H109.528V30.2841H109.629V30.1829H109.729V30.0818H109.83V29.8801H109.932V29.0727H109.83V28.8704H109.729V28.6687H109.629V28.5676H109.426V28.4671H109.326V28.3659H109.023V28.2648H108.821V28.1642H108.518V28.0631H108.215V27.9625H108.013V27.8614H107.912V27.7602H107.812V27.4574H107.912V27.3568H108.013V27.2557H108.316V27.1545H108.619V27.2557H109.023V27.3568H109.124V27.4574H109.326V27.5585H109.426V27.4574H109.528V27.3568H109.629V27.2557H109.729V27.1545H109.83V26.8517H109.629V26.7512H109.528V26.65H109.326V26.5489H109.023V26.4483H108.518V26.3472H108.316V26.4483Z" fill="#7D0007"/>
<path fill-rule="evenodd" clip-rule="evenodd" d="M95.5969 27.2556H96.8083V30.6874H97.6157V27.2556H98.827V26.4482H95.5969V27.2556Z" fill="#7D0007"/>
<path fill-rule="evenodd" clip-rule="evenodd" d="M100.14 30.6874H101.048V26.4482H100.14V30.6874Z" fill="#7D0007"/>
</g>
<defs>
<clipPath id="clip0_199_1273">
<rect width="109.932" height="32" fill="white"/>
</clipPath>
</defs>
</svg>
