<svg width="424" height="203" viewBox="0 0 424 203" fill="none" xmlns="http://www.w3.org/2000/svg">
    <rect x="188" y="4.06396" width="48" height="48" rx="24" fill="#FFEEEF"/>
    <rect x="188" y="4.06396" width="48" height="48" rx="24" stroke="#FFDADC" stroke-width="8"/>
    <path d="M212 28.564C213.657 28.564 215 27.2208 215 25.564C215 23.9071 213.657 22.564 212 22.564C210.343 22.564 209 23.9071 209 25.564C209 27.2208 210.343 28.564 212 28.564Z" stroke="#7D0007" stroke-width="2" stroke-linecap="round" stroke-linejoin="round"/>
    <path d="M212 38.064C214 34.064 220 31.4822 220 26.064C220 21.6457 216.418 18.064 212 18.064C207.582 18.064 204 21.6457 204 26.064C204 31.4822 210 34.064 212 38.064Z" stroke="#7D0007" stroke-width="2" stroke-linecap="round" stroke-linejoin="round"/>
    <path d="M196.842 86.7912C196.842 88.3585 196.548 89.7008 195.961 90.8182C195.379 91.9309 194.583 92.7832 193.575 93.375C192.571 93.9669 191.432 94.2628 190.159 94.2628C188.885 94.2628 187.744 93.9669 186.735 93.375C185.732 92.7785 184.936 91.9238 184.349 90.8111C183.767 89.6937 183.475 88.3537 183.475 86.7912C183.475 85.224 183.767 83.884 184.349 82.7714C184.936 81.6539 185.732 80.7993 186.735 80.2074C187.744 79.6156 188.885 79.3196 190.159 79.3196C191.432 79.3196 192.571 79.6156 193.575 80.2074C194.583 80.7993 195.379 81.6539 195.961 82.7714C196.548 83.884 196.842 85.224 196.842 86.7912ZM194.193 86.7912C194.193 85.688 194.02 84.7576 193.674 84C193.333 83.2377 192.86 82.6624 192.254 82.2742C191.648 81.8812 190.949 81.6847 190.159 81.6847C189.368 81.6847 188.67 81.8812 188.064 82.2742C187.458 82.6624 186.982 83.2377 186.636 84C186.295 84.7576 186.125 85.688 186.125 86.7912C186.125 87.8945 186.295 88.8272 186.636 89.5895C186.982 90.3471 187.458 90.9224 188.064 91.3154C188.67 91.7036 189.368 91.8978 190.159 91.8978C190.949 91.8978 191.648 91.7036 192.254 91.3154C192.86 90.9224 193.333 90.3471 193.674 89.5895C194.02 88.8272 194.193 87.8945 194.193 86.7912ZM204.745 83.1549V85.1435H198.296V83.1549H204.745ZM199.908 94.064V82.125C199.908 81.3911 200.06 80.7803 200.363 80.2927C200.671 79.805 201.083 79.4404 201.599 79.1989C202.115 78.9574 202.688 78.8367 203.317 78.8367C203.763 78.8367 204.158 78.8722 204.504 78.9432C204.849 79.0142 205.105 79.0782 205.271 79.135L204.759 81.1236C204.65 81.0905 204.513 81.0573 204.347 81.0242C204.182 80.9863 203.997 80.9674 203.793 80.9674C203.315 80.9674 202.977 81.0834 202.778 81.3154C202.584 81.5427 202.487 81.8694 202.487 82.2955V94.064H199.908ZM212.284 83.1549V85.1435H205.835V83.1549H212.284ZM207.447 94.064V82.125C207.447 81.3911 207.599 80.7803 207.902 80.2927C208.21 79.805 208.622 79.4404 209.138 79.1989C209.654 78.9574 210.227 78.8367 210.857 78.8367C211.302 78.8367 211.697 78.8722 212.043 78.9432C212.388 79.0142 212.644 79.0782 212.81 79.135L212.298 81.1236C212.189 81.0905 212.052 81.0573 211.886 81.0242C211.721 80.9863 211.536 80.9674 211.332 80.9674C210.854 80.9674 210.516 81.0834 210.317 81.3154C210.123 81.5427 210.026 81.8694 210.026 82.2955V94.064H207.447ZM214.298 94.064V83.1549H216.869V94.064H214.298ZM215.59 81.6066C215.183 81.6066 214.833 81.4716 214.539 81.2017C214.246 80.9271 214.099 80.5981 214.099 80.2145C214.099 79.8263 214.246 79.4972 214.539 79.2273C214.833 78.9527 215.183 78.8154 215.59 78.8154C216.002 78.8154 216.353 78.9527 216.641 79.2273C216.935 79.4972 217.082 79.8263 217.082 80.2145C217.082 80.5981 216.935 80.9271 216.641 81.2017C216.353 81.4716 216.002 81.6066 215.59 81.6066ZM224.271 94.277C223.182 94.277 222.247 94.0379 221.466 93.5597C220.689 93.0815 220.09 92.421 219.669 91.5782C219.252 90.7306 219.044 89.7553 219.044 88.652C219.044 87.5441 219.257 86.5663 219.683 85.7188C220.109 84.8665 220.71 84.2036 221.487 83.7302C222.268 83.2519 223.191 83.0128 224.257 83.0128C225.142 83.0128 225.926 83.1762 226.608 83.5029C227.294 83.8249 227.841 84.2818 228.248 84.8736C228.655 85.4607 228.887 86.1473 228.944 86.9333H226.487C226.387 86.4077 226.151 85.9697 225.777 85.6194C225.407 85.2642 224.913 85.0867 224.292 85.0867C223.767 85.0867 223.305 85.2287 222.907 85.5128C222.51 85.7922 222.199 86.1946 221.977 86.7202C221.759 87.2458 221.65 87.8755 221.65 88.6094C221.65 89.3528 221.759 89.992 221.977 90.527C222.195 91.0573 222.5 91.4669 222.893 91.7557C223.291 92.0398 223.757 92.1819 224.292 92.1819C224.671 92.1819 225.01 92.1108 225.308 91.9688C225.611 91.822 225.864 91.6113 226.068 91.3367C226.271 91.0621 226.411 90.7283 226.487 90.3353H228.944C228.883 91.1071 228.655 91.7912 228.262 92.3878C227.869 92.9797 227.334 93.4437 226.657 93.7799C225.98 94.1113 225.185 94.277 224.271 94.277ZM235.885 94.277C234.791 94.277 233.847 94.0498 233.051 93.5952C232.26 93.1359 231.652 92.4873 231.226 91.6492C230.8 90.8064 230.587 89.8144 230.587 88.6733C230.587 87.5512 230.8 86.5663 231.226 85.7188C231.657 84.8665 232.258 84.2036 233.03 83.7302C233.802 83.2519 234.708 83.0128 235.75 83.0128C236.422 83.0128 237.057 83.1217 237.653 83.3395C238.255 83.5526 238.785 83.884 239.244 84.3339C239.708 84.7837 240.073 85.3566 240.338 86.0526C240.603 86.7439 240.736 87.5678 240.736 88.5242V89.3125H231.794V87.5796H238.271C238.267 87.0872 238.16 86.6492 237.952 86.2657C237.743 85.8774 237.452 85.572 237.078 85.3495C236.709 85.1269 236.278 85.0157 235.786 85.0157C235.26 85.0157 234.798 85.1435 234.401 85.3992C234.003 85.6501 233.693 85.9816 233.47 86.3935C233.252 86.8007 233.141 87.2482 233.136 87.7358V89.2486C233.136 89.8831 233.252 90.4276 233.484 90.8821C233.716 91.332 234.041 91.6776 234.457 91.9191C234.874 92.1558 235.362 92.2742 235.92 92.2742C236.295 92.2742 236.633 92.2221 236.936 92.1179C237.239 92.009 237.502 91.8504 237.724 91.6421C237.947 91.4338 238.115 91.1757 238.229 90.8679L240.629 91.1378C240.478 91.7723 240.189 92.3263 239.763 92.7998C239.341 93.2685 238.802 93.6331 238.143 93.8935C237.485 94.1492 236.732 94.277 235.885 94.277Z" fill="#101828"/>
    <path d="M84.9302 122.48C84.9302 121.392 85.1755 120.416 85.6662 119.552C86.1569 118.677 86.8235 117.995 87.6662 117.504C88.5195 117.013 89.4635 116.768 90.4982 116.768C91.7142 116.768 92.7755 117.061 93.6822 117.648C94.5889 118.235 95.2502 119.067 95.6662 120.144H93.9222C93.6129 119.472 93.1649 118.955 92.5782 118.592C92.0022 118.229 91.3089 118.048 90.4982 118.048C89.7195 118.048 89.0209 118.229 88.4022 118.592C87.7835 118.955 87.2982 119.472 86.9462 120.144C86.5942 120.805 86.4182 121.584 86.4182 122.48C86.4182 123.365 86.5942 124.144 86.9462 124.816C87.2982 125.477 87.7835 125.989 88.4022 126.352C89.0209 126.715 89.7195 126.896 90.4982 126.896C91.3089 126.896 92.0022 126.72 92.5782 126.368C93.1649 126.005 93.6129 125.488 93.9222 124.816H95.6662C95.2502 125.883 94.5889 126.709 93.6822 127.296C92.7755 127.872 91.7142 128.16 90.4982 128.16C89.4635 128.16 88.5195 127.92 87.6662 127.44C86.8235 126.949 86.1569 126.272 85.6662 125.408C85.1755 124.544 84.9302 123.568 84.9302 122.48ZM101.658 128.208C100.836 128.208 100.09 128.021 99.4176 127.648C98.7562 127.275 98.2336 126.747 97.8496 126.064C97.4762 125.371 97.2896 124.571 97.2896 123.664C97.2896 122.768 97.4816 121.979 97.8656 121.296C98.2602 120.603 98.7936 120.075 99.4656 119.712C100.138 119.339 100.89 119.152 101.722 119.152C102.554 119.152 103.306 119.339 103.978 119.712C104.65 120.075 105.178 120.597 105.562 121.28C105.956 121.963 106.154 122.757 106.154 123.664C106.154 124.571 105.951 125.371 105.546 126.064C105.151 126.747 104.612 127.275 103.93 127.648C103.247 128.021 102.49 128.208 101.658 128.208ZM101.658 126.928C102.18 126.928 102.671 126.805 103.13 126.56C103.588 126.315 103.956 125.947 104.234 125.456C104.522 124.965 104.666 124.368 104.666 123.664C104.666 122.96 104.527 122.363 104.25 121.872C103.972 121.381 103.61 121.019 103.162 120.784C102.714 120.539 102.228 120.416 101.706 120.416C101.172 120.416 100.682 120.539 100.234 120.784C99.7962 121.019 99.4442 121.381 99.1776 121.872C98.9109 122.363 98.7776 122.96 98.7776 123.664C98.7776 124.379 98.9056 124.981 99.1616 125.472C99.4282 125.963 99.7802 126.331 100.218 126.576C100.655 126.811 101.135 126.928 101.658 126.928ZM118.612 119.136C119.295 119.136 119.903 119.28 120.436 119.568C120.969 119.845 121.391 120.267 121.7 120.832C122.009 121.397 122.164 122.085 122.164 122.896V128.064H120.724V123.104C120.724 122.229 120.505 121.563 120.068 121.104C119.641 120.635 119.06 120.4 118.324 120.4C117.567 120.4 116.964 120.645 116.516 121.136C116.068 121.616 115.844 122.315 115.844 123.232V128.064H114.404V123.104C114.404 122.229 114.185 121.563 113.748 121.104C113.321 120.635 112.74 120.4 112.004 120.4C111.247 120.4 110.644 120.645 110.196 121.136C109.748 121.616 109.524 122.315 109.524 123.232V128.064H108.068V119.296H109.524V120.56C109.812 120.101 110.196 119.749 110.676 119.504C111.167 119.259 111.705 119.136 112.292 119.136C113.028 119.136 113.679 119.301 114.244 119.632C114.809 119.963 115.231 120.448 115.508 121.088C115.753 120.469 116.159 119.989 116.724 119.648C117.289 119.307 117.919 119.136 118.612 119.136ZM132.552 123.344C132.552 123.621 132.536 123.915 132.504 124.224H125.496C125.55 125.088 125.843 125.765 126.376 126.256C126.92 126.736 127.576 126.976 128.344 126.976C128.974 126.976 129.496 126.832 129.912 126.544C130.339 126.245 130.638 125.851 130.808 125.36H132.376C132.142 126.203 131.672 126.891 130.968 127.424C130.264 127.947 129.39 128.208 128.344 128.208C127.512 128.208 126.766 128.021 126.104 127.648C125.454 127.275 124.942 126.747 124.568 126.064C124.195 125.371 124.008 124.571 124.008 123.664C124.008 122.757 124.19 121.963 124.552 121.28C124.915 120.597 125.422 120.075 126.072 119.712C126.734 119.339 127.491 119.152 128.344 119.152C129.176 119.152 129.912 119.333 130.552 119.696C131.192 120.059 131.683 120.56 132.024 121.2C132.376 121.829 132.552 122.544 132.552 123.344ZM131.048 123.04C131.048 122.485 130.926 122.011 130.68 121.616C130.435 121.211 130.099 120.907 129.672 120.704C129.256 120.491 128.792 120.384 128.28 120.384C127.544 120.384 126.915 120.619 126.392 121.088C125.88 121.557 125.587 122.208 125.512 123.04H131.048ZM141.844 128.208C141.172 128.208 140.569 128.096 140.036 127.872C139.502 127.637 139.081 127.317 138.772 126.912C138.462 126.496 138.292 126.021 138.26 125.488H139.764C139.806 125.925 140.009 126.283 140.372 126.56C140.745 126.837 141.23 126.976 141.828 126.976C142.382 126.976 142.82 126.853 143.14 126.608C143.46 126.363 143.62 126.053 143.62 125.68C143.62 125.296 143.449 125.013 143.108 124.832C142.766 124.64 142.238 124.453 141.524 124.272C140.873 124.101 140.34 123.931 139.924 123.76C139.518 123.579 139.166 123.317 138.868 122.976C138.58 122.624 138.436 122.165 138.436 121.6C138.436 121.152 138.569 120.741 138.836 120.368C139.102 119.995 139.481 119.701 139.972 119.488C140.462 119.264 141.022 119.152 141.652 119.152C142.622 119.152 143.406 119.397 144.004 119.888C144.601 120.379 144.921 121.051 144.964 121.904H143.508C143.476 121.445 143.289 121.077 142.948 120.8C142.617 120.523 142.169 120.384 141.604 120.384C141.081 120.384 140.665 120.496 140.356 120.72C140.046 120.944 139.892 121.237 139.892 121.6C139.892 121.888 139.982 122.128 140.164 122.32C140.356 122.501 140.59 122.651 140.868 122.768C141.156 122.875 141.55 122.997 142.052 123.136C142.681 123.307 143.193 123.477 143.588 123.648C143.982 123.808 144.318 124.053 144.596 124.384C144.884 124.715 145.033 125.147 145.044 125.68C145.044 126.16 144.91 126.592 144.644 126.976C144.377 127.36 143.998 127.664 143.508 127.888C143.028 128.101 142.473 128.208 141.844 128.208ZM146.555 123.648C146.555 122.752 146.737 121.968 147.099 121.296C147.462 120.613 147.958 120.085 148.587 119.712C149.227 119.339 149.937 119.152 150.715 119.152C151.483 119.152 152.15 119.317 152.715 119.648C153.281 119.979 153.702 120.395 153.979 120.896V119.296H155.451V128.064H153.979V126.432C153.691 126.944 153.259 127.371 152.683 127.712C152.118 128.043 151.457 128.208 150.699 128.208C149.921 128.208 149.217 128.016 148.587 127.632C147.958 127.248 147.462 126.709 147.099 126.016C146.737 125.323 146.555 124.533 146.555 123.648ZM153.979 123.664C153.979 123.003 153.846 122.427 153.579 121.936C153.313 121.445 152.95 121.072 152.491 120.816C152.043 120.549 151.547 120.416 151.003 120.416C150.459 120.416 149.963 120.544 149.515 120.8C149.067 121.056 148.71 121.429 148.443 121.92C148.177 122.411 148.043 122.987 148.043 123.648C148.043 124.32 148.177 124.907 148.443 125.408C148.71 125.899 149.067 126.277 149.515 126.544C149.963 126.8 150.459 126.928 151.003 126.928C151.547 126.928 152.043 126.8 152.491 126.544C152.95 126.277 153.313 125.899 153.579 125.408C153.846 124.907 153.979 124.325 153.979 123.664ZM165.464 119.296L160.184 132.192H158.68L160.408 127.968L156.872 119.296H158.488L161.24 126.4L163.96 119.296H165.464ZM175.545 119.136C176.206 119.136 176.804 119.28 177.337 119.568C177.87 119.845 178.286 120.267 178.585 120.832C178.894 121.397 179.049 122.085 179.049 122.896V128.064H177.609V123.104C177.609 122.229 177.39 121.563 176.953 121.104C176.516 120.635 175.918 120.4 175.161 120.4C174.393 120.4 173.78 120.64 173.321 121.12C172.873 121.6 172.649 122.299 172.649 123.216V128.064H171.193V116.224H172.649V120.544C172.937 120.096 173.332 119.749 173.833 119.504C174.345 119.259 174.916 119.136 175.545 119.136ZM189.427 123.344C189.427 123.621 189.411 123.915 189.379 124.224H182.371C182.425 125.088 182.718 125.765 183.251 126.256C183.795 126.736 184.451 126.976 185.219 126.976C185.849 126.976 186.371 126.832 186.787 126.544C187.214 126.245 187.513 125.851 187.683 125.36H189.251C189.017 126.203 188.547 126.891 187.843 127.424C187.139 127.947 186.265 128.208 185.219 128.208C184.387 128.208 183.641 128.021 182.979 127.648C182.329 127.275 181.817 126.747 181.443 126.064C181.07 125.371 180.883 124.571 180.883 123.664C180.883 122.757 181.065 121.963 181.427 121.28C181.79 120.597 182.297 120.075 182.947 119.712C183.609 119.339 184.366 119.152 185.219 119.152C186.051 119.152 186.787 119.333 187.427 119.696C188.067 120.059 188.558 120.56 188.899 121.2C189.251 121.829 189.427 122.544 189.427 123.344ZM187.923 123.04C187.923 122.485 187.801 122.011 187.555 121.616C187.31 121.211 186.974 120.907 186.547 120.704C186.131 120.491 185.667 120.384 185.155 120.384C184.419 120.384 183.79 120.619 183.267 121.088C182.755 121.557 182.462 122.208 182.387 123.04H187.923ZM192.805 116.224V128.064H191.349V116.224H192.805ZM196.743 116.224V128.064H195.287V116.224H196.743ZM203.048 128.208C202.227 128.208 201.48 128.021 200.808 127.648C200.147 127.275 199.624 126.747 199.24 126.064C198.867 125.371 198.68 124.571 198.68 123.664C198.68 122.768 198.872 121.979 199.256 121.296C199.651 120.603 200.184 120.075 200.856 119.712C201.528 119.339 202.28 119.152 203.112 119.152C203.944 119.152 204.696 119.339 205.368 119.712C206.04 120.075 206.568 120.597 206.952 121.28C207.347 121.963 207.544 122.757 207.544 123.664C207.544 124.571 207.342 125.371 206.936 126.064C206.542 126.747 206.003 127.275 205.32 127.648C204.638 128.021 203.88 128.208 203.048 128.208ZM203.048 126.928C203.571 126.928 204.062 126.805 204.52 126.56C204.979 126.315 205.347 125.947 205.624 125.456C205.912 124.965 206.056 124.368 206.056 123.664C206.056 122.96 205.918 122.363 205.64 121.872C205.363 121.381 205 121.019 204.552 120.784C204.104 120.539 203.619 120.416 203.096 120.416C202.563 120.416 202.072 120.539 201.624 120.784C201.187 121.019 200.835 121.381 200.568 121.872C200.302 122.363 200.168 122.96 200.168 123.664C200.168 124.379 200.296 124.981 200.552 125.472C200.819 125.963 201.171 126.331 201.608 126.576C202.046 126.811 202.526 126.928 203.048 126.928ZM213.18 123.648C213.18 122.752 213.362 121.968 213.724 121.296C214.087 120.613 214.583 120.085 215.212 119.712C215.852 119.339 216.562 119.152 217.34 119.152C218.108 119.152 218.775 119.317 219.34 119.648C219.906 119.979 220.327 120.395 220.604 120.896V119.296H222.076V128.064H220.604V126.432C220.316 126.944 219.884 127.371 219.308 127.712C218.743 128.043 218.082 128.208 217.324 128.208C216.546 128.208 215.842 128.016 215.212 127.632C214.583 127.248 214.087 126.709 213.724 126.016C213.362 125.323 213.18 124.533 213.18 123.648ZM220.604 123.664C220.604 123.003 220.471 122.427 220.204 121.936C219.938 121.445 219.575 121.072 219.116 120.816C218.668 120.549 218.172 120.416 217.628 120.416C217.084 120.416 216.588 120.544 216.14 120.8C215.692 121.056 215.335 121.429 215.068 121.92C214.802 122.411 214.668 122.987 214.668 123.648C214.668 124.32 214.802 124.907 215.068 125.408C215.335 125.899 215.692 126.277 216.14 126.544C216.588 126.8 217.084 126.928 217.628 126.928C218.172 126.928 218.668 126.8 219.116 126.544C219.575 126.277 219.938 125.899 220.204 125.408C220.471 124.907 220.604 124.325 220.604 123.664ZM226.313 120.496V125.664C226.313 126.091 226.403 126.395 226.585 126.576C226.766 126.747 227.081 126.832 227.529 126.832H228.601V128.064H227.289C226.478 128.064 225.87 127.877 225.465 127.504C225.059 127.131 224.857 126.517 224.857 125.664V120.496H223.721V119.296H224.857V117.088H226.313V119.296H228.601V120.496H226.313ZM238.454 128.208C237.633 128.208 236.886 128.021 236.214 127.648C235.553 127.275 235.03 126.747 234.646 126.064C234.273 125.371 234.086 124.571 234.086 123.664C234.086 122.768 234.278 121.979 234.662 121.296C235.057 120.603 235.59 120.075 236.262 119.712C236.934 119.339 237.686 119.152 238.518 119.152C239.35 119.152 240.102 119.339 240.774 119.712C241.446 120.075 241.974 120.597 242.358 121.28C242.753 121.963 242.95 122.757 242.95 123.664C242.95 124.571 242.748 125.371 242.342 126.064C241.948 126.747 241.409 127.275 240.726 127.648C240.044 128.021 239.286 128.208 238.454 128.208ZM238.454 126.928C238.977 126.928 239.468 126.805 239.926 126.56C240.385 126.315 240.753 125.947 241.03 125.456C241.318 124.965 241.462 124.368 241.462 123.664C241.462 122.96 241.324 122.363 241.046 121.872C240.769 121.381 240.406 121.019 239.958 120.784C239.51 120.539 239.025 120.416 238.502 120.416C237.969 120.416 237.478 120.539 237.03 120.784C236.593 121.019 236.241 121.381 235.974 121.872C235.708 122.363 235.574 122.96 235.574 123.664C235.574 124.379 235.702 124.981 235.958 125.472C236.225 125.963 236.577 126.331 237.014 126.576C237.452 126.811 237.932 126.928 238.454 126.928ZM252.641 119.296V128.064H251.185V126.768C250.907 127.216 250.518 127.568 250.017 127.824C249.526 128.069 248.982 128.192 248.385 128.192C247.702 128.192 247.089 128.053 246.545 127.776C246.001 127.488 245.569 127.061 245.249 126.496C244.939 125.931 244.785 125.243 244.785 124.432V119.296H246.225V124.24C246.225 125.104 246.443 125.771 246.881 126.24C247.318 126.699 247.915 126.928 248.673 126.928C249.451 126.928 250.065 126.688 250.513 126.208C250.961 125.728 251.185 125.029 251.185 124.112V119.296H252.641ZM256.555 120.72C256.811 120.219 257.174 119.829 257.643 119.552C258.123 119.275 258.705 119.136 259.387 119.136V120.64H259.003C257.371 120.64 256.555 121.525 256.555 123.296V128.064H255.099V119.296H256.555V120.72ZM269.158 128.208C268.336 128.208 267.59 128.021 266.918 127.648C266.256 127.275 265.734 126.747 265.35 126.064C264.976 125.371 264.79 124.571 264.79 123.664C264.79 122.768 264.982 121.979 265.366 121.296C265.76 120.603 266.294 120.075 266.966 119.712C267.638 119.339 268.39 119.152 269.222 119.152C270.054 119.152 270.806 119.339 271.478 119.712C272.15 120.075 272.678 120.597 273.062 121.28C273.456 121.963 273.654 122.757 273.654 123.664C273.654 124.571 273.451 125.371 273.046 126.064C272.651 126.747 272.112 127.275 271.43 127.648C270.747 128.021 269.99 128.208 269.158 128.208ZM269.158 126.928C269.68 126.928 270.171 126.805 270.63 126.56C271.088 126.315 271.456 125.947 271.734 125.456C272.022 124.965 272.166 124.368 272.166 123.664C272.166 122.96 272.027 122.363 271.75 121.872C271.472 121.381 271.11 121.019 270.662 120.784C270.214 120.539 269.728 120.416 269.206 120.416C268.672 120.416 268.182 120.539 267.734 120.784C267.296 121.019 266.944 121.381 266.678 121.872C266.411 122.363 266.278 122.96 266.278 123.664C266.278 124.379 266.406 124.981 266.662 125.472C266.928 125.963 267.28 126.331 267.718 126.576C268.155 126.811 268.635 126.928 269.158 126.928ZM279.136 120.496H277.296V128.064H275.84V120.496H274.704V119.296H275.84V118.672C275.84 117.691 276.091 116.976 276.592 116.528C277.104 116.069 277.92 115.84 279.04 115.84V117.056C278.4 117.056 277.947 117.184 277.68 117.44C277.424 117.685 277.296 118.096 277.296 118.672V119.296H279.136V120.496ZM284.402 120.496H282.562V128.064H281.106V120.496H279.97V119.296H281.106V118.672C281.106 117.691 281.356 116.976 281.858 116.528C282.37 116.069 283.186 115.84 284.306 115.84V117.056C283.666 117.056 283.212 117.184 282.946 117.44C282.69 117.685 282.562 118.096 282.562 118.672V119.296H284.402V120.496ZM286.851 117.872C286.574 117.872 286.339 117.776 286.147 117.584C285.955 117.392 285.859 117.157 285.859 116.88C285.859 116.603 285.955 116.368 286.147 116.176C286.339 115.984 286.574 115.888 286.851 115.888C287.118 115.888 287.342 115.984 287.523 116.176C287.715 116.368 287.811 116.603 287.811 116.88C287.811 117.157 287.715 117.392 287.523 117.584C287.342 117.776 287.118 117.872 286.851 117.872ZM287.555 119.296V128.064H286.099V119.296H287.555ZM289.493 123.664C289.493 122.757 289.674 121.968 290.037 121.296C290.399 120.613 290.901 120.085 291.541 119.712C292.191 119.339 292.933 119.152 293.765 119.152C294.842 119.152 295.727 119.413 296.421 119.936C297.125 120.459 297.589 121.184 297.813 122.112H296.245C296.095 121.579 295.802 121.157 295.365 120.848C294.938 120.539 294.405 120.384 293.765 120.384C292.933 120.384 292.261 120.672 291.749 121.248C291.237 121.813 290.981 122.619 290.981 123.664C290.981 124.72 291.237 125.536 291.749 126.112C292.261 126.688 292.933 126.976 293.765 126.976C294.405 126.976 294.938 126.827 295.365 126.528C295.791 126.229 296.085 125.803 296.245 125.248H297.813C297.578 126.144 297.109 126.864 296.405 127.408C295.701 127.941 294.821 128.208 293.765 128.208C292.933 128.208 292.191 128.021 291.541 127.648C290.901 127.275 290.399 126.747 290.037 126.064C289.674 125.381 289.493 124.581 289.493 123.664ZM307.755 123.344C307.755 123.621 307.739 123.915 307.707 124.224H300.699C300.753 125.088 301.046 125.765 301.579 126.256C302.123 126.736 302.779 126.976 303.547 126.976C304.177 126.976 304.699 126.832 305.115 126.544C305.542 126.245 305.841 125.851 306.011 125.36H307.579C307.345 126.203 306.875 126.891 306.171 127.424C305.467 127.947 304.593 128.208 303.547 128.208C302.715 128.208 301.969 128.021 301.307 127.648C300.657 127.275 300.145 126.747 299.771 126.064C299.398 125.371 299.211 124.571 299.211 123.664C299.211 122.757 299.393 121.963 299.755 121.28C300.118 120.597 300.625 120.075 301.275 119.712C301.937 119.339 302.694 119.152 303.547 119.152C304.379 119.152 305.115 119.333 305.755 119.696C306.395 120.059 306.886 120.56 307.227 121.2C307.579 121.829 307.755 122.544 307.755 123.344ZM306.251 123.04C306.251 122.485 306.129 122.011 305.883 121.616C305.638 121.211 305.302 120.907 304.875 120.704C304.459 120.491 303.995 120.384 303.483 120.384C302.747 120.384 302.118 120.619 301.595 121.088C301.083 121.557 300.79 122.208 300.715 123.04H306.251ZM322.535 116.912V128.064H321.079V123.008H315.399V128.064H313.943V116.912H315.399V121.808H321.079V116.912H322.535ZM333.965 130.176L331.741 127.952C331.197 128.101 330.642 128.176 330.077 128.176C329.042 128.176 328.098 127.936 327.245 127.456C326.392 126.965 325.714 126.288 325.213 125.424C324.722 124.549 324.477 123.568 324.477 122.48C324.477 121.392 324.722 120.416 325.213 119.552C325.714 118.677 326.392 118 327.245 117.52C328.098 117.029 329.042 116.784 330.077 116.784C331.122 116.784 332.072 117.029 332.925 117.52C333.778 118 334.45 118.672 334.941 119.536C335.432 120.4 335.677 121.381 335.677 122.48C335.677 123.547 335.442 124.507 334.973 125.36C334.504 126.213 333.858 126.885 333.037 127.376L335.853 130.176H333.965ZM325.965 122.48C325.965 123.365 326.141 124.144 326.493 124.816C326.856 125.488 327.346 126.005 327.965 126.368C328.594 126.731 329.298 126.912 330.077 126.912C330.856 126.912 331.554 126.731 332.173 126.368C332.802 126.005 333.293 125.488 333.645 124.816C334.008 124.144 334.189 123.365 334.189 122.48C334.189 121.584 334.008 120.805 333.645 120.144C333.293 119.472 332.808 118.955 332.189 118.592C331.57 118.229 330.866 118.048 330.077 118.048C329.288 118.048 328.584 118.229 327.965 118.592C327.346 118.955 326.856 119.472 326.493 120.144C326.141 120.805 325.965 121.584 325.965 122.48ZM338.094 128.16C337.817 128.16 337.582 128.064 337.39 127.872C337.198 127.68 337.102 127.445 337.102 127.168C337.102 126.891 337.198 126.656 337.39 126.464C337.582 126.272 337.817 126.176 338.094 126.176C338.361 126.176 338.585 126.272 338.766 126.464C338.958 126.656 339.054 126.891 339.054 127.168C339.054 127.445 338.958 127.68 338.766 127.872C338.585 128.064 338.361 128.16 338.094 128.16Z" fill="#656565"/>
    <g clip-path="url(#clip0_311_34607)">
        <path d="M6.07719 172.176C5.29852 172.176 4.59452 172.043 3.96519 171.776C3.34652 171.509 2.85585 171.125 2.49319 170.624C2.13052 170.123 1.94385 169.531 1.93319 168.848H4.33319C4.36519 169.307 4.52519 169.669 4.81319 169.936C5.11185 170.203 5.51719 170.336 6.02919 170.336C6.55185 170.336 6.96252 170.213 7.26119 169.968C7.55985 169.712 7.70919 169.381 7.70919 168.976C7.70919 168.645 7.60785 168.373 7.40519 168.16C7.20252 167.947 6.94652 167.781 6.63719 167.664C6.33852 167.536 5.92252 167.397 5.38919 167.248C4.66385 167.035 4.07185 166.827 3.61319 166.624C3.16519 166.411 2.77585 166.096 2.44519 165.68C2.12519 165.253 1.96519 164.688 1.96519 163.984C1.96519 163.323 2.13052 162.747 2.46119 162.256C2.79185 161.765 3.25585 161.392 3.85319 161.136C4.45052 160.869 5.13319 160.736 5.90119 160.736C7.05319 160.736 7.98652 161.019 8.70119 161.584C9.42652 162.139 9.82652 162.917 9.90119 163.92H7.43719C7.41585 163.536 7.25052 163.221 6.94119 162.976C6.64252 162.72 6.24252 162.592 5.74119 162.592C5.30385 162.592 4.95185 162.704 4.68519 162.928C4.42919 163.152 4.30119 163.477 4.30119 163.904C4.30119 164.203 4.39719 164.453 4.58919 164.656C4.79185 164.848 5.03719 165.008 5.32519 165.136C5.62385 165.253 6.03985 165.392 6.57319 165.552C7.29852 165.765 7.89052 165.979 8.34919 166.192C8.80785 166.405 9.20252 166.725 9.53319 167.152C9.86385 167.579 10.0292 168.139 10.0292 168.832C10.0292 169.429 9.87452 169.984 9.56519 170.496C9.25585 171.008 8.80252 171.419 8.20519 171.728C7.60785 172.027 6.89852 172.176 6.07719 172.176ZM20.3392 163.2V172.064H18.0832V170.944C17.7952 171.328 17.4165 171.632 16.9472 171.856C16.4885 172.069 15.9872 172.176 15.4432 172.176C14.7499 172.176 14.1365 172.032 13.6032 171.744C13.0699 171.445 12.6485 171.013 12.3392 170.448C12.0405 169.872 11.8912 169.189 11.8912 168.4V163.2H14.1312V168.08C14.1312 168.784 14.3072 169.328 14.6592 169.712C15.0112 170.085 15.4912 170.272 16.0992 170.272C16.7179 170.272 17.2032 170.085 17.5552 169.712C17.9072 169.328 18.0832 168.784 18.0832 168.08V163.2H20.3392ZM23.6853 162.144C23.2906 162.144 22.96 162.021 22.6933 161.776C22.4373 161.52 22.3093 161.205 22.3093 160.832C22.3093 160.459 22.4373 160.149 22.6933 159.904C22.96 159.648 23.2906 159.52 23.6853 159.52C24.08 159.52 24.4053 159.648 24.6613 159.904C24.928 160.149 25.0613 160.459 25.0613 160.832C25.0613 161.205 24.928 161.52 24.6613 161.776C24.4053 162.021 24.08 162.144 23.6853 162.144ZM24.7893 163.2V172.064H22.5493V163.2H24.7893ZM29.6104 165.04V169.328C29.6104 169.627 29.6798 169.845 29.8184 169.984C29.9678 170.112 30.2131 170.176 30.5544 170.176H31.5944V172.064H30.1864C28.2984 172.064 27.3544 171.147 27.3544 169.312V165.04H26.2984V163.2H27.3544V161.008H29.6104V163.2H31.5944V165.04H29.6104ZM41.4456 167.44C41.4456 167.76 41.4242 168.048 41.3816 168.304H34.9016C34.9549 168.944 35.1789 169.445 35.5736 169.808C35.9682 170.171 36.4536 170.352 37.0296 170.352C37.8616 170.352 38.4536 169.995 38.8056 169.28H41.2216C40.9656 170.133 40.4749 170.837 39.7496 171.392C39.0242 171.936 38.1336 172.208 37.0776 172.208C36.2242 172.208 35.4562 172.021 34.7736 171.648C34.1016 171.264 33.5736 170.725 33.1896 170.032C32.8162 169.339 32.6296 168.539 32.6296 167.632C32.6296 166.715 32.8162 165.909 33.1896 165.216C33.5629 164.523 34.0856 163.989 34.7576 163.616C35.4296 163.243 36.2029 163.056 37.0776 163.056C37.9202 163.056 38.6722 163.237 39.3336 163.6C40.0056 163.963 40.5229 164.48 40.8856 165.152C41.2589 165.813 41.4456 166.576 41.4456 167.44ZM39.1256 166.8C39.1149 166.224 38.9069 165.765 38.5016 165.424C38.0962 165.072 37.6002 164.896 37.0136 164.896C36.4589 164.896 35.9896 165.067 35.6056 165.408C35.2322 165.739 35.0029 166.203 34.9176 166.8H39.1256ZM49.2291 168.784C49.3144 169.253 49.5064 169.616 49.8051 169.872C50.1144 170.117 50.5251 170.24 51.0371 170.24C51.6984 170.24 52.1784 169.968 52.4771 169.424C52.7757 168.869 52.9251 167.941 52.9251 166.64C52.6797 166.981 52.3331 167.248 51.8851 167.44C51.4477 167.632 50.9731 167.728 50.4611 167.728C49.7784 167.728 49.1597 167.589 48.6051 167.312C48.0611 167.024 47.6291 166.603 47.3091 166.048C46.9891 165.483 46.8291 164.8 46.8291 164C46.8291 162.816 47.1811 161.877 47.8851 161.184C48.5891 160.48 49.5491 160.128 50.7651 160.128C52.2797 160.128 53.3464 160.613 53.9651 161.584C54.5944 162.555 54.9091 164.016 54.9091 165.968C54.9091 167.355 54.7864 168.491 54.5411 169.376C54.3064 170.261 53.8957 170.933 53.3091 171.392C52.7331 171.851 51.9437 172.08 50.9411 172.08C50.1517 172.08 49.4797 171.931 48.9251 171.632C48.3704 171.323 47.9437 170.923 47.6451 170.432C47.3571 169.931 47.1917 169.381 47.1491 168.784H49.2291ZM50.9251 165.904C51.4797 165.904 51.9171 165.733 52.2371 165.392C52.5571 165.051 52.7171 164.592 52.7171 164.016C52.7171 163.387 52.5464 162.901 52.2051 162.56C51.8744 162.208 51.4211 162.032 50.8451 162.032C50.2691 162.032 49.8104 162.213 49.4691 162.576C49.1384 162.928 48.9731 163.397 48.9731 163.984C48.9731 164.549 49.1331 165.013 49.4531 165.376C49.7837 165.728 50.2744 165.904 50.9251 165.904ZM59.3567 169.712L57.4847 174.208H56.0447L57.0847 169.712H59.3567ZM71.2957 160.896V168.736C71.2957 169.824 70.981 170.672 70.3517 171.28C69.7224 171.877 68.8797 172.176 67.8237 172.176C66.757 172.176 65.893 171.867 65.2317 171.248C64.581 170.629 64.2557 169.765 64.2557 168.656H66.4957C66.5064 169.136 66.6184 169.509 66.8317 169.776C67.0557 170.043 67.3757 170.176 67.7917 170.176C68.197 170.176 68.5064 170.048 68.7197 169.792C68.933 169.536 69.0397 169.184 69.0397 168.736V160.896H71.2957ZM77.8447 172.208C76.9914 172.208 76.2234 172.021 75.5407 171.648C74.858 171.264 74.3194 170.725 73.9247 170.032C73.5407 169.339 73.3487 168.539 73.3487 167.632C73.3487 166.725 73.546 165.925 73.9407 165.232C74.346 164.539 74.8954 164.005 75.5887 163.632C76.282 163.248 77.0554 163.056 77.9087 163.056C78.762 163.056 79.5354 163.248 80.2287 163.632C80.922 164.005 81.466 164.539 81.8607 165.232C82.266 165.925 82.4687 166.725 82.4687 167.632C82.4687 168.539 82.2607 169.339 81.8447 170.032C81.4394 170.725 80.8847 171.264 80.1807 171.648C79.4874 172.021 78.7087 172.208 77.8447 172.208ZM77.8447 170.256C78.25 170.256 78.6287 170.16 78.9807 169.968C79.3434 169.765 79.6314 169.467 79.8447 169.072C80.058 168.677 80.1647 168.197 80.1647 167.632C80.1647 166.789 79.9407 166.144 79.4927 165.696C79.0554 165.237 78.5167 165.008 77.8767 165.008C77.2367 165.008 76.698 165.237 76.2607 165.696C75.834 166.144 75.6207 166.789 75.6207 167.632C75.6207 168.475 75.8287 169.125 76.2447 169.584C76.6714 170.032 77.2047 170.256 77.8447 170.256ZM92.5918 163.2L87.1038 176.256H84.7198L86.6398 171.84L83.0878 163.2H85.5998L87.8878 169.392L90.2078 163.2H92.5918ZM97.2713 163.056C97.9326 163.056 98.514 163.189 99.0153 163.456C99.5166 163.712 99.9113 164.048 100.199 164.464V163.2H102.455V172.128C102.455 172.949 102.29 173.68 101.959 174.32C101.629 174.971 101.133 175.483 100.471 175.856C99.81 176.24 99.01 176.432 98.0713 176.432C96.8126 176.432 95.778 176.139 94.9673 175.552C94.1673 174.965 93.714 174.165 93.6073 173.152H95.8313C95.9486 173.557 96.1993 173.877 96.5833 174.112C96.978 174.357 97.4526 174.48 98.0073 174.48C98.658 174.48 99.186 174.283 99.5913 173.888C99.9966 173.504 100.199 172.917 100.199 172.128V170.752C99.9113 171.168 99.5113 171.515 98.9993 171.792C98.498 172.069 97.922 172.208 97.2713 172.208C96.5246 172.208 95.842 172.016 95.2233 171.632C94.6046 171.248 94.114 170.709 93.7513 170.016C93.3993 169.312 93.2233 168.507 93.2233 167.6C93.2233 166.704 93.3993 165.909 93.7513 165.216C94.114 164.523 94.5993 163.989 95.2073 163.616C95.826 163.243 96.514 163.056 97.2713 163.056ZM100.199 167.632C100.199 167.088 100.093 166.624 99.8793 166.24C99.666 165.845 99.378 165.547 99.0153 165.344C98.6526 165.131 98.2633 165.024 97.8473 165.024C97.4313 165.024 97.0473 165.125 96.6953 165.328C96.3433 165.531 96.0553 165.829 95.8313 166.224C95.618 166.608 95.5113 167.067 95.5113 167.6C95.5113 168.133 95.618 168.603 95.8313 169.008C96.0553 169.403 96.3433 169.707 96.6953 169.92C97.058 170.133 97.442 170.24 97.8473 170.24C98.2633 170.24 98.6526 170.139 99.0153 169.936C99.378 169.723 99.666 169.424 99.8793 169.04C100.093 168.645 100.199 168.176 100.199 167.632ZM108.579 172.208C107.726 172.208 106.958 172.021 106.275 171.648C105.592 171.264 105.054 170.725 104.659 170.032C104.275 169.339 104.083 168.539 104.083 167.632C104.083 166.725 104.28 165.925 104.675 165.232C105.08 164.539 105.63 164.005 106.323 163.632C107.016 163.248 107.79 163.056 108.643 163.056C109.496 163.056 110.27 163.248 110.963 163.632C111.656 164.005 112.2 164.539 112.595 165.232C113 165.925 113.203 166.725 113.203 167.632C113.203 168.539 112.995 169.339 112.579 170.032C112.174 170.725 111.619 171.264 110.915 171.648C110.222 172.021 109.443 172.208 108.579 172.208ZM108.579 170.256C108.984 170.256 109.363 170.16 109.715 169.968C110.078 169.765 110.366 169.467 110.579 169.072C110.792 168.677 110.899 168.197 110.899 167.632C110.899 166.789 110.675 166.144 110.227 165.696C109.79 165.237 109.251 165.008 108.611 165.008C107.971 165.008 107.432 165.237 106.995 165.696C106.568 166.144 106.355 166.789 106.355 167.632C106.355 168.475 106.563 169.125 106.979 169.584C107.406 170.032 107.939 170.256 108.579 170.256ZM118.782 172.208C117.929 172.208 117.161 172.021 116.478 171.648C115.796 171.264 115.257 170.725 114.862 170.032C114.478 169.339 114.286 168.539 114.286 167.632C114.286 166.725 114.484 165.925 114.878 165.232C115.284 164.539 115.833 164.005 116.526 163.632C117.22 163.248 117.993 163.056 118.846 163.056C119.7 163.056 120.473 163.248 121.166 163.632C121.86 164.005 122.404 164.539 122.798 165.232C123.204 165.925 123.406 166.725 123.406 167.632C123.406 168.539 123.198 169.339 122.782 170.032C122.377 170.725 121.822 171.264 121.118 171.648C120.425 172.021 119.646 172.208 118.782 172.208ZM118.782 170.256C119.188 170.256 119.566 170.16 119.918 169.968C120.281 169.765 120.569 169.467 120.782 169.072C120.996 168.677 121.102 168.197 121.102 167.632C121.102 166.789 120.878 166.144 120.43 165.696C119.993 165.237 119.454 165.008 118.814 165.008C118.174 165.008 117.636 165.237 117.198 165.696C116.772 166.144 116.558 166.789 116.558 167.632C116.558 168.475 116.766 169.125 117.182 169.584C117.609 170.032 118.142 170.256 118.782 170.256ZM124.473 167.6C124.473 166.704 124.649 165.909 125.001 165.216C125.364 164.523 125.855 163.989 126.473 163.616C127.092 163.243 127.78 163.056 128.537 163.056C129.113 163.056 129.663 163.184 130.185 163.44C130.708 163.685 131.124 164.016 131.433 164.432V160.224H133.705V172.064H131.433V170.752C131.156 171.189 130.767 171.541 130.265 171.808C129.764 172.075 129.183 172.208 128.521 172.208C127.775 172.208 127.092 172.016 126.473 171.632C125.855 171.248 125.364 170.709 125.001 170.016C124.649 169.312 124.473 168.507 124.473 167.6ZM131.449 167.632C131.449 167.088 131.343 166.624 131.129 166.24C130.916 165.845 130.628 165.547 130.265 165.344C129.903 165.131 129.513 165.024 129.097 165.024C128.681 165.024 128.297 165.125 127.945 165.328C127.593 165.531 127.305 165.829 127.081 166.224C126.868 166.608 126.761 167.067 126.761 167.6C126.761 168.133 126.868 168.603 127.081 169.008C127.305 169.403 127.593 169.707 127.945 169.92C128.308 170.133 128.692 170.24 129.097 170.24C129.513 170.24 129.903 170.139 130.265 169.936C130.628 169.723 130.916 169.424 131.129 169.04C131.343 168.645 131.449 168.176 131.449 167.632ZM151.882 160.896V172.064H149.642V164.8L146.65 172.064H144.954L141.946 164.8V172.064H139.706V160.896H142.25L145.802 169.2L149.354 160.896H151.882ZM153.52 167.6C153.52 166.704 153.696 165.909 154.048 165.216C154.411 164.523 154.896 163.989 155.504 163.616C156.123 163.243 156.811 163.056 157.568 163.056C158.23 163.056 158.806 163.189 159.296 163.456C159.798 163.723 160.198 164.059 160.496 164.464V163.2H162.752V172.064H160.496V170.768C160.208 171.184 159.808 171.531 159.296 171.808C158.795 172.075 158.214 172.208 157.552 172.208C156.806 172.208 156.123 172.016 155.504 171.632C154.896 171.248 154.411 170.709 154.048 170.016C153.696 169.312 153.52 168.507 153.52 167.6ZM160.496 167.632C160.496 167.088 160.39 166.624 160.176 166.24C159.963 165.845 159.675 165.547 159.312 165.344C158.95 165.131 158.56 165.024 158.144 165.024C157.728 165.024 157.344 165.125 156.992 165.328C156.64 165.531 156.352 165.829 156.128 166.224C155.915 166.608 155.808 167.067 155.808 167.6C155.808 168.133 155.915 168.603 156.128 169.008C156.352 169.403 156.64 169.707 156.992 169.92C157.355 170.133 157.739 170.24 158.144 170.24C158.56 170.24 158.95 170.139 159.312 169.936C159.675 169.723 159.963 169.424 160.176 169.04C160.39 168.645 160.496 168.176 160.496 167.632ZM167.18 160.224V172.064H164.94V160.224H167.18ZM171.633 160.224V172.064H169.393V160.224H171.633ZM176.294 169.712L174.422 174.208H172.982L174.022 169.712H176.294ZM188.025 172.064L183.961 167.088V172.064H181.721V160.896H183.961V165.904L188.025 160.896H190.729L186.121 166.432L190.857 172.064H188.025ZM203.339 163.072C204.427 163.072 205.301 163.408 205.963 164.08C206.635 164.741 206.971 165.669 206.971 166.864V172.064H204.731V167.168C204.731 166.475 204.555 165.947 204.203 165.584C203.851 165.211 203.371 165.024 202.763 165.024C202.155 165.024 201.669 165.211 201.307 165.584C200.955 165.947 200.779 166.475 200.779 167.168V172.064H198.539V167.168C198.539 166.475 198.363 165.947 198.011 165.584C197.659 165.211 197.179 165.024 196.571 165.024C195.952 165.024 195.461 165.211 195.099 165.584C194.747 165.947 194.571 166.475 194.571 167.168V172.064H192.331V163.2H194.571V164.272C194.859 163.899 195.227 163.605 195.675 163.392C196.133 163.179 196.635 163.072 197.179 163.072C197.872 163.072 198.491 163.221 199.035 163.52C199.579 163.808 200 164.224 200.299 164.768C200.587 164.256 201.003 163.845 201.547 163.536C202.101 163.227 202.699 163.072 203.339 163.072ZM213.357 169.536C214.381 168.683 215.197 167.973 215.805 167.408C216.413 166.832 216.919 166.235 217.325 165.616C217.73 164.997 217.933 164.389 217.933 163.792C217.933 163.248 217.805 162.821 217.549 162.512C217.293 162.203 216.898 162.048 216.365 162.048C215.831 162.048 215.421 162.229 215.133 162.592C214.845 162.944 214.695 163.429 214.685 164.048H212.509C212.551 162.768 212.93 161.797 213.645 161.136C214.37 160.475 215.287 160.144 216.397 160.144C217.613 160.144 218.546 160.469 219.197 161.12C219.847 161.76 220.173 162.608 220.173 163.664C220.173 164.496 219.949 165.291 219.501 166.048C219.053 166.805 218.541 167.467 217.965 168.032C217.389 168.587 216.637 169.259 215.709 170.048H220.429V171.904H212.525V170.24L213.357 169.536ZM229.264 162.096L225.008 172.064H222.736L227.024 162.352H221.552V160.432H229.264V162.096ZM233.31 169.712L231.438 174.208H229.998L231.038 169.712H233.31ZM240.977 170.288H244.657V172.064H238.737V160.896H240.977V170.288ZM254.321 167.44C254.321 167.76 254.299 168.048 254.257 168.304H247.777C247.83 168.944 248.054 169.445 248.449 169.808C248.843 170.171 249.329 170.352 249.905 170.352C250.737 170.352 251.329 169.995 251.681 169.28H254.097C253.841 170.133 253.35 170.837 252.625 171.392C251.899 171.936 251.009 172.208 249.953 172.208C249.099 172.208 248.331 172.021 247.649 171.648C246.977 171.264 246.449 170.725 246.065 170.032C245.691 169.339 245.505 168.539 245.505 167.632C245.505 166.715 245.691 165.909 246.065 165.216C246.438 164.523 246.961 163.989 247.633 163.616C248.305 163.243 249.078 163.056 249.953 163.056C250.795 163.056 251.547 163.237 252.209 163.6C252.881 163.963 253.398 164.48 253.761 165.152C254.134 165.813 254.321 166.576 254.321 167.44ZM252.001 166.8C251.99 166.224 251.782 165.765 251.377 165.424C250.971 165.072 250.475 164.896 249.889 164.896C249.334 164.896 248.865 165.067 248.481 165.408C248.107 165.739 247.878 166.203 247.793 166.8H252.001ZM261.204 172.064L258.196 168.288V172.064H255.956V160.224H258.196V166.96L261.172 163.2H264.084L260.18 167.648L264.116 172.064H261.204ZM270.547 172.064L267.539 168.288V172.064H265.299V160.224H267.539V166.96L270.515 163.2H273.427L269.523 167.648L273.459 172.064H270.547ZM275.779 162.144C275.384 162.144 275.054 162.021 274.787 161.776C274.531 161.52 274.403 161.205 274.403 160.832C274.403 160.459 274.531 160.149 274.787 159.904C275.054 159.648 275.384 159.52 275.779 159.52C276.174 159.52 276.499 159.648 276.755 159.904C277.022 160.149 277.155 160.459 277.155 160.832C277.155 161.205 277.022 161.52 276.755 161.776C276.499 162.021 276.174 162.144 275.779 162.144ZM276.883 163.2V172.064H274.643V163.2H276.883ZM285.912 165.408V167.296H279.128V165.408H285.912ZM290.664 162.704V165.504H294.424V167.28H290.664V170.24H294.904V172.064H288.424V160.88H294.904V162.704H290.664ZM299.18 164.48C299.468 164.075 299.863 163.739 300.364 163.472C300.876 163.195 301.457 163.056 302.108 163.056C302.865 163.056 303.548 163.243 304.156 163.616C304.775 163.989 305.26 164.523 305.612 165.216C305.975 165.899 306.156 166.693 306.156 167.6C306.156 168.507 305.975 169.312 305.612 170.016C305.26 170.709 304.775 171.248 304.156 171.632C303.548 172.016 302.865 172.208 302.108 172.208C301.457 172.208 300.881 172.075 300.38 171.808C299.889 171.541 299.489 171.205 299.18 170.8V176.288H296.94V163.2H299.18V164.48ZM303.868 167.6C303.868 167.067 303.756 166.608 303.532 166.224C303.319 165.829 303.031 165.531 302.668 165.328C302.316 165.125 301.932 165.024 301.516 165.024C301.111 165.024 300.727 165.131 300.364 165.344C300.012 165.547 299.724 165.845 299.5 166.24C299.287 166.635 299.18 167.099 299.18 167.632C299.18 168.165 299.287 168.629 299.5 169.024C299.724 169.419 300.012 169.723 300.364 169.936C300.727 170.139 301.111 170.24 301.516 170.24C301.932 170.24 302.316 170.133 302.668 169.92C303.031 169.707 303.319 169.403 303.532 169.008C303.756 168.613 303.868 168.144 303.868 167.6ZM316.024 167.44C316.024 167.76 316.002 168.048 315.96 168.304H309.48C309.533 168.944 309.757 169.445 310.152 169.808C310.546 170.171 311.032 170.352 311.608 170.352C312.44 170.352 313.032 169.995 313.384 169.28H315.8C315.544 170.133 315.053 170.837 314.328 171.392C313.602 171.936 312.712 172.208 311.656 172.208C310.802 172.208 310.034 172.021 309.352 171.648C308.68 171.264 308.152 170.725 307.768 170.032C307.394 169.339 307.208 168.539 307.208 167.632C307.208 166.715 307.394 165.909 307.768 165.216C308.141 164.523 308.664 163.989 309.336 163.616C310.008 163.243 310.781 163.056 311.656 163.056C312.498 163.056 313.25 163.237 313.912 163.6C314.584 163.963 315.101 164.48 315.464 165.152C315.837 165.813 316.024 166.576 316.024 167.44ZM313.704 166.8C313.693 166.224 313.485 165.765 313.08 165.424C312.674 165.072 312.178 164.896 311.592 164.896C311.037 164.896 310.568 165.067 310.184 165.408C309.81 165.739 309.581 166.203 309.496 166.8H313.704ZM323.711 162.704V165.504H327.471V167.28H323.711V170.24H327.951V172.064H321.471V160.88H327.951V162.704H323.711ZM334.883 172.064L333.059 169.312L331.443 172.064H329.043L331.939 167.616L329.011 163.2H331.539L333.347 165.936L334.979 163.2H337.379L334.467 167.616L337.411 172.064H334.883ZM340.867 164.48C341.155 164.075 341.55 163.739 342.051 163.472C342.563 163.195 343.145 163.056 343.795 163.056C344.553 163.056 345.235 163.243 345.843 163.616C346.462 163.989 346.947 164.523 347.299 165.216C347.662 165.899 347.843 166.693 347.843 167.6C347.843 168.507 347.662 169.312 347.299 170.016C346.947 170.709 346.462 171.248 345.843 171.632C345.235 172.016 344.553 172.208 343.795 172.208C343.145 172.208 342.569 172.075 342.067 171.808C341.577 171.541 341.177 171.205 340.867 170.8V176.288H338.627V163.2H340.867V164.48ZM345.555 167.6C345.555 167.067 345.443 166.608 345.219 166.224C345.006 165.829 344.718 165.531 344.355 165.328C344.003 165.125 343.619 165.024 343.203 165.024C342.798 165.024 342.414 165.131 342.051 165.344C341.699 165.547 341.411 165.845 341.187 166.24C340.974 166.635 340.867 167.099 340.867 167.632C340.867 168.165 340.974 168.629 341.187 169.024C341.411 169.419 341.699 169.723 342.051 169.936C342.414 170.139 342.798 170.24 343.203 170.24C343.619 170.24 344.003 170.133 344.355 169.92C344.718 169.707 345.006 169.403 345.219 169.008C345.443 168.613 345.555 168.144 345.555 167.6ZM351.711 164.576C351.999 164.107 352.373 163.739 352.831 163.472C353.301 163.205 353.834 163.072 354.431 163.072V165.424H353.839C353.135 165.424 352.602 165.589 352.239 165.92C351.887 166.251 351.711 166.827 351.711 167.648V172.064H349.471V163.2H351.711V164.576ZM364.18 167.44C364.18 167.76 364.159 168.048 364.116 168.304H357.636C357.689 168.944 357.913 169.445 358.308 169.808C358.703 170.171 359.188 170.352 359.764 170.352C360.596 170.352 361.188 169.995 361.54 169.28H363.956C363.7 170.133 363.209 170.837 362.484 171.392C361.759 171.936 360.868 172.208 359.812 172.208C358.959 172.208 358.191 172.021 357.508 171.648C356.836 171.264 356.308 170.725 355.924 170.032C355.551 169.339 355.364 168.539 355.364 167.632C355.364 166.715 355.551 165.909 355.924 165.216C356.297 164.523 356.82 163.989 357.492 163.616C358.164 163.243 358.937 163.056 359.812 163.056C360.655 163.056 361.407 163.237 362.068 163.6C362.74 163.963 363.257 164.48 363.62 165.152C363.993 165.813 364.18 166.576 364.18 167.44ZM361.86 166.8C361.849 166.224 361.641 165.765 361.236 165.424C360.831 165.072 360.335 164.896 359.748 164.896C359.193 164.896 358.724 165.067 358.34 165.408C357.967 165.739 357.737 166.203 357.652 166.8H361.86ZM369.207 172.208C368.482 172.208 367.831 172.08 367.255 171.824C366.679 171.557 366.22 171.2 365.879 170.752C365.548 170.304 365.367 169.808 365.335 169.264H367.591C367.634 169.605 367.799 169.888 368.087 170.112C368.386 170.336 368.754 170.448 369.191 170.448C369.618 170.448 369.948 170.363 370.183 170.192C370.428 170.021 370.551 169.803 370.551 169.536C370.551 169.248 370.402 169.035 370.103 168.896C369.815 168.747 369.351 168.587 368.711 168.416C368.05 168.256 367.506 168.091 367.079 167.92C366.663 167.749 366.3 167.488 365.991 167.136C365.692 166.784 365.543 166.309 365.543 165.712C365.543 165.221 365.682 164.773 365.959 164.368C366.247 163.963 366.652 163.643 367.175 163.408C367.708 163.173 368.332 163.056 369.047 163.056C370.103 163.056 370.946 163.323 371.575 163.856C372.204 164.379 372.551 165.088 372.615 165.984H370.471C370.439 165.632 370.29 165.355 370.023 165.152C369.767 164.939 369.42 164.832 368.983 164.832C368.578 164.832 368.263 164.907 368.039 165.056C367.826 165.205 367.719 165.413 367.719 165.68C367.719 165.979 367.868 166.208 368.167 166.368C368.466 166.517 368.93 166.672 369.559 166.832C370.199 166.992 370.727 167.157 371.143 167.328C371.559 167.499 371.916 167.765 372.215 168.128C372.524 168.48 372.684 168.949 372.695 169.536C372.695 170.048 372.551 170.507 372.263 170.912C371.986 171.317 371.58 171.637 371.047 171.872C370.524 172.096 369.911 172.208 369.207 172.208ZM377.926 172.208C377.2 172.208 376.55 172.08 375.974 171.824C375.398 171.557 374.939 171.2 374.598 170.752C374.267 170.304 374.086 169.808 374.054 169.264H376.31C376.352 169.605 376.518 169.888 376.806 170.112C377.104 170.336 377.472 170.448 377.91 170.448C378.336 170.448 378.667 170.363 378.902 170.192C379.147 170.021 379.27 169.803 379.27 169.536C379.27 169.248 379.12 169.035 378.822 168.896C378.534 168.747 378.07 168.587 377.43 168.416C376.768 168.256 376.224 168.091 375.798 167.92C375.382 167.749 375.019 167.488 374.71 167.136C374.411 166.784 374.262 166.309 374.262 165.712C374.262 165.221 374.4 164.773 374.678 164.368C374.966 163.963 375.371 163.643 375.894 163.408C376.427 163.173 377.051 163.056 377.766 163.056C378.822 163.056 379.664 163.323 380.294 163.856C380.923 164.379 381.27 165.088 381.334 165.984H379.19C379.158 165.632 379.008 165.355 378.742 165.152C378.486 164.939 378.139 164.832 377.702 164.832C377.296 164.832 376.982 164.907 376.758 165.056C376.544 165.205 376.438 165.413 376.438 165.68C376.438 165.979 376.587 166.208 376.886 166.368C377.184 166.517 377.648 166.672 378.278 166.832C378.918 166.992 379.446 167.157 379.862 167.328C380.278 167.499 380.635 167.765 380.934 168.128C381.243 168.48 381.403 168.949 381.414 169.536C381.414 170.048 381.27 170.507 380.982 170.912C380.704 171.317 380.299 171.637 379.766 171.872C379.243 172.096 378.63 172.208 377.926 172.208ZM401.993 160.896L398.873 172.064H396.233L394.137 164.112L391.945 172.064L389.321 172.08L386.313 160.896H388.713L390.681 169.568L392.953 160.896H395.449L397.593 169.52L399.577 160.896H401.993ZM402.88 167.6C402.88 166.704 403.056 165.909 403.408 165.216C403.77 164.523 404.256 163.989 404.864 163.616C405.482 163.243 406.17 163.056 406.928 163.056C407.589 163.056 408.165 163.189 408.656 163.456C409.157 163.723 409.557 164.059 409.856 164.464V163.2H412.112V172.064H409.856V170.768C409.568 171.184 409.168 171.531 408.656 171.808C408.154 172.075 407.573 172.208 406.912 172.208C406.165 172.208 405.482 172.016 404.864 171.632C404.256 171.248 403.77 170.709 403.408 170.016C403.056 169.312 402.88 168.507 402.88 167.6ZM409.856 167.632C409.856 167.088 409.749 166.624 409.536 166.24C409.322 165.845 409.034 165.547 408.672 165.344C408.309 165.131 407.92 165.024 407.504 165.024C407.088 165.024 406.704 165.125 406.352 165.328C406 165.531 405.712 165.829 405.488 166.224C405.274 166.608 405.168 167.067 405.168 167.6C405.168 168.133 405.274 168.603 405.488 169.008C405.712 169.403 406 169.707 406.352 169.92C406.714 170.133 407.098 170.24 407.504 170.24C407.92 170.24 408.309 170.139 408.672 169.936C409.034 169.723 409.322 169.424 409.536 169.04C409.749 168.645 409.856 168.176 409.856 167.632ZM422.779 163.2L417.291 176.256H414.907L416.827 171.84L413.275 163.2H415.787L418.075 169.392L420.395 163.2H422.779ZM68.1005 196.176C67.0552 196.176 66.0952 195.931 65.2205 195.44C64.3458 194.949 63.6525 194.272 63.1405 193.408C62.6285 192.533 62.3725 191.547 62.3725 190.448C62.3725 189.36 62.6285 188.384 63.1405 187.52C63.6525 186.645 64.3458 185.963 65.2205 185.472C66.0952 184.981 67.0552 184.736 68.1005 184.736C69.1565 184.736 70.1165 184.981 70.9805 185.472C71.8552 185.963 72.5432 186.645 73.0445 187.52C73.5565 188.384 73.8125 189.36 73.8125 190.448C73.8125 191.547 73.5565 192.533 73.0445 193.408C72.5432 194.272 71.8552 194.949 70.9805 195.44C70.1058 195.931 69.1458 196.176 68.1005 196.176ZM68.1005 194.176C68.7725 194.176 69.3645 194.027 69.8765 193.728C70.3885 193.419 70.7885 192.981 71.0765 192.416C71.3645 191.851 71.5085 191.195 71.5085 190.448C71.5085 189.701 71.3645 189.051 71.0765 188.496C70.7885 187.931 70.3885 187.499 69.8765 187.2C69.3645 186.901 68.7725 186.752 68.1005 186.752C67.4285 186.752 66.8312 186.901 66.3085 187.2C65.7965 187.499 65.3965 187.931 65.1085 188.496C64.8205 189.051 64.6765 189.701 64.6765 190.448C64.6765 191.195 64.8205 191.851 65.1085 192.416C65.3965 192.981 65.7965 193.419 66.3085 193.728C66.8312 194.027 67.4285 194.176 68.1005 194.176ZM77.719 188.48C78.007 188.075 78.4017 187.739 78.903 187.472C79.415 187.195 79.9963 187.056 80.647 187.056C81.4043 187.056 82.087 187.243 82.695 187.616C83.3137 187.989 83.799 188.523 84.151 189.216C84.5137 189.899 84.695 190.693 84.695 191.6C84.695 192.507 84.5137 193.312 84.151 194.016C83.799 194.709 83.3137 195.248 82.695 195.632C82.087 196.016 81.4043 196.208 80.647 196.208C79.9963 196.208 79.4203 196.075 78.919 195.808C78.4283 195.541 78.0283 195.205 77.719 194.8V200.288H75.479V187.2H77.719V188.48ZM82.407 191.6C82.407 191.067 82.295 190.608 82.071 190.224C81.8577 189.829 81.5697 189.531 81.207 189.328C80.855 189.125 80.471 189.024 80.055 189.024C79.6497 189.024 79.2657 189.131 78.903 189.344C78.551 189.547 78.263 189.845 78.039 190.24C77.8257 190.635 77.719 191.099 77.719 191.632C77.719 192.165 77.8257 192.629 78.039 193.024C78.263 193.419 78.551 193.723 78.903 193.936C79.2657 194.139 79.6497 194.24 80.055 194.24C80.471 194.24 80.855 194.133 81.207 193.92C81.5697 193.707 81.8577 193.403 82.071 193.008C82.295 192.613 82.407 192.144 82.407 191.6ZM88.5628 188.48C88.8508 188.075 89.2454 187.739 89.7468 187.472C90.2588 187.195 90.8401 187.056 91.4908 187.056C92.2481 187.056 92.9308 187.243 93.5388 187.616C94.1574 187.989 94.6428 188.523 94.9948 189.216C95.3574 189.899 95.5388 190.693 95.5388 191.6C95.5388 192.507 95.3574 193.312 94.9948 194.016C94.6428 194.709 94.1574 195.248 93.5388 195.632C92.9308 196.016 92.2481 196.208 91.4908 196.208C90.8401 196.208 90.2641 196.075 89.7628 195.808C89.2721 195.541 88.8721 195.205 88.5628 194.8V200.288H86.3228V187.2H88.5628V188.48ZM93.2508 191.6C93.2508 191.067 93.1388 190.608 92.9148 190.224C92.7014 189.829 92.4134 189.531 92.0508 189.328C91.6988 189.125 91.3148 189.024 90.8988 189.024C90.4934 189.024 90.1094 189.131 89.7468 189.344C89.3948 189.547 89.1068 189.845 88.8828 190.24C88.6694 190.635 88.5628 191.099 88.5628 191.632C88.5628 192.165 88.6694 192.629 88.8828 193.024C89.1068 193.419 89.3948 193.723 89.7468 193.936C90.1094 194.139 90.4934 194.24 90.8988 194.24C91.3148 194.24 91.6988 194.133 92.0508 193.92C92.4134 193.707 92.7014 193.403 92.9148 193.008C93.1388 192.613 93.2508 192.144 93.2508 191.6ZM101.103 196.208C100.249 196.208 99.4812 196.021 98.7985 195.648C98.1158 195.264 97.5772 194.725 97.1825 194.032C96.7985 193.339 96.6065 192.539 96.6065 191.632C96.6065 190.725 96.8038 189.925 97.1985 189.232C97.6038 188.539 98.1532 188.005 98.8465 187.632C99.5398 187.248 100.313 187.056 101.167 187.056C102.02 187.056 102.793 187.248 103.487 187.632C104.18 188.005 104.724 188.539 105.119 189.232C105.524 189.925 105.727 190.725 105.727 191.632C105.727 192.539 105.519 193.339 105.102 194.032C104.697 194.725 104.143 195.264 103.439 195.648C102.745 196.021 101.967 196.208 101.103 196.208ZM101.103 194.256C101.508 194.256 101.887 194.16 102.239 193.968C102.601 193.765 102.889 193.467 103.103 193.072C103.316 192.677 103.423 192.197 103.423 191.632C103.423 190.789 103.199 190.144 102.751 189.696C102.313 189.237 101.775 189.008 101.135 189.008C100.495 189.008 99.9558 189.237 99.5185 189.696C99.0918 190.144 98.8785 190.789 98.8785 191.632C98.8785 192.475 99.0865 193.125 99.5025 193.584C99.9292 194.032 100.463 194.256 101.103 194.256ZM110.762 196.208C110.036 196.208 109.386 196.08 108.81 195.824C108.234 195.557 107.775 195.2 107.434 194.752C107.103 194.304 106.922 193.808 106.89 193.264H109.146C109.188 193.605 109.354 193.888 109.642 194.112C109.94 194.336 110.308 194.448 110.746 194.448C111.172 194.448 111.503 194.363 111.738 194.192C111.983 194.021 112.106 193.803 112.106 193.536C112.106 193.248 111.956 193.035 111.658 192.896C111.37 192.747 110.906 192.587 110.266 192.416C109.604 192.256 109.06 192.091 108.634 191.92C108.218 191.749 107.855 191.488 107.546 191.136C107.247 190.784 107.098 190.309 107.098 189.712C107.098 189.221 107.236 188.773 107.514 188.368C107.802 187.963 108.207 187.643 108.73 187.408C109.263 187.173 109.887 187.056 110.602 187.056C111.658 187.056 112.5 187.323 113.13 187.856C113.759 188.379 114.106 189.088 114.17 189.984H112.026C111.994 189.632 111.844 189.355 111.578 189.152C111.322 188.939 110.975 188.832 110.538 188.832C110.132 188.832 109.818 188.907 109.594 189.056C109.38 189.205 109.274 189.413 109.274 189.68C109.274 189.979 109.423 190.208 109.722 190.368C110.02 190.517 110.484 190.672 111.114 190.832C111.754 190.992 112.282 191.157 112.698 191.328C113.114 191.499 113.471 191.765 113.77 192.128C114.079 192.48 114.239 192.949 114.25 193.536C114.25 194.048 114.106 194.507 113.818 194.912C113.54 195.317 113.135 195.637 112.602 195.872C112.079 196.096 111.466 196.208 110.762 196.208ZM117.224 186.144C116.83 186.144 116.499 186.021 116.232 185.776C115.976 185.52 115.848 185.205 115.848 184.832C115.848 184.459 115.976 184.149 116.232 183.904C116.499 183.648 116.83 183.52 117.224 183.52C117.619 183.52 117.944 183.648 118.2 183.904C118.467 184.149 118.6 184.459 118.6 184.832C118.6 185.205 118.467 185.52 118.2 185.776C117.944 186.021 117.619 186.144 117.224 186.144ZM118.328 187.2V196.064H116.088V187.2H118.328ZM123.15 189.04V193.328C123.15 193.627 123.219 193.845 123.358 193.984C123.507 194.112 123.752 194.176 124.094 194.176H125.134V196.064H123.726C121.838 196.064 120.894 195.147 120.894 193.312V189.04H119.838V187.2H120.894V185.008H123.15V187.2H125.134V189.04H123.15ZM134.985 191.44C134.985 191.76 134.963 192.048 134.921 192.304H128.441C128.494 192.944 128.718 193.445 129.113 193.808C129.507 194.171 129.993 194.352 130.569 194.352C131.401 194.352 131.993 193.995 132.345 193.28H134.761C134.505 194.133 134.014 194.837 133.289 195.392C132.563 195.936 131.673 196.208 130.617 196.208C129.763 196.208 128.995 196.021 128.313 195.648C127.641 195.264 127.113 194.725 126.729 194.032C126.355 193.339 126.169 192.539 126.169 191.632C126.169 190.715 126.355 189.909 126.729 189.216C127.102 188.523 127.625 187.989 128.297 187.616C128.969 187.243 129.742 187.056 130.617 187.056C131.459 187.056 132.211 187.237 132.873 187.6C133.545 187.963 134.062 188.48 134.425 189.152C134.798 189.813 134.985 190.576 134.985 191.44ZM132.665 190.8C132.654 190.224 132.446 189.765 132.041 189.424C131.635 189.072 131.139 188.896 130.553 188.896C129.998 188.896 129.529 189.067 129.145 189.408C128.771 189.739 128.542 190.203 128.457 190.8H132.665ZM144.496 189.04H142.944V196.064H140.672V189.04H139.664V187.2H140.672V186.752C140.672 185.664 140.981 184.864 141.6 184.352C142.219 183.84 143.152 183.6 144.4 183.632V185.52C143.856 185.509 143.477 185.6 143.264 185.792C143.051 185.984 142.944 186.331 142.944 186.832V187.2H144.496V189.04ZM145.372 191.6C145.372 190.704 145.548 189.909 145.9 189.216C146.262 188.523 146.748 187.989 147.356 187.616C147.974 187.243 148.662 187.056 149.42 187.056C150.081 187.056 150.657 187.189 151.148 187.456C151.649 187.723 152.049 188.059 152.348 188.464V187.2H154.604V196.064H152.348V194.768C152.06 195.184 151.66 195.531 151.148 195.808C150.646 196.075 150.065 196.208 149.404 196.208C148.657 196.208 147.974 196.016 147.356 195.632C146.748 195.248 146.262 194.709 145.9 194.016C145.548 193.312 145.372 192.507 145.372 191.6ZM152.348 191.632C152.348 191.088 152.241 190.624 152.028 190.24C151.814 189.845 151.526 189.547 151.164 189.344C150.801 189.131 150.412 189.024 149.996 189.024C149.58 189.024 149.196 189.125 148.844 189.328C148.492 189.531 148.204 189.829 147.98 190.224C147.766 190.608 147.66 191.067 147.66 191.6C147.66 192.133 147.766 192.603 147.98 193.008C148.204 193.403 148.492 193.707 148.844 193.92C149.206 194.133 149.59 194.24 149.996 194.24C150.412 194.24 150.801 194.139 151.164 193.936C151.526 193.723 151.814 193.424 152.028 193.04C152.241 192.645 152.348 192.176 152.348 191.632ZM159.032 188.576C159.32 188.107 159.693 187.739 160.152 187.472C160.621 187.205 161.154 187.072 161.752 187.072V189.424H161.16C160.456 189.424 159.922 189.589 159.56 189.92C159.208 190.251 159.032 190.827 159.032 191.648V196.064H156.792V187.2H159.032V188.576ZM162.684 191.6C162.684 190.704 162.86 189.909 163.212 189.216C163.575 188.523 164.06 187.989 164.668 187.616C165.287 187.243 165.975 187.056 166.732 187.056C167.394 187.056 167.97 187.189 168.46 187.456C168.962 187.723 169.362 188.059 169.66 188.464V187.2H171.916V196.064H169.66V194.768C169.372 195.184 168.972 195.531 168.46 195.808C167.959 196.075 167.378 196.208 166.716 196.208C165.97 196.208 165.287 196.016 164.668 195.632C164.06 195.248 163.575 194.709 163.212 194.016C162.86 193.312 162.684 192.507 162.684 191.6ZM169.66 191.632C169.66 191.088 169.554 190.624 169.34 190.24C169.127 189.845 168.839 189.547 168.476 189.344C168.114 189.131 167.724 189.024 167.308 189.024C166.892 189.024 166.508 189.125 166.156 189.328C165.804 189.531 165.516 189.829 165.292 190.224C165.079 190.608 164.972 191.067 164.972 191.6C164.972 192.133 165.079 192.603 165.292 193.008C165.516 193.403 165.804 193.707 166.156 193.92C166.519 194.133 166.903 194.24 167.308 194.24C167.724 194.24 168.114 194.139 168.476 193.936C168.839 193.723 169.127 193.424 169.34 193.04C169.554 192.645 169.66 192.176 169.66 191.632ZM186.061 188.352C186.061 188.949 185.917 189.509 185.628 190.032C185.351 190.555 184.909 190.976 184.301 191.296C183.703 191.616 182.946 191.776 182.029 191.776H180.157V196.064H177.917V184.896H182.029C182.893 184.896 183.629 185.045 184.237 185.344C184.845 185.643 185.298 186.053 185.597 186.576C185.906 187.099 186.061 187.691 186.061 188.352ZM181.933 189.968C182.551 189.968 183.01 189.829 183.309 189.552C183.607 189.264 183.757 188.864 183.757 188.352C183.757 187.264 183.149 186.72 181.933 186.72H180.157V189.968H181.933ZM187.075 191.6C187.075 190.704 187.251 189.909 187.603 189.216C187.966 188.523 188.451 187.989 189.059 187.616C189.678 187.243 190.366 187.056 191.123 187.056C191.784 187.056 192.36 187.189 192.851 187.456C193.352 187.723 193.752 188.059 194.051 188.464V187.2H196.307V196.064H194.051V194.768C193.763 195.184 193.363 195.531 192.851 195.808C192.35 196.075 191.768 196.208 191.107 196.208C190.36 196.208 189.678 196.016 189.059 195.632C188.451 195.248 187.966 194.709 187.603 194.016C187.251 193.312 187.075 192.507 187.075 191.6ZM194.051 191.632C194.051 191.088 193.944 190.624 193.731 190.24C193.518 189.845 193.23 189.547 192.867 189.344C192.504 189.131 192.115 189.024 191.699 189.024C191.283 189.024 190.899 189.125 190.547 189.328C190.195 189.531 189.907 189.829 189.683 190.224C189.47 190.608 189.363 191.067 189.363 191.6C189.363 192.133 189.47 192.603 189.683 193.008C189.907 193.403 190.195 193.707 190.547 193.92C190.91 194.133 191.294 194.24 191.699 194.24C192.115 194.24 192.504 194.139 192.867 193.936C193.23 193.723 193.518 193.424 193.731 193.04C193.944 192.645 194.051 192.176 194.051 191.632ZM200.735 188.576C201.023 188.107 201.396 187.739 201.855 187.472C202.324 187.205 202.857 187.072 203.455 187.072V189.424H202.863C202.159 189.424 201.625 189.589 201.263 189.92C200.911 190.251 200.735 190.827 200.735 191.648V196.064H198.495V187.2H200.735V188.576ZM210.211 196.064L207.203 192.288V196.064H204.963V184.224H207.203V190.96L210.179 187.2H213.091L209.187 191.648L213.123 196.064H210.211ZM216.755 193.712L214.883 198.208H213.443L214.483 193.712H216.755ZM226.038 196.176C225.259 196.176 224.555 196.043 223.926 195.776C223.307 195.509 222.817 195.125 222.454 194.624C222.091 194.123 221.905 193.531 221.894 192.848H224.294C224.326 193.307 224.486 193.669 224.774 193.936C225.073 194.203 225.478 194.336 225.99 194.336C226.513 194.336 226.923 194.213 227.222 193.968C227.521 193.712 227.67 193.381 227.67 192.976C227.67 192.645 227.569 192.373 227.366 192.16C227.163 191.947 226.907 191.781 226.598 191.664C226.299 191.536 225.883 191.397 225.35 191.248C224.625 191.035 224.033 190.827 223.574 190.624C223.126 190.411 222.737 190.096 222.406 189.68C222.086 189.253 221.926 188.688 221.926 187.984C221.926 187.323 222.091 186.747 222.422 186.256C222.753 185.765 223.217 185.392 223.814 185.136C224.411 184.869 225.094 184.736 225.862 184.736C227.014 184.736 227.947 185.019 228.662 185.584C229.387 186.139 229.787 186.917 229.862 187.92H227.398C227.377 187.536 227.211 187.221 226.902 186.976C226.603 186.72 226.203 186.592 225.702 186.592C225.265 186.592 224.913 186.704 224.646 186.928C224.39 187.152 224.262 187.477 224.262 187.904C224.262 188.203 224.358 188.453 224.55 188.656C224.753 188.848 224.998 189.008 225.286 189.136C225.585 189.253 226.001 189.392 226.534 189.552C227.259 189.765 227.851 189.979 228.31 190.192C228.769 190.405 229.163 190.725 229.494 191.152C229.825 191.579 229.99 192.139 229.99 192.832C229.99 193.429 229.835 193.984 229.526 194.496C229.217 195.008 228.763 195.419 228.166 195.728C227.569 196.027 226.859 196.176 226.038 196.176ZM231.356 191.6C231.356 190.704 231.532 189.909 231.884 189.216C232.247 188.523 232.732 187.989 233.34 187.616C233.959 187.243 234.647 187.056 235.404 187.056C236.065 187.056 236.641 187.189 237.132 187.456C237.633 187.723 238.033 188.059 238.332 188.464V187.2H240.588V196.064H238.332V194.768C238.044 195.184 237.644 195.531 237.132 195.808C236.631 196.075 236.049 196.208 235.388 196.208C234.641 196.208 233.959 196.016 233.34 195.632C232.732 195.248 232.247 194.709 231.884 194.016C231.532 193.312 231.356 192.507 231.356 191.6ZM238.332 191.632C238.332 191.088 238.225 190.624 238.012 190.24C237.799 189.845 237.511 189.547 237.148 189.344C236.785 189.131 236.396 189.024 235.98 189.024C235.564 189.024 235.18 189.125 234.828 189.328C234.476 189.531 234.188 189.829 233.964 190.224C233.751 190.608 233.644 191.067 233.644 191.6C233.644 192.133 233.751 192.603 233.964 193.008C234.188 193.403 234.476 193.707 234.828 193.92C235.191 194.133 235.575 194.24 235.98 194.24C236.396 194.24 236.785 194.139 237.148 193.936C237.511 193.723 237.799 193.424 238.012 193.04C238.225 192.645 238.332 192.176 238.332 191.632ZM247.688 187.072C248.744 187.072 249.597 187.408 250.248 188.08C250.899 188.741 251.224 189.669 251.224 190.864V196.064H248.984V191.168C248.984 190.464 248.808 189.925 248.456 189.552C248.104 189.168 247.624 188.976 247.016 188.976C246.397 188.976 245.907 189.168 245.544 189.552C245.192 189.925 245.016 190.464 245.016 191.168V196.064H242.776V187.2H245.016V188.304C245.315 187.92 245.693 187.621 246.152 187.408C246.621 187.184 247.133 187.072 247.688 187.072ZM256.826 187.056C257.487 187.056 258.069 187.189 258.57 187.456C259.071 187.712 259.466 188.048 259.754 188.464V187.2H262.01V196.128C262.01 196.949 261.845 197.68 261.514 198.32C261.183 198.971 260.687 199.483 260.026 199.856C259.365 200.24 258.565 200.432 257.626 200.432C256.367 200.432 255.333 200.139 254.522 199.552C253.722 198.965 253.269 198.165 253.162 197.152H255.386C255.503 197.557 255.754 197.877 256.138 198.112C256.533 198.357 257.007 198.48 257.562 198.48C258.213 198.48 258.741 198.283 259.146 197.888C259.551 197.504 259.754 196.917 259.754 196.128V194.752C259.466 195.168 259.066 195.515 258.554 195.792C258.053 196.069 257.477 196.208 256.826 196.208C256.079 196.208 255.397 196.016 254.778 195.632C254.159 195.248 253.669 194.709 253.306 194.016C252.954 193.312 252.778 192.507 252.778 191.6C252.778 190.704 252.954 189.909 253.306 189.216C253.669 188.523 254.154 187.989 254.762 187.616C255.381 187.243 256.069 187.056 256.826 187.056ZM259.754 191.632C259.754 191.088 259.647 190.624 259.434 190.24C259.221 189.845 258.933 189.547 258.57 189.344C258.207 189.131 257.818 189.024 257.402 189.024C256.986 189.024 256.602 189.125 256.25 189.328C255.898 189.531 255.61 189.829 255.386 190.224C255.173 190.608 255.066 191.067 255.066 191.6C255.066 192.133 255.173 192.603 255.386 193.008C255.61 193.403 255.898 193.707 256.25 193.92C256.613 194.133 256.997 194.24 257.402 194.24C257.818 194.24 258.207 194.139 258.57 193.936C258.933 193.723 259.221 193.424 259.434 193.04C259.647 192.645 259.754 192.176 259.754 191.632ZM268.134 196.208C267.28 196.208 266.512 196.021 265.83 195.648C265.147 195.264 264.608 194.725 264.214 194.032C263.83 193.339 263.638 192.539 263.638 191.632C263.638 190.725 263.835 189.925 264.23 189.232C264.635 188.539 265.184 188.005 265.878 187.632C266.571 187.248 267.344 187.056 268.198 187.056C269.051 187.056 269.824 187.248 270.518 187.632C271.211 188.005 271.755 188.539 272.15 189.232C272.555 189.925 272.758 190.725 272.758 191.632C272.758 192.539 272.55 193.339 272.134 194.032C271.728 194.725 271.174 195.264 270.47 195.648C269.776 196.021 268.998 196.208 268.134 196.208ZM268.134 194.256C268.539 194.256 268.918 194.16 269.27 193.968C269.632 193.765 269.92 193.467 270.134 193.072C270.347 192.677 270.454 192.197 270.454 191.632C270.454 190.789 270.23 190.144 269.782 189.696C269.344 189.237 268.806 189.008 268.166 189.008C267.526 189.008 266.987 189.237 266.55 189.696C266.123 190.144 265.91 190.789 265.91 191.632C265.91 192.475 266.118 193.125 266.534 193.584C266.96 194.032 267.494 194.256 268.134 194.256ZM277.009 189.04V193.328C277.009 193.627 277.078 193.845 277.217 193.984C277.366 194.112 277.612 194.176 277.953 194.176H278.993V196.064H277.585C275.697 196.064 274.753 195.147 274.753 193.312V189.04H273.697V187.2H274.753V185.008H277.009V187.2H278.993V189.04H277.009ZM288.844 191.44C288.844 191.76 288.823 192.048 288.78 192.304H282.3C282.353 192.944 282.577 193.445 282.972 193.808C283.367 194.171 283.852 194.352 284.428 194.352C285.26 194.352 285.852 193.995 286.204 193.28H288.62C288.364 194.133 287.873 194.837 287.148 195.392C286.423 195.936 285.532 196.208 284.476 196.208C283.623 196.208 282.855 196.021 282.172 195.648C281.5 195.264 280.972 194.725 280.588 194.032C280.215 193.339 280.028 192.539 280.028 191.632C280.028 190.715 280.215 189.909 280.588 189.216C280.961 188.523 281.484 187.989 282.156 187.616C282.828 187.243 283.601 187.056 284.476 187.056C285.319 187.056 286.071 187.237 286.732 187.6C287.404 187.963 287.921 188.48 288.284 189.152C288.657 189.813 288.844 190.576 288.844 191.44ZM286.524 190.8C286.513 190.224 286.305 189.765 285.9 189.424C285.495 189.072 284.999 188.896 284.412 188.896C283.857 188.896 283.388 189.067 283.004 189.408C282.631 189.739 282.401 190.203 282.316 190.8H286.524ZM289.903 191.6C289.903 190.704 290.079 189.909 290.431 189.216C290.794 188.523 291.284 187.989 291.903 187.616C292.522 187.243 293.21 187.056 293.967 187.056C294.543 187.056 295.092 187.184 295.615 187.44C296.138 187.685 296.554 188.016 296.863 188.432V184.224H299.135V196.064H296.863V194.752C296.586 195.189 296.196 195.541 295.695 195.808C295.194 196.075 294.612 196.208 293.951 196.208C293.204 196.208 292.522 196.016 291.903 195.632C291.284 195.248 290.794 194.709 290.431 194.016C290.079 193.312 289.903 192.507 289.903 191.6ZM296.879 191.632C296.879 191.088 296.772 190.624 296.559 190.24C296.346 189.845 296.058 189.547 295.695 189.344C295.332 189.131 294.943 189.024 294.527 189.024C294.111 189.024 293.727 189.125 293.375 189.328C293.023 189.531 292.735 189.829 292.511 190.224C292.298 190.608 292.191 191.067 292.191 191.6C292.191 192.133 292.298 192.603 292.511 193.008C292.735 193.403 293.023 193.707 293.375 193.92C293.738 194.133 294.122 194.24 294.527 194.24C294.943 194.24 295.332 194.139 295.695 193.936C296.058 193.723 296.346 193.424 296.559 193.04C296.772 192.645 296.879 192.176 296.879 191.632ZM305.259 196.208C304.405 196.208 303.637 196.021 302.955 195.648C302.272 195.264 301.733 194.725 301.339 194.032C300.955 193.339 300.763 192.539 300.763 191.632C300.763 190.725 300.96 189.925 301.355 189.232C301.76 188.539 302.309 188.005 303.003 187.632C303.696 187.248 304.469 187.056 305.323 187.056C306.176 187.056 306.949 187.248 307.643 187.632C308.336 188.005 308.88 188.539 309.275 189.232C309.68 189.925 309.883 190.725 309.883 191.632C309.883 192.539 309.675 193.339 309.259 194.032C308.853 194.725 308.299 195.264 307.595 195.648C306.901 196.021 306.123 196.208 305.259 196.208ZM305.259 194.256C305.664 194.256 306.043 194.16 306.395 193.968C306.757 193.765 307.045 193.467 307.259 193.072C307.472 192.677 307.579 192.197 307.579 191.632C307.579 190.789 307.355 190.144 306.907 189.696C306.469 189.237 305.931 189.008 305.291 189.008C304.651 189.008 304.112 189.237 303.675 189.696C303.248 190.144 303.035 190.789 303.035 191.632C303.035 192.475 303.243 193.125 303.659 193.584C304.085 194.032 304.619 194.256 305.259 194.256ZM317.578 194.288H321.258V196.064H315.338V184.896H317.578V194.288ZM322.106 191.6C322.106 190.704 322.282 189.909 322.634 189.216C322.997 188.523 323.482 187.989 324.09 187.616C324.709 187.243 325.397 187.056 326.154 187.056C326.815 187.056 327.391 187.189 327.882 187.456C328.383 187.723 328.783 188.059 329.082 188.464V187.2H331.338V196.064H329.082V194.768C328.794 195.184 328.394 195.531 327.882 195.808C327.381 196.075 326.799 196.208 326.138 196.208C325.391 196.208 324.709 196.016 324.09 195.632C323.482 195.248 322.997 194.709 322.634 194.016C322.282 193.312 322.106 192.507 322.106 191.6ZM329.082 191.632C329.082 191.088 328.975 190.624 328.762 190.24C328.549 189.845 328.261 189.547 327.898 189.344C327.535 189.131 327.146 189.024 326.73 189.024C326.314 189.024 325.93 189.125 325.578 189.328C325.226 189.531 324.938 189.829 324.714 190.224C324.501 190.608 324.394 191.067 324.394 191.6C324.394 192.133 324.501 192.603 324.714 193.008C324.938 193.403 325.226 193.707 325.578 193.92C325.941 194.133 326.325 194.24 326.73 194.24C327.146 194.24 327.535 194.139 327.898 193.936C328.261 193.723 328.549 193.424 328.762 193.04C328.975 192.645 329.082 192.176 329.082 191.632ZM336.998 187.056C337.659 187.056 338.241 187.189 338.742 187.456C339.243 187.712 339.638 188.048 339.926 188.464V187.2H342.182V196.128C342.182 196.949 342.017 197.68 341.686 198.32C341.355 198.971 340.859 199.483 340.198 199.856C339.537 200.24 338.737 200.432 337.798 200.432C336.539 200.432 335.505 200.139 334.694 199.552C333.894 198.965 333.441 198.165 333.334 197.152H335.558C335.675 197.557 335.926 197.877 336.31 198.112C336.705 198.357 337.179 198.48 337.734 198.48C338.385 198.48 338.913 198.283 339.318 197.888C339.723 197.504 339.926 196.917 339.926 196.128V194.752C339.638 195.168 339.238 195.515 338.726 195.792C338.225 196.069 337.649 196.208 336.998 196.208C336.251 196.208 335.569 196.016 334.95 195.632C334.331 195.248 333.841 194.709 333.478 194.016C333.126 193.312 332.95 192.507 332.95 191.6C332.95 190.704 333.126 189.909 333.478 189.216C333.841 188.523 334.326 187.989 334.934 187.616C335.553 187.243 336.241 187.056 336.998 187.056ZM339.926 191.632C339.926 191.088 339.819 190.624 339.606 190.24C339.393 189.845 339.105 189.547 338.742 189.344C338.379 189.131 337.99 189.024 337.574 189.024C337.158 189.024 336.774 189.125 336.422 189.328C336.07 189.531 335.782 189.829 335.558 190.224C335.345 190.608 335.238 191.067 335.238 191.6C335.238 192.133 335.345 192.603 335.558 193.008C335.782 193.403 336.07 193.707 336.422 193.92C336.785 194.133 337.169 194.24 337.574 194.24C337.99 194.24 338.379 194.139 338.742 193.936C339.105 193.723 339.393 193.424 339.606 193.04C339.819 192.645 339.926 192.176 339.926 191.632ZM348.306 196.208C347.452 196.208 346.684 196.021 346.002 195.648C345.319 195.264 344.78 194.725 344.386 194.032C344.002 193.339 343.81 192.539 343.81 191.632C343.81 190.725 344.007 189.925 344.402 189.232C344.807 188.539 345.356 188.005 346.05 187.632C346.743 187.248 347.516 187.056 348.37 187.056C349.223 187.056 349.996 187.248 350.69 187.632C351.383 188.005 351.927 188.539 352.322 189.232C352.727 189.925 352.93 190.725 352.93 191.632C352.93 192.539 352.722 193.339 352.306 194.032C351.9 194.725 351.346 195.264 350.642 195.648C349.948 196.021 349.17 196.208 348.306 196.208ZM348.306 194.256C348.711 194.256 349.09 194.16 349.442 193.968C349.804 193.765 350.092 193.467 350.306 193.072C350.519 192.677 350.626 192.197 350.626 191.632C350.626 190.789 350.402 190.144 349.954 189.696C349.516 189.237 348.978 189.008 348.338 189.008C347.698 189.008 347.159 189.237 346.722 189.696C346.295 190.144 346.082 190.789 346.082 191.632C346.082 192.475 346.29 193.125 346.706 193.584C347.132 194.032 347.666 194.256 348.306 194.256ZM357.965 196.208C357.239 196.208 356.589 196.08 356.013 195.824C355.437 195.557 354.978 195.2 354.637 194.752C354.306 194.304 354.125 193.808 354.093 193.264H356.349C356.391 193.605 356.557 193.888 356.845 194.112C357.143 194.336 357.511 194.448 357.949 194.448C358.375 194.448 358.706 194.363 358.941 194.192C359.186 194.021 359.309 193.803 359.309 193.536C359.309 193.248 359.159 193.035 358.861 192.896C358.573 192.747 358.109 192.587 357.469 192.416C356.807 192.256 356.263 192.091 355.837 191.92C355.421 191.749 355.058 191.488 354.749 191.136C354.45 190.784 354.301 190.309 354.301 189.712C354.301 189.221 354.439 188.773 354.717 188.368C355.005 187.963 355.41 187.643 355.933 187.408C356.466 187.173 357.09 187.056 357.805 187.056C358.861 187.056 359.703 187.323 360.333 187.856C360.962 188.379 361.309 189.088 361.373 189.984H359.229C359.197 189.632 359.047 189.355 358.781 189.152C358.525 188.939 358.178 188.832 357.741 188.832C357.335 188.832 357.021 188.907 356.797 189.056C356.583 189.205 356.477 189.413 356.477 189.68C356.477 189.979 356.626 190.208 356.925 190.368C357.223 190.517 357.687 190.672 358.317 190.832C358.957 190.992 359.485 191.157 359.901 191.328C360.317 191.499 360.674 191.765 360.973 192.128C361.282 192.48 361.442 192.949 361.453 193.536C361.453 194.048 361.309 194.507 361.021 194.912C360.743 195.317 360.338 195.637 359.805 195.872C359.282 196.096 358.669 196.208 357.965 196.208Z" fill="#7D0007"/>
    </g>
    <defs>
        <clipPath id="clip0_311_34607">
            <rect width="424" height="48" fill="white" transform="translate(0 154.064)"/>
        </clipPath>
    </defs>
</svg>
