<svg width="384" height="179" viewBox="0 0 384 179" fill="none" xmlns="http://www.w3.org/2000/svg">
    <rect x="168" y="4.06396" width="48" height="48" rx="24" fill="#FFEEEF"/>
    <rect x="168" y="4.06396" width="48" height="48" rx="24" stroke="#FFDADC" stroke-width="8"/>
    <path d="M188.38 24.9173C189.076 26.3669 190.025 27.7256 191.227 28.9272C192.428 30.1287 193.787 31.0775 195.236 31.7735C195.361 31.8334 195.424 31.8633 195.502 31.8863C195.783 31.968 196.127 31.9093 196.364 31.7393C196.431 31.6915 196.488 31.6343 196.603 31.52C196.952 31.1704 197.127 30.9956 197.303 30.8813C197.966 30.4503 198.82 30.4503 199.483 30.8813C199.659 30.9956 199.834 31.1704 200.183 31.52L200.378 31.7149C200.91 32.2463 201.175 32.5121 201.32 32.7974C201.607 33.365 201.607 34.0353 201.32 34.6028C201.175 34.8882 200.91 35.1539 200.378 35.6854L200.221 35.843C199.691 36.3726 199.426 36.6374 199.066 36.8397C198.667 37.0641 198.046 37.2255 197.588 37.2241C197.175 37.2229 196.893 37.1428 196.328 36.9826C193.295 36.1216 190.433 34.4971 188.045 32.1091C185.657 29.7212 184.032 26.8588 183.171 23.8254C183.011 23.261 182.931 22.9787 182.93 22.5658C182.928 22.1076 183.09 21.4871 183.314 21.0876C183.516 20.7275 183.781 20.4627 184.311 19.9331L184.468 19.7755C185 19.244 185.266 18.9783 185.551 18.834C186.119 18.5469 186.789 18.5469 187.356 18.834C187.642 18.9783 187.907 19.244 188.439 19.7755L188.634 19.9703C188.983 20.3199 189.158 20.4947 189.272 20.6705C189.703 21.3334 189.703 22.188 189.272 22.8509C189.158 23.0267 188.983 23.2015 188.634 23.5511C188.519 23.6654 188.462 23.7225 188.414 23.7893C188.244 24.0268 188.186 24.371 188.267 24.6514C188.29 24.7303 188.32 24.7926 188.38 24.9173Z" stroke="#7D0007" stroke-width="2" stroke-linecap="round" stroke-linejoin="round"/>
    <path d="M162.761 94.064V79.5185H168.215C169.333 79.5185 170.27 79.7268 171.028 80.1435C171.79 80.5602 172.365 81.1331 172.754 81.8623C173.147 82.5867 173.343 83.4106 173.343 84.3339C173.343 85.2666 173.147 86.0952 172.754 86.8196C172.361 87.5441 171.781 88.1146 171.014 88.5313C170.247 88.9432 169.302 89.1492 168.18 89.1492H164.565V86.983H167.825C168.478 86.983 169.013 86.8694 169.43 86.6421C169.847 86.4148 170.154 86.1023 170.353 85.7046C170.557 85.3069 170.659 84.8499 170.659 84.3339C170.659 83.8178 170.557 83.3632 170.353 82.9702C170.154 82.5772 169.844 82.2718 169.423 82.054C169.006 81.8315 168.469 81.7202 167.811 81.7202H165.396V94.064H162.761ZM178.089 87.6719V94.064H175.518V79.5185H178.032V85.0086H178.16C178.416 84.393 178.811 83.9077 179.346 83.5526C179.886 83.1928 180.573 83.0128 181.406 83.0128C182.164 83.0128 182.824 83.1714 183.388 83.4887C183.951 83.8059 184.387 84.2699 184.694 84.8807C185.007 85.4915 185.163 86.2373 185.163 87.1179V94.064H182.592V87.5157C182.592 86.7818 182.403 86.2112 182.024 85.804C181.65 85.3921 181.124 85.1861 180.447 85.1861C179.993 85.1861 179.586 85.2856 179.226 85.4844C178.871 85.6785 178.591 85.9603 178.388 86.3296C178.189 86.6989 178.089 87.1464 178.089 87.6719ZM192.542 94.277C191.477 94.277 190.554 94.0427 189.773 93.5739C188.991 93.1052 188.385 92.4494 187.954 91.6066C187.528 90.7638 187.315 89.7789 187.315 88.652C187.315 87.5251 187.528 86.5379 187.954 85.6904C188.385 84.8428 188.991 84.1847 189.773 83.716C190.554 83.2472 191.477 83.0128 192.542 83.0128C193.608 83.0128 194.531 83.2472 195.312 83.716C196.094 84.1847 196.697 84.8428 197.123 85.6904C197.554 86.5379 197.77 87.5251 197.77 88.652C197.77 89.7789 197.554 90.7638 197.123 91.6066C196.697 92.4494 196.094 93.1052 195.312 93.5739C194.531 94.0427 193.608 94.277 192.542 94.277ZM192.557 92.2174C193.134 92.2174 193.617 92.0588 194.006 91.7415C194.394 91.4196 194.683 90.9887 194.872 90.4489C195.066 89.9091 195.163 89.3078 195.163 88.6449C195.163 87.9773 195.066 87.3736 194.872 86.8339C194.683 86.2893 194.394 85.8561 194.006 85.5341C193.617 85.2122 193.134 85.0512 192.557 85.0512C191.965 85.0512 191.472 85.2122 191.079 85.5341C190.691 85.8561 190.4 86.2893 190.206 86.8339C190.016 87.3736 189.922 87.9773 189.922 88.6449C189.922 89.3078 190.016 89.9091 190.206 90.4489C190.4 90.9887 190.691 91.4196 191.079 91.7415C191.472 92.0588 191.965 92.2174 192.557 92.2174ZM202.523 87.6719V94.064H199.952V83.1549H202.409V85.0086H202.537C202.788 84.3978 203.188 83.9124 203.737 83.5526C204.291 83.1928 204.976 83.0128 205.79 83.0128C206.543 83.0128 207.199 83.1738 207.757 83.4958C208.321 83.8178 208.756 84.2841 209.064 84.8949C209.377 85.5057 209.53 86.2467 209.526 87.1179V94.064H206.955V87.5157C206.955 86.7865 206.765 86.216 206.387 85.804C206.012 85.3921 205.494 85.1861 204.831 85.1861C204.381 85.1861 203.981 85.2856 203.631 85.4844C203.285 85.6785 203.013 85.9603 202.814 86.3296C202.62 86.6989 202.523 87.1464 202.523 87.6719ZM216.969 94.277C215.875 94.277 214.931 94.0498 214.135 93.5952C213.344 93.1359 212.736 92.4873 212.31 91.6492C211.884 90.8064 211.671 89.8144 211.671 88.6733C211.671 87.5512 211.884 86.5663 212.31 85.7188C212.741 84.8665 213.342 84.2036 214.114 83.7302C214.886 83.2519 215.792 83.0128 216.834 83.0128C217.506 83.0128 218.141 83.1217 218.737 83.3395C219.339 83.5526 219.869 83.884 220.328 84.3339C220.792 84.7837 221.157 85.3566 221.422 86.0526C221.687 86.7439 221.82 87.5678 221.82 88.5242V89.3125H212.878V87.5796H219.355C219.351 87.0872 219.244 86.6492 219.036 86.2657C218.827 85.8774 218.536 85.572 218.162 85.3495C217.793 85.1269 217.362 85.0157 216.869 85.0157C216.344 85.0157 215.882 85.1435 215.485 85.3992C215.087 85.6501 214.777 85.9816 214.554 86.3935C214.336 86.8007 214.225 87.2482 214.22 87.7358V89.2486C214.22 89.8831 214.336 90.4276 214.568 90.8821C214.8 91.332 215.125 91.6776 215.541 91.9191C215.958 92.1558 216.446 92.2742 217.004 92.2742C217.378 92.2742 217.717 92.2221 218.02 92.1179C218.323 92.009 218.586 91.8504 218.808 91.6421C219.031 91.4338 219.199 91.1757 219.313 90.8679L221.713 91.1378C221.562 91.7723 221.273 92.3263 220.847 92.7998C220.425 93.2685 219.886 93.6331 219.227 93.8935C218.569 94.1492 217.816 94.277 216.969 94.277Z" fill="#101828"/>
    <path d="M99.3878 116.992V128.064H97.9318V119.808L94.2518 128.064H93.2278L89.5318 119.792V128.064H88.0758V116.992H89.6438L93.7398 126.144L97.8358 116.992H99.3878ZM105.681 128.208C104.86 128.208 104.113 128.021 103.441 127.648C102.78 127.275 102.257 126.747 101.873 126.064C101.5 125.371 101.313 124.571 101.313 123.664C101.313 122.768 101.505 121.979 101.889 121.296C102.284 120.603 102.817 120.075 103.489 119.712C104.161 119.339 104.913 119.152 105.745 119.152C106.577 119.152 107.329 119.339 108.001 119.712C108.673 120.075 109.201 120.597 109.585 121.28C109.98 121.963 110.177 122.757 110.177 123.664C110.177 124.571 109.974 125.371 109.569 126.064C109.174 126.747 108.636 127.275 107.953 127.648C107.27 128.021 106.513 128.208 105.681 128.208ZM105.681 126.928C106.204 126.928 106.694 126.805 107.153 126.56C107.612 126.315 107.98 125.947 108.257 125.456C108.545 124.965 108.689 124.368 108.689 123.664C108.689 122.96 108.55 122.363 108.273 121.872C107.996 121.381 107.633 121.019 107.185 120.784C106.737 120.539 106.252 120.416 105.729 120.416C105.196 120.416 104.705 120.539 104.257 120.784C103.82 121.019 103.468 121.381 103.201 121.872C102.934 122.363 102.801 122.96 102.801 123.664C102.801 124.379 102.929 124.981 103.185 125.472C103.452 125.963 103.804 126.331 104.241 126.576C104.678 126.811 105.158 126.928 105.681 126.928ZM116.363 119.136C117.43 119.136 118.294 119.461 118.955 120.112C119.617 120.752 119.947 121.68 119.947 122.896V128.064H118.507V123.104C118.507 122.229 118.289 121.563 117.851 121.104C117.414 120.635 116.817 120.4 116.059 120.4C115.291 120.4 114.678 120.64 114.219 121.12C113.771 121.6 113.547 122.299 113.547 123.216V128.064H112.091V119.296H113.547V120.544C113.835 120.096 114.225 119.749 114.715 119.504C115.217 119.259 115.766 119.136 116.363 119.136ZM128.406 121.584V122.816H122.022V121.584H128.406ZM137.442 116.912V118.096H132.594V121.856H136.53V123.04H132.594V128.064H131.138V116.912H137.442ZM140.657 120.72C140.913 120.219 141.275 119.829 141.745 119.552C142.225 119.275 142.806 119.136 143.489 119.136V120.64H143.105C141.473 120.64 140.657 121.525 140.657 123.296V128.064H139.201V119.296H140.657V120.72ZM145.922 117.872C145.644 117.872 145.41 117.776 145.218 117.584C145.026 117.392 144.93 117.157 144.93 116.88C144.93 116.603 145.026 116.368 145.218 116.176C145.41 115.984 145.644 115.888 145.922 115.888C146.188 115.888 146.412 115.984 146.594 116.176C146.786 116.368 146.882 116.603 146.882 116.88C146.882 117.157 146.786 117.392 146.594 117.584C146.412 117.776 146.188 117.872 145.922 117.872ZM146.626 119.296V128.064H145.17V119.296H146.626ZM156.941 120.496H155.101V128.064H153.645V120.496H152.509V119.296H153.645V118.672C153.645 117.691 153.895 116.976 154.397 116.528C154.909 116.069 155.725 115.84 156.845 115.84V117.056C156.205 117.056 155.751 117.184 155.485 117.44C155.229 117.685 155.101 118.096 155.101 118.672V119.296H156.941V120.496ZM160.094 120.72C160.35 120.219 160.713 119.829 161.182 119.552C161.662 119.275 162.244 119.136 162.926 119.136V120.64H162.542C160.91 120.64 160.094 121.525 160.094 123.296V128.064H158.638V119.296H160.094V120.72ZM168.431 128.208C167.61 128.208 166.863 128.021 166.191 127.648C165.53 127.275 165.007 126.747 164.623 126.064C164.25 125.371 164.063 124.571 164.063 123.664C164.063 122.768 164.255 121.979 164.639 121.296C165.034 120.603 165.567 120.075 166.239 119.712C166.911 119.339 167.663 119.152 168.495 119.152C169.327 119.152 170.079 119.339 170.751 119.712C171.423 120.075 171.951 120.597 172.335 121.28C172.73 121.963 172.927 122.757 172.927 123.664C172.927 124.571 172.724 125.371 172.319 126.064C171.924 126.747 171.386 127.275 170.703 127.648C170.02 128.021 169.263 128.208 168.431 128.208ZM168.431 126.928C168.954 126.928 169.444 126.805 169.903 126.56C170.362 126.315 170.73 125.947 171.007 125.456C171.295 124.965 171.439 124.368 171.439 123.664C171.439 122.96 171.3 122.363 171.023 121.872C170.746 121.381 170.383 121.019 169.935 120.784C169.487 120.539 169.002 120.416 168.479 120.416C167.946 120.416 167.455 120.539 167.007 120.784C166.57 121.019 166.218 121.381 165.951 121.872C165.684 122.363 165.551 122.96 165.551 123.664C165.551 124.379 165.679 124.981 165.935 125.472C166.202 125.963 166.554 126.331 166.991 126.576C167.428 126.811 167.908 126.928 168.431 126.928ZM185.385 119.136C186.068 119.136 186.676 119.28 187.209 119.568C187.743 119.845 188.164 120.267 188.473 120.832C188.783 121.397 188.937 122.085 188.937 122.896V128.064H187.497V123.104C187.497 122.229 187.279 121.563 186.841 121.104C186.415 120.635 185.833 120.4 185.097 120.4C184.34 120.4 183.737 120.645 183.289 121.136C182.841 121.616 182.617 122.315 182.617 123.232V128.064H181.177V123.104C181.177 122.229 180.959 121.563 180.521 121.104C180.095 120.635 179.513 120.4 178.777 120.4C178.02 120.4 177.417 120.645 176.969 121.136C176.521 121.616 176.297 122.315 176.297 123.232V128.064H174.841V119.296H176.297V120.56C176.585 120.101 176.969 119.749 177.449 119.504C177.94 119.259 178.479 119.136 179.065 119.136C179.801 119.136 180.452 119.301 181.017 119.632C181.583 119.963 182.004 120.448 182.281 121.088C182.527 120.469 182.932 119.989 183.497 119.648C184.063 119.307 184.692 119.136 185.385 119.136ZM197.463 122.048C196.866 121.813 196.407 121.472 196.087 121.024C195.767 120.576 195.607 120.032 195.607 119.392C195.607 118.816 195.751 118.299 196.039 117.84C196.327 117.371 196.754 117.003 197.319 116.736C197.895 116.459 198.589 116.32 199.399 116.32C200.21 116.32 200.898 116.459 201.463 116.736C202.039 117.003 202.471 117.371 202.759 117.84C203.058 118.299 203.207 118.816 203.207 119.392C203.207 120.011 203.042 120.555 202.711 121.024C202.381 121.483 201.927 121.824 201.351 122.048C202.013 122.251 202.535 122.608 202.919 123.12C203.314 123.621 203.511 124.229 203.511 124.944C203.511 125.637 203.341 126.245 202.999 126.768C202.658 127.28 202.173 127.68 201.543 127.968C200.925 128.245 200.21 128.384 199.399 128.384C198.589 128.384 197.874 128.245 197.255 127.968C196.647 127.68 196.173 127.28 195.831 126.768C195.49 126.245 195.319 125.637 195.319 124.944C195.319 124.229 195.511 123.616 195.895 123.104C196.279 122.592 196.802 122.24 197.463 122.048ZM201.799 119.568C201.799 118.917 201.586 118.416 201.159 118.064C200.733 117.712 200.146 117.536 199.399 117.536C198.663 117.536 198.082 117.712 197.655 118.064C197.229 118.416 197.015 118.923 197.015 119.584C197.015 120.181 197.234 120.661 197.671 121.024C198.119 121.387 198.695 121.568 199.399 121.568C200.114 121.568 200.69 121.387 201.127 121.024C201.575 120.651 201.799 120.165 201.799 119.568ZM199.399 122.688C198.61 122.688 197.965 122.875 197.463 123.248C196.962 123.611 196.711 124.16 196.711 124.896C196.711 125.579 196.951 126.128 197.431 126.544C197.922 126.96 198.578 127.168 199.399 127.168C200.221 127.168 200.871 126.96 201.351 126.544C201.831 126.128 202.071 125.579 202.071 124.896C202.071 124.181 201.826 123.637 201.335 123.264C200.845 122.88 200.199 122.688 199.399 122.688ZM205.141 123.648C205.141 122.752 205.322 121.968 205.685 121.296C206.048 120.613 206.544 120.085 207.173 119.712C207.813 119.339 208.522 119.152 209.301 119.152C210.069 119.152 210.736 119.317 211.301 119.648C211.866 119.979 212.288 120.395 212.565 120.896V119.296H214.037V128.064H212.565V126.432C212.277 126.944 211.845 127.371 211.269 127.712C210.704 128.043 210.042 128.208 209.285 128.208C208.506 128.208 207.802 128.016 207.173 127.632C206.544 127.248 206.048 126.709 205.685 126.016C205.322 125.323 205.141 124.533 205.141 123.648ZM212.565 123.664C212.565 123.003 212.432 122.427 212.165 121.936C211.898 121.445 211.536 121.072 211.077 120.816C210.629 120.549 210.133 120.416 209.589 120.416C209.045 120.416 208.549 120.544 208.101 120.8C207.653 121.056 207.296 121.429 207.029 121.92C206.762 122.411 206.629 122.987 206.629 123.648C206.629 124.32 206.762 124.907 207.029 125.408C207.296 125.899 207.653 126.277 208.101 126.544C208.549 126.8 209.045 126.928 209.589 126.928C210.133 126.928 210.629 126.8 211.077 126.544C211.536 126.277 211.898 125.899 212.165 125.408C212.432 124.907 212.565 124.325 212.565 123.664ZM227.042 119.136C227.724 119.136 228.332 119.28 228.866 119.568C229.399 119.845 229.82 120.267 230.13 120.832C230.439 121.397 230.594 122.085 230.594 122.896V128.064H229.154V123.104C229.154 122.229 228.935 121.563 228.498 121.104C228.071 120.635 227.49 120.4 226.754 120.4C225.996 120.4 225.394 120.645 224.946 121.136C224.498 121.616 224.274 122.315 224.274 123.232V128.064H222.834V123.104C222.834 122.229 222.615 121.563 222.178 121.104C221.751 120.635 221.17 120.4 220.434 120.4C219.676 120.4 219.074 120.645 218.626 121.136C218.178 121.616 217.954 122.315 217.954 123.232V128.064H216.498V119.296H217.954V120.56C218.242 120.101 218.626 119.749 219.106 119.504C219.596 119.259 220.135 119.136 220.722 119.136C221.458 119.136 222.108 119.301 222.674 119.632C223.239 119.963 223.66 120.448 223.938 121.088C224.183 120.469 224.588 119.989 225.154 119.648C225.719 119.307 226.348 119.136 227.042 119.136ZM239.024 120.496V125.664C239.024 126.091 239.114 126.395 239.296 126.576C239.477 126.747 239.792 126.832 240.24 126.832H241.312V128.064H240C239.189 128.064 238.581 127.877 238.176 127.504C237.77 127.131 237.568 126.517 237.568 125.664V120.496H236.432V119.296H237.568V117.088H239.024V119.296H241.312V120.496H239.024ZM246.9 128.208C246.078 128.208 245.332 128.021 244.66 127.648C243.998 127.275 243.476 126.747 243.092 126.064C242.718 125.371 242.532 124.571 242.532 123.664C242.532 122.768 242.724 121.979 243.108 121.296C243.502 120.603 244.036 120.075 244.708 119.712C245.38 119.339 246.132 119.152 246.964 119.152C247.796 119.152 248.548 119.339 249.22 119.712C249.892 120.075 250.42 120.597 250.804 121.28C251.198 121.963 251.396 122.757 251.396 123.664C251.396 124.571 251.193 125.371 250.788 126.064C250.393 126.747 249.854 127.275 249.172 127.648C248.489 128.021 247.732 128.208 246.9 128.208ZM246.9 126.928C247.422 126.928 247.913 126.805 248.372 126.56C248.83 126.315 249.198 125.947 249.476 125.456C249.764 124.965 249.908 124.368 249.908 123.664C249.908 122.96 249.769 122.363 249.492 121.872C249.214 121.381 248.852 121.019 248.404 120.784C247.956 120.539 247.47 120.416 246.948 120.416C246.414 120.416 245.924 120.539 245.476 120.784C245.038 121.019 244.686 121.381 244.42 121.872C244.153 122.363 244.02 122.96 244.02 123.664C244.02 124.379 244.148 124.981 244.404 125.472C244.67 125.963 245.022 126.331 245.46 126.576C245.897 126.811 246.377 126.928 246.9 126.928ZM263.784 119.248C263.549 118.064 262.818 117.472 261.592 117.472C260.642 117.472 259.933 117.84 259.464 118.576C258.994 119.301 258.765 120.501 258.776 122.176C259.021 121.621 259.426 121.189 259.992 120.88C260.568 120.56 261.208 120.4 261.912 120.4C263.01 120.4 263.885 120.741 264.536 121.424C265.197 122.107 265.528 123.051 265.528 124.256C265.528 124.981 265.384 125.632 265.096 126.208C264.818 126.784 264.392 127.243 263.816 127.584C263.25 127.925 262.562 128.096 261.752 128.096C260.653 128.096 259.794 127.851 259.176 127.36C258.557 126.869 258.125 126.192 257.88 125.328C257.634 124.464 257.512 123.397 257.512 122.128C257.512 118.213 258.877 116.256 261.608 116.256C262.653 116.256 263.474 116.539 264.072 117.104C264.669 117.669 265.021 118.384 265.128 119.248H263.784ZM261.608 121.632C261.149 121.632 260.717 121.728 260.312 121.92C259.906 122.101 259.576 122.384 259.32 122.768C259.074 123.141 258.952 123.6 258.952 124.144C258.952 124.955 259.186 125.616 259.656 126.128C260.125 126.629 260.797 126.88 261.672 126.88C262.418 126.88 263.01 126.651 263.448 126.192C263.896 125.723 264.12 125.093 264.12 124.304C264.12 123.472 263.906 122.821 263.48 122.352C263.053 121.872 262.429 121.632 261.608 121.632ZM269.188 120.912C269.476 120.411 269.903 119.995 270.468 119.664C271.044 119.323 271.711 119.152 272.468 119.152C273.247 119.152 273.951 119.339 274.58 119.712C275.22 120.085 275.721 120.613 276.084 121.296C276.447 121.968 276.628 122.752 276.628 123.648C276.628 124.533 276.447 125.323 276.084 126.016C275.721 126.709 275.22 127.248 274.58 127.632C273.951 128.016 273.247 128.208 272.468 128.208C271.721 128.208 271.06 128.043 270.484 127.712C269.919 127.371 269.487 126.949 269.188 126.448V132.224H267.732V119.296H269.188V120.912ZM275.14 123.648C275.14 122.987 275.007 122.411 274.74 121.92C274.473 121.429 274.111 121.056 273.652 120.8C273.204 120.544 272.708 120.416 272.164 120.416C271.631 120.416 271.135 120.549 270.676 120.816C270.228 121.072 269.865 121.451 269.588 121.952C269.321 122.443 269.188 123.013 269.188 123.664C269.188 124.325 269.321 124.907 269.588 125.408C269.865 125.899 270.228 126.277 270.676 126.544C271.135 126.8 271.631 126.928 272.164 126.928C272.708 126.928 273.204 126.8 273.652 126.544C274.111 126.277 274.473 125.899 274.74 125.408C275.007 124.907 275.14 124.32 275.14 123.648ZM289.089 119.136C289.771 119.136 290.379 119.28 290.913 119.568C291.446 119.845 291.867 120.267 292.177 120.832C292.486 121.397 292.641 122.085 292.641 122.896V128.064H291.201V123.104C291.201 122.229 290.982 121.563 290.545 121.104C290.118 120.635 289.537 120.4 288.801 120.4C288.043 120.4 287.441 120.645 286.993 121.136C286.545 121.616 286.321 122.315 286.321 123.232V128.064H284.881V123.104C284.881 122.229 284.662 121.563 284.225 121.104C283.798 120.635 283.217 120.4 282.481 120.4C281.723 120.4 281.121 120.645 280.673 121.136C280.225 121.616 280.001 122.315 280.001 123.232V128.064H278.545V119.296H280.001V120.56C280.289 120.101 280.673 119.749 281.153 119.504C281.643 119.259 282.182 119.136 282.769 119.136C283.505 119.136 284.155 119.301 284.721 119.632C285.286 119.963 285.707 120.448 285.985 121.088C286.23 120.469 286.635 119.989 287.201 119.648C287.766 119.307 288.395 119.136 289.089 119.136ZM295.493 128.16C295.216 128.16 294.981 128.064 294.789 127.872C294.597 127.68 294.501 127.445 294.501 127.168C294.501 126.891 294.597 126.656 294.789 126.464C294.981 126.272 295.216 126.176 295.493 126.176C295.76 126.176 295.984 126.272 296.165 126.464C296.357 126.656 296.453 126.891 296.453 127.168C296.453 127.445 296.357 127.68 296.165 127.872C295.984 128.064 295.76 128.16 295.493 128.16Z" fill="#656565"/>
    <g clip-path="url(#clip0_311_34617)">
        <path d="M126.933 167.344H123.909V170.448H121.797V167.344H118.773V165.392H121.797V162.288H123.909V165.392H126.933V167.344ZM129.794 169.536C130.818 168.683 131.634 167.973 132.242 167.408C132.85 166.832 133.357 166.235 133.762 165.616C134.168 164.997 134.37 164.389 134.37 163.792C134.37 163.248 134.242 162.821 133.986 162.512C133.73 162.203 133.336 162.048 132.802 162.048C132.269 162.048 131.858 162.229 131.57 162.592C131.282 162.944 131.133 163.429 131.122 164.048H128.946C128.989 162.768 129.368 161.797 130.082 161.136C130.808 160.475 131.725 160.144 132.834 160.144C134.05 160.144 134.984 160.469 135.634 161.12C136.285 161.76 136.61 162.608 136.61 163.664C136.61 164.496 136.386 165.291 135.938 166.048C135.49 166.805 134.978 167.467 134.402 168.032C133.826 168.587 133.074 169.259 132.146 170.048H136.866V171.904H128.962V170.24L129.794 169.536ZM138.31 163.472C138.363 162.405 138.736 161.584 139.43 161.008C140.134 160.421 141.056 160.128 142.198 160.128C142.976 160.128 143.643 160.267 144.198 160.544C144.752 160.811 145.168 161.179 145.446 161.648C145.734 162.107 145.878 162.629 145.878 163.216C145.878 163.888 145.702 164.459 145.35 164.928C145.008 165.387 144.598 165.696 144.118 165.856V165.92C144.736 166.112 145.216 166.453 145.558 166.944C145.91 167.435 146.086 168.064 146.086 168.832C146.086 169.472 145.936 170.043 145.638 170.544C145.35 171.045 144.918 171.44 144.342 171.728C143.776 172.005 143.094 172.144 142.294 172.144C141.088 172.144 140.107 171.84 139.35 171.232C138.592 170.624 138.192 169.728 138.15 168.544H140.326C140.347 169.067 140.523 169.488 140.854 169.808C141.195 170.117 141.659 170.272 142.246 170.272C142.79 170.272 143.206 170.123 143.494 169.824C143.792 169.515 143.942 169.12 143.942 168.64C143.942 168 143.739 167.541 143.334 167.264C142.928 166.987 142.299 166.848 141.446 166.848H140.982V165.008H141.446C142.96 165.008 143.718 164.501 143.718 163.488C143.718 163.029 143.579 162.672 143.302 162.416C143.035 162.16 142.646 162.032 142.134 162.032C141.632 162.032 141.243 162.171 140.966 162.448C140.699 162.715 140.544 163.056 140.502 163.472H138.31ZM147.76 169.792V168.032L152.992 160.544H155.6V167.84H157.008V169.792H155.6V172.064H153.36V169.792H147.76ZM153.504 162.944L150.224 167.84H153.504V162.944ZM164.838 168.784C164.924 169.253 165.116 169.616 165.414 169.872C165.724 170.117 166.134 170.24 166.646 170.24C167.308 170.24 167.788 169.968 168.086 169.424C168.385 168.869 168.534 167.941 168.534 166.64C168.289 166.981 167.942 167.248 167.494 167.44C167.057 167.632 166.582 167.728 166.07 167.728C165.388 167.728 164.769 167.589 164.214 167.312C163.67 167.024 163.238 166.603 162.918 166.048C162.598 165.483 162.438 164.8 162.438 164C162.438 162.816 162.79 161.877 163.494 161.184C164.198 160.48 165.158 160.128 166.374 160.128C167.889 160.128 168.956 160.613 169.574 161.584C170.204 162.555 170.518 164.016 170.518 165.968C170.518 167.355 170.396 168.491 170.15 169.376C169.916 170.261 169.505 170.933 168.918 171.392C168.342 171.851 167.553 172.08 166.55 172.08C165.761 172.08 165.089 171.931 164.534 171.632C163.98 171.323 163.553 170.923 163.254 170.432C162.966 169.931 162.801 169.381 162.758 168.784H164.838ZM166.534 165.904C167.089 165.904 167.526 165.733 167.846 165.392C168.166 165.051 168.326 164.592 168.326 164.016C168.326 163.387 168.156 162.901 167.814 162.56C167.484 162.208 167.03 162.032 166.454 162.032C165.878 162.032 165.42 162.213 165.078 162.576C164.748 162.928 164.582 163.397 164.582 163.984C164.582 164.549 164.742 165.013 165.062 165.376C165.393 165.728 165.884 165.904 166.534 165.904ZM172.262 166.08C172.262 164.235 172.593 162.789 173.254 161.744C173.926 160.699 175.035 160.176 176.582 160.176C178.129 160.176 179.233 160.699 179.894 161.744C180.566 162.789 180.902 164.235 180.902 166.08C180.902 167.936 180.566 169.392 179.894 170.448C179.233 171.504 178.129 172.032 176.582 172.032C175.035 172.032 173.926 171.504 173.254 170.448C172.593 169.392 172.262 167.936 172.262 166.08ZM178.694 166.08C178.694 165.291 178.641 164.629 178.534 164.096C178.438 163.552 178.235 163.109 177.926 162.768C177.627 162.427 177.179 162.256 176.582 162.256C175.985 162.256 175.531 162.427 175.222 162.768C174.923 163.109 174.721 163.552 174.614 164.096C174.518 164.629 174.47 165.291 174.47 166.08C174.47 166.891 174.518 167.573 174.614 168.128C174.71 168.672 174.913 169.115 175.222 169.456C175.531 169.787 175.985 169.952 176.582 169.952C177.179 169.952 177.633 169.787 177.942 169.456C178.251 169.115 178.454 168.672 178.55 168.128C178.646 167.573 178.694 166.891 178.694 166.08ZM190.446 162.336H185.262V165.072C185.486 164.795 185.806 164.571 186.222 164.4C186.638 164.219 187.08 164.128 187.55 164.128C188.403 164.128 189.102 164.315 189.646 164.688C190.19 165.061 190.584 165.541 190.83 166.128C191.075 166.704 191.198 167.323 191.198 167.984C191.198 169.211 190.846 170.197 190.142 170.944C189.448 171.691 188.456 172.064 187.166 172.064C185.95 172.064 184.979 171.76 184.254 171.152C183.528 170.544 183.118 169.749 183.022 168.768H185.198C185.294 169.195 185.507 169.536 185.838 169.792C186.179 170.048 186.611 170.176 187.134 170.176C187.763 170.176 188.238 169.979 188.558 169.584C188.878 169.189 189.038 168.667 189.038 168.016C189.038 167.355 188.872 166.853 188.542 166.512C188.222 166.16 187.747 165.984 187.118 165.984C186.67 165.984 186.296 166.096 185.998 166.32C185.699 166.544 185.486 166.843 185.358 167.216H183.214V160.368H190.446V162.336ZM198.667 165.888C197.601 165.333 197.067 164.475 197.067 163.312C197.067 162.736 197.211 162.213 197.499 161.744C197.798 161.264 198.241 160.885 198.827 160.608C199.425 160.32 200.15 160.176 201.003 160.176C201.857 160.176 202.577 160.32 203.163 160.608C203.761 160.885 204.203 161.264 204.491 161.744C204.79 162.213 204.939 162.736 204.939 163.312C204.939 163.899 204.795 164.416 204.507 164.864C204.219 165.301 203.835 165.643 203.355 165.888C203.942 166.144 204.401 166.517 204.731 167.008C205.062 167.499 205.227 168.08 205.227 168.752C205.227 169.477 205.041 170.112 204.667 170.656C204.305 171.189 203.803 171.6 203.163 171.888C202.523 172.176 201.803 172.32 201.003 172.32C200.203 172.32 199.483 172.176 198.843 171.888C198.214 171.6 197.713 171.189 197.339 170.656C196.977 170.112 196.795 169.477 196.795 168.752C196.795 168.08 196.961 167.499 197.291 167.008C197.622 166.507 198.081 166.133 198.667 165.888ZM202.763 163.632C202.763 163.109 202.603 162.704 202.283 162.416C201.974 162.128 201.547 161.984 201.003 161.984C200.47 161.984 200.043 162.128 199.723 162.416C199.414 162.704 199.259 163.115 199.259 163.648C199.259 164.128 199.419 164.512 199.739 164.8C200.07 165.088 200.491 165.232 201.003 165.232C201.515 165.232 201.937 165.088 202.267 164.8C202.598 164.501 202.763 164.112 202.763 163.632ZM201.003 166.864C200.395 166.864 199.899 167.019 199.515 167.328C199.142 167.637 198.955 168.08 198.955 168.656C198.955 169.189 199.137 169.627 199.499 169.968C199.873 170.299 200.374 170.464 201.003 170.464C201.633 170.464 202.129 170.293 202.491 169.952C202.854 169.611 203.035 169.179 203.035 168.656C203.035 168.091 202.849 167.653 202.475 167.344C202.102 167.024 201.611 166.864 201.003 166.864ZM213.044 163.312C212.938 162.864 212.751 162.528 212.484 162.304C212.228 162.08 211.855 161.968 211.364 161.968C210.628 161.968 210.084 162.267 209.732 162.864C209.391 163.451 209.215 164.411 209.204 165.744C209.46 165.317 209.834 164.987 210.324 164.752C210.815 164.507 211.348 164.384 211.924 164.384C212.618 164.384 213.231 164.533 213.764 164.832C214.298 165.131 214.714 165.568 215.012 166.144C215.311 166.709 215.46 167.392 215.46 168.192C215.46 168.949 215.306 169.627 214.996 170.224C214.698 170.811 214.255 171.269 213.668 171.6C213.082 171.931 212.383 172.096 211.572 172.096C210.463 172.096 209.588 171.851 208.948 171.36C208.319 170.869 207.876 170.187 207.62 169.312C207.375 168.427 207.252 167.339 207.252 166.048C207.252 164.096 207.588 162.624 208.26 161.632C208.932 160.629 209.994 160.128 211.444 160.128C212.564 160.128 213.434 160.432 214.052 161.04C214.671 161.648 215.028 162.405 215.124 163.312H213.044ZM211.412 166.224C210.847 166.224 210.372 166.389 209.988 166.72C209.604 167.051 209.412 167.531 209.412 168.16C209.412 168.789 209.588 169.285 209.94 169.648C210.303 170.011 210.81 170.192 211.46 170.192C212.036 170.192 212.49 170.016 212.82 169.664C213.162 169.312 213.332 168.837 213.332 168.24C213.332 167.621 213.167 167.131 212.836 166.768C212.516 166.405 212.042 166.224 211.412 166.224ZM217.263 163.472C217.316 162.405 217.689 161.584 218.383 161.008C219.087 160.421 220.009 160.128 221.151 160.128C221.929 160.128 222.596 160.267 223.151 160.544C223.705 160.811 224.121 161.179 224.399 161.648C224.687 162.107 224.831 162.629 224.831 163.216C224.831 163.888 224.655 164.459 224.303 164.928C223.961 165.387 223.551 165.696 223.071 165.856V165.92C223.689 166.112 224.169 166.453 224.511 166.944C224.863 167.435 225.039 168.064 225.039 168.832C225.039 169.472 224.889 170.043 224.591 170.544C224.303 171.045 223.871 171.44 223.295 171.728C222.729 172.005 222.047 172.144 221.247 172.144C220.041 172.144 219.06 171.84 218.303 171.232C217.545 170.624 217.145 169.728 217.103 168.544H219.279C219.3 169.067 219.476 169.488 219.807 169.808C220.148 170.117 220.612 170.272 221.199 170.272C221.743 170.272 222.159 170.123 222.447 169.824C222.745 169.515 222.895 169.12 222.895 168.64C222.895 168 222.692 167.541 222.287 167.264C221.881 166.987 221.252 166.848 220.399 166.848H219.935V165.008H220.399C221.913 165.008 222.671 164.501 222.671 163.488C222.671 163.029 222.532 162.672 222.255 162.416C221.988 162.16 221.599 162.032 221.087 162.032C220.585 162.032 220.196 162.171 219.919 162.448C219.652 162.715 219.497 163.056 219.455 163.472H217.263ZM230.621 166.08C230.621 164.235 230.952 162.789 231.613 161.744C232.285 160.699 233.395 160.176 234.941 160.176C236.488 160.176 237.592 160.699 238.253 161.744C238.925 162.789 239.261 164.235 239.261 166.08C239.261 167.936 238.925 169.392 238.253 170.448C237.592 171.504 236.488 172.032 234.941 172.032C233.395 172.032 232.285 171.504 231.613 170.448C230.952 169.392 230.621 167.936 230.621 166.08ZM237.053 166.08C237.053 165.291 237 164.629 236.893 164.096C236.797 163.552 236.595 163.109 236.285 162.768C235.987 162.427 235.539 162.256 234.941 162.256C234.344 162.256 233.891 162.427 233.581 162.768C233.283 163.109 233.08 163.552 232.973 164.096C232.877 164.629 232.829 165.291 232.829 166.08C232.829 166.891 232.877 167.573 232.973 168.128C233.069 168.672 233.272 169.115 233.581 169.456C233.891 169.787 234.344 169.952 234.941 169.952C235.539 169.952 235.992 169.787 236.301 169.456C236.611 169.115 236.813 168.672 236.909 168.128C237.005 167.573 237.053 166.891 237.053 166.08ZM240.965 166.08C240.965 164.235 241.296 162.789 241.957 161.744C242.629 160.699 243.739 160.176 245.285 160.176C246.832 160.176 247.936 160.699 248.597 161.744C249.269 162.789 249.605 164.235 249.605 166.08C249.605 167.936 249.269 169.392 248.597 170.448C247.936 171.504 246.832 172.032 245.285 172.032C243.739 172.032 242.629 171.504 241.957 170.448C241.296 169.392 240.965 167.936 240.965 166.08ZM247.397 166.08C247.397 165.291 247.344 164.629 247.237 164.096C247.141 163.552 246.939 163.109 246.629 162.768C246.331 162.427 245.883 162.256 245.285 162.256C244.688 162.256 244.235 162.427 243.925 162.768C243.627 163.109 243.424 163.552 243.317 164.096C243.221 164.629 243.173 165.291 243.173 166.08C243.173 166.891 243.221 167.573 243.317 168.128C243.413 168.672 243.616 169.115 243.925 169.456C244.235 169.787 244.688 169.952 245.285 169.952C245.883 169.952 246.336 169.787 246.645 169.456C246.955 169.115 247.157 168.672 247.253 168.128C247.349 167.573 247.397 166.891 247.397 166.08ZM251.037 162.464V160.4H254.893V172.064H252.589V162.464H251.037ZM259.058 165.888C257.991 165.333 257.458 164.475 257.458 163.312C257.458 162.736 257.602 162.213 257.89 161.744C258.188 161.264 258.631 160.885 259.218 160.608C259.815 160.32 260.54 160.176 261.394 160.176C262.247 160.176 262.967 160.32 263.554 160.608C264.151 160.885 264.594 161.264 264.882 161.744C265.18 162.213 265.33 162.736 265.33 163.312C265.33 163.899 265.186 164.416 264.898 164.864C264.61 165.301 264.226 165.643 263.746 165.888C264.332 166.144 264.791 166.517 265.122 167.008C265.452 167.499 265.618 168.08 265.618 168.752C265.618 169.477 265.431 170.112 265.058 170.656C264.695 171.189 264.194 171.6 263.554 171.888C262.914 172.176 262.194 172.32 261.394 172.32C260.594 172.32 259.874 172.176 259.234 171.888C258.604 171.6 258.103 171.189 257.73 170.656C257.367 170.112 257.186 169.477 257.186 168.752C257.186 168.08 257.351 167.499 257.682 167.008C258.012 166.507 258.471 166.133 259.058 165.888ZM263.154 163.632C263.154 163.109 262.994 162.704 262.674 162.416C262.364 162.128 261.938 161.984 261.394 161.984C260.86 161.984 260.434 162.128 260.114 162.416C259.804 162.704 259.65 163.115 259.65 163.648C259.65 164.128 259.81 164.512 260.13 164.8C260.46 165.088 260.882 165.232 261.394 165.232C261.906 165.232 262.327 165.088 262.658 164.8C262.988 164.501 263.154 164.112 263.154 163.632ZM261.394 166.864C260.786 166.864 260.29 167.019 259.906 167.328C259.532 167.637 259.346 168.08 259.346 168.656C259.346 169.189 259.527 169.627 259.89 169.968C260.263 170.299 260.764 170.464 261.394 170.464C262.023 170.464 262.519 170.293 262.882 169.952C263.244 169.611 263.426 169.179 263.426 168.656C263.426 168.091 263.239 167.653 262.866 167.344C262.492 167.024 262.002 166.864 261.394 166.864Z" fill="#7D0007"/>
    </g>
    <defs>
        <clipPath id="clip0_311_34617">
            <rect width="150" height="24" fill="white" transform="translate(117 154.064)"/>
        </clipPath>
    </defs>
</svg>
