<svg width="1216" height="269" viewBox="0 0 1216 269" fill="none" xmlns="http://www.w3.org/2000/svg">
    <rect y="0.0639648" width="1216" height="268" rx="16" fill="#FFEEEF" fill-opacity="0.7"/>
    <path d="M182.419 88.844C182.619 84.844 184.019 81.764 186.619 79.604C189.259 77.404 192.719 76.304 196.999 76.304C199.919 76.304 202.419 76.824 204.499 77.864C206.579 78.864 208.139 80.244 209.179 82.004C210.259 83.724 210.799 85.684 210.799 87.884C210.799 90.404 210.139 92.544 208.819 94.304C207.539 96.024 205.999 97.184 204.199 97.784V98.024C206.519 98.744 208.319 100.024 209.599 101.864C210.919 103.704 211.579 106.064 211.579 108.944C211.579 111.344 211.019 113.484 209.899 115.364C208.819 117.244 207.199 118.724 205.039 119.804C202.919 120.844 200.359 121.364 197.359 121.364C192.839 121.364 189.159 120.224 186.319 117.944C183.479 115.664 181.979 112.304 181.819 107.864H189.979C190.059 109.824 190.719 111.404 191.959 112.604C193.239 113.764 194.979 114.344 197.179 114.344C199.219 114.344 200.779 113.784 201.859 112.664C202.979 111.504 203.539 110.024 203.539 108.224C203.539 105.824 202.779 104.104 201.259 103.064C199.739 102.024 197.379 101.504 194.179 101.504H192.439V94.604H194.179C199.859 94.604 202.699 92.704 202.699 88.904C202.699 87.184 202.179 85.844 201.139 84.884C200.139 83.924 198.679 83.444 196.759 83.444C194.879 83.444 193.419 83.964 192.379 85.004C191.379 86.004 190.799 87.284 190.639 88.844H182.419ZM217.017 98.624C217.017 91.704 218.257 86.284 220.737 82.364C223.257 78.444 227.417 76.484 233.217 76.484C239.017 76.484 243.157 78.444 245.637 82.364C248.157 86.284 249.417 91.704 249.417 98.624C249.417 105.584 248.157 111.044 245.637 115.004C243.157 118.964 239.017 120.944 233.217 120.944C227.417 120.944 223.257 118.964 220.737 115.004C218.257 111.044 217.017 105.584 217.017 98.624ZM241.137 98.624C241.137 95.664 240.937 93.184 240.537 91.184C240.177 89.144 239.417 87.484 238.257 86.204C237.137 84.924 235.457 84.284 233.217 84.284C230.977 84.284 229.277 84.924 228.117 86.204C226.997 87.484 226.237 89.144 225.837 91.184C225.477 93.184 225.297 95.664 225.297 98.624C225.297 101.664 225.477 104.224 225.837 106.304C226.197 108.344 226.957 110.004 228.117 111.284C229.277 112.524 230.977 113.144 233.217 113.144C235.457 113.144 237.157 112.524 238.317 111.284C239.477 110.004 240.237 108.344 240.597 106.304C240.957 104.224 241.137 101.664 241.137 98.624ZM254.606 98.624C254.606 91.704 255.846 86.284 258.326 82.364C260.846 78.444 265.006 76.484 270.806 76.484C276.606 76.484 280.746 78.444 283.226 82.364C285.746 86.284 287.006 91.704 287.006 98.624C287.006 105.584 285.746 111.044 283.226 115.004C280.746 118.964 276.606 120.944 270.806 120.944C265.006 120.944 260.846 118.964 258.326 115.004C255.846 111.044 254.606 105.584 254.606 98.624ZM278.726 98.624C278.726 95.664 278.526 93.184 278.126 91.184C277.766 89.144 277.006 87.484 275.846 86.204C274.726 84.924 273.046 84.284 270.806 84.284C268.566 84.284 266.866 84.924 265.706 86.204C264.586 87.484 263.826 89.144 263.426 91.184C263.066 93.184 262.886 95.664 262.886 98.624C262.886 101.664 263.066 104.224 263.426 106.304C263.786 108.344 264.546 110.004 265.706 111.284C266.866 112.524 268.566 113.144 270.806 113.144C273.046 113.144 274.746 112.524 275.906 111.284C277.066 110.004 277.826 108.344 278.186 106.304C278.546 104.224 278.726 101.664 278.726 98.624Z" fill="#7D0007"/>
    <path d="M158.976 166.066H163.116V168.064H156.456V155.5H158.976V166.066ZM164.069 163.042C164.069 162.034 164.267 161.14 164.663 160.36C165.071 159.58 165.617 158.98 166.301 158.56C166.997 158.14 167.771 157.93 168.623 157.93C169.367 157.93 170.015 158.08 170.567 158.38C171.131 158.68 171.581 159.058 171.917 159.514V158.092H174.455V168.064H171.917V166.606C171.593 167.074 171.143 167.464 170.567 167.776C170.003 168.076 169.349 168.226 168.605 168.226C167.765 168.226 166.997 168.01 166.301 167.578C165.617 167.146 165.071 166.54 164.663 165.76C164.267 164.968 164.069 164.062 164.069 163.042ZM171.917 163.078C171.917 162.466 171.797 161.944 171.557 161.512C171.317 161.068 170.993 160.732 170.585 160.504C170.177 160.264 169.739 160.144 169.271 160.144C168.803 160.144 168.371 160.258 167.975 160.486C167.579 160.714 167.255 161.05 167.003 161.494C166.763 161.926 166.643 162.442 166.643 163.042C166.643 163.642 166.763 164.17 167.003 164.626C167.255 165.07 167.579 165.412 167.975 165.652C168.383 165.892 168.815 166.012 169.271 166.012C169.739 166.012 170.177 165.898 170.585 165.67C170.993 165.43 171.317 165.094 171.557 164.662C171.797 164.218 171.917 163.69 171.917 163.078ZM182.442 157.948C183.63 157.948 184.59 158.326 185.322 159.082C186.054 159.826 186.42 160.87 186.42 162.214V168.064H183.9V162.556C183.9 161.764 183.702 161.158 183.306 160.738C182.91 160.306 182.37 160.09 181.686 160.09C180.99 160.09 180.438 160.306 180.03 160.738C179.634 161.158 179.436 161.764 179.436 162.556V168.064H176.916V158.092H179.436V159.334C179.772 158.902 180.198 158.566 180.714 158.326C181.242 158.074 181.818 157.948 182.442 157.948ZM188.169 163.042C188.169 162.034 188.367 161.14 188.763 160.36C189.171 159.58 189.723 158.98 190.419 158.56C191.115 158.14 191.889 157.93 192.741 157.93C193.389 157.93 194.007 158.074 194.595 158.362C195.183 158.638 195.651 159.01 195.999 159.478V154.744H198.555V168.064H195.999V166.588C195.687 167.08 195.249 167.476 194.685 167.776C194.121 168.076 193.467 168.226 192.723 168.226C191.883 168.226 191.115 168.01 190.419 167.578C189.723 167.146 189.171 166.54 188.763 165.76C188.367 164.968 188.169 164.062 188.169 163.042ZM196.017 163.078C196.017 162.466 195.897 161.944 195.657 161.512C195.417 161.068 195.093 160.732 194.685 160.504C194.277 160.264 193.839 160.144 193.371 160.144C192.903 160.144 192.471 160.258 192.075 160.486C191.679 160.714 191.355 161.05 191.103 161.494C190.863 161.926 190.743 162.442 190.743 163.042C190.743 163.642 190.863 164.17 191.103 164.626C191.355 165.07 191.679 165.412 192.075 165.652C192.483 165.892 192.915 166.012 193.371 166.012C193.839 166.012 194.277 165.898 194.685 165.67C195.093 165.43 195.417 165.094 195.657 164.662C195.897 164.218 196.017 163.69 196.017 163.078ZM203.536 154.744V168.064H201.016V154.744H203.536ZM210.454 168.226C209.494 168.226 208.63 168.016 207.862 167.596C207.094 167.164 206.488 166.558 206.044 165.778C205.612 164.998 205.396 164.098 205.396 163.078C205.396 162.058 205.618 161.158 206.062 160.378C206.518 159.598 207.136 158.998 207.916 158.578C208.696 158.146 209.566 157.93 210.526 157.93C211.486 157.93 212.356 158.146 213.136 158.578C213.916 158.998 214.528 159.598 214.972 160.378C215.428 161.158 215.656 162.058 215.656 163.078C215.656 164.098 215.422 164.998 214.954 165.778C214.498 166.558 213.874 167.164 213.082 167.596C212.302 168.016 211.426 168.226 210.454 168.226ZM210.454 166.03C210.91 166.03 211.336 165.922 211.732 165.706C212.14 165.478 212.464 165.142 212.704 164.698C212.944 164.254 213.064 163.714 213.064 163.078C213.064 162.13 212.812 161.404 212.308 160.9C211.816 160.384 211.21 160.126 210.49 160.126C209.77 160.126 209.164 160.384 208.672 160.9C208.192 161.404 207.952 162.13 207.952 163.078C207.952 164.026 208.186 164.758 208.654 165.274C209.134 165.778 209.734 166.03 210.454 166.03ZM220.024 159.64C220.348 159.112 220.768 158.698 221.284 158.398C221.812 158.098 222.412 157.948 223.084 157.948V160.594H222.418C221.626 160.594 221.026 160.78 220.618 161.152C220.222 161.524 220.024 162.172 220.024 163.096V168.064H217.504V158.092H220.024V159.64ZM224.134 163.042C224.134 162.034 224.332 161.14 224.728 160.36C225.136 159.58 225.688 158.98 226.384 158.56C227.08 158.14 227.854 157.93 228.706 157.93C229.354 157.93 229.972 158.074 230.56 158.362C231.148 158.638 231.616 159.01 231.964 159.478V154.744H234.52V168.064H231.964V166.588C231.652 167.08 231.214 167.476 230.65 167.776C230.086 168.076 229.432 168.226 228.688 168.226C227.848 168.226 227.08 168.01 226.384 167.578C225.688 167.146 225.136 166.54 224.728 165.76C224.332 164.968 224.134 164.062 224.134 163.042ZM231.982 163.078C231.982 162.466 231.862 161.944 231.622 161.512C231.382 161.068 231.058 160.732 230.65 160.504C230.242 160.264 229.804 160.144 229.336 160.144C228.868 160.144 228.436 160.258 228.04 160.486C227.644 160.714 227.32 161.05 227.068 161.494C226.828 161.926 226.708 162.442 226.708 163.042C226.708 163.642 226.828 164.17 227.068 164.626C227.32 165.07 227.644 165.412 228.04 165.652C228.448 165.892 228.88 166.012 229.336 166.012C229.804 166.012 230.242 165.898 230.65 165.67C231.058 165.43 231.382 165.094 231.622 164.662C231.862 164.218 231.982 163.69 231.982 163.078ZM240.797 168.226C239.981 168.226 239.249 168.082 238.601 167.794C237.953 167.494 237.437 167.092 237.053 166.588C236.681 166.084 236.477 165.526 236.441 164.914H238.979C239.027 165.298 239.213 165.616 239.537 165.868C239.873 166.12 240.287 166.246 240.779 166.246C241.259 166.246 241.631 166.15 241.895 165.958C242.171 165.766 242.309 165.52 242.309 165.22C242.309 164.896 242.141 164.656 241.805 164.5C241.481 164.332 240.959 164.152 240.239 163.96C239.495 163.78 238.883 163.594 238.403 163.402C237.935 163.21 237.527 162.916 237.179 162.52C236.843 162.124 236.675 161.59 236.675 160.918C236.675 160.366 236.831 159.862 237.143 159.406C237.467 158.95 237.923 158.59 238.511 158.326C239.111 158.062 239.813 157.93 240.617 157.93C241.805 157.93 242.753 158.23 243.461 158.83C244.169 159.418 244.559 160.216 244.631 161.224H242.219C242.183 160.828 242.015 160.516 241.715 160.288C241.427 160.048 241.037 159.928 240.545 159.928C240.089 159.928 239.735 160.012 239.483 160.18C239.243 160.348 239.123 160.582 239.123 160.882C239.123 161.218 239.291 161.476 239.627 161.656C239.963 161.824 240.485 161.998 241.193 162.178C241.913 162.358 242.507 162.544 242.975 162.736C243.443 162.928 243.845 163.228 244.181 163.636C244.529 164.032 244.709 164.56 244.721 165.22C244.721 165.796 244.559 166.312 244.235 166.768C243.923 167.224 243.467 167.584 242.867 167.848C242.279 168.1 241.589 168.226 240.797 168.226ZM252.357 156.904C251.913 156.904 251.541 156.766 251.241 156.49C250.953 156.202 250.809 155.848 250.809 155.428C250.809 155.008 250.953 154.66 251.241 154.384C251.541 154.096 251.913 153.952 252.357 153.952C252.801 153.952 253.167 154.096 253.455 154.384C253.755 154.66 253.905 155.008 253.905 155.428C253.905 155.848 253.755 156.202 253.455 156.49C253.167 156.766 252.801 156.904 252.357 156.904ZM253.599 158.092V168.064H251.079V158.092H253.599ZM261.614 157.948C262.802 157.948 263.762 158.326 264.494 159.082C265.226 159.826 265.592 160.87 265.592 162.214V168.064H263.072V162.556C263.072 161.764 262.874 161.158 262.478 160.738C262.082 160.306 261.542 160.09 260.858 160.09C260.162 160.09 259.61 160.306 259.202 160.738C258.806 161.158 258.608 161.764 258.608 162.556V168.064H256.088V158.092H258.608V159.334C258.944 158.902 259.37 158.566 259.886 158.326C260.414 158.074 260.99 157.948 261.614 157.948ZM272.782 165.22C273.934 164.26 274.852 163.462 275.536 162.826C276.22 162.178 276.79 161.506 277.246 160.81C277.702 160.114 277.93 159.43 277.93 158.758C277.93 158.146 277.786 157.666 277.498 157.318C277.21 156.97 276.766 156.796 276.166 156.796C275.566 156.796 275.104 157 274.78 157.408C274.456 157.804 274.288 158.35 274.276 159.046H271.828C271.876 157.606 272.302 156.514 273.106 155.77C273.922 155.026 274.954 154.654 276.202 154.654C277.57 154.654 278.62 155.02 279.352 155.752C280.084 156.472 280.45 157.426 280.45 158.614C280.45 159.55 280.198 160.444 279.694 161.296C279.19 162.148 278.614 162.892 277.966 163.528C277.318 164.152 276.472 164.908 275.428 165.796H280.738V167.884H271.846V166.012L272.782 165.22ZM282.326 161.332C282.326 159.256 282.698 157.63 283.442 156.454C284.198 155.278 285.446 154.69 287.186 154.69C288.926 154.69 290.168 155.278 290.912 156.454C291.668 157.63 292.046 159.256 292.046 161.332C292.046 163.42 291.668 165.058 290.912 166.246C290.168 167.434 288.926 168.028 287.186 168.028C285.446 168.028 284.198 167.434 283.442 166.246C282.698 165.058 282.326 163.42 282.326 161.332ZM289.562 161.332C289.562 160.444 289.502 159.7 289.382 159.1C289.274 158.488 289.046 157.99 288.698 157.606C288.362 157.222 287.858 157.03 287.186 157.03C286.514 157.03 286.004 157.222 285.656 157.606C285.32 157.99 285.092 158.488 284.972 159.1C284.864 159.7 284.81 160.444 284.81 161.332C284.81 162.244 284.864 163.012 284.972 163.636C285.08 164.248 285.308 164.746 285.656 165.13C286.004 165.502 286.514 165.688 287.186 165.688C287.858 165.688 288.368 165.502 288.716 165.13C289.064 164.746 289.292 164.248 289.4 163.636C289.508 163.012 289.562 162.244 289.562 161.332ZM294.754 165.22C295.906 164.26 296.824 163.462 297.508 162.826C298.192 162.178 298.762 161.506 299.218 160.81C299.674 160.114 299.902 159.43 299.902 158.758C299.902 158.146 299.758 157.666 299.47 157.318C299.182 156.97 298.738 156.796 298.138 156.796C297.538 156.796 297.076 157 296.752 157.408C296.428 157.804 296.26 158.35 296.248 159.046H293.8C293.848 157.606 294.274 156.514 295.078 155.77C295.894 155.026 296.926 154.654 298.174 154.654C299.542 154.654 300.592 155.02 301.324 155.752C302.056 156.472 302.422 157.426 302.422 158.614C302.422 159.55 302.17 160.444 301.666 161.296C301.162 162.148 300.586 162.892 299.938 163.528C299.29 164.152 298.444 164.908 297.4 165.796H302.71V167.884H293.818V166.012L294.754 165.22ZM304.334 158.398C304.394 157.198 304.814 156.274 305.594 155.626C306.386 154.966 307.424 154.636 308.708 154.636C309.584 154.636 310.334 154.792 310.958 155.104C311.582 155.404 312.05 155.818 312.362 156.346C312.686 156.862 312.848 157.45 312.848 158.11C312.848 158.866 312.65 159.508 312.254 160.036C311.87 160.552 311.408 160.9 310.868 161.08V161.152C311.564 161.368 312.104 161.752 312.488 162.304C312.884 162.856 313.082 163.564 313.082 164.428C313.082 165.148 312.914 165.79 312.578 166.354C312.254 166.918 311.768 167.362 311.12 167.686C310.484 167.998 309.716 168.154 308.816 168.154C307.46 168.154 306.356 167.812 305.504 167.128C304.652 166.444 304.202 165.436 304.154 164.104H306.602C306.626 164.692 306.824 165.166 307.196 165.526C307.58 165.874 308.102 166.048 308.762 166.048C309.374 166.048 309.842 165.88 310.166 165.544C310.502 165.196 310.67 164.752 310.67 164.212C310.67 163.492 310.442 162.976 309.986 162.664C309.53 162.352 308.822 162.196 307.862 162.196H307.34V160.126H307.862C309.566 160.126 310.418 159.556 310.418 158.416C310.418 157.9 310.262 157.498 309.95 157.21C309.65 156.922 309.212 156.778 308.636 156.778C308.072 156.778 307.634 156.934 307.322 157.246C307.022 157.546 306.848 157.93 306.8 158.398H304.334Z" fill="#3D3D3D"/>
    <path d="M534.731 111.584C538.571 108.384 541.631 105.724 543.911 103.604C546.191 101.444 548.092 99.204 549.612 96.884C551.132 94.564 551.891 92.284 551.891 90.044C551.891 88.004 551.412 86.404 550.452 85.244C549.491 84.084 548.011 83.504 546.012 83.504C544.012 83.504 542.471 84.184 541.391 85.544C540.311 86.864 539.751 88.684 539.711 91.004H531.551C531.711 86.204 533.131 82.564 535.811 80.084C538.531 77.604 541.971 76.364 546.131 76.364C550.691 76.364 554.192 77.584 556.631 80.024C559.071 82.424 560.291 85.604 560.291 89.564C560.291 92.684 559.451 95.664 557.772 98.504C556.092 101.344 554.171 103.824 552.012 105.944C549.852 108.024 547.032 110.544 543.552 113.504H561.252V120.464H531.611V114.224L534.731 111.584ZM565.345 98.624C565.345 91.704 566.585 86.284 569.065 82.364C571.585 78.444 575.745 76.484 581.545 76.484C587.345 76.484 591.485 78.444 593.965 82.364C596.485 86.284 597.745 91.704 597.745 98.624C597.745 105.584 596.485 111.044 593.965 115.004C591.485 118.964 587.345 120.944 581.545 120.944C575.745 120.944 571.585 118.964 569.065 115.004C566.585 111.044 565.345 105.584 565.345 98.624ZM589.465 98.624C589.465 95.664 589.265 93.184 588.865 91.184C588.505 89.144 587.745 87.484 586.585 86.204C585.465 84.924 583.785 84.284 581.545 84.284C579.305 84.284 577.605 84.924 576.445 86.204C575.325 87.484 574.565 89.144 574.165 91.184C573.805 93.184 573.625 95.664 573.625 98.624C573.625 101.664 573.805 104.224 574.165 106.304C574.525 108.344 575.285 110.004 576.445 111.284C577.605 112.524 579.305 113.144 581.545 113.144C583.785 113.144 585.485 112.524 586.645 111.284C587.805 110.004 588.565 108.344 588.925 106.304C589.285 104.224 589.465 101.664 589.465 98.624ZM602.934 98.624C602.934 91.704 604.174 86.284 606.654 82.364C609.174 78.444 613.334 76.484 619.134 76.484C624.934 76.484 629.074 78.444 631.554 82.364C634.074 86.284 635.334 91.704 635.334 98.624C635.334 105.584 634.074 111.044 631.554 115.004C629.074 118.964 624.934 120.944 619.134 120.944C613.334 120.944 609.174 118.964 606.654 115.004C604.174 111.044 602.934 105.584 602.934 98.624ZM627.054 98.624C627.054 95.664 626.854 93.184 626.454 91.184C626.094 89.144 625.334 87.484 624.174 86.204C623.054 84.924 621.374 84.284 619.134 84.284C616.894 84.284 615.194 84.924 614.034 86.204C612.914 87.484 612.154 89.144 611.754 91.184C611.394 93.184 611.214 95.664 611.214 98.624C611.214 101.664 611.394 104.224 611.754 106.304C612.114 108.344 612.874 110.004 614.034 111.284C615.194 112.524 616.894 113.144 619.134 113.144C621.374 113.144 623.074 112.524 624.234 111.284C625.394 110.004 626.154 108.344 626.514 106.304C626.874 104.224 627.054 101.664 627.054 98.624ZM639.563 88.064C639.563 85.024 640.443 82.644 642.203 80.924C644.003 79.204 646.303 78.344 649.103 78.344C651.903 78.344 654.183 79.204 655.943 80.924C657.743 82.644 658.643 85.024 658.643 88.064C658.643 91.144 657.743 93.544 655.943 95.264C654.183 96.984 651.903 97.844 649.103 97.844C646.303 97.844 644.003 96.984 642.203 95.264C640.443 93.544 639.563 91.144 639.563 88.064ZM678.083 79.064L654.503 121.064H646.343L669.863 79.064H678.083ZM649.043 83.384C646.843 83.384 645.743 84.944 645.743 88.064C645.743 91.224 646.843 92.804 649.043 92.804C650.123 92.804 650.963 92.424 651.563 91.664C652.163 90.864 652.463 89.664 652.463 88.064C652.463 84.944 651.323 83.384 649.043 83.384ZM665.903 112.004C665.903 108.924 666.783 106.544 668.543 104.864C670.343 103.144 672.643 102.284 675.443 102.284C678.243 102.284 680.503 103.144 682.223 104.864C683.983 106.544 684.863 108.924 684.863 112.004C684.863 115.084 683.983 117.484 682.223 119.204C680.503 120.924 678.243 121.784 675.443 121.784C672.603 121.784 670.303 120.924 668.543 119.204C666.783 117.484 665.903 115.084 665.903 112.004ZM675.383 107.324C673.103 107.324 671.963 108.884 671.963 112.004C671.963 115.164 673.103 116.744 675.383 116.744C677.623 116.744 678.743 115.164 678.743 112.004C678.743 108.884 677.623 107.324 675.383 107.324Z" fill="#7D0007"/>
    <path d="M496.8 165.67H491.796L490.968 168.064H488.322L492.84 155.482H495.774L500.292 168.064H497.628L496.8 165.67ZM496.116 163.654L494.298 158.398L492.48 163.654H496.116ZM506.138 165.742L508.658 158.092H511.34L507.65 168.064H504.59L500.918 158.092H503.618L506.138 165.742ZM522.026 162.862C522.026 163.222 522.002 163.546 521.954 163.834H514.664C514.724 164.554 514.976 165.118 515.42 165.526C515.864 165.934 516.41 166.138 517.058 166.138C517.994 166.138 518.66 165.736 519.056 164.932H521.774C521.486 165.892 520.934 166.684 520.118 167.308C519.302 167.92 518.3 168.226 517.112 168.226C516.152 168.226 515.288 168.016 514.52 167.596C513.764 167.164 513.17 166.558 512.738 165.778C512.318 164.998 512.108 164.098 512.108 163.078C512.108 162.046 512.318 161.14 512.738 160.36C513.158 159.58 513.746 158.98 514.502 158.56C515.258 158.14 516.128 157.93 517.112 157.93C518.06 157.93 518.906 158.134 519.65 158.542C520.406 158.95 520.988 159.532 521.396 160.288C521.816 161.032 522.026 161.89 522.026 162.862ZM519.416 162.142C519.404 161.494 519.17 160.978 518.714 160.594C518.258 160.198 517.7 160 517.04 160C516.416 160 515.888 160.192 515.456 160.576C515.036 160.948 514.778 161.47 514.682 162.142H519.416ZM526.385 159.64C526.709 159.112 527.129 158.698 527.645 158.398C528.173 158.098 528.773 157.948 529.445 157.948V160.594H528.779C527.987 160.594 527.387 160.78 526.979 161.152C526.583 161.524 526.385 162.172 526.385 163.096V168.064H523.865V158.092H526.385V159.64ZM530.495 163.042C530.495 162.034 530.693 161.14 531.089 160.36C531.497 159.58 532.043 158.98 532.727 158.56C533.423 158.14 534.197 157.93 535.049 157.93C535.793 157.93 536.441 158.08 536.993 158.38C537.557 158.68 538.007 159.058 538.343 159.514V158.092H540.881V168.064H538.343V166.606C538.019 167.074 537.569 167.464 536.993 167.776C536.429 168.076 535.775 168.226 535.031 168.226C534.191 168.226 533.423 168.01 532.727 167.578C532.043 167.146 531.497 166.54 531.089 165.76C530.693 164.968 530.495 164.062 530.495 163.042ZM538.343 163.078C538.343 162.466 538.223 161.944 537.983 161.512C537.743 161.068 537.419 160.732 537.011 160.504C536.603 160.264 536.165 160.144 535.697 160.144C535.229 160.144 534.797 160.258 534.401 160.486C534.005 160.714 533.681 161.05 533.429 161.494C533.189 161.926 533.069 162.442 533.069 163.042C533.069 163.642 533.189 164.17 533.429 164.626C533.681 165.07 534.005 165.412 534.401 165.652C534.809 165.892 535.241 166.012 535.697 166.012C536.165 166.012 536.603 165.898 537.011 165.67C537.419 165.43 537.743 165.094 537.983 164.662C538.223 164.218 538.343 163.69 538.343 163.078ZM547.248 157.93C547.992 157.93 548.646 158.08 549.21 158.38C549.774 158.668 550.218 159.046 550.542 159.514V158.092H553.08V168.136C553.08 169.06 552.894 169.882 552.522 170.602C552.15 171.334 551.592 171.91 550.848 172.33C550.104 172.762 549.204 172.978 548.148 172.978C546.732 172.978 545.568 172.648 544.656 171.988C543.756 171.328 543.246 170.428 543.126 169.288H545.628C545.76 169.744 546.042 170.104 546.474 170.368C546.918 170.644 547.452 170.782 548.076 170.782C548.808 170.782 549.402 170.56 549.858 170.116C550.314 169.684 550.542 169.024 550.542 168.136V166.588C550.218 167.056 549.768 167.446 549.192 167.758C548.628 168.07 547.98 168.226 547.248 168.226C546.408 168.226 545.64 168.01 544.944 167.578C544.248 167.146 543.696 166.54 543.288 165.76C542.892 164.968 542.694 164.062 542.694 163.042C542.694 162.034 542.892 161.14 543.288 160.36C543.696 159.58 544.242 158.98 544.926 158.56C545.622 158.14 546.396 157.93 547.248 157.93ZM550.542 163.078C550.542 162.466 550.422 161.944 550.182 161.512C549.942 161.068 549.618 160.732 549.21 160.504C548.802 160.264 548.364 160.144 547.896 160.144C547.428 160.144 546.996 160.258 546.6 160.486C546.204 160.714 545.88 161.05 545.628 161.494C545.388 161.926 545.268 162.442 545.268 163.042C545.268 163.642 545.388 164.17 545.628 164.626C545.88 165.07 546.204 165.412 546.6 165.652C547.008 165.892 547.44 166.012 547.896 166.012C548.364 166.012 548.802 165.898 549.21 165.67C549.618 165.43 549.942 165.094 550.182 164.662C550.422 164.218 550.542 163.69 550.542 163.078ZM564.811 162.862C564.811 163.222 564.787 163.546 564.739 163.834H557.449C557.509 164.554 557.761 165.118 558.205 165.526C558.649 165.934 559.195 166.138 559.843 166.138C560.779 166.138 561.445 165.736 561.841 164.932H564.559C564.271 165.892 563.719 166.684 562.903 167.308C562.087 167.92 561.085 168.226 559.897 168.226C558.937 168.226 558.073 168.016 557.305 167.596C556.549 167.164 555.955 166.558 555.523 165.778C555.103 164.998 554.893 164.098 554.893 163.078C554.893 162.046 555.103 161.14 555.523 160.36C555.943 159.58 556.531 158.98 557.287 158.56C558.043 158.14 558.913 157.93 559.897 157.93C560.845 157.93 561.691 158.134 562.435 158.542C563.191 158.95 563.773 159.532 564.181 160.288C564.601 161.032 564.811 161.89 564.811 162.862ZM562.201 162.142C562.189 161.494 561.955 160.978 561.499 160.594C561.043 160.198 560.485 160 559.825 160C559.201 160 558.673 160.192 558.241 160.576C557.821 160.948 557.563 161.47 557.467 162.142H562.201ZM578.643 165.67H573.639L572.811 168.064H570.165L574.683 155.482H577.617L582.135 168.064H579.471L578.643 165.67ZM577.959 163.654L576.141 158.398L574.323 163.654H577.959ZM589.35 157.948C590.538 157.948 591.498 158.326 592.23 159.082C592.962 159.826 593.328 160.87 593.328 162.214V168.064H590.808V162.556C590.808 161.764 590.61 161.158 590.214 160.738C589.818 160.306 589.278 160.09 588.594 160.09C587.898 160.09 587.346 160.306 586.938 160.738C586.542 161.158 586.344 161.764 586.344 162.556V168.064H583.824V158.092H586.344V159.334C586.68 158.902 587.106 158.566 587.622 158.326C588.15 158.074 588.726 157.948 589.35 157.948ZM601.251 157.948C602.439 157.948 603.399 158.326 604.131 159.082C604.863 159.826 605.229 160.87 605.229 162.214V168.064H602.709V162.556C602.709 161.764 602.511 161.158 602.115 160.738C601.719 160.306 601.179 160.09 600.495 160.09C599.799 160.09 599.247 160.306 598.839 160.738C598.443 161.158 598.245 161.764 598.245 162.556V168.064H595.725V158.092H598.245V159.334C598.581 158.902 599.007 158.566 599.523 158.326C600.051 158.074 600.627 157.948 601.251 157.948ZM617.039 158.092V168.064H614.501V166.804C614.177 167.236 613.751 167.578 613.223 167.83C612.707 168.07 612.143 168.19 611.531 168.19C610.751 168.19 610.061 168.028 609.461 167.704C608.861 167.368 608.387 166.882 608.039 166.246C607.703 165.598 607.535 164.83 607.535 163.942V158.092H610.055V163.582C610.055 164.374 610.253 164.986 610.649 165.418C611.045 165.838 611.585 166.048 612.269 166.048C612.965 166.048 613.511 165.838 613.907 165.418C614.303 164.986 614.501 164.374 614.501 163.582V158.092H617.039ZM618.877 163.042C618.877 162.034 619.075 161.14 619.471 160.36C619.879 159.58 620.425 158.98 621.109 158.56C621.805 158.14 622.579 157.93 623.431 157.93C624.175 157.93 624.823 158.08 625.375 158.38C625.939 158.68 626.389 159.058 626.725 159.514V158.092H629.263V168.064H626.725V166.606C626.401 167.074 625.951 167.464 625.375 167.776C624.811 168.076 624.157 168.226 623.413 168.226C622.573 168.226 621.805 168.01 621.109 167.578C620.425 167.146 619.879 166.54 619.471 165.76C619.075 164.968 618.877 164.062 618.877 163.042ZM626.725 163.078C626.725 162.466 626.605 161.944 626.365 161.512C626.125 161.068 625.801 160.732 625.393 160.504C624.985 160.264 624.547 160.144 624.079 160.144C623.611 160.144 623.179 160.258 622.783 160.486C622.387 160.714 622.063 161.05 621.811 161.494C621.571 161.926 621.451 162.442 621.451 163.042C621.451 163.642 621.571 164.17 621.811 164.626C622.063 165.07 622.387 165.412 622.783 165.652C623.191 165.892 623.623 166.012 624.079 166.012C624.547 166.012 624.985 165.898 625.393 165.67C625.801 165.43 626.125 165.094 626.365 164.662C626.605 164.218 626.725 163.69 626.725 163.078ZM634.245 154.744V168.064H631.725V154.744H634.245ZM647.503 168.064L644.731 163.168H643.543V168.064H641.023V155.5H645.739C646.711 155.5 647.539 155.674 648.223 156.022C648.907 156.358 649.417 156.82 649.753 157.408C650.101 157.984 650.275 158.632 650.275 159.352C650.275 160.18 650.035 160.93 649.555 161.602C649.075 162.262 648.361 162.718 647.413 162.97L650.419 168.064H647.503ZM643.543 161.278H645.649C646.333 161.278 646.843 161.116 647.179 160.792C647.515 160.456 647.683 159.994 647.683 159.406C647.683 158.83 647.515 158.386 647.179 158.074C646.843 157.75 646.333 157.588 645.649 157.588H643.543V161.278ZM661.825 162.862C661.825 163.222 661.801 163.546 661.753 163.834H654.463C654.523 164.554 654.775 165.118 655.219 165.526C655.663 165.934 656.209 166.138 656.857 166.138C657.793 166.138 658.459 165.736 658.855 164.932H661.573C661.285 165.892 660.733 166.684 659.917 167.308C659.101 167.92 658.099 168.226 656.911 168.226C655.951 168.226 655.087 168.016 654.319 167.596C653.563 167.164 652.969 166.558 652.537 165.778C652.117 164.998 651.907 164.098 651.907 163.078C651.907 162.046 652.117 161.14 652.537 160.36C652.957 159.58 653.545 158.98 654.301 158.56C655.057 158.14 655.927 157.93 656.911 157.93C657.859 157.93 658.705 158.134 659.449 158.542C660.205 158.95 660.787 159.532 661.195 160.288C661.615 161.032 661.825 161.89 661.825 162.862ZM659.215 162.142C659.203 161.494 658.969 160.978 658.513 160.594C658.057 160.198 657.499 160 656.839 160C656.215 160 655.687 160.192 655.255 160.576C654.835 160.948 654.577 161.47 654.481 162.142H659.215ZM666.598 160.162V164.986C666.598 165.322 666.676 165.568 666.832 165.724C667 165.868 667.276 165.94 667.66 165.94H668.83V168.064H667.246C665.122 168.064 664.06 167.032 664.06 164.968V160.162H662.872V158.092H664.06V155.626H666.598V158.092H668.83V160.162H666.598ZM680.057 158.092V168.064H677.519V166.804C677.195 167.236 676.769 167.578 676.241 167.83C675.725 168.07 675.161 168.19 674.549 168.19C673.769 168.19 673.079 168.028 672.479 167.704C671.879 167.368 671.405 166.882 671.057 166.246C670.721 165.598 670.553 164.83 670.553 163.942V158.092H673.073V163.582C673.073 164.374 673.271 164.986 673.667 165.418C674.063 165.838 674.603 166.048 675.287 166.048C675.983 166.048 676.529 165.838 676.925 165.418C677.321 164.986 677.519 164.374 677.519 163.582V158.092H680.057ZM685.063 159.64C685.387 159.112 685.807 158.698 686.323 158.398C686.851 158.098 687.451 157.948 688.123 157.948V160.594H687.457C686.665 160.594 686.065 160.78 685.657 161.152C685.261 161.524 685.063 162.172 685.063 163.096V168.064H682.543V158.092H685.063V159.64ZM695.346 157.948C696.534 157.948 697.494 158.326 698.226 159.082C698.958 159.826 699.324 160.87 699.324 162.214V168.064H696.804V162.556C696.804 161.764 696.606 161.158 696.21 160.738C695.814 160.306 695.274 160.09 694.59 160.09C693.894 160.09 693.342 160.306 692.934 160.738C692.538 161.158 692.34 161.764 692.34 162.556V168.064H689.82V158.092H692.34V159.334C692.676 158.902 693.102 158.566 693.618 158.326C694.146 158.074 694.722 157.948 695.346 157.948ZM710.438 168.226C709.478 168.226 708.614 168.016 707.846 167.596C707.078 167.164 706.472 166.558 706.028 165.778C705.596 164.998 705.38 164.098 705.38 163.078C705.38 162.058 705.602 161.158 706.046 160.378C706.502 159.598 707.12 158.998 707.9 158.578C708.68 158.146 709.55 157.93 710.51 157.93C711.47 157.93 712.34 158.146 713.12 158.578C713.9 158.998 714.512 159.598 714.956 160.378C715.412 161.158 715.64 162.058 715.64 163.078C715.64 164.098 715.406 164.998 714.938 165.778C714.482 166.558 713.858 167.164 713.066 167.596C712.286 168.016 711.41 168.226 710.438 168.226ZM710.438 166.03C710.894 166.03 711.32 165.922 711.716 165.706C712.124 165.478 712.448 165.142 712.688 164.698C712.928 164.254 713.048 163.714 713.048 163.078C713.048 162.13 712.796 161.404 712.292 160.9C711.8 160.384 711.194 160.126 710.474 160.126C709.754 160.126 709.148 160.384 708.656 160.9C708.176 161.404 707.936 162.13 707.936 163.078C707.936 164.026 708.17 164.758 708.638 165.274C709.118 165.778 709.718 166.03 710.438 166.03ZM723.014 157.948C724.202 157.948 725.162 158.326 725.894 159.082C726.626 159.826 726.992 160.87 726.992 162.214V168.064H724.472V162.556C724.472 161.764 724.274 161.158 723.878 160.738C723.482 160.306 722.942 160.09 722.258 160.09C721.562 160.09 721.01 160.306 720.602 160.738C720.206 161.158 720.008 161.764 720.008 162.556V168.064H717.488V158.092H720.008V159.334C720.344 158.902 720.77 158.566 721.286 158.326C721.814 158.074 722.39 157.948 723.014 157.948ZM554.642 183.5V196.064H552.122V183.5H554.642ZM562.658 185.948C563.846 185.948 564.806 186.326 565.538 187.082C566.27 187.826 566.636 188.87 566.636 190.214V196.064H564.116V190.556C564.116 189.764 563.918 189.158 563.522 188.738C563.126 188.306 562.586 188.09 561.902 188.09C561.206 188.09 560.654 188.306 560.246 188.738C559.85 189.158 559.652 189.764 559.652 190.556V196.064H557.132V186.092H559.652V187.334C559.988 186.902 560.414 186.566 560.93 186.326C561.458 186.074 562.034 185.948 562.658 185.948ZM573.19 193.742L575.71 186.092H578.392L574.702 196.064H571.642L567.97 186.092H570.67L573.19 193.742ZM589.078 190.862C589.078 191.222 589.054 191.546 589.006 191.834H581.716C581.776 192.554 582.028 193.118 582.472 193.526C582.916 193.934 583.462 194.138 584.11 194.138C585.046 194.138 585.712 193.736 586.108 192.932H588.826C588.538 193.892 587.986 194.684 587.17 195.308C586.354 195.92 585.352 196.226 584.164 196.226C583.204 196.226 582.34 196.016 581.572 195.596C580.816 195.164 580.222 194.558 579.79 193.778C579.37 192.998 579.16 192.098 579.16 191.078C579.16 190.046 579.37 189.14 579.79 188.36C580.21 187.58 580.798 186.98 581.554 186.56C582.31 186.14 583.18 185.93 584.164 185.93C585.112 185.93 585.958 186.134 586.702 186.542C587.458 186.95 588.04 187.532 588.448 188.288C588.868 189.032 589.078 189.89 589.078 190.862ZM586.468 190.142C586.456 189.494 586.222 188.978 585.766 188.594C585.31 188.198 584.752 188 584.092 188C583.468 188 582.94 188.192 582.508 188.576C582.088 188.948 581.83 189.47 581.734 190.142H586.468ZM594.733 196.226C593.917 196.226 593.185 196.082 592.537 195.794C591.889 195.494 591.373 195.092 590.989 194.588C590.617 194.084 590.413 193.526 590.377 192.914H592.915C592.963 193.298 593.149 193.616 593.473 193.868C593.809 194.12 594.223 194.246 594.715 194.246C595.195 194.246 595.567 194.15 595.831 193.958C596.107 193.766 596.245 193.52 596.245 193.22C596.245 192.896 596.077 192.656 595.741 192.5C595.417 192.332 594.895 192.152 594.175 191.96C593.431 191.78 592.819 191.594 592.339 191.402C591.871 191.21 591.463 190.916 591.115 190.52C590.779 190.124 590.611 189.59 590.611 188.918C590.611 188.366 590.767 187.862 591.079 187.406C591.403 186.95 591.859 186.59 592.447 186.326C593.047 186.062 593.749 185.93 594.553 185.93C595.741 185.93 596.689 186.23 597.397 186.83C598.105 187.418 598.495 188.216 598.567 189.224H596.155C596.119 188.828 595.951 188.516 595.651 188.288C595.363 188.048 594.973 187.928 594.481 187.928C594.025 187.928 593.671 188.012 593.419 188.18C593.179 188.348 593.059 188.582 593.059 188.882C593.059 189.218 593.227 189.476 593.563 189.656C593.899 189.824 594.421 189.998 595.129 190.178C595.849 190.358 596.443 190.544 596.911 190.736C597.379 190.928 597.781 191.228 598.117 191.636C598.465 192.032 598.645 192.56 598.657 193.22C598.657 193.796 598.495 194.312 598.171 194.768C597.859 195.224 597.403 195.584 596.803 195.848C596.215 196.1 595.525 196.226 594.733 196.226ZM603.66 188.162V192.986C603.66 193.322 603.738 193.568 603.894 193.724C604.062 193.868 604.338 193.94 604.722 193.94H605.892V196.064H604.308C602.184 196.064 601.122 195.032 601.122 192.968V188.162H599.934V186.092H601.122V183.626H603.66V186.092H605.892V188.162H603.66ZM620.088 185.948C621.312 185.948 622.296 186.326 623.04 187.082C623.796 187.826 624.174 188.87 624.174 190.214V196.064H621.654V190.556C621.654 189.776 621.456 189.182 621.06 188.774C620.664 188.354 620.124 188.144 619.44 188.144C618.756 188.144 618.21 188.354 617.802 188.774C617.406 189.182 617.208 189.776 617.208 190.556V196.064H614.688V190.556C614.688 189.776 614.49 189.182 614.094 188.774C613.698 188.354 613.158 188.144 612.474 188.144C611.778 188.144 611.226 188.354 610.818 188.774C610.422 189.182 610.224 189.776 610.224 190.556V196.064H607.704V186.092H610.224V187.298C610.548 186.878 610.962 186.548 611.466 186.308C611.982 186.068 612.546 185.948 613.158 185.948C613.938 185.948 614.634 186.116 615.246 186.452C615.858 186.776 616.332 187.244 616.668 187.856C616.992 187.28 617.46 186.818 618.072 186.47C618.696 186.122 619.368 185.948 620.088 185.948ZM635.835 190.862C635.835 191.222 635.811 191.546 635.763 191.834H628.473C628.533 192.554 628.785 193.118 629.229 193.526C629.673 193.934 630.219 194.138 630.867 194.138C631.803 194.138 632.469 193.736 632.865 192.932H635.583C635.295 193.892 634.743 194.684 633.927 195.308C633.111 195.92 632.109 196.226 630.921 196.226C629.961 196.226 629.097 196.016 628.329 195.596C627.573 195.164 626.979 194.558 626.547 193.778C626.127 192.998 625.917 192.098 625.917 191.078C625.917 190.046 626.127 189.14 626.547 188.36C626.967 187.58 627.555 186.98 628.311 186.56C629.067 186.14 629.937 185.93 630.921 185.93C631.869 185.93 632.715 186.134 633.459 186.542C634.215 186.95 634.797 187.532 635.205 188.288C635.625 189.032 635.835 189.89 635.835 190.862ZM633.225 190.142C633.213 189.494 632.979 188.978 632.523 188.594C632.067 188.198 631.509 188 630.849 188C630.225 188 629.697 188.192 629.265 188.576C628.845 188.948 628.587 189.47 628.491 190.142H633.225ZM643.201 185.948C644.389 185.948 645.349 186.326 646.081 187.082C646.813 187.826 647.179 188.87 647.179 190.214V196.064H644.659V190.556C644.659 189.764 644.461 189.158 644.065 188.738C643.669 188.306 643.129 188.09 642.445 188.09C641.749 188.09 641.197 188.306 640.789 188.738C640.393 189.158 640.195 189.764 640.195 190.556V196.064H637.675V186.092H640.195V187.334C640.531 186.902 640.957 186.566 641.473 186.326C642.001 186.074 642.577 185.948 643.201 185.948ZM652.509 188.162V192.986C652.509 193.322 652.587 193.568 652.743 193.724C652.911 193.868 653.187 193.94 653.571 193.94H654.741V196.064H653.157C651.033 196.064 649.971 195.032 649.971 192.968V188.162H648.783V186.092H649.971V183.626H652.509V186.092H654.741V188.162H652.509ZM660.37 196.226C659.554 196.226 658.822 196.082 658.174 195.794C657.526 195.494 657.01 195.092 656.626 194.588C656.254 194.084 656.05 193.526 656.014 192.914H658.552C658.6 193.298 658.786 193.616 659.11 193.868C659.446 194.12 659.86 194.246 660.352 194.246C660.832 194.246 661.204 194.15 661.468 193.958C661.744 193.766 661.882 193.52 661.882 193.22C661.882 192.896 661.714 192.656 661.378 192.5C661.054 192.332 660.532 192.152 659.812 191.96C659.068 191.78 658.456 191.594 657.976 191.402C657.508 191.21 657.1 190.916 656.752 190.52C656.416 190.124 656.248 189.59 656.248 188.918C656.248 188.366 656.404 187.862 656.716 187.406C657.04 186.95 657.496 186.59 658.084 186.326C658.684 186.062 659.386 185.93 660.19 185.93C661.378 185.93 662.326 186.23 663.034 186.83C663.742 187.418 664.132 188.216 664.204 189.224H661.792C661.756 188.828 661.588 188.516 661.288 188.288C661 188.048 660.61 187.928 660.118 187.928C659.662 187.928 659.308 188.012 659.056 188.18C658.816 188.348 658.696 188.582 658.696 188.882C658.696 189.218 658.864 189.476 659.2 189.656C659.536 189.824 660.058 189.998 660.766 190.178C661.486 190.358 662.08 190.544 662.548 190.736C663.016 190.928 663.418 191.228 663.754 191.636C664.102 192.032 664.282 192.56 664.294 193.22C664.294 193.796 664.132 194.312 663.808 194.768C663.496 195.224 663.04 195.584 662.44 195.848C661.852 196.1 661.162 196.226 660.37 196.226Z" fill="#3D3D3D"/>
    <path d="M953.83 85.064V77.324H968.29V121.064H959.65V85.064H953.83ZM975.388 98.624C975.388 91.704 976.628 86.284 979.108 82.364C981.628 78.444 985.788 76.484 991.588 76.484C997.388 76.484 1001.53 78.444 1004.01 82.364C1006.53 86.284 1007.79 91.704 1007.79 98.624C1007.79 105.584 1006.53 111.044 1004.01 115.004C1001.53 118.964 997.388 120.944 991.588 120.944C985.788 120.944 981.628 118.964 979.108 115.004C976.628 111.044 975.388 105.584 975.388 98.624ZM999.508 98.624C999.508 95.664 999.308 93.184 998.908 91.184C998.548 89.144 997.788 87.484 996.628 86.204C995.508 84.924 993.828 84.284 991.588 84.284C989.348 84.284 987.648 84.924 986.488 86.204C985.368 87.484 984.608 89.144 984.208 91.184C983.848 93.184 983.668 95.664 983.668 98.624C983.668 101.664 983.848 104.224 984.208 106.304C984.568 108.344 985.328 110.004 986.488 111.284C987.648 112.524 989.348 113.144 991.588 113.144C993.828 113.144 995.528 112.524 996.688 111.284C997.848 110.004 998.608 108.344 998.968 106.304C999.328 104.224 999.508 101.664 999.508 98.624Z" fill="#7D0007"/>
    <path d="M872.655 165.67H867.651L866.823 168.064H864.177L868.695 155.482H871.629L876.147 168.064H873.483L872.655 165.67ZM871.971 163.654L870.153 158.398L868.335 163.654H871.971ZM877.188 163.078C877.188 162.046 877.398 161.146 877.818 160.378C878.238 159.598 878.82 158.998 879.564 158.578C880.308 158.146 881.16 157.93 882.12 157.93C883.356 157.93 884.376 158.242 885.18 158.866C885.996 159.478 886.542 160.342 886.818 161.458H884.1C883.956 161.026 883.71 160.69 883.362 160.45C883.026 160.198 882.606 160.072 882.102 160.072C881.382 160.072 880.812 160.336 880.392 160.864C879.972 161.38 879.762 162.118 879.762 163.078C879.762 164.026 879.972 164.764 880.392 165.292C880.812 165.808 881.382 166.066 882.102 166.066C883.122 166.066 883.788 165.61 884.1 164.698H886.818C886.542 165.778 885.996 166.636 885.18 167.272C884.364 167.908 883.344 168.226 882.12 168.226C881.16 168.226 880.308 168.016 879.564 167.596C878.82 167.164 878.238 166.564 877.818 165.796C877.398 165.016 877.188 164.11 877.188 163.078ZM891.184 159.64C891.508 159.112 891.928 158.698 892.444 158.398C892.972 158.098 893.572 157.948 894.244 157.948V160.594H893.578C892.786 160.594 892.186 160.78 891.778 161.152C891.382 161.524 891.184 162.172 891.184 163.096V168.064H888.664V158.092H891.184V159.64ZM905.211 162.862C905.211 163.222 905.187 163.546 905.139 163.834H897.849C897.909 164.554 898.161 165.118 898.605 165.526C899.049 165.934 899.595 166.138 900.243 166.138C901.179 166.138 901.845 165.736 902.241 164.932H904.959C904.671 165.892 904.119 166.684 903.303 167.308C902.487 167.92 901.485 168.226 900.297 168.226C899.337 168.226 898.473 168.016 897.705 167.596C896.949 167.164 896.355 166.558 895.923 165.778C895.503 164.998 895.293 164.098 895.293 163.078C895.293 162.046 895.503 161.14 895.923 160.36C896.343 159.58 896.931 158.98 897.687 158.56C898.443 158.14 899.313 157.93 900.297 157.93C901.245 157.93 902.091 158.134 902.835 158.542C903.591 158.95 904.173 159.532 904.581 160.288C905.001 161.032 905.211 161.89 905.211 162.862ZM902.601 162.142C902.589 161.494 902.355 160.978 901.899 160.594C901.443 160.198 900.885 160 900.225 160C899.601 160 899.073 160.192 898.641 160.576C898.221 160.948 897.963 161.47 897.867 162.142H902.601ZM910.867 168.226C910.051 168.226 909.319 168.082 908.671 167.794C908.023 167.494 907.507 167.092 907.123 166.588C906.751 166.084 906.547 165.526 906.511 164.914H909.049C909.097 165.298 909.283 165.616 909.607 165.868C909.943 166.12 910.357 166.246 910.849 166.246C911.329 166.246 911.701 166.15 911.965 165.958C912.241 165.766 912.379 165.52 912.379 165.22C912.379 164.896 912.211 164.656 911.875 164.5C911.551 164.332 911.029 164.152 910.309 163.96C909.565 163.78 908.953 163.594 908.473 163.402C908.005 163.21 907.597 162.916 907.249 162.52C906.913 162.124 906.745 161.59 906.745 160.918C906.745 160.366 906.901 159.862 907.213 159.406C907.537 158.95 907.993 158.59 908.581 158.326C909.181 158.062 909.883 157.93 910.687 157.93C911.875 157.93 912.823 158.23 913.531 158.83C914.239 159.418 914.629 160.216 914.701 161.224H912.289C912.253 160.828 912.085 160.516 911.785 160.288C911.497 160.048 911.107 159.928 910.615 159.928C910.159 159.928 909.805 160.012 909.553 160.18C909.313 160.348 909.193 160.582 909.193 160.882C909.193 161.218 909.361 161.476 909.697 161.656C910.033 161.824 910.555 161.998 911.263 162.178C911.983 162.358 912.577 162.544 913.045 162.736C913.513 162.928 913.915 163.228 914.251 163.636C914.599 164.032 914.779 164.56 914.791 165.22C914.791 165.796 914.629 166.312 914.305 166.768C913.993 167.224 913.537 167.584 912.937 167.848C912.349 168.1 911.659 168.226 910.867 168.226ZM925.576 168.226C924.616 168.226 923.752 168.016 922.984 167.596C922.216 167.164 921.61 166.558 921.166 165.778C920.734 164.998 920.518 164.098 920.518 163.078C920.518 162.058 920.74 161.158 921.184 160.378C921.64 159.598 922.258 158.998 923.038 158.578C923.818 158.146 924.688 157.93 925.648 157.93C926.608 157.93 927.478 158.146 928.258 158.578C929.038 158.998 929.65 159.598 930.094 160.378C930.55 161.158 930.778 162.058 930.778 163.078C930.778 164.098 930.544 164.998 930.076 165.778C929.62 166.558 928.996 167.164 928.204 167.596C927.424 168.016 926.548 168.226 925.576 168.226ZM925.576 166.03C926.032 166.03 926.458 165.922 926.854 165.706C927.262 165.478 927.586 165.142 927.826 164.698C928.066 164.254 928.186 163.714 928.186 163.078C928.186 162.13 927.934 161.404 927.43 160.9C926.938 160.384 926.332 160.126 925.612 160.126C924.892 160.126 924.286 160.384 923.794 160.9C923.314 161.404 923.074 162.13 923.074 163.078C923.074 164.026 923.308 164.758 923.776 165.274C924.256 165.778 924.856 166.03 925.576 166.03ZM937.199 160.162H935.453V168.064H932.897V160.162H931.763V158.092H932.897V157.588C932.897 156.364 933.245 155.464 933.941 154.888C934.637 154.312 935.687 154.042 937.091 154.078V156.202C936.479 156.19 936.053 156.292 935.813 156.508C935.573 156.724 935.453 157.114 935.453 157.678V158.092H937.199V160.162ZM945.641 166.066H949.781V168.064H943.121V155.5H945.641V166.066ZM950.735 163.042C950.735 162.034 950.933 161.14 951.329 160.36C951.737 159.58 952.283 158.98 952.967 158.56C953.663 158.14 954.437 157.93 955.289 157.93C956.033 157.93 956.681 158.08 957.233 158.38C957.797 158.68 958.247 159.058 958.583 159.514V158.092H961.121V168.064H958.583V166.606C958.259 167.074 957.809 167.464 957.233 167.776C956.669 168.076 956.015 168.226 955.271 168.226C954.431 168.226 953.663 168.01 952.967 167.578C952.283 167.146 951.737 166.54 951.329 165.76C950.933 164.968 950.735 164.062 950.735 163.042ZM958.583 163.078C958.583 162.466 958.463 161.944 958.223 161.512C957.983 161.068 957.659 160.732 957.251 160.504C956.843 160.264 956.405 160.144 955.937 160.144C955.469 160.144 955.037 160.258 954.641 160.486C954.245 160.714 953.921 161.05 953.669 161.494C953.429 161.926 953.309 162.442 953.309 163.042C953.309 163.642 953.429 164.17 953.669 164.626C953.921 165.07 954.245 165.412 954.641 165.652C955.049 165.892 955.481 166.012 955.937 166.012C956.405 166.012 956.843 165.898 957.251 165.67C957.659 165.43 957.983 165.094 958.223 164.662C958.463 164.218 958.583 163.69 958.583 163.078ZM969.108 157.948C970.296 157.948 971.256 158.326 971.988 159.082C972.72 159.826 973.086 160.87 973.086 162.214V168.064H970.566V162.556C970.566 161.764 970.368 161.158 969.972 160.738C969.576 160.306 969.036 160.09 968.352 160.09C967.656 160.09 967.104 160.306 966.696 160.738C966.3 161.158 966.102 161.764 966.102 162.556V168.064H963.582V158.092H966.102V159.334C966.438 158.902 966.864 158.566 967.38 158.326C967.908 158.074 968.484 157.948 969.108 157.948ZM974.834 163.042C974.834 162.034 975.032 161.14 975.428 160.36C975.836 159.58 976.388 158.98 977.084 158.56C977.78 158.14 978.554 157.93 979.406 157.93C980.054 157.93 980.672 158.074 981.26 158.362C981.848 158.638 982.316 159.01 982.664 159.478V154.744H985.22V168.064H982.664V166.588C982.352 167.08 981.914 167.476 981.35 167.776C980.786 168.076 980.132 168.226 979.388 168.226C978.548 168.226 977.78 168.01 977.084 167.578C976.388 167.146 975.836 166.54 975.428 165.76C975.032 164.968 974.834 164.062 974.834 163.042ZM982.682 163.078C982.682 162.466 982.562 161.944 982.322 161.512C982.082 161.068 981.758 160.732 981.35 160.504C980.942 160.264 980.504 160.144 980.036 160.144C979.568 160.144 979.136 160.258 978.74 160.486C978.344 160.714 978.02 161.05 977.768 161.494C977.528 161.926 977.408 162.442 977.408 163.042C977.408 163.642 977.528 164.17 977.768 164.626C978.02 165.07 978.344 165.412 978.74 165.652C979.148 165.892 979.58 166.012 980.036 166.012C980.504 166.012 980.942 165.898 981.35 165.67C981.758 165.43 982.082 165.094 982.322 164.662C982.562 164.218 982.682 163.69 982.682 163.078ZM996.309 168.19C995.433 168.19 994.641 168.04 993.933 167.74C993.237 167.44 992.685 167.008 992.277 166.444C991.869 165.88 991.659 165.214 991.647 164.446H994.347C994.383 164.962 994.563 165.37 994.887 165.67C995.223 165.97 995.679 166.12 996.255 166.12C996.843 166.12 997.305 165.982 997.641 165.706C997.977 165.418 998.145 165.046 998.145 164.59C998.145 164.218 998.031 163.912 997.803 163.672C997.575 163.432 997.287 163.246 996.939 163.114C996.603 162.97 996.135 162.814 995.535 162.646C994.719 162.406 994.053 162.172 993.537 161.944C993.033 161.704 992.595 161.35 992.223 160.882C991.863 160.402 991.683 159.766 991.683 158.974C991.683 158.23 991.869 157.582 992.241 157.03C992.613 156.478 993.135 156.058 993.807 155.77C994.479 155.47 995.247 155.32 996.111 155.32C997.407 155.32 998.457 155.638 999.261 156.274C1000.08 156.898 1000.53 157.774 1000.61 158.902H997.839C997.815 158.47 997.629 158.116 997.281 157.84C996.945 157.552 996.495 157.408 995.931 157.408C995.439 157.408 995.043 157.534 994.743 157.786C994.455 158.038 994.311 158.404 994.311 158.884C994.311 159.22 994.419 159.502 994.635 159.73C994.863 159.946 995.139 160.126 995.463 160.27C995.799 160.402 996.267 160.558 996.867 160.738C997.683 160.978 998.349 161.218 998.865 161.458C999.381 161.698 999.825 162.058 1000.2 162.538C1000.57 163.018 1000.75 163.648 1000.75 164.428C1000.75 165.1 1000.58 165.724 1000.23 166.3C999.885 166.876 999.375 167.338 998.703 167.686C998.031 168.022 997.233 168.19 996.309 168.19ZM1007.37 168.226C1006.41 168.226 1005.54 168.016 1004.78 167.596C1004.01 167.164 1003.4 166.558 1002.96 165.778C1002.53 164.998 1002.31 164.098 1002.31 163.078C1002.31 162.058 1002.53 161.158 1002.98 160.378C1003.43 159.598 1004.05 158.998 1004.83 158.578C1005.61 158.146 1006.48 157.93 1007.44 157.93C1008.4 157.93 1009.27 158.146 1010.05 158.578C1010.83 158.998 1011.44 159.598 1011.89 160.378C1012.34 161.158 1012.57 162.058 1012.57 163.078C1012.57 164.098 1012.34 164.998 1011.87 165.778C1011.41 166.558 1010.79 167.164 1010 167.596C1009.22 168.016 1008.34 168.226 1007.37 168.226ZM1007.37 166.03C1007.82 166.03 1008.25 165.922 1008.65 165.706C1009.05 165.478 1009.38 165.142 1009.62 164.698C1009.86 164.254 1009.98 163.714 1009.98 163.078C1009.98 162.13 1009.73 161.404 1009.22 160.9C1008.73 160.384 1008.12 160.126 1007.4 160.126C1006.68 160.126 1006.08 160.384 1005.59 160.9C1005.11 161.404 1004.87 162.13 1004.87 163.078C1004.87 164.026 1005.1 164.758 1005.57 165.274C1006.05 165.778 1006.65 166.03 1007.37 166.03ZM1016.94 154.744V168.064H1014.42V154.744H1016.94ZM1018.78 163.042C1018.78 162.034 1018.98 161.14 1019.37 160.36C1019.78 159.58 1020.33 158.98 1021.03 158.56C1021.73 158.14 1022.5 157.93 1023.35 157.93C1024 157.93 1024.62 158.074 1025.21 158.362C1025.79 158.638 1026.26 159.01 1026.61 159.478V154.744H1029.17V168.064H1026.61V166.588C1026.3 167.08 1025.86 167.476 1025.3 167.776C1024.73 168.076 1024.08 168.226 1023.33 168.226C1022.49 168.226 1021.73 168.01 1021.03 167.578C1020.33 167.146 1019.78 166.54 1019.37 165.76C1018.98 164.968 1018.78 164.062 1018.78 163.042ZM1026.63 163.078C1026.63 162.466 1026.51 161.944 1026.27 161.512C1026.03 161.068 1025.7 160.732 1025.3 160.504C1024.89 160.264 1024.45 160.144 1023.98 160.144C1023.51 160.144 1023.08 160.258 1022.69 160.486C1022.29 160.714 1021.97 161.05 1021.71 161.494C1021.47 161.926 1021.35 162.442 1021.35 163.042C1021.35 163.642 1021.47 164.17 1021.71 164.626C1021.97 165.07 1022.29 165.412 1022.69 165.652C1023.09 165.892 1023.53 166.012 1023.98 166.012C1024.45 166.012 1024.89 165.898 1025.3 165.67C1025.7 165.43 1026.03 165.094 1026.27 164.662C1026.51 164.218 1026.63 163.69 1026.63 163.078ZM1037.19 156.904C1036.75 156.904 1036.38 156.766 1036.08 156.49C1035.79 156.202 1035.65 155.848 1035.65 155.428C1035.65 155.008 1035.79 154.66 1036.08 154.384C1036.38 154.096 1036.75 153.952 1037.19 153.952C1037.64 153.952 1038 154.096 1038.29 154.384C1038.59 154.66 1038.74 155.008 1038.74 155.428C1038.74 155.848 1038.59 156.202 1038.29 156.49C1038 156.766 1037.64 156.904 1037.19 156.904ZM1038.44 158.092V168.064H1035.92V158.092H1038.44ZM1046.45 157.948C1047.64 157.948 1048.6 158.326 1049.33 159.082C1050.06 159.826 1050.43 160.87 1050.43 162.214V168.064H1047.91V162.556C1047.91 161.764 1047.71 161.158 1047.32 160.738C1046.92 160.306 1046.38 160.09 1045.7 160.09C1045 160.09 1044.45 160.306 1044.04 160.738C1043.64 161.158 1043.45 161.764 1043.45 162.556V168.064H1040.93V158.092H1043.45V159.334C1043.78 158.902 1044.21 158.566 1044.72 158.326C1045.25 158.074 1045.83 157.948 1046.45 157.948ZM1057.62 165.22C1058.77 164.26 1059.69 163.462 1060.37 162.826C1061.06 162.178 1061.63 161.506 1062.08 160.81C1062.54 160.114 1062.77 159.43 1062.77 158.758C1062.77 158.146 1062.62 157.666 1062.34 157.318C1062.05 156.97 1061.6 156.796 1061 156.796C1060.4 156.796 1059.94 157 1059.62 157.408C1059.29 157.804 1059.13 158.35 1059.11 159.046H1056.67C1056.71 157.606 1057.14 156.514 1057.94 155.77C1058.76 155.026 1059.79 154.654 1061.04 154.654C1062.41 154.654 1063.46 155.02 1064.19 155.752C1064.92 156.472 1065.29 157.426 1065.29 158.614C1065.29 159.55 1065.04 160.444 1064.53 161.296C1064.03 162.148 1063.45 162.892 1062.8 163.528C1062.16 164.152 1061.31 164.908 1060.27 165.796H1065.58V167.884H1056.68V166.012L1057.62 165.22ZM1067.16 161.332C1067.16 159.256 1067.54 157.63 1068.28 156.454C1069.04 155.278 1070.28 154.69 1072.02 154.69C1073.76 154.69 1075.01 155.278 1075.75 156.454C1076.51 157.63 1076.88 159.256 1076.88 161.332C1076.88 163.42 1076.51 165.058 1075.75 166.246C1075.01 167.434 1073.76 168.028 1072.02 168.028C1070.28 168.028 1069.04 167.434 1068.28 166.246C1067.54 165.058 1067.16 163.42 1067.16 161.332ZM1074.4 161.332C1074.4 160.444 1074.34 159.7 1074.22 159.1C1074.11 158.488 1073.88 157.99 1073.54 157.606C1073.2 157.222 1072.7 157.03 1072.02 157.03C1071.35 157.03 1070.84 157.222 1070.49 157.606C1070.16 157.99 1069.93 158.488 1069.81 159.1C1069.7 159.7 1069.65 160.444 1069.65 161.332C1069.65 162.244 1069.7 163.012 1069.81 163.636C1069.92 164.248 1070.15 164.746 1070.49 165.13C1070.84 165.502 1071.35 165.688 1072.02 165.688C1072.7 165.688 1073.21 165.502 1073.55 165.13C1073.9 164.746 1074.13 164.248 1074.24 163.636C1074.35 163.012 1074.4 162.244 1074.4 161.332ZM1079.59 165.22C1080.74 164.26 1081.66 163.462 1082.35 162.826C1083.03 162.178 1083.6 161.506 1084.06 160.81C1084.51 160.114 1084.74 159.43 1084.74 158.758C1084.74 158.146 1084.6 157.666 1084.31 157.318C1084.02 156.97 1083.58 156.796 1082.98 156.796C1082.38 156.796 1081.91 157 1081.59 157.408C1081.27 157.804 1081.1 158.35 1081.09 159.046H1078.64C1078.69 157.606 1079.11 156.514 1079.92 155.77C1080.73 155.026 1081.76 154.654 1083.01 154.654C1084.38 154.654 1085.43 155.02 1086.16 155.752C1086.89 156.472 1087.26 157.426 1087.26 158.614C1087.26 159.55 1087.01 160.444 1086.5 161.296C1086 162.148 1085.42 162.892 1084.78 163.528C1084.13 164.152 1083.28 164.908 1082.24 165.796H1087.55V167.884H1078.66V166.012L1079.59 165.22ZM1089.17 158.398C1089.23 157.198 1089.65 156.274 1090.43 155.626C1091.22 154.966 1092.26 154.636 1093.55 154.636C1094.42 154.636 1095.17 154.792 1095.8 155.104C1096.42 155.404 1096.89 155.818 1097.2 156.346C1097.52 156.862 1097.69 157.45 1097.69 158.11C1097.69 158.866 1097.49 159.508 1097.09 160.036C1096.71 160.552 1096.25 160.9 1095.71 161.08V161.152C1096.4 161.368 1096.94 161.752 1097.33 162.304C1097.72 162.856 1097.92 163.564 1097.92 164.428C1097.92 165.148 1097.75 165.79 1097.42 166.354C1097.09 166.918 1096.61 167.362 1095.96 167.686C1095.32 167.998 1094.55 168.154 1093.65 168.154C1092.3 168.154 1091.19 167.812 1090.34 167.128C1089.49 166.444 1089.04 165.436 1088.99 164.104H1091.44C1091.46 164.692 1091.66 165.166 1092.03 165.526C1092.42 165.874 1092.94 166.048 1093.6 166.048C1094.21 166.048 1094.68 165.88 1095 165.544C1095.34 165.196 1095.51 164.752 1095.51 164.212C1095.51 163.492 1095.28 162.976 1094.82 162.664C1094.37 162.352 1093.66 162.196 1092.7 162.196H1092.18V160.126H1092.7C1094.4 160.126 1095.26 159.556 1095.26 158.416C1095.26 157.9 1095.1 157.498 1094.79 157.21C1094.49 156.922 1094.05 156.778 1093.47 156.778C1092.91 156.778 1092.47 156.934 1092.16 157.246C1091.86 157.546 1091.69 157.93 1091.64 158.398H1089.17Z" fill="#3D3D3D"/>
</svg>
